<?xml version="1.0" encoding="UTF-8"?>
<svg id="Layer_1" xmlns="http://www.w3.org/2000/svg" version="1.1" viewBox="0 0 1175 1175">
  <!-- Generator: Adobe Illustrator 30.1.0, SVG Export Plug-In . SVG Version: 2.1.1 Build 136)  -->
  <defs>
    <style>
      .st0 {
        fill: #f4e0df;
      }

      .st1 {
        fill: #513e45;
      }

      .st2 {
        fill: #a07f76;
      }

      .st3 {
        fill: #7b645e;
      }

      .st4 {
        fill: #4c3033;
      }

      .st5 {
        fill: #41130a;
      }

      .st6 {
        fill: #f5f3f4;
      }

      .st7 {
        fill: #ad8676;
      }

      .st8 {
        fill: #4b373f;
      }

      .st9 {
        fill: #936eba;
      }

      .st10 {
        fill: #2c0503;
      }

      .st11 {
        fill: #6a423c;
      }

      .st12 {
        fill: #b0a4a4;
      }

      .st13 {
        fill: #876a62;
      }

      .st14 {
        fill: #361e18;
      }

      .st15 {
        fill: #361e16;
      }

      .st16 {
        fill: #efdeda;
      }

      .st17 {
        fill: #664740;
      }

      .st18 {
        fill: #a99ba0;
      }

      .st19 {
        fill: #ab8981;
      }

      .st20 {
        fill: #bdb1b1;
      }

      .st21 {
        fill: #654e4a;
      }

      .st22 {
        fill: #9d8679;
      }

      .st23 {
        fill: #310504;
      }

      .st24 {
        fill: #e0ccc8;
      }

      .st25 {
        fill: #411510;
      }

      .st26 {
        fill: #d6c9c8;
      }

      .st27 {
        fill: #6d595c;
      }

      .st28 {
        fill: #f3e3dd;
      }

      .st29 {
        fill: #624749;
      }

      .st30 {
        fill: #fdfcfd;
      }

      .st31 {
        fill: #fbfcfc;
      }

      .st32 {
        fill: #81b5cd;
      }

      .st33 {
        fill: #3d1e15;
      }

      .st34 {
        fill: #421717;
      }

      .st35 {
        fill: #cfd1d8;
      }

      .st36 {
        fill: #40256b;
      }

      .st37 {
        fill: #fcfbfb;
      }

      .st38 {
        fill: #735755;
      }

      .st39 {
        fill: #3e100b;
      }

      .st40 {
        fill: #fbf5ec;
      }

      .st41 {
        fill: #bb9895;
      }

      .st42 {
        fill: #502b27;
      }

      .st43 {
        fill: #6ea4c1;
      }

      .st44 {
        fill: #92624c;
      }

      .st45 {
        fill: #fcfdfc;
      }

      .st46 {
        fill: #451d13;
      }

      .st47 {
        fill: #aa9a99;
      }

      .st48 {
        fill: #5f4d50;
      }

      .st49 {
        fill: #371d1a;
      }

      .st50 {
        fill: #517e95;
      }

      .st51 {
        fill: #b59690;
      }

      .st52 {
        fill: #ac8dd3;
      }

      .st53 {
        fill: #4f2825;
      }

      .st54 {
        fill: #80544a;
      }

      .st55 {
        fill: #3d2119;
      }

      .st56 {
        fill: #321310;
      }

      .st57 {
        fill: #f2ebe7;
      }

      .st58 {
        fill: #c6b1ab;
      }

      .st59 {
        fill: #b7b1b5;
      }

      .st60 {
        fill: #7f7374;
      }

      .st61 {
        fill: #fbfafb;
      }

      .st62 {
        fill: #f9f4e8;
      }

      .st63 {
        fill: #3b1f17;
      }

      .st64 {
        fill: #ae5215;
      }

      .st65 {
        fill: #36100c;
      }

      .st66 {
        fill: #a9817b;
      }

      .st67 {
        fill: #f8f7f6;
      }

      .st68 {
        fill: #301c1c;
      }

      .st69 {
        fill: #e1b070;
      }

      .st70 {
        fill: #c9b3a9;
      }

      .st71 {
        fill: #ac9999;
      }

      .st72 {
        fill: #e1dde2;
      }

      .st73 {
        fill: #9e918f;
      }

      .st74 {
        fill: #e9d7d5;
      }

      .st75 {
        fill: #e2cec3;
      }

      .st76 {
        fill: #998987;
      }

      .st77 {
        fill: #3e1109;
      }

      .st78 {
        fill: #d6cccd;
      }

      .st79 {
        fill: #d6d3d3;
      }

      .st80 {
        fill: #b2a6a4;
      }

      .st81 {
        fill: #ddd7d9;
      }

      .st82 {
        fill: #4c393f;
      }

      .st83 {
        fill: #f0ded9;
      }

      .st84 {
        fill: #aa9fa1;
      }

      .st85 {
        fill: #fbfcfb;
      }

      .st86 {
        fill: #fbfbfb;
      }

      .st87 {
        fill: #fcfcfc;
      }

      .st88 {
        fill: #3d1e66;
      }

      .st89 {
        fill: #aa9c9f;
      }

      .st90 {
        fill: #3d150f;
      }

      .st91 {
        fill: #383941;
      }

      .st92 {
        fill: #f1ba93;
      }

      .st93 {
        fill: #eadcf9;
      }

      .st94 {
        fill: #523e46;
      }

      .st95 {
        fill: #574144;
      }

      .st96 {
        fill: #e0d6d8;
      }

      .st97 {
        fill: #a59c9b;
      }

      .st98 {
        fill: #d57f37;
      }

      .st99 {
        fill: #5b4039;
      }

      .st100 {
        fill: #f3e4de;
      }

      .st101 {
        fill: #f8f7f7;
      }

      .st102 {
        fill: #f7e7da;
      }

      .st103 {
        fill: #fafbfa;
      }

      .st104 {
        fill: #fdfdfd;
      }
    </style>
  </defs>
  <path class="st93" d="M.1,586.9C.1,393,.1,199.2,0,5.3,0,1,1,0,5.3,0c388.2.1,776.3.1,1164.5,0,4.3,0,5.3,1,5.3,5.3-.1,388.2-.1,776.3,0,1164.5,0,4.3-1,5.3-5.3,5.3-388.2-.1-776.3-.1-1164.5,0-4.3,0-5.3-1-5.3-5.3.1-194.3.1-388.5.1-582.8Z"/>
  <path class="st10" d="M372.5,1016.9c-5.7-18.3-.8-28.4,18-36.5-6.4-2.7-13-1.3-19.2-2.5-15.6-2.9-28.1-10.6-37.5-23.2-5.9-8-5.2-16.5,1.2-24.1,5.4-6.4,12.1-10.6,20.3-12,4.9-.9,6.3-2.6,5.8-7.8-2-21.6,6.1-38.5,26-47.8,15.5-7.2,29-17.6,44.4-24.7,9-4.2,13-8.9,10.2-19.4-2.1-7.8,2-11.9,10.1-13.4,3-.5,6-.8,9.4-1.3-2.2-10-4.6-19.9-6.4-29.9-1-5.5-2.7-9.9-7-14.1-7.1-6.9-8.7-16.8-10.4-26.2-2.4-13.8-1.3-27.1,7.3-38.8,1.3-1.7,1.1-3.5,1.2-5.4.5-12.4,7.4-21.9,19.4-25.3,4.9-1.4,8.1-4.2,11.5-7.8,21.7-23.6,37.5-51.4,56.1-77.3,7-9.8,14-19.6,21.1-29.3,1.5-2,2.7-4.1,3.1-6.7,1.2-8.6,4-16.7,7.9-24.4,1.8-3.6,1.4-4.9-2.9-5.8-26.6-5.5-51-15.5-71.6-33.8-22.8-20.2-34.9-45.4-36.3-75.7-.2-4.5-1.6-7.6-5.1-10.6-13.7-11.8-19-27.7-21.3-44.9-1.7-12.8-2.1-25.8-4.6-38.6-2.2-11.1,2-16.6,13.4-19.4,13.6-3.4,27.6-4.1,41.5-3.8,5.3.1,9.1-1.2,12.9-5.3,10.1-11.1,21.8-20.4,35.1-27.3,6-3.1,5.9-6.2,3.6-11.5-9-21-23.7-37.3-41.8-50.6-36.9-27.2-77.5-46.3-122.5-55.7-12.3-2.6-24.7-1.3-37.1-1.7-5-.1-9.9-.6-14.6-2.4-7.4-2.9-11.9-9-11.9-16,0-6.8,4.7-12.8,12.3-15.5,12.6-4.5,25.4-2.7,37.9-.3,62.6,12.2,118.1,39.1,166.6,80.4,17.4,14.9,32.2,32,39.9,54.2.7,2,1.2,3.5,4.3,2.6,42.5-12.7,84.6-12.7,126.1,4,.2,0,.4,0,1,0,.6-2.3.1-4.7-.3-7-3.9-19.1-13.1-35.4-26.4-49.3-24.7-26-53.9-44.7-88.2-55.4-9.5-3-19.5-3.4-29.4-4.5-5.9-.6-11.8-1.5-16.9-4.8-5.7-3.7-9.3-8.7-8.7-15.7.5-7,4.9-11.4,11.2-14,10.1-4.1,20.3-2.8,30.4-.5,22.6,5.1,43.2,15.2,62.7,27.3,28.2,17.5,54.2,37.8,73.5,65.3,14.9,21.3,25.1,44.1,21.6,71-.3,2.4,1,3.5,2.6,4.6,12.4,9.4,23.9,19.6,32.6,32.7,2.5,3.9,6.8,6.2,10.5,8.8,7,4.9,11.7,10.9,11.8,19.8.2,14.2,4.3,27.9,5.4,42,3.2,42-11.4,77-41.2,106.2-6.7,6.6-14.1,12.3-21.9,17.5-7.8,5.1-16.2,9.2-25,13.6,8.6,7.8,16,16.1,21.3,26,.9,1.6,2.7,1.9,4.3,2.6,33.8,14.8,63,36.3,90.3,60.7,3.1,2.8,5.9,6,8.4,9.4,5.2,7,4.6,13.3-1.8,19.4-2.7,2.6-5.7,5.2-8.9,7.2-3,1.9-3.2,3.4-.9,6.1,8.4,10.2,16,20.9,21.4,33,23.9,53.4,16.4,113.9-27.4,156.2-15.9,15.4-35.2,25.4-56.7,30.9-4.1,1-5,2.4-3.6,6.5,4.2,12,8,24.2,11.9,36.4.8,2.6,1.7,4.5,4.9,4.4,1.9,0,3.8.6,5.6,1.2,8.5,2.6,11,6.4,10,15.3-.8,6.8-1.4,12.2,3.9,19,12.8,16.4,22.8,34.8,27.1,55.5,2,9.6.6,19.4-.7,29.1-.2,4.6,1.6,6.8,6.6,6.6,3.6-.1,7.2.7,10.7,1.9,2,.7,4.1,1.7,4,4.3-.1,2.4-2.1,3.6-4.1,4.2-4.6,1.2-9.4,1.9-14.1,1.9-37,0-74.1,0-111.1,0-5.5,0-11-1.1-16.5-1.3-3-.1-6-1.2-6.2-4.7-.1-3.6,3.1-4.5,5.9-5,3.9-.7,7.9-1.4,11.9-1.5,7.1-.1,7.1-.2,4.6-6.6-1.5-14.8-1.4-29.8-.4-44.6,1.2-17.9,2.4-35.8,1.8-53.7-.3-9.7,3.1-16.3,12.6-19.1,3.2-.9,3.7-3,2.5-5.7-4.8-11.2-9.1-22.7-13.3-34.1-1.5-4.1-5.1-4.8-8.7-5.3-17.3-2.6-33.9-7.4-49.4-15.6-37.8-20-62.7-50.3-73.3-91.9-1-4-3.2-5.9-7.1-6.1-15-1-30-2.7-44.9-4.9-3.5-.5-4.5.9-4.1,4.1,1.2,11.2-4.4,18.1-14.3,22.1-2.9,1.2-3.6,2.9-2.9,5.8,2.9,10.7,5.6,21.4,8,32.2.7,3,2.2,4.8,5.4,4.9,1,0,1.9.2,2.8.4,12.9,2.4,18.5,8.1,19.1,21.2,1,21.8,5.4,43.1,7.7,64.8,1.1,10.6,1.6,21.3-.6,31.9-.8,3.7.7,4.2,3.7,4.3,10,.3,19.8-.1,29.2-4.4,5.2-2.4,10.8-3.4,16.7-3.7,9.5-.6,16.5,3.5,22.3,10.6,6.2,7.7,6,14.8-.8,22.1-7.6,8.1-17.1,13.3-26.9,18.1-10,4.9-20.6,8-32.5,9.4,8.4,2.1,13.3,7,16.3,14.1,3.1,7.3,2.1,14.2-1.2,21-.3.5-.6,1-.9,1.5q-3.5,4.9,2.2,6.9c2.3.8,4.4,2.1,4,4.8-.3,2.8-2.8,3.4-5.2,3.6-7.8.6-15.6.4-23.4.9-14.3.9-28.6.9-42.9,0-5.4-1.5-11-.4-16.5-.8-5.1-.4-6.1-1.7-5.3-6.8,1.8-2.5,4.8-1.5,7.3-2.2-1.3-2.6-2.8-5-4-7.5-2.6-9.6-1.9-18.5,4.8-26.4,3.5-4.1,2.8-6.7-2.3-7.1-10.3-1-20.6-.5-30.9-.2-3.4,0-3,2.2-1.5,4.3,3.5,4.9,5.5,10.4,5.5,16.5,0,4.7-.8,9.1-3.6,13-2.2,3.4-5.3,5.8-8.7,8-.6.3-1.2.5-1.8.7-2.6,1.2-5.4,2-8.3,2.1-3.8.2-7.5.2-10,4-1.5,2.2-4.5,1.7-6.9,1.7-14.8,0-29.7.1-44.5,0-2.4-.3-4.6-.9-4.6-3.9,0-2.9,2.4-3.9,4.6-4,6.1-.4,5.1-3.5,3.1-7.2Z"/>
  <path class="st39" d="M816.1,337.9c.2,5-4.3,9.7-9.3,9.8-5,0-9-3.8-9.2-8.9-.2-5.4,3.2-9.4,8.4-9.7,5.2-.3,10,3.8,10.1,8.8Z"/>
  <path class="st65" d="M475.6,561.4c-1.6-.3-2-1.6-2.2-3-.3-3.8-2.1-5.9-6-6.1-1.4,0-3.3-.9-3.1-2.7.1-1.7,1.9-1.5,3.2-1.7,3.7-.5,5.9-2.2,6-6.2,0-1.5,0-3.2,2.2-3.3,1.9,0,3,1.3,3,2.8.1,4.5,2.7,6.3,6.7,6.7,1.2.1,2.2.6,2.1,2.1,0,1.1-.9,1.7-1.9,1.7-4.9.2-6.8,3.3-7.6,7.6-.2,1.1-1.1,2-2.4,2.1Z"/>
  <path class="st5" d="M853,665.3c.1-4.8,3.1-7.7,8-7.7,4.7,0,8.1,3.4,7.9,7.8-.2,4.3-4.2,8.2-8.1,8.1-4.3-.1-7.9-3.9-7.8-8.2Z"/>
  <path class="st77" d="M489.7,526.4c-4-.6-7.2-2.4-7.6-7-.4-4,3.4-8,7.3-8.1,4.1,0,8,3.6,7.7,7.6-.3,4.4-2.7,7-7.4,7.5Z"/>
  <path class="st25" d="M411.5,606c4.3.5,6.6,2.5,6.6,6.3,0,3.9-2.6,6.2-6.2,6.2-3.7,0-6.6-2-6.4-6.4.2-4,2.8-5.5,5.9-6Z"/>
  <path class="st46" d="M364.8,731c-3.4-.8-5.8-2.4-5.8-6.1,0-3.9,2.5-6,6.2-5.9,3.5,0,5.9,2.4,5.8,5.9,0,3.7-2.8,5.6-6.3,6.2Z"/>
  <path class="st33" d="M458.6,106.4c3.2.4,5.3,1.8,5.2,4.7,0,3.1-2.1,5.1-5.1,5-3.1,0-4.8-2.2-4.6-5.3.1-3,2.2-4.2,4.5-4.4Z"/>
  <path class="st90" d="M843.5,523.7c3,.4,5.2,1.8,4.9,5.1-.2,3.1-2.2,4.9-5.3,4.7-2.7-.2-4.9-1.7-4.7-4.7.2-2.9,1.8-4.9,5.1-5Z"/>
  <path class="st55" d="M372.7,830.6c-3-.8-5.2-2-4.9-5.4.2-2.7,1.8-4.3,4.4-4.3,3,0,5.1,1.7,5.1,4.9,0,3-2.1,4.2-4.5,4.7Z"/>
  <path class="st15" d="M855.2,905.1c-.4,2.4-1.8,3.9-4.2,4-2.3,0-4.1-1.1-4.1-3.7,0-2.4,1.2-4,3.8-3.9,2.3,0,4,1.1,4.4,3.6Z"/>
  <path class="st93" d="M696,1016.5c-27.8,0-55.5,0-83.3-.3-14.8-.2-29.7.1-44.6.4-2.4,0-5.1.6-6.5-2.3,4.6-12,2.4-22.1-6.1-29-3.7-3-8.1-4-13.3-4.3,2.8-3.2,6.2-2.4,8.9-2.8,18.8-2.9,35.2-10.9,50.1-22.3,2.3-1.7,4.3-3.8,6.1-6,4.5-5.7,4.3-11.3,0-17.2-7.2-10.1-17-12.9-28.7-10.4-2.6.6-5.3,1.1-7.7,2.3-12.3,6.1-25.4,6-38.6,4.9,6.4-17.7,2.7-35.6.3-53.3-2.1-15.7-4.6-31.3-5.4-47.2-.7-14.9-6.6-20.9-21.6-21.8-3.6-.2-5-1.5-5.6-4.7-2.5-12.3-5.3-24.6-9.1-36.6-.8-2.6-.3-3.5,2.4-4.3,13.3-4.1,17.1-10.2,15.2-24.5-.4-2.5-.4-3.5,2.5-3,17.3,3.1,34.8,4.5,52.3,6.2,2.6.3,3.7,1,4.3,3.9,9.8,43.6,35.7,74.7,75.1,94.9,15.8,8.1,32.6,13,50.3,14.5,3.4.3,4.9,1.8,6.1,4.8,4.7,12.3,9.5,24.5,14.5,36.7,1.4,3.4,1.4,5.1-2.9,6.4-10.8,3.1-12.9,6-12.5,17.3.9,22.2-1.7,44.2-2.7,66.3-.5,10.5.1,21,.5,31.5Z"/>
  <path class="st9" d="M719.8,384.1c11.7-12.6,17.8-27.7,19.7-44.6,3.3-1.3,3.3,1.5,3.8,3.3,7.4,25.8,5.9,51-5.2,75.4-13,28.7-35.5,47.6-63.6,60.5-16.6,7.7-34,12.8-52,15-31.2,3.8-62.1,3.4-92.1-7.4-3.4-1.2-6.7-2.9-10-4.1-9.6-2.7-14-11.3-20.2-17.9-2.9-3.1-4.6-7-7.4-10.2-5.5-10.3-8.8-21.3-11.3-32.6-.4-1.9-.3-3.8.8-5.5,2.9-2.2,6.2-1.3,9.4-1.5,15.5-.6,30.4-3.2,43.1-13,2.6-2,4.8-4.2,6.6-7,6.9-11.6,11-24.3,15.6-36.8,1.2-3.4,2.3-6.9,4.4-9.9,2.5-3.6,4.8-7.7,10.2-7.1,5.9.6,10.7,3.2,13.2,8.8,2.1,4.7,3.9,9.6,5.4,14.5,2.2,6.9,5.5,13.4,8.2,20.1,5.5,13.2,15.4,21.1,28.8,24.8,24.4,6.8,48.2,6.1,71.3-5.5,9-4.5,15.5-11.6,21.4-19.4Z"/>
  <path class="st9" d="M699.5,748.2c-1.3-3-2.4-6-3.9-8.9-4.1-7.6-11.3-11.1-18.3-9.3-7.5,2-13,9.2-13.6,17.1-.5,6.3,1.6,12,3.4,17.8.9,2.9,1.7,5.8,2.5,8.8.2,2.9-2,3.4-4,3.9-20.7,4.6-41.3,4.1-60.8-4.9-8.8-4.1-16.4-10.4-19.9-20.1-1.2-9.2-3.3-18.2-3-27.7.5-21.3,8-39.8,21.4-55.9,2.9-3.5,5.2-7.5,8.8-10.5,2.1-1.1,4.2-2.2,6.3-3.2,5.9,3.4,12.6,4.9,19.1,5.3,16.9,1,33.9,1.4,50.2-4.4,1.4-.5,2.9-1,4.4-1.2,4.2-.6,5.3.6,5.2,5.4-5.4,10-3.8,20.8-3.3,31.4.6,12.7,1.1,25.6,8.1,36.9,1.6,2.6,3.5,5,5.2,7.5.8,5.4-2.4,10.6-7.6,12.2Z"/>
  <path class="st9" d="M688.8,538.9c.5,6.6,5.5,10.3,9.5,14.7,4.8,10,2,20.3.4,30.3-2.4,14.7-9,27.5-19.4,38.2-11.5,11.7-25.9,17-42.1,18-7.9.5-15.6-.9-23.3-2-7.1-2.6-11.2-8.7-15.7-14.2-4.8-5.9-8.2-12.7-11.6-19.5-8.8-22.3-11-45-4.7-68.3.5-1.7.8-3.3,2.2-4.5,2.6-1.5,4.7-.2,6.9,1.1,25.1,14.5,50.6,12.1,76.1,1.3,3.1-1.3,6.2-3,9.3-4.2,7.2-2.9,11.1-.4,11.9,7.5,0,.6.2,1.1.4,1.6Z"/>
  <path class="st9" d="M685.2,253.4c5.1.9,8.7,2.8,8.8,9,0,2.3-.2,5.4,2.3,7.4,9.7-25.8,4-49.6-8.6-72.6-.8-1.5-1.6-3-2.5-4.5.3-1.2,1.3-1.8,2.4-2,17.1,22.5,26.8,46.7,17.2,75.3-.8,2.8-1.2,5.3,2.8,5.9,2.1.3,2.8,1.7,2.6,3.7-.2,2.1-1.5,3.2-3.3,3.4-3,.3-6,.7-9-.3h-4.4c-5.3,1.3-10.8-.3-16.1.9-25.2,1.2-50.2,3.5-74.1,11.8-8.4,2.9-16.6,3.4-25.3,4-15.6,1-29.9-3.6-44.8-6-4.5-.7-9.1.5-13.5-1.2,13.8-7.5,25-19,39.8-25.3,21.5-9.2,43.6-15,67-15.6,12.2-.3,24.4-.4,36.5,1.1,7.6,1,14.6,4.1,22.2,5Z"/>
  <path class="st36" d="M519.1,481.5c3-.5,5.5,1.1,8.2,2.1,26.9,10,54.7,12,83.2,9.7,23.5-1.8,45.9-7.1,66.8-17.6,36.6-18.2,61.5-45.9,67.9-87.8,2.5-16-.4-31.4-3.8-46.8-.3-1.1-.9-1.6-2-1.6.7-5.4,1.4-10.9,1.9-16.3.3-2.5,1-3.6,3.6-2.1,5.9,3.4,11.9,6.8,17.8,10.3,1.6,1,2.5,2.6,3,4.7,3,12.6,5.1,25.3,4.5,38.3-.8,19.5-5.8,37.6-15.3,54.8-10.7,19.1-25.8,33.9-43.5,45.9-15.6,10.6-33,17.6-51.3,22.5-24.3,6.6-48.9,8-74,6.1-16.9-1.3-33-4.7-48.8-10.7-6.7-2.5-12.6-6.1-18.3-10.3-.3-.2-.4-.5-.3-.7,0-.2.2-.4.3-.4Z"/>
  <path class="st49" d="M825.3,725.6c-2.1,26.4-10.2,50.4-29.1,69.9-7.5,7.7-14.6,15.7-23.3,22.3-7.1,5.4-15.1,8.6-23.3,11.5-3.9,1.4-9.6-3.2-10.2-7.7-1.3-9.1-1.6-9.2-9.6-4.4-.6.4-1.3.7-2.8,1.5.7-4.1,3.3-5.3,5.9-5.8,4.8-1,3.2-4.3,1.2-5.4-7.4-4.3-7.5-13.5-13.3-18.9-1.9-1.8.8-3.3,2.3-4.3,6.5-4.6,13.2-9,19.6-13.6,11.5-8.1,19.3-19.3,27.8-30,1.6-2,1.4-5.1,3.3-7.1,1-1.2,1.6-3.4,4-2.3,5,5.3,11.3,7.4,18.4,7.8,2.9.2,6.8-1.3,8.3,3-4.3,14.8-12.6,27.1-23,38.2-3,3.2-6.1,6.2-9.4,9.2,15.7-13.5,26.9-30.1,34.2-49.4,2.3-3.5,2.3-8,5.1-11.2q6.4,3.4,12.1-2.6c.5-.6,1.1-1,1.9-.7Z"/>
  <path class="st93" d="M561.6,602.6c8,18.5,19.1,33,35.2,43.1,3.6,2.2,2.8,3.1.4,5.1-10.4,9-18.5,19.6-24.2,32.2-2.3,5.1-4,10.3-5.3,15.7-.7,2.9-1.8,3.2-4.3,2.5-14-3.9-28.5-5.1-42.9-5.8-3.3-.2-4-1.7-5.4-4.2-4.3-7.4-3.8-13,1.9-19.8,14.9-17.7,25.6-38.3,37.8-57.8,2.1-3.4,4.2-6.7,6.8-10.8Z"/>
  <path class="st8" d="M679.7,291c9.6-2,19.3-1.2,28.9-.4,5.3.4,10.6.2,15.9,1.6,6.2,1.6,8.6,3.8,7.8,10.4-1.1,8.7-2.6,17.2-3.5,25.9-1,9.8-2.9,19.5-6.6,28.8-2,4.9-4.8,9.3-8.3,14.2-2.5-8.5.8-15.6,1.8-23,1.2-9.5,4.8-18.3,8.1-27.2,1.7-4.6,3-9.4,3-14.4,0-9.1-8.3-15.9-17.3-14.4-2.6.4-3.4,2.3-4.2,4.2-6.7,15.9-13.4,31.9-20,47.9-6.5,15.9-14,31.3-21.3,46.8-1.7,3.6-4,4.5-8.3,3.6-6.8-1.4-14.1.5-20.7-2.8-.9-3.6,1.6-6.4,2.5-9.6,12.5-23.7,23.1-48.1,33.9-72.6,2.8-6.3,6.5-12.1,8.3-18.8Z"/>
  <path class="st82" d="M516.9,299.3c11.5.8,23,1.6,33.9,5.9,1.4.5,2.9.9,4.4.9,14,0,28.1-.6,42,1.1.9,0,1.7.4,2.3,1.1-.7,4.5-1.8,8.9-2.1,13.4-.2,3.5-1.5,3.6-4.3,2.7-4-1.3-7.8-2.8-12-3.5-8.6-1.5-17-.6-25.1,2.4-4.5,1.7-6,0-5.7-4.3.3-5.1,0-9.9-4.5-13.4-3.5-2.8-5.7-2.3-7.5,1.7-9.4,21.8-20.3,42.8-31.3,63.9-3.5,6.7-6.8,13.5-10.5,20.1-1.4,2.5-3.2,4.2-5.7,4-7.4-.8-15.2-.1-22-4.2,1.2-4.8,4.5-8.7,5.9-13.4,14.1-23.4,25.9-47.9,38-72.3,1.1-2.2,2.1-4.5,4.1-6.1Z"/>
  <path class="st88" d="M688.8,538.9c-.4-1.2-.8-2.5-1.2-3.7-1.7-4.9-5.5-6.4-10.2-4-14.2,7.1-29,12.6-45.1,13.1-14.7.5-28.8-1.9-41.6-9.9-1.7-1.1-3.3-2.8-5.6-2.4-1.4-.3-1.9-1.6-2.6-2.7-1.7-3-4.6-5.3-5.7-8.7,1.9-3.8,5.2-5.3,9-4.5,14.7,3,29.5,2.5,44.2.9,15.6-1.7,31.1-4.7,45.6-11,2.7-1.2,4.7-1.4,7.3.5,5.5,4.1,10.8,8.3,15.5,13.3,2.1,2.2,2.4,4-1.1,5.3-6.4,2.4-8.9,7.3-8.4,14Z"/>
  <path class="st1" d="M457.2,384.1c-11-9.2-14.7-22-17-35.4-1.8-10.4-3-21-4.5-31.4.8-2.1-.7-4-.5-6.1.2-2.7-.4-6,3.7-6.4,5.1.9,8.4-3.4,12.8-4.4.9,1.3.3,2.6-.3,3.8-6.3,12.2-8.2,24.8-4.7,37.5,4.9-11.4,11.2-22.9,17-34.6,1.6-3.2,2.4-6.9,5.9-8.9,10.9-2.1,21.7-1.4,32.6.1.4,2.9-1.3,5.1-2.5,7.4-12.5,23.4-25,46.7-36.9,70.4-2.2,2.5-2.8,6-5.7,8Z"/>
  <path class="st43" d="M539,960.7c-2.7,1.4-5.6,1-8.4,1-46.9,0-93.8,0-140.7-.2-13.5,0-26.8-1.7-36.9-12.3-.7-.7-1.4-1.3-2-2.1-8.2-11.2-8.3-15.7,6.8-20.4,3.6-1.1,5.8-.6,7.2,3.6,2.3,6.9,6.8,12.3,14.5,14.1,22.7,6.9,45.9,5.8,69.2,4.3,12.9-.8,25.9-1.8,38.8-3.3,16.7-2,33.2-5.4,49.9-6.4,3.4-.2,6.8-.8,10.2.4,1.3,2.9-1.3,3.6-2.9,4.5-4.4,2.6-8.8,5.3-13.1,8.1-11.1,7-23.3,8.9-36.2,7.4-4.7-.5-9.3.9-12.8.5,9.7-1.2,20.4.7,31.2-.7,6.8-.9,13.7-.3,20.6-.3,1.7,0,3.5.2,4.7,1.7Z"/>
  <path class="st80" d="M499.8,830c4.6,1.2,9.1.1,13.4-1.2,2.4-.7,3.4-.3,3.5,2.4.5,16.8,3.7,33.4,5.1,50.1.3,9.1-5.3,17.6-12.9,19.5-16.1,2.6-32.5,3.3-48.7,4.9-3.6.3-5.2-.4-5.1-4.4.1-3.2-.7-6.4-1.1-9.5,4.5-3.5,10.4-3.4,15.3-5.9,16.6-8.5,24-22.9,26.6-40.5.8-5.2.5-10.7,3.7-15.3Z"/>
  <path class="st94" d="M625.9,296.9c5.2-2.5,10.9-2.5,16.4-3.1,7.4-.9,14.9-2,22.5-1.5,1.1,2-.2,3.7-1,5.4-13,26.7-24.9,54-38,80.7-1.7,2.5-2.3,5.7-4.4,7.9-8.4-7.7-13-17.4-15.4-28.4-1.1-5.1-.9-10.1-.6-15.3,3,.7,2,2.5,1.3,4.2,6.6-16.8,14.6-33,22-49-.5.1-1.8.2-2.8-1Z"/>
  <path class="st95" d="M803.6,742.7c-2.1-3.4-5.5-2.1-8.3-2.1-5.4,0-9.9-2.4-14.5-4.4-1.8-.8-3.4-2.5-3.5-4.9-.4-6.1,2.4-11.5,3.9-17.2,4.7-17.2,5.2-34.6,4.6-52.2-.2-6.5-3.6-12.4-4-18.9,1-4.4,5.5-4.5,8.3-6.7,7,8,14.3,15.7,19,25.6,2.7,5.6,4,11.5,5.4,17.4,2,14.4,1.7,28.7-2.2,42.7-1.6,5.6-2.7,11.4-5.3,16.7-1.2,1.2-.6,4-3.4,3.9Z"/>
  <path class="st104" d="M482.8,741.5c-1.3-2.9-2.6-5.8-4.6-10v7.7c.4,2.2,1.3,4.7-1.6,5.7-3.3,1.1-6.6,1.1-9.8-.8-1.4-.8-1.6-2.5-2.7-3.5-.3-.6-.8-1.2-1-1.9-.2-1.1-.5-2-1.8-2.3-.1.9-.3,1.8-.4,2.7,1.1,3.2-1.3,3.5-3.3,3.8-3.2.5-6,0-7.1-3.7-4.9-14.1-4.4-27.7,4-40.5,4.8-7.3,10.9-12.1,19.9-12.7,1.3,0,2.6-.5,4.7-1-6.4-2.2-12-1.4-17.5-.3-1.2.2-2.9,1.2-3.6-.2-.4-.9.3-2.6,1-3.6,3.6-5.3,8.8-7.7,15.1-8,7.3-.3,13.9,1.7,19.9,5.9,2.6,4.6,2.6,11,0,14-4.6-.3-4.6,3.4-4.9,6.2-.8,9.1-.2,18.2,2.2,27.1.2.9.6,1.8.8,2.7,2.9,9.8,1.3,11.9-9.3,12.6Z"/>
  <path class="st45" d="M732.5,670.6c.4,0,.7.1,1.1.2,2.8.4,4.4,2.2,4.9,4.9,2.3,12,2.8,23.8-5,34.4-4.2,5.7-4,7,.8,12.9,3.4,2.7,6.9,4.9,11.5,4.6,2.1.3,4.5.4,4.2,3.5-.2,2.3-1.3,4.4-3.7,4.4-9,0-18.1.2-24.4-8.1-.8-1.3-1.5-2.6-2.2-4,.2,1.3,1.2,2.2,1.5,3.5.3.5.4,1,.5,1.5-.3,1.3.7,3.6-2.1,3.2-5.7-3.6-9.1-8.9-11.1-15.2-3.5-11-3.5-22.5-4-33.9-.3-8.8-2.7-18.1,6.9-24.1,10.3-6.4,21.1-8.2,32.6-4-1.1,6.4-6.6,11.6-12.9,12.1-2.2.2-4.5-.4-6.7.4-2.2,1-4.9.4-6.7,2.4,4.8,1.8,10-.4,14.8,1.2Z"/>
  <path class="st88" d="M719.8,384.1c-5.3,13.7-17.3,20.1-29.8,24.8-23.2,8.7-46.5,7.8-69.7-.7-14.4-5.2-21-16.9-26.3-29.8-3.6-8.6-6.7-17.4-9.8-26.2-1.9-5.3-5.4-8.3-10.9-9.7-3.8-.9-6.1.1-8.4,2.9-6,7.3-7.7,16.5-10.9,24.9-3.4,8.9-7.1,17.7-11.8,26-3.2,5.7-9,8.1-14.1,11.3-10.4,6.4-22.2,7.7-34,8.5-3.8.3-7.6.1-11.4.1-3.7-1.8-1.8-7.2-5.7-8.8-.3-.5-.3-1,.1-1.4,10.6,1.3,21.1,1.6,31.7,0,17.6-2.7,30.3-11.8,38.3-27.8,5.5-11.1,8-23.3,13.4-34.5,4.2-8.6,9.3-11.7,17.5-8.9,4.9,1.7,8,5.6,10,10.3,4.6,11.2,7.4,23,12.5,34.1,6.3,13.7,16.9,20.9,31.3,24.6,14.2,3.7,28.3,4.1,42.4,1.8,14.9-2.4,28.7-8.4,40.5-18.1,1.6-1.3,3.3-2.6,5.2-3.4Z"/>
  <path class="st87" d="M781.8,1005.3c-17.7,2.6-35.3,1.9-53-.5-.4,0-.7-.2-1.1-.3-3.4-1.1-8.1.8-10.1-3.4-2.1-4.3,1-14.5,4.9-17.9,5.1-4.5,11.1-7.5,17.7-8.8,14.6-2.8,29.1-3.1,42.6,4.7,6.2,6.6,5.7,19.9-1,26.2Z"/>
  <path class="st87" d="M418.5,907.9c-14.7,1.7-29.3-.2-43.8-2.6-2.2-.4-2.4-2-2.4-3.9-.3-12.8,10.7-26.4,23.2-27.2,14.9-.9,29.2,1.9,42.3,9.5,3.1,1.8,5.9,4.1,7.9,7.2-.4,2.9-3.1,3-5,3.8-3.5,1.3-7.1,2.8-10.7,3.7-5.4,1.4-9.8,3.8-11.6,9.5Z"/>
  <path class="st37" d="M716.9,942.4c11.5-7.2,23.7-10.3,36.8-9,5.7.6,12.1.2,15.5,7.8-2.3-.2-4.2-.3-6.1-.5-14.1-1.5-27.8-.3-40.7,6.1-1,.5-2.2.9-3,1.7-1.5,1.6-2.1,3.5-1,5.8,1.4,2.8,3.2,1.2,4.8.5,14.6-6.7,29.8-7.3,45.3-4.3,3.6.7,7.5,1.5,9.8,6-5.1-.7-9.7-1.5-14.3-2-13.3-1.3-26.3,0-38.8,4.9-2.4,1-4.8,1.8-4.3,5.1.4,2.8,1.2,4.7,4.8,3.2,15.3-6.5,31.2-6.7,47.2-3.4,5.3,1.1,10.9,2.2,13.4,8.2-1.4,1-2.4.6-3.8.1-18.6-7-37.2-8-55.5.8-9.6,4.6-14.5,12.6-14.9,23.3,0,1.4,1.8,4.5-1.7,4.2-2.5-.2-5.1-1-5-4.9.2-10.9,1-21.8,2.1-32.6,1.4-13.3,1.1-26.7.9-40.1,0-2-1.4-5.2,1.9-5.7,4-.5,3,3.5,3.4,5.4,1.3,6.3,1,12.8,3,19.5Z"/>
  <path class="st103" d="M685.2,253.4c-4.5.6-8.7-1.2-13.1-1.9-46.5-7.3-90.7-2.2-131.1,23.7-3.8,2.4-7.3,5.5-10.6,8.6-3.1,2.9-6.3,4.7-10.6,4.3-2.5-.2-4.9-.4-7.4-.5-2.4-.2-4.9-.3-8.3-.6,4.2-5,8.3-9.1,13-12.5,49.5-35.3,103.4-41.3,160.7-23.7,2.5.8,5,1.7,7.6,2.6Z"/>
  <path class="st86" d="M499.8,830c-1.1,9.6-2.4,19.3-5.3,28.5-5,15.9-15.8,26.5-31.9,31.3-2.7.8-5.3,3-8.5,1.9-5.8-11.2-16.3-16.1-27.6-19.3-7.5-2.1-15.2-3.4-24.4-5.5,7.5-2,13.5-1.8,19.6-1.1,12.4,1.4,24.1,5.1,34.9,11.6,4.6,2.8,8.7,0,8.8-5.9-2.6-4.7-1.4-7.6,3.6-8.4,2.9,0,4.5,6.3,8.5,1.4,2.7-3.2,3.1-5.1-.9-7.5-10.6-6.5-22.2-9.7-34.7-11.4,2.4-3.9,6.2-4.1,9.8-4.3,11.9-.6,22.5,3,31.8,10.4,2.8,2.2,3.9,1.9,5-1.4,1.9-5.4,3.3-10.9,4.3-16.6,1.1-6.7,1.1-6.7,7-3.8Z"/>
  <path class="st87" d="M624.7,378.2c13.4-28.6,26.7-57.3,40.1-85.9,5-.4,9.9-.9,14.9-1.3.9.3,1.9.6,1.2,1.9-13.9,29.3-26.3,59.3-41.1,88.2-.3.7-.9,1.2-1.3,1.8-4.6,1-8.7-1.6-13.1-2.1-1.3-.1-1.5-1.4-.8-2.6Z"/>
  <path class="st88" d="M739.2,550.4c8.1,2.9,14.7,8.5,21.8,13.2,13.9,9,26.6,19.7,40.4,31-7.5.2-13.8.9-19.8,3.2-1.6.6-2.5-.6-3.5-1.4-9.1-6.9-18.2-13.8-27.3-20.8-8-7.1-16.5-13.3-26.4-17.5-8.2-5.1-16.4-10.1-24.5-15.4-2.9-1.9-5.5-4.3-3.1-8.4,11.3,1.1,21.7,5.1,31.2,11.3,3.5,2.1,6.8,4.7,11.2,4.8Z"/>
  <path class="st56" d="M781.7,643.1c3.8,5.3,5.1,11.6,5.5,17.7.9,15.3,1.1,30.7-2.7,45.7-2.1,8.4-3.3,17-7.3,24.9-1.2.8-2.3,1.5-3.5,2.3-1.6-6.8,1-14.3-2.4-20.5-6.1-11-4.4-21.8-2.4-33.3,1.4-7.8.5-16-2.5-23.6-1.4-3.6,0-5.6,2.9-7.6,3.9-2.6,7.9-4.6,12.4-5.6Z"/>
  <path class="st87" d="M461.5,376c13.1-26.2,26.8-52,40.9-77.6,4.7,2,9.7.3,14.5,1-8.5,19.9-19,38.7-29,57.9-3.7,7.2-6.8,14.8-12.2,21.1-4.8-.7-9.8.6-14.2-2.3Z"/>
  <path class="st88" d="M613.4,637.1c3.2-1.8,6.3.2,9.2.7,32.7,5.7,63.7-13.8,72.5-45.8,3.5-12.6,4.8-25.4,3.1-38.4,2.8,1.5,6,2.3,8.5,4.6,1.9,1.7,3.1,3.2,2.8,5.7-1.5,12-1.9,24.2-6.7,35.6-8,19.1-20.6,33.8-40.3,41.1-15.2,5.7-30.9,5.1-46.4.4-.7-.2-1.2-.9-1.8-1.4-.3-.9-1.2-1.5-1-2.6Z"/>
  <path class="st30" d="M448.3,1015.6c5.9-10.7,4.8-20.8-3.1-30.1-.8-1-2.1-1.8-1.6-3.4.6-1.7,2.1-2.1,3.7-2.1,10.9,0,21.7,0,32.6,0,2.1,0,3.9,1.2,5.7,2.4,2.9,2,3.7,3.3.1,6.1-7.8,6.1-10.1,17.1-6.5,26.9,1.2,2.2-.4,2.8-2,2.9-8.6.1-17.2.4-25.8-.2-1.4-.1-3.2-.4-3.1-2.6Z"/>
  <path class="st9" d="M718.5,852.6c-5.8,4-7.4,3.6-11.3-3.2-4.4-10.6-6.9-21.9-12.7-32-5.6-12.9-8.7-26.7-13.7-39.9-2.5-6.6-4.6-13.3-6.9-20-1.1-3.3-1.4-6.7-.9-10.2,2.7-2.4,4.9-.7,7,1,2.8,2.3,3.9,5.6,5.1,8.8,8.3,21.7,16.2,43.6,25.5,64.9,2.8,6.5,6.5,12.5,8.3,19.4,1,3.7,1.7,7.4-.5,10.9Z"/>
  <path class="st32" d="M539,960.7h-59.7c6.7-1.2,13.2-2.2,20.1-1.6,12.5,1,24.1-3.5,34.7-10.3,4.6-3,9.3-5.8,13.9-8.6,1.8-2.7,4.8-1.2,7.1-2.3,9.4-.9,17.6-6,26.9-7.6,2.9-.5,5.7-.6,8.4.7-4.2,2.7,1.2,3.5,1.1,5.4-10.1,7.9-20.7,15.1-32.8,19.5-6.3,2.3-12.6,5.3-19.6,4.8Z"/>
  <path class="st92" d="M559.4,966.3c-6.7,3.6-14,5.3-21.3,5.3-52.3.3-104.6.9-157-.4-16.6-.4-30.4-6.8-40.2-20.6-2.2-3.1-4.2-6.4-3.5-10.4,1-.4,1.6-.3,2,.5,10,19.9,27.3,26.5,48.2,26.5,37.8,0,75.6.1,113.4,0,16.4,0,32.8,1.3,49.1-2,1.8-.4,3.5-1.1,5.3-1.4,2.2-.6,3.9-.4,3.8,2.5Z"/>
  <path class="st52" d="M613.4,637.1c.6.7,2.8.9,1,2.6-11.5-4.2-21.3-11-28.6-20.7-20.9-28.1-23.3-58.7-12-91.1.9-2.5,1.9-4.9,2.8-7.3,3.2,1.9,5.1,4.9,6.8,8-9.5,21-7.5,42.6-2.2,64.1,1.1,4.5,2.3,9.7,6.9,12.5,5.6,9.6,10.9,19.4,19.2,27.1,1.9,1.8,3.5,4,6.1,4.9Z"/>
  <path class="st88" d="M718.5,852.6c1.2-5.7-.6-11.1-3-16-12.7-26.6-22.4-54.5-33.2-81.9-1.7-4.2-3.8-8-9.4-7.3,1-3.9,1.8-8.8,6.5-8.9,4.8-.2,7.2,4.2,8.7,8.5,8.7,23.7,17.2,47.4,27.1,70.7,4,9.3,8,18.9,5.8,29.6-.4,2.1-.4,4.2-2.6,5.3Z"/>
  <path class="st91" d="M555.1,937.8c-2.4.8-4.7,1.5-7.1,2.3-14.9.2-29.6,2.4-44.2,4.9-15.2,2.6-30.6,3.5-45.9,5.1-16.7,1.7-33.5,1.9-50.3,1.4-9.8-.2-19.1-3-28-7,12.5,1.2,24.9,3.3,37.5,2.3,17.8-1.5,35.6-2,53.3-4.1,28.1-3.3,56.3-7,84.7-4.8Z"/>
  <path class="st60" d="M473.4,933c-22.7,2.7-45.5,5.2-68.4,4.7-8-.2-15.9-1.5-23.9-2.5-2.1-.3-4.1-1.1-5.2-3.2-.7-1.4-1.5-2.8-.8-4.3,1-2.2,2.6-.6,3.9-.5,23.4,2.4,46.8,2.6,70.3.5,8-.7,16-1.1,24-1.7,1.4-.5,3-1,3.9.7.7,1.3-.1,2.5-.9,3.6-.7,1.1-2,1.7-2.9,2.6Z"/>
  <path class="st88" d="M802.3,599.7c3.3-.4,5.3.9,6.4,4.2,1.3,4-.5,6.8-3.2,9-5.6,4.5-11.4,8.8-17.3,12.9-7.8,5.4-15.7,10.6-23.8,15.5-9.4,5.8-19.6,4.5-29.7,2.1.2-.4.3-.8.7-.9,16.6-3.1,28.1-15.2,41.5-23.8,4.3-2.8,8.2-6.3,12.8-8.6,5.1-2.5,8-7.5,12.7-10.4Z"/>
  <path class="st31" d="M742.2,908.1c2.4.1,5.4.2,8.5.5,3.5.4,8.8-.6,10,2.3,1.7,4.2-.9,9.2-2.1,13.8-.6,2.1-2.4,1.5-3.8,1.4-9.6-.2-19.1.8-28.2,4.1-2.2.8-3.1.4-3.4-2-.3-3-.8-6.1-1.4-9.1q-1.5-8.5,7.1-9.9c1.3-.2,2.7-.3,4-.4,2.9-.3,5.7-.5,9.2-.8Z"/>
  <path class="st87" d="M625.9,296.9h4.7c-7.9,17.3-15.6,34.2-23.6,51.6-.7-2.3-1.2-4.1-1.7-5.9-.6-8.8-3.9-17.5-1.4-26.5.4-1.5.7-3,1.1-4.4,2-7,5.5-12.4,13.7-13,2.4-.2,4.8-1.2,7.1-1.8Z"/>
  <path class="st88" d="M585.7,752.2c6.7,13.1,18.2,20.1,31.9,23.6,16,4.1,32.2,4,48.4.3,1.6-.4,2.9-.9,3.7-2.3,4.3,9.4,4.4,9.8-5.3,11.5-27.3,4.9-52.5,1.1-73.1-19.4-4.2-4.2-7.3-9.2-7.5-15.5,1.2,0,1.9.5,2.1,1.8Z"/>
  <path class="st12" d="M733.8,724.3c-6.3-5.3-6.8-8.5-2-14.6,8.5-10.7,7.3-22.7,4.9-34.9-.4-1.8-1.9-2.8-3.2-3.9,9.1,1.4,12.5,5.7,13.6,17.8.6,7,.5,14-2.2,20.7-.2,1.2-.5,2.4-.8,3.7,1.8-.5,3.1-1.8,4.9-2.2,4.3-1.6,5.6.6,5.4,4.4-.5,9.7-8.7,14.5-17.5,10.4-1-.5-1.9-1.3-3.1-1.2Z"/>
  <path class="st36" d="M697.1,660.3c0-4.4-2.1-5.1-5.9-3.7-13.5,4.9-27.5,6.6-41.8,6.2-11.4-.3-22.6-.9-32.6-7-1.3.7-2.3.6-2.4-1.2,6-.7,11.5,1.8,17.3,2.5,20,2.4,37.8-3.1,54.3-13.9,1-.7,1.9-1.4,3-.5,4.1,3.1,8.4,6.1,11.3,10.3,2.5,3.6-3.2,4.3-3.2,7.3Z"/>
  <path class="st93" d="M721.6,566.8c17.1,11,33.9,21.7,49.3,35.2-3.1,1.8-5,.5-6.8-.4-13.2-6.5-27.1-10.1-41.6-12-3.1-.4-4.2-1.1-3.5-4.5,1.2-5.7,1.7-11.6,2.6-18.3Z"/>
  <path class="st67" d="M585.7,752.2c-.7-.6-1.4-1.2-2.1-1.8-12.2-31.1-6.2-59.1,14.9-84.3,2.8-3.4,6.2-6.2,10.1-8.2,1.4-.6,2.6-2.3,4.4-1.2.9.5.9,1.5,0,2.2-12.1,14.5-23.7,29.3-27.5,48.5-2.6,13.2-3.1,26.4,0,39.6.4,1.6,2.4,3.4,0,5.2Z"/>
  <path class="st88" d="M565.2,713.1c2.4,4.7.7,9.6.9,14.5,0,2-1.7,1.8-3.4,1.8-12.2-.4-24.2-2.5-36.2-4.1-5.6-.8-11.3-1.3-17-1.8-2.4-.2-4.7,0-5-3.3-.2-2.7.7-4.1,3.6-4.8,4.3-1,6.4-4.7,8.1-8.3.9-1.9,1.6-2.2,3.3-1.8,1.1.6,1.8,1.5,2.5,2.4,1.5,5.2,5.3,7.3,10.4,8.2,8.8,1.5,17.7,2.3,26.4,3.8,4.7.9,4.8-2.2,5.4-5.2.3-.5.6-1,1.1-1.4Z"/>
  <path class="st9" d="M613.2,132c-15.1-8.1-30.9-14.2-47.9-16.7-7.3-1.1-14.7-1.8-22-2.9-2-.3-4.1-1-6-1.8-2.4-1-4.5-2.6-4.3-5.4.2-2.7,2.3-3.7,4.7-4.1,26.1.8,49.3,10.8,71.7,23,.5.3.9.7,1.3,1.1,1.1,1.7,3.1,2.7,4.2,4.4,1.3,2.1,1,3.3-1.8,2.4Z"/>
  <path class="st9" d="M459.8,154.9c20.2,9.5,37.5,23.3,54,38,1.1,1,2.1,2.2,3.1,3.3,1.2,1.9,2.9,3.5,4.2,5.3,1.3,1.8,1.2,1.8-.9,3.8-37.5-40.9-86-62.3-137.9-77.8-1.1-.3-2.1-.8-3.1-1.2,1.8-3,5.4-1.5,7.7-3.2,9.3,1.9,17.9,6.2,26.9,9.1,9.4,4.5,19.1,8.4,28.4,13.2,5.9,3.1,11.7,6.3,17.5,9.5Z"/>
  <path class="st85" d="M482.2,841.3c-7.9-3.5-15.4-6.5-23.8-6.9-2.1,0-3-1.1-3.3-3.1-2.5-16.9-5.2-14.3,11.1-14.3,6.2,0,12,2,18,3,2,.3,2.6,1.2,2,3.5-1.5,5.7-2.6,11.5-4,17.8Z"/>
  <path class="st61" d="M469.8,298.2c-7.8,15.8-15.5,31.7-23.3,47.6-5.7-16-2.8-31,5.3-45.2,5.9-1.8,11.9-2,18-2.3Z"/>
  <path class="st4" d="M825.3,725.6c-1.6,2.3-2.6,4.8-5.4,6.3-5,2.7-6,2.6-8.1-2.9-1.9-1.6-.8-3.5-.3-5.3,3.8-14.5,4.4-29.1,2.5-44-.4-3.4-1.9-7.1.9-10.4,9.4,17.6,14.2,36.1,10.3,56.1Z"/>
  <path class="st52" d="M477.1,406c0,.2,0,.5,0,.7-.3,1.1-2.5.6-1.6,3.3,3.1,8.9,4.4,18.4,7.9,27.3,1.7,4.5,3.6,8.8,6.2,12.8,1.1,1.7,2.2,3.6,4.6,3.8,5.9,8.1,11.7,16.3,19.2,23.1,1.8,1.6,3.9,3,5.8,4.5.1.4.2.7,0,1.1-8.8-2.8-15.4-8.9-22.1-14.8-18.9-16.7-27.6-38.3-29.5-63.6,3.4.7,6.4,1.3,9.5,1.9Z"/>
  <path class="st9" d="M386.3,123.9c-1.7,2.9-5,.7-7,2.3-16.5-3.5-33.3-3.8-50.1-3.6-3.3,0-6.5-.5-9.5-1.8-2.3-1-4.9-2.3-4.9-5.1,0-2.7,2.2-4.2,5-4.6,20.7-.2,40.9,3.2,60.5,9.7,2.1.7,4.5,1.1,6,3Z"/>
  <path class="st9" d="M802.3,599.7c-3.2,5.9-8.5,9.3-14,12.8-10.9,6.9-20.7,15.3-31.7,22-6.8,4.2-12.9,10.2-21.9,8.9,0,0-.2-.3-.2-.3l.2-.3c-.2-2.8,2.2-3.8,3.9-5.2,17.5-14.5,35.8-27.6,57.1-36.2.1,0,.2-.4.2-.5,0-.2-.2-.3-.3-.5,2.1-1.7,4.5-.9,6.8-.7Z"/>
  <path class="st48" d="M752.9,613c-4.3,5.9-11.5,7.7-16.9,12-1.3,1.1-2.9-.5-4.2-1.2-6.1-3.4-12.6-5.6-19.3-6.8-4.4-.8-5-2.2-2.5-5.7,1.1-1.5,1.9-3.2,2.8-4.9,13.8-.6,27.3.7,40.1,6.6Z"/>
  <path class="st71" d="M482.8,741.5c1-.7,1.3-2.1,3-2.3,6.6-1,7.5-2,5.2-8.4-3.7-10.2-3.8-20.8-3.6-31.4,0-1.7.7-3.3,1-5,.7-4.3,2.8-4.3,5.8-2,.4.5.3.9-.1,1.3-.5,0-1.1,0-1.6.1,4.1,8.7.6,18.1,2.8,27,1.4,5.7,2.1,11.6,3,17.4.3,1.7.5,3.4.4,5.1-.4,3.8-1.9,7.1-6,8.1-3.9.9-5.9-1.9-7.6-4.7-1-1.6-2-3.2-1.9-5.3Z"/>
  <path class="st76" d="M783,1013.2c.9-.1,1.9-.4,2.8-.4,2.2,0,5.7-2.6,6.1.9.4,3.3-.1,7.8-5.2,8.8-15.1,3-30.3,2.6-45.4,1.8-9.3-.5-18.5-1.9-27.6-4.1-4.8-1.2-7.5-3.8-8.1-8.9-.4-3.5.1-4.2,3.4-3,2.1.8,4.4,1.2,6.6,1.7,2.7,6.6,7.6,8.7,14.5,8.5,13-.4,26-.2,39,0,5.4,0,10.2-1.1,14-5.3Z"/>
  <path class="st101" d="M783,1013.2c-.4,4-2.4,6-6.5,6.3-17.7,1.1-35.4,1-53,.3-5.6-.2-7.6-3.2-7.9-9.7,15.3,2.8,30.8,3.9,46.4,3.7,7,0,14.1-.4,21.1-.6Z"/>
  <path class="st35" d="M422.8,916.8c20.3-1.5,40.6-3,60.9-4.5,4.2-1.3,8.6.5,12.8-1h0c4.7-.7,10.4.9,12.6,3.5-3.9,2.4-8.6,1.6-12.7,1.9-27.1,2-54.1,5.5-81.3,6.1-.4,0-.7-.1-1.1-.2,1.4-4.1,5.2-3.7,8.3-4.3,2.5-.5,5.3-.1,7.6-.1-2.1-.5-4.9,1.1-7-1.3Z"/>
  <path class="st88" d="M464.3,772.6c-1.8-4.2,2-4.5,4.1-5.5,1.1-.5,2.6,0,3.9-.3q8.9-1.1,11,7.6c2.3,9.6,4.6,19.1,6.9,28.7,1.4,5.9,1.3,6.1-4.7,5.2-1.8-.3-3.9.4-5.4-1.1,1.1-1.8,2.2-3.5,1.4-5.8-1.5-4.8-2.7-9.8-4.8-14.5-1.9-4.4-6-6.1-9.4-8.7-1.6-1.6-2-3.8-3.2-5.6Z"/>
  <path class="st88" d="M556.1,568.6c1,8.1,3,16.6-.6,24.2-4.2,8.8-9.9,16.8-15.1,25.2-2.1,3.4-4.1,6.8-6.6,9.9-3.9,4.8-6.5,5-12.2,1.6,9.3-13.7,18.3-27.6,27.2-41.5,3.2-5,5.9-10.2,5.9-16.4,0-1.1.4-2.3,1.4-3Z"/>
  <path class="st89" d="M722.1,725.7c6,8.2,15.2,8,24,8.6,2.3.1,2.6-2.1,2.7-3.7.1-3.2-2.7-.4-3.8-1.6-.1-.4-.2-.9.1-1,6.5-3.7,11.6-8.4,12.1-16.5,0-.4.4-.7.7-.8.3-.1.5,0,.7.5,1.3,1.3,1.4,3.5,3.4,4.2,2.9,3.1,2,6.7,1.4,10.2-7.9,16.3-21,20.6-35.9,11.7-.9-4.1-5.6-5.4-6.6-9.4h0c-.8-1.3-.8-2.3,1.1-2.2Z"/>
  <path class="st27" d="M473.4,933c0-1.4.9-2.5,1.8-3.4,2.9-3.1.3-3.2-1.9-3.5,8.7-2.3,17.7-1.8,26.5-3.1,6.2-1,12.4-1.7,18.6-2.2,1.9-.2,5-1.7,5.3,2.2.3,3.1-1.1,5.1-4.4,5.5-8.7,1.1-17.3,2.4-26,3.3-6.6.7-13.3.9-19.9,1.3Z"/>
  <path class="st9" d="M556.1,568.6c.5,7.3-1.9,13.7-5.9,19.8-8.4,13-16.5,26.2-25.6,38.8-.8,1.1-1.5,2.3-3,2.3-.3-.8-.7-1.6-1-2.4,1.5-13.3,10.7-22.5,17.8-32.8,3.9-5.7,8.7-10.9,10.6-17.8,1.8-3.1,2.6-7.2,7.1-7.9Z"/>
  <path class="st34" d="M410.5,1001.8c.7-.1,2.1,3.1,2.1-.2,0-2.4-1.4-4.7-.9-7.2.8-4,3.9-5.3,7.2-2.9,5.9,4.4,7.5,19.6,2.6,25.2-.7.8-1.6,1.7-2.6,2.2-5.6,2.9-12.2.9-17.9,3.5,0-1.2.6-2.2,1.5-2.9,4.6-3.6,6.9-8.2,6.7-14.1,0-1.3.3-2.6,1.4-3.5Z"/>
  <path class="st88" d="M518.2,636.2c2.6,1.8,7.4.9,8.2,3.7.6,1.8-3.1,4.8-4.5,7.4-4.7,8.5-11.6,15.4-17.1,23.3-1.2,1.7-2.5,2.7-4.7,1.3-2.7-1.7-5.5-3.1-8.3-4.7,3.5-1.2,5.9-3.6,8.1-6.5,6.3-8,11.3-17,18.3-24.5Z"/>
  <path class="st20" d="M418.5,907.9c-.8-5.3,1.8-7.8,6.7-9.5,6.9-2.4,14.1-4,20.6-7.5,3.9,3.9,3,9,3.3,13.8,0,1.8-1.3,2-2.7,2.1-9.3.8-18.5,1.6-27.8,1Z"/>
  <path class="st9" d="M734.7,897.5c-2,0-3.9,0-5.9,0-2.4-1.3-3.6-3.3-4.6-6-2.5-6.9-4.8-13.8-7.2-20.7-.5-1.5-.4-4-3-4.2-1.7-2.7-1.9-4.5,2.1-4.7,1.3,0,2.5-.7,3.7-1.1,3.3-1.5,4.5,1.2,5.7,3.1,5.5,8.8,8.4,18.8,11.1,28.7.6,2,.1,3.8-2,4.8Z"/>
  <path class="st88" d="M734.7,897.5c.6-1,1.5-1.9,1.1-3.1-3.4-10.5-6-21.2-12-30.7-1-1.6-2-2.7-3.9-2.8,2.3-3,4.6-7.3,8.2-7.3,4.6,0,2.7,5.4,3.9,8.4,3.5,9,6.7,18.1,9.2,27.5,2.2,8.1,2.3,8-6.4,8.1Z"/>
  <path class="st6" d="M422.8,916.8c4.3,1.2,8.9-.7,13.3,1.6-7.4,1.5-15.5-.5-22.2,4.2-12.4.7-24.7-.7-37-2.3-3.2-.4-5-1.8-4.4-5.1.7-4.3,3.7-1.5,5.3-1.2,14.9,2.5,30,2.1,45,2.8Z"/>
  <path class="st84" d="M724.4,667c8.4-1.3,15.7-4.2,19.7-12.5,4.2.2,7.6,2.3,10.5,5.1,4.8,4.5,3.9,12.6-1.6,16.3-1.5,1-2.2.5-3.3-.5-7.2-6.7-16.1-8.1-25.3-8.3Z"/>
  <path class="st36" d="M520.3,205.3c2.2-1.5.2-2.4-.4-3.6-.9-1.9-3.9-2.6-2.9-5.5,14.2,11.6,24.2,26.2,31,43.1,1.2,3-.5,4.2-2.7,5.2-2.3,1.1-2.9-.5-3.5-2.2-4.9-13.6-13.2-25.3-21.5-37Z"/>
  <path class="st9" d="M518.2,636.2c-3.8,8.1-9.9,14.6-14.7,21.9-1.4,2-3.2,3.7-4.4,5.9-1.7,3.1-4.1,3.9-7.3,3.2-2.2-.7-4.4-1.3-6.6-2,9.9-9.2,17.2-20.5,25.4-31.1.6-.8.7-1.7.7-2.7.7-1.8,1.7-2.5,3.1-.6,1.3,1.8,2.6,3.6,3.9,5.4Z"/>
  <path class="st2" d="M496.6,1031.4c-15.6,0-31.2,1.9-46.9,1.3-1.7,0-3.4-.3-4.9-1.2-.8-2.5-.3-5.7-4.4-6.1-2.2-.2-1.5-2-.2-3.1.3-.2.6-.2,1-.1,9.3-.8,18.6-.4,27.9-.3,2.7,0,5.4.3,7,3-2,3.7-1.1,5.5,3.3,5.7,5.8.2,11.6-.5,17.3.9Z"/>
  <path class="st58" d="M476,1024.9c-9-2.5-18.2-.7-27.3-1.3-2.5-.2-5.4,1-7.5-1.5,2.4-2.2,4.8-4.4,7.2-6.6,3,2.5,6.5,1.1,9.8,1.2,6.2.2,12.5,0,18.7.2,1.4,0,2.1,0,2.5-1.4,1.6,2.8,3.2,5.5,5.1,8.8-3,.2-5.6.4-8.3.6Z"/>
  <path class="st52" d="M386.3,123.9c-9.9-2.6-19.5-5.8-29.6-7.5-10.9-1.8-21.8-3.7-32.9-3.8-1.5,0-3.1.4-4-1.4,11.4-3,22.8-.9,33.9,1.3,21.5,4.2,42.3,10.8,62.4,19.6-.2,1.7-1.1,1.6-2.3,1-9.2-3.1-18.3-6.1-27.5-9.2Z"/>
  <path class="st88" d="M699.5,748.2c4.2-3,6.2-7.4,7.6-12.2,3,2.5,6.1,5,9,7.6.9.8,1.8,2.2,1.3,3.6-2.1,5.8-5.6,10.8-10.6,14.4-2.2,1.6-2.7-.7-3.3-2.3-1.3-3.7-2.7-7.4-4-11.1Z"/>
  <path class="st52" d="M795.5,600.4c.6.1,1.3,0,1.6.4,1.7,1.6-.6,1.1-.8,1.2-16.3,8-32,16.9-46.2,28.3-5.2,4.2-10.3,8.4-15.5,12.6-1.9.1-3.5,1.6-6,.7,1.6-1.6,3-3.1,4.7-4.4,18.1-14.7,36.5-28.8,58.4-37.6,1.2-.5,2.5-.8,3.8-1.2Z"/>
  <path class="st54" d="M440.2,1022.3c-.2,1-1,2.6,1,2.4,7-.7,5.6,2.9,3.7,6.9-22.5,0-44.9,0-67.4,0-3.2,0-6.5.8-9.5-.9,15.6,0,31.1,0,46.7,0,2.9,0,6.2.8,6.4-4,0-2.3,2.5-1.9,4.1-1.8,5.2.3,10.2-.4,15-2.4Z"/>
  <path class="st74" d="M387.4,1020.4c-8.8-5.5-11.6-14.2-7.6-23.5,3.6-8.4,11.9-10.9,21.5-6.5,5.6,5.1,8.1,11.3,7,18.8-.3,2-.3,6.4-4.6,2.7-.7-2-.4-4.1-.5-6.1-.2-5.8-4.2-10.7-9.8-12.2-3-.8-5.1.6-7.1,2.3-3.1,4-3.8,8.5-2.5,13.4,1.7,3.8,4.7,6.4,8.4,8.1.9.6,2.2,1,2,2.3-.2,1.3-1.5,1.4-2.6,1.5-1.5.2-2.9-.3-4.3-.8Z"/>
  <path class="st9" d="M467.8,777.1c12.6,4.7,12.8,16.6,15.8,26.9.8,2.8-1.5,3-3.4,3.1-2-.4-4.3.4-6-1.2-1.7-7.1-3.6-14.3-5.6-21.3-.7-2.4-2.6-4.8-.8-7.5Z"/>
  <path class="st29" d="M651.4,817.8c-17.3-4-32.3-10.8-44-24,14.1,8.5,31.2,11.4,44,24Z"/>
  <path class="st36" d="M609.8,125.1c-22.3-11.4-45.3-20.7-70.6-23.1-.5,0-.9-.6-1.4-.9,12.3-2.8,23.8,1.1,35.2,4.8,13.4,4.4,25.9,10.8,38,18.2.1.9-.2,1.4-1.2,1Z"/>
  <path class="st83" d="M813,678.3c-2.9-14.4-10.1-26.5-20.5-36.7-1.3-1.3-3.5-2.7-2.4-5.3,1.5-1,2.5-3.1,4.9-.4,7.4,8.7,14.5,17.6,18,28.8.7,3.8,1.8,7.5,1.6,11.4,0,.9.5,2.4-1.4,2.1Z"/>
  <path class="st59" d="M781.8,1005.3c4.5-8.6,4.9-17.3,1-26.2,6.9.8,8.3,6.3,10,11.5.3.9.3,1.9.4,2.8,1.1,10.9,0,12.1-11.4,11.9Z"/>
  <path class="st81" d="M461.5,376c4.7,1.1,9.9-1.1,14.2,2.3-1.3,4.8-3.5,9.2-6.9,12.8-4.4-1.5-8.1-4.1-11.6-7,1.1-2.9,2.3-5.7,4.2-8.2Z"/>
  <path class="st72" d="M468.9,863.1c-3.2,1.9-4.7,4.6-3.6,8.4-1.5-.9-3-1.7-4.5-2.6-5-7.1-13.1-7.6-20.5-9.6-3.6-1-7.4-1.4-11.2-1.6-1.8,0-4.4.6-4.9-2.5,4.8-2.8,10-1.8,15-1.3,10.5,1,20.5,3.8,29.7,9.2Z"/>
  <path class="st26" d="M493.9,693.8c0-.4,0-.9.1-1.3,0-4.5,0-9.1,0-13.6,11.6,8.8,14.7,17.6,9.5,29.9-1.6-6.7-5-11.3-9.6-15Z"/>
  <path class="st66" d="M387.4,1020.4h7.1c-1.9-1.2-2.8-1.8-3.6-2.3,4.7-2.2,9.4-4.5,13.8-7.2.5,2.2,1.7,2.1,2,.1.7-4.1.9-8.2-1-12.1-1.4-2.9-2.9-5.7-4.3-8.5,5.9,1.5,6.8,7.1,9.2,11.4,1.2,8.9-1.7,15.8-9.6,20.4-4.6,0-9.5,2.5-13.5-1.8Z"/>
  <path class="st57" d="M752.9,613c-12.6-2.6-25.2-5.4-38.2-5.6-.6,0-1.2-.7-1.9-1,.5-3,1.9-4.5,5.4-4.2,11.6,1.2,22.7,4,33.6,8,1.5.5,3.1.9,1.1,2.8Z"/>
  <path class="st19" d="M512.4,995c6.6,3.8,8.8,13.8,4.8,21.4-4.1,7.7-12.2,10.2-21,6.2,1.7-2.5,4-.3,6.1-.8.6,0-.1-1.2-.1-.4,0,.3-.1.4-.4.4-1.2,0-2.3,0-2.1-1.7.9-1,2.3-1.2,3.5-1.7,5.1-1.9,8.9-4.8,9-10.9,0-1.3.3-2.6,1.4-3.6q1.8,2.4,1.3,6.4c.8-3.2.6-6.2-1.2-9.1-1.2-1.9-2.8-3.8-1.3-6.2Z"/>
  <path class="st9" d="M687.6,190.7c-.5,1-1.3,1.7-2.4,2-8.9-12.3-18.9-23.6-30.6-33.3-1.2-2.9-4.8-3.5-6.2-6.3,0-.9.7-1.3,1.5-1.6,11.8,8.5,21.6,19.1,30.8,30.3,2.4,2.9,4.6,5.9,6.9,8.9Z"/>
  <path class="st7" d="M813,678.3c2.2-4.5-1.4-9-.1-13.5.7,1.6,1.4,3.2,2.1,4.7-.2,13.9,2.4,27.7.2,41.7-.9,6-2.4,11.9-3.3,17.9-1.6,3.8-2,8.1-4.7,11.5-1.2.3-1.7,0-1.4-1.4,5.9-17,9.6-34.3,8.1-52.5-.2-2.8-.6-5.6-.8-8.5Z"/>
  <path class="st73" d="M424.2,855.2c1.4,2,3.5,1,5.2,1.1,9,.2,17.4,2.7,25.8,5.8,3.2,1.2,5.5,3.1,5.6,6.8-12.7-5.5-26.2-8.5-40.2-11.3,1-1.9,2-2.6,3.6-2.4Z"/>
  <path class="st88" d="M698,278.7c2.7,0,5.3,0,8-.3,1.5-.2,2.7-.7,3-2.8.3-2.3-.8-2.3-2.4-2.8-3.8-1.3-3.6-3.9-1.8-6.7.5,5.5,1.6,6.2,5.8,2.9,2-1.6,3.2-1.5,4.7.3,2.7,3.3,9.2,6.2,8,9.3-1.4,3.6-7.8,1.2-11.9,1.2-4.4,0-9.1.9-13.4-1Z"/>
  <path class="st47" d="M464.1,740.7c2.5,2.6,5.5,3.5,9.2,3.5,3.8,0,5.1-1.5,5-4.9,1.5,3.4,1.5,7.1,1.7,10.7.1,3-1.2,5.5-4.6,6.3-3.2.8-5.1-.8-6.5-3.3-2.2-3.8-3.9-7.8-4.7-12.2Z"/>
  <path class="st79" d="M624.7,378.2c1.8,3,5.2,1.4,7.6,2.5,2,.9,4.1,1.5,6.2,2.3,0,3.5-2.7,5.9-3.6,9-5.1-.4-9.3-3.1-13.5-5.7-.7-3.4,1.8-5.6,3.3-8.1Z"/>
  <path class="st52" d="M511.2,631.4c2,2,.2,3.6-.8,4.9-6.7,8.9-13.7,17.7-20.4,26.7-1.4,1.8-2.9,2.2-4.8,2.2-2.9-1.9.1-2.9.8-3.7,8.3-10.1,16.8-20.1,25.2-30.1Z"/>
  <path class="st53" d="M523.5,1022c7.7-11.4,5.8-20.8-1.7-29.8,4.6-.3,9.7,3.7,10.9,8.2,2.3,8.2-1.1,17.6-9.3,21.6Z"/>
  <path class="st88" d="M648.7,152.7c1.4,2.7,5.7,2.9,5.9,6.7-13.1-10.2-26.9-19.4-41.4-27.4,1-.3,2.6-.5.9-1.9-1.6-1.2-3.6-2-4.2-4.2,4.3-.1,7,3,10.4,4.9,9.5,5.1,17.6,12.3,26.1,18.8,1,.8,2,1.7,2.3,3.1Z"/>
  <path class="st52" d="M549,576.5c2.5,1.9,0,3.4-.5,4.8-3.7,8.2-10.1,14.7-15.2,21.9-5.2,7.4-11.2,14.3-11,24.1-.5,0-1.1-.2-1.6-.2-1.6-5,.3-9.3,3-13.4,8.4-12.4,16.9-24.8,25.4-37.2Z"/>
  <path class="st97" d="M450.5,739.4c4.1,3.5,7.6,3.5,10.4,0,1.1,4.9,2.1,9.8,3.2,14.8-2.2,1.3-4.4,1.4-6.8.4-4.3-4.1-5.7-9.5-6.8-15.1Z"/>
  <path class="st68" d="M758.7,711.2c-.7,8.9-5,15-13.7,17.8-4.5.4-7.8-2.3-11.2-4.7,2.1-1.7,3.4.5,5,1.1,7.3,2.5,15.6-4.4,14.5-12.2-.6-4.2-3.2-.7-4.7-1.4-.7-1.3.4-1.7,1.1-2.3,3.7-3.3,6.4-1,9,1.6Z"/>
  <path class="st18" d="M509,914.8c-4.2-1.2-8.4-2.3-12.6-3.5,8.3-2.1,16.9-1.7,25.2-3.3,1.5-.3,3.1-.3,3.3,1.9.2,2.2-.4,3.5-2.9,3.9-4.3.6-8.6,1.6-12.9,1Z"/>
  <path class="st28" d="M499.7,1020.3c.7,1.4,2.3.9,3.8,2-2.7.2-5,.3-7.3.4-12-6-13.8-18.8-4.2-29.8,3-1.1,2.4.8,1.8,2.4-.8,2.3-2.4,4.3-2.7,6.8-.4,4-.3,7.9,2.3,11.3,1.6,2.8,5.1,3.9,6.3,7Z"/>
  <path class="st102" d="M565.2,713.1c0,.4,0,.9,0,1.3-1.7,1.2-3.7.8-5.5.5-11.2-1.4-22.3-3.2-33.4-5-2.2-.3-3.9-1.5-5.6-2.6-.4-.7-.7-1.4-1.1-2.2,10.9,1.7,21.9,1.8,32.7,4.3,4.4,1,9.1.8,13,3.6Z"/>
  <path class="st11" d="M535.6,988.8c5-1.4,7.7,1.5,10.1,4.6,4.3,5.6,4.7,12.1,2.2,18.4-1.5,3.6-4.2,6.9-9.3,5.7,11.7-7.1,10.6-18.6-3-28.7Z"/>
  <path class="st3" d="M508.9,900.9c7.7-4.3,10.6-11.7,12.9-19.5.3,1.3.8,2.5.9,3.8q1.5,14.9-13.8,15.8Z"/>
  <path class="st64" d="M578.8,952.5c6.4-4.3,12.8-8.6,19.1-12.9,1.4-.9,2.9-1.1,4.1.3,1.4,1.7.1,3-1.2,3.7-3.5,2.1-6.4,5.4-10.6,6.4-2.3-.5-3.9.9-5.8,1.7-1.8.8-3.6,2.5-5.7.7Z"/>
  <path class="st9" d="M727.9,546.9c-8.7-6.1-18.7-8.7-28.7-11.4-.9-.2-1.9-.2-2.3-1.2,3.6-3,7.3-.8,10.7.3,7.5,2.4,14.9,5.5,21.5,10,.8.5,1.6,1.2,1.1,2.1-.5.9-1.4.9-2.2.3Z"/>
  <path class="st98" d="M578.8,952.5c2.6,0,4.7-1.4,6.7-2.7,1.9-1.3,3.3-1.5,4.8.3-6.2,4.3-12.3,8.9-19.4,11.7-1.3-1.4-3.7-.6-4.8-2.4,4.3-2.3,8.5-4.6,12.8-6.9Z"/>
  <path class="st9" d="M413.8,133.1c.8-.3,1.5-.6,2.3-1,14.6,5.7,28.4,12.9,41.9,20.8.8.5,1.8.8,1.9,2-6.1-1.7-11-5.8-16.8-8.2-9.9-4.2-19.5-9-29.3-13.6Z"/>
  <path class="st52" d="M648.7,152.7c-12.2-10.1-24.7-19.6-38.8-26.8,0-.3,0-.6,0-.8.4-.3.8-.7,1.2-1,14.1,7.5,26.9,17,38.9,27.4-.4.4-.8.8-1.2,1.2Z"/>
  <path class="st52" d="M714,866.6c.3-1-.3-2.5,1.1-2.9,1.3-.3,1.2,1.1,1.5,1.9,3.2,8.4,5.3,17.2,8.7,25.6,1,2.3,2.6,4.1,3.5,6.3-2.4,1.5-3.5.5-4.4-2-3.4-9.7-6.9-19.3-10.4-29Z"/>
  <path class="st52" d="M467.8,777.1c2.2,8.3,4.5,16.5,6.7,24.8.3,1.3,1.8,2.8-.2,4-2.7-1.8-2.5-5-3.1-7.6-2.2-8.6-5.7-16.8-6.8-25.7,2.2.7,2.1,3.2,3.5,4.5Z"/>
  <path class="st42" d="M427.6,988.5c6.9-.9,7.4,3.9,8.6,7.6,3,9.5,1.5,15.7-5,19.4,4.9-9.9,5.7-19-3.6-27Z"/>
  <path class="st13" d="M492.8,1014.6c-4.1-5.2-4.5-12.1-1.3-18.2.4-.8,3.4-2,.5-3.5.7-1.4,1.5-2.7,3.4-2.3.9.3,2.1,0,2.5,1.4-.3,2.2,1.3,3.4,2.7,4.7,2.6,2.5,1.6,3.5-1.4,4.3-7.3,1.7-8.1,3.7-4.8,10.6.2.5.2,1,.2,1.6-.3.8-.8,1.4-1.7,1.5Z"/>
  <path class="st75" d="M497.6,991.6c-.7-.4-1.4-.7-2.2-1.1,6.8-2.8,12.2-.3,17,4.5,2.1,5.1,5.4,9.9,3,16.1-1.4-2.3.4-5.1-1.5-7.1-1-.3-1.7-.9-2.1-1.7-2.6-4.9-6.3-8.2-11.9-9.2-.9-.2-1.7-.8-2.3-1.5Z"/>
  <path class="st52" d="M694.5,817.5c2.1-1.1,2,1.2,2.3,1.9,3.7,9.3,7.2,18.7,10.8,28.1.3.8.4,1.4-.4,1.9-6.3-9.9-8.5-21.3-12.7-32Z"/>
  <path class="st96" d="M439,304.9c-4.4,3.3-1,8.6-3.2,12.4-.4-.8-.9-1.7-1.2-2.5-3.5-9.4-.5-13.7,9.8-14.1-.6,3-4.7,1.3-5.4,4.2Z"/>
  <path class="st52" d="M724.5,558.1c1.8-1.9,3.2,0,4.4.8,7.1,4.6,14.2,9.4,21.2,14.3.8.5,2.3,1.1.8,2.5-8.8-5.8-17.6-11.7-26.4-17.5Z"/>
  <path class="st69" d="M566,959.4c1.3,1.5,5.2-2.5,4.8,2.4-3.6,2.1-7.2,4.1-11.5,4.6-.6-1.9-2.2-2.2-3.8-2.5,3.5-1.5,7-3,10.5-4.5Z"/>
  <path class="st78" d="M721.1,727.9c2.5,2.3,5,4.6,7.5,7,1.7,1.6.8,2.1-.9,2.4-3-1.4-6-3-8.1-5.7,1.6-.8.4-2.7,1.5-3.7Z"/>
  <path class="st24" d="M512.3,819.8c-3.3,2.3-6.4,3.2-9.4.2-.7-.7-1.2-2.1-.1-2.3,3.4-.9,6.6-.2,9.5,2.1Z"/>
  <path class="st9" d="M727.9,546.9c1.6-.2,1.9-1,1.2-2.3,4,.8,6.7,4.1,10.2,5.9-4.7,1.7-8-.9-11.3-3.5Z"/>
  <path class="st50" d="M591.4,936.3c-2.1-.4-3.9-1.4-4.5-3.6,0-.3,2.2-1.2,3.4-1.8,2-.3,3.4,1,3.8,2.6.4,1.7-1.2,2.4-2.7,2.8Z"/>
  <path class="st56" d="M749.7,709.6c-.4.8-.8,1.5-1.1,2.3-2.2,1.5-4,4.1-7.7,3.2.6-2.6,3.1-3.7,4.1-5.8,1.4,2.9,3.3-1.6,4.8.3Z"/>
  <path class="st38" d="M761.3,709.8c-3.6-2.6-5.6-4.8-4.1-9,2.1,2.6,3.6,4.9,4.1,9Z"/>
  <path class="st17" d="M457.3,754.4c2.3-.1,4.5-.3,6.8-.4,2.1,1.3-4.3.7-.6,2.8,1.4.8-.2,1.8-1.4,1.7-2.5-.2-3.7-2.2-4.8-4.1Z"/>
  <path class="st52" d="M613,658.9c-.7-3.9-3.1.3-4.4-1,1.3-2.1,3.3-3.1,5.7-3.3.8.4,1.6.8,2.4,1.2,1,3.8-2.4,2.2-3.8,3.1Z"/>
  <path class="st88" d="M677.5,279.6c5.3-1.9,10.7-.8,16.1-.9-5.3,1.7-10.7.9-16.1.9Z"/>
  <path class="st12" d="M732.5,670.6c-4.9-.7-10.1,1.4-14.8-1.2,4.9.8,10.1-1.4,14.8,1.2Z"/>
  <path class="st18" d="M496.4,911.3c-4.1,2.1-8.5,1.2-12.8,1,4.2-1.2,8.5-1.1,12.8-1Z"/>
  <path class="st51" d="M599.5,308.3c-1,0-1.8-.2-2.3-1.1,2-1.6,4-3.1,6-4.7.2.2.5.5.7.7-1.5,1.7-2.9,3.4-4.4,5.1Z"/>
  <path class="st56" d="M763.5,725.6c.1-3.5.3-7-1.4-10.2,4.2,2.9,2.8,6.6,1.4,10.2Z"/>
  <path class="st0" d="M239.2,1012.2c-10.2,4-20.8,4.8-31.5,4.9-.9,0-2,0-2-1.4,0-1.3.6-2.2,1.9-2.3,1.3-.1,2.6-.1,4,0,9.2.1,18.5-.5,27.7-1.1Z"/>
  <path class="st41" d="M313,925c.9-1.3-2.2-6.2,3.1-3.4,0-.7.2-1.5.2-2.2,3.8,7.1,3.5,10-1.6,13.6-1.3-2.5,2.3-6.2-1.7-8Z"/>
  <path class="st23" d="M567.4,439.9c-11-.6-20.9-2.8-29.3-9.7-1.3-1.1-2.7-2.2-3.8-3.5-1.8-2.1-2.4-4.8-.5-6.8,1.6-1.7,3.9-.4,5.7.9,19.1,13.5,38.3,10.8,57.5.5,1-.5,1.9-1.3,2.9-1.8,2.1-1.2,4.4-2.2,6.1.3,1.4,2.2.5,4.3-1.4,6.1-8.1,7.4-17.6,11.8-28.5,13.2-3,.4-6.1.6-8.6.8Z"/>
  <path class="st62" d="M494.2,453.9c-2.9,2.2-3.9-.3-5.2-2.1-5.5-7.5-7.8-16.5-10.7-25.1-1.7-5-2.3-10.3-3.7-15.4-.7-2.6-.7-4.4,2.6-4.6,2.7-.3,4,.8,4.2,3.7.1,2,.9,3.9,1.4,5.9.6,13.5,5.9,25.6,11.5,37.6Z"/>
  <path class="st40" d="M588.1,605.2c-2.2,1.1-3.4.7-4.4-1.5-7.7-17.6-9.8-35.9-7.4-55,.9-7.3.6-14.8,7.1-20.1,1,.9,1.6,2,1.5,3.4-4.7,13.6-5.7,27.6-4.4,41.9,1,10.9,4.2,21.1,7.6,31.4Z"/>
  <path class="st44" d="M805.7,739.2c.5.5,1,.9,1.4,1.4-4.1,12.8-11.1,24.1-19.5,34.5-5.4,6.6-11.7,12.4-18.6,17.6,6.9-7.5,14.1-14.7,20.1-22.9,6.1-8.3,10.6-17.6,14.4-27.1.7-1.2,1.4-2.3,2.1-3.5Z"/>
  <path class="st78" d="M722.1,725.7c-1,.4-1,1.3-1.1,2.2-2.4-2.2-3.3-5.1-4.6-8.6,3.5,1.4,4.6,3.9,5.7,6.4Z"/>
  <path class="st9" d="M520.6,707.3c14.8,2.4,29.7,4.7,44.5,7.1.1,7.4.1,7.5-6.9,6.6-8.7-1.1-17.3-2.3-26-3.5-6.1-.8-11.1-2.9-11.6-10.1Z"/>
  <path class="st14" d="M404.6,1010.9c-3.4,4.8-7.8,7.5-13.8,7.2-3.8-1.6-6.5-4.2-8-8-.4-1.2-.9-2.6.3-3.5,1.1-.8,1.9.4,2.7,1.1.6.7,1.1,1.5,1.7,2.3,1.4,1.7,2.2,4.5,5.2,3.3,2.6-1,4.3-2.9,4.8-5.9,1.2-7.2-3.7-11.5-11.4-9.8-1.2-.6-1.7-1.4-.7-2.6,7.1-5.8,18.2-1.4,19.6,8,.4,2.6-.1,5.3-.2,7.9Z"/>
  <path class="st21" d="M385,1008.8c-.6-.4-1.1-.9-1.7-1.3-.2.9-.4,1.7-.5,2.6-2.1-5.5-1.1-10.5,2.5-15.1.1.8,0,1.8,1,2.2-.2,3.9,1,7.9-1.2,11.6Z"/>
  <path class="st63" d="M497.6,991.6c8.4.2,13.7,4.5,16.3,12.4-.1,11-4.2,15.8-14.1,16.3-2.9-1.2-5.2-3.1-6.9-5.7.3-.4.7-.8,1-1.2,2,.8,3.5,3,5.9,1.9-2.3.5-4.2-.5-5.6-2.4-2.5-2.8-4.6-5.6-2.6-9.7,2.1-4.3,5.7-3.8,9.3-3.5,0-3.2-7.1-3.4-3.4-8.1Z"/>
  <path class="st100" d="M385,1008.8c-.3-3.9-1.6-8,1.2-11.6,4.3-4.7,7.6-1.1,10.6,1.6,3.5,3.2,3.2,10.2,0,13.5-4.7,4.9-7.6,4-11.7-3.5Z"/>
  <path class="st16" d="M501,1000.5c4.3,4.4,4.4,4.8,1.5,10.4-.5-3.7-1-6.8-1.5-10.4Z"/>
  <path class="st22" d="M494.2,1012.9c2.4,1.3,4.8,1.8,7.9.3-3.5,4.9-4.5,4.8-8.2.3.2-.1.3-.3.3-.5Z"/>
  <path class="st70" d="M494.6,1010c-2.1-2-1.5-3.5,0-4.7.4-.3,1.9,0,2,.3.7,1.9-.8,3-2,4.4Z"/>
  <path class="st99" d="M396.6,1004.1c-.7,3.8-.4,7.6-5,7.7-2.5,0-4.4-1.1-3.8-4.3.6-3.3-1.3-8.1,3.6-8.9,3.3-.5,4.7,3,5.3,5.5Z"/>
</svg>