<?xml version="1.0" encoding="UTF-8"?>
<svg xmlns="http://www.w3.org/2000/svg" version="1.1" viewBox="0 0 419 312">
  <!-- Generator: Adobe Illustrator 29.8.2, SVG Export Plug-In . SVG Version: 2.1.1 Build 3)  -->
  <defs>
    <style>
      .st0 {
        fill: #ffd066;
      }

      .st1 {
        fill: #ffd875;
      }

      .st2 {
        fill: #ffe9b1;
      }

      .st3 {
        mix-blend-mode: soft-light;
        opacity: .3;
      }

      .st4 {
        isolation: isolate;
      }

      .st5 {
        fill: #7743db;
      }

      .st6 {
        fill: #b17056;
      }

      .st7, .st8 {
        stroke: #fff;
      }

      .st7, .st8, .st9, .st10 {
        fill: none;
        stroke-width: .5px;
      }

      .st7, .st9, .st10 {
        stroke-linecap: round;
        stroke-linejoin: round;
      }

      .st11 {
        fill: #906aef;
      }

      .st12 {
        fill: #24234f;
      }

      .st8 {
        stroke-miterlimit: 10;
      }

      .st13 {
        fill: #fff;
      }

      .st9 {
        stroke: #ffd066;
      }

      .st14 {
        fill: #fb7070;
      }

      .st15 {
        fill: #e04b68;
      }

      .st16 {
        fill: #ff9827;
      }

      .st17 {
        fill: #ffcc4d;
      }

      .st10 {
        stroke: #24234f;
      }

      .st18 {
        fill: #3b3486;
      }

      .st19 {
        fill: #98543c;
      }
    </style>
  </defs>
  <g class="st4">
    <g id="OBJECTS">
      <path class="st1" d="M267.1,79.4c18.2,3.1,37.9-1.6,54.9,5.7,16.4,7.1,26.6,24.2,30.1,41.7,5.7,28.9-5.3,60.6-27.7,79.7-22.5,19.1-55.5,24.9-83.1,14.6-15.9-5.9-29.9-16.7-46.5-20.3-16.2-3.5-32.9.1-49.3,2.9-16.3,2.7-33.8,4.4-48.8-2.7-17.9-8.5-28.4-28.1-31.6-47.6-3.8-23.9,1.9-49.2,15.6-69.1,16-23.2,42.1-38.2,70.2-41.5,32.6-3.8,57.4,9.4,84.9,24.6,9.8,5.4,20.1,10.2,31.3,12.1Z"/>
      <g>
        <g>
          <g>
            <path class="st2" d="M277.7,19.6c58.5-2.7,110.9,15,110.9,15-2.4,21.9-7.1,35.8-7.1,35.8-54.3-10.8-103.7-11.6-103.7-11.6-2.5-13.8-.1-39.2-.1-39.2Z"/>
            <path class="st12" d="M279.2,57.1c-.7,0-.8.9-.1,1,.7,0,.8-.9.1-1Z"/>
            <path class="st12" d="M279.3,20.1c-.7,0-.8.9-.1,1,.7,0,.8-.9.1-1Z"/>
            <path class="st12" d="M380.8,68.6c-.7,0-.8.9-.1,1,.7,0,.8-.9.1-1Z"/>
            <path class="st12" d="M387.9,35.1c0,0,0-.2-.1-.2h0c0-.1-.2-.2-.3-.2h0c0,0-.1,0-.2,0,0,0-.1,0-.2,0,0,0,0,0-.1.2,0,0,0,.1,0,.2,0,0,0,0,0,.1,0,0,0,.2.1.2h0c0,.1.2.2.3.2h0c0,0,.1,0,.2,0,0,0,.1,0,.2,0,0,0,0,0,.1-.2,0,0,0-.1,0-.2h0Z"/>
          </g>
          <g>
            <path class="st18" d="M302.5,27.7l4.3-.2v2.2c0,0-.5,0-.5,0l-1.7,8.4-4.1.2-1.5-5.8h-.1s-1.1,5.9-1.1,5.9l-4.1.2-2.5-8.3h-.5s0-2.2,0-2.2l5-.2v2.2c0,0-.4,0-.4,0l.7,3.4h.1s1.1-5.7,1.1-5.7h3.9c0-.1,1.4,5.5,1.4,5.5h.1s.4-3.5.4-3.5h-.5s0-2.2,0-2.2Z"/>
            <path class="st18" d="M307.7,38.3l.2-2.2h.7s.4-6.1.4-6.1h-.7s.2-2.3.2-2.3l9.2.6-.3,4.1-3-.2v-1.9c.1,0-1.5-.1-1.5-.1v2.1c-.1,0,1,0,1,0v1.5c-.1,0-1.3,0-1.3,0l-.2,2.4h1.6c0,.1.1-2,.1-2l3,.2-.3,4.4-9.2-.6Z"/>
            <path class="st18" d="M317.4,38.7l.4-2.2h.7c0,.1,1-5.9,1-5.9h-.7c0-.1.4-2.3.4-2.3l5.7,1-.4,2.2-1.2-.2-1,6,1.2.2.2-1.2,2.7.4-.6,3.4-8.3-1.4Z"/>
            <path class="st18" d="M327.9,38.9c-.8-1-1.1-2.4-.9-4.3.4-3.6,2.4-5.2,6-4.8.9.1,1.6.3,2.3.6.7.3,1.2.6,1.6.9l-.4,3.4-3.2-.4v-1c.2-.3.1-.6,0-.8-.1-.2-.4-.3-.7-.3-.3,0-.5,0-.7.2-.2.1-.3.4-.3.7l-.5,4.1c0,.3,0,.6.1.8.1.2.4.3.7.3.3,0,.5,0,.7-.2.2-.1.3-.4.3-.7v-1.1c.1,0,3.4.4,3.4.4l-.4,3.5c-.4.2-1,.4-1.7.5-.7.1-1.5.1-2.4,0-1.7-.2-3-.8-3.8-1.8Z"/>
            <path class="st18" d="M337.7,40.3c-.8-1-1.1-2.4-.9-4.3.2-1.9.8-3.2,1.8-4,1-.8,2.3-1.1,4-.9,1.6.2,2.9.8,3.7,1.7.8,1,1.1,2.4.9,4.3-.2,1.9-.8,3.2-1.8,4-1,.8-2.3,1.1-4,.9-1.6-.2-2.9-.8-3.7-1.7ZM342.4,39.5c.2-.1.3-.4.3-.7l.5-4.1c0-.3,0-.6-.1-.8-.1-.2-.4-.3-.7-.3-.3,0-.5,0-.7.2-.2.1-.3.4-.3.7l-.5,4.1c0,.4,0,.6.1.8.1.2.4.3.7.3.3,0,.5,0,.7-.2Z"/>
            <path class="st18" d="M363,37.2h-.7c0-.1-1.1,5.9-1.1,5.9h.7c0,.1-.4,2.3-.4,2.3l-5.1-1,.4-2.2h.6c0,.1.9-4.6.9-4.6l-3.6,6.4-2-.4-1-7.2-.9,4.6h.6c0,.1-.4,2.3-.4,2.3l-4.4-.8.4-2.2h.7c0,.1,1.1-5.9,1.1-5.9h-.7c0-.1.4-2.3.4-2.3l6.1,1.2.6,4.4,2.1-3.9,5.9,1.1-.4,2.2Z"/>
            <path class="st18" d="M362.3,45.4l.6-2.1.7.2,1.6-5.9-.7-.2.6-2.1,8.8,2.5-1.1,4-2.9-.8.5-1.8-1.6-.4-.6,2.1,1.2.3-.4,1.5-1.2-.3-.6,2.3,1.6.4.6-2.1,2.9.8-1.2,4.2-8.8-2.5Z"/>
          </g>
          <g>
            <path class="st18" d="M309.1,51.7h.7s0-6.1,0-6.1h-.7s0-2.2,0-2.2h6.2c1.1,0,2,.3,2.6.7.6.5.9,1.1.9,2,0,.5-.1,1-.4,1.4-.3.4-.6.6-.9.8-.3.2-.7.3-1,.4h0c.6.2,1.2.4,1.7.8.5.3.8,1,.8,1.9,0,1-.4,1.6-1.1,2.1-.7.4-1.6.7-2.8.6h-6.2s0-2.3,0-2.3ZM314.4,47.9c.3,0,.5,0,.6-.2.1-.1.2-.4.2-.7v-.5c0-.3,0-.5-.2-.7-.1-.1-.3-.2-.6-.2h-.7s0,2.2,0,2.2h.7ZM314.4,51.8c.3,0,.5,0,.6-.2.1-.1.2-.4.2-.7v-.6c0-.3,0-.5-.2-.7-.1-.1-.3-.2-.6-.2h-.8s0,2.3,0,2.3h.8Z"/>
            <path class="st18" d="M329.7,53.2h.5c0,0-.2,2.3-.2,2.3l-5.3-.6.2-2.2h.8c0,0,0-1,0-1l-1.8-.2-.3,1.1h.8c0,0-.2,2.3-.2,2.3l-4.6-.5.2-2.2h.5c0,0,3.2-8,3.2-8l4.9.5,1.4,8.6ZM324.2,50h1.2c0,.1-.3-2.6-.3-2.6h-.1s-.9,2.6-.9,2.6Z"/>
            <path class="st18" d="M331.6,54.6c-.8-1-1.1-2.4-.8-4.3.5-3.6,2.5-5.2,6-4.7.9.1,1.6.3,2.3.6.7.3,1.2.6,1.5.9l-.5,3.4-3.2-.4v-1c.2-.3.1-.6,0-.8-.1-.2-.3-.3-.7-.3-.3,0-.5,0-.7.1-.2.1-.3.4-.3.7l-.6,4.1c0,.3,0,.6.1.8.1.2.3.3.7.3.3,0,.5,0,.7-.1.2-.1.3-.4.3-.7l.2-1.1,3.2.4-.5,3.5c-.4.2-1,.4-1.7.5-.8.1-1.5.1-2.4,0-1.7-.2-2.9-.8-3.7-1.8Z"/>
            <path class="st18" d="M350.9,56.1h.7c0,0-.2,2.3-.2,2.3l-3.7-.4-1.6-4.4-.7.4-.2,1.5h.6c0,0-.2,2.3-.2,2.3l-5.1-.6.2-2.2h.7c0,0,.7-6,.7-6h-.7c0,0,.2-2.3.2-2.3l5.1.6-.2,2.2h-.6c0,0-.2,1.7-.2,1.7l2.3-1.6h-.9c0,0,.2-2.3.2-2.3l5,.5-.2,2.2h-.7c0,0-2.5,1.5-2.5,1.5l1.9,4.5Z"/>
          </g>
        </g>
        <g>
          <g>
            <g>
              <g>
                <path class="st18" d="M242.7,262.1h33.9l-2.1-11.4c-7.1,1.2-12.8-1.6-12.8-1.6l-19,13Z"/>
                <line class="st10" x1="252.3" y1="254.2" x2="254.6" y2="256.2"/>
                <line class="st10" x1="254.1" y1="252.7" x2="256.4" y2="254.7"/>
                <line class="st10" x1="256" y1="251.3" x2="258.3" y2="253.3"/>
                <line class="st7" x1="245.9" y1="260.3" x2="275.4" y2="260.3"/>
              </g>
              <g>
                <path class="st18" d="M285,262.1h33.9l-2.1-11.4c-7.1,1.2-12.8-1.6-12.8-1.6l-19,13Z"/>
                <line class="st10" x1="294.6" y1="254.2" x2="296.9" y2="256.2"/>
                <line class="st10" x1="298.8" y1="254.7" x2="296.5" y2="252.7"/>
                <line class="st10" x1="298.3" y1="251.3" x2="300.6" y2="253.3"/>
                <line class="st7" x1="288.3" y1="260.3" x2="317.8" y2="260.3"/>
              </g>
              <path class="st5" d="M251.2,120.5c-10.8,54.8,5.9,130.5,5.9,130.5,7.4,1.6,18.8.3,18.8.3l-3.6-95.7c5.2,31.5,27.2,94.9,27.2,94.9,5.9,2,19.5.3,19.5.3l-24-130.3h-43.8Z"/>
              <g>
                <path class="st10" d="M268.8,127.6c-1.1,11.8,1.3,21.9,1.3,21.9"/>
                <path class="st10" d="M266.1,127.4c-1,9.7,2.6,12.2,2.6,12.2"/>
                <path class="st10" d="M277.6,148.3c3.2-2.3,6.5-4.2,10-5.9"/>
                <path class="st10" d="M266,151.4c-3.2-2.8-7-4.9-11.1-6.1"/>
                <path class="st10" d="M264.9,153.7c-1.6-.6-3.2-1-4.8-1.4"/>
                <path class="st10" d="M285.1,128.3c.3,2.6,1.8,5,3.9,6.5,2.1,1.5,4.8,2.1,7.4,1.7"/>
                <path class="st10" d="M255.9,126.5c-.7,2.5-2.6,4.7-5,5.7"/>
                <path class="st10" d="M292.8,136.7c6.6,52.9,22.3,112.4,22.3,112.4"/>
                <path class="st10" d="M267.3,156.8c.8,52,4.6,92.3,4.6,92.3"/>
              </g>
            </g>
            <g>
              <g>
                <g>
                  <path class="st6" d="M338.2,151l-.4-1.7c4.7-4.5,4-7.9,3.5-10.1l-13.6,2.9c.3.9-2.3,5.7-1.9,9.1.4,3.4,3.4,8.7,5.3,5.9,2,1,2.9-1.2,2.9-1.2,2.4,1,2.5-.8,2.5-.8,3.9.6,4.5-6.1,1.7-4.1Z"/>
                  <g>
                    <path class="st10" d="M330.9,156.8c-.5-.2-.9-.5-1.1-1"/>
                    <path class="st10" d="M333.8,155.6c-.5-.1-1-.5-1.3-.9"/>
                    <path class="st10" d="M336.2,154.9c-.3,0-.6-.3-.7-.6"/>
                    <path class="st10" d="M338.2,151.1c-.1.3-.3.6-.5.8"/>
                  </g>
                </g>
                <path class="st15" d="M298.2,77.2l-3.7,24.9c18.7,11.2,30.3,38,32.2,40s12.6.9,14.6-2.9c2-3.7-13.5-52.8-43.1-62Z"/>
              </g>
              <g>
                <path class="st6" d="M238.4,28.3s4.4-5.4,5.1-4.9c.6.5-1.8,3.8-1.8,3.8,0,0,4.4-4.4,5-4.1.7.3-2.9,5.3-2.9,5.3,0,0,4.9-5.5,5.7-4.9.8.6-3.8,5.8-3.8,5.8,0,0,4.6-4.8,5.5-4,.9.8-6.1,8.3-6.1,8.3,2.3-1,4.3-.4,5.1.4.3.2.2.7-.2.8-1.1.4-3.5,1.3-3.9,1.9-.5.8-2.4,2.1-3.7,1.8l-12.5-3.6c3.9-8,8.4-6.7,8.4-6.7Z"/>
                <path class="st10" d="M242.2,31.7c-1.4-.8-3.3-.7-4.7.2"/>
              </g>
              <path class="st15" d="M261.6,73.2c-7.3-1.5-23.4-6.5-23.4-6.5,0,0,6.3-26.1,5.3-27.5-.9-1.4-12.1-5.7-14-4.3-1.9,1.4-12.5,28.1-8.7,39.6s34.2,20.8,34.2,20.8l6.7-22Z"/>
              <g>
                <path class="st15" d="M268.5,74.5c-2.1-4.5,15.1-14.6,24.1-10.9,6.9,2.8,1.2,9.1,1.2,9.1,3.8-.4,3.9,2.3,1,3.6-2.9,1.3-26.3-1.8-26.3-1.8Z"/>
                <path class="st15" d="M298.2,129.2c-4.7,2.7-43.6.6-48.2-1-4.6-1.6-3.7-3-1-5.3,0,0-1.2-1.7,1-3.4,0,0,1.4-25.4,11.6-46.3,4.1.8,8.5,1.1,12.8,1.2h0c4.1.1,8.2.2,12,.4,4.4.3,8.5.9,11.8,2.4,0,0-3.5,27.7,0,42,0,0,1.8,1.1.2,4.2,0,0,4.5,3.1-.2,5.8Z"/>
                <path class="st6" d="M286.5,74.8c-2.4,3.5-12.3,6.7-12.3,6.7-.7-4.3.3-7.1.3-7.1h0c4.1.1,8.2.2,12,.4Z"/>
                <path class="st13" d="M289.7,122.3c-2.2-2.6-3.6-5.9-3.9-9.3,0-.3-.4-.3-.4,0,.3,3.5,1.7,6.9,4.1,9.6.2.2.5,0,.3-.3Z"/>
                <path class="st13" d="M257.1,111.4c-.3,3.6-1.7,7.1-4,9.8-.2.2.1.5.3.3,1.9-2.2,3.2-4.8,3.8-7.6.2-.8.3-1.6.3-2.4,0-.3-.4-.3-.4,0Z"/>
                <g>
                  <path class="st10" d="M295.5,102c-1.8-1-3.6-2-5.4-3"/>
                  <path class="st10" d="M255.3,93.4c1-5.6,2.6-11,5-16.2"/>
                  <path class="st10" d="M279.4,93.3c-3.8,3.9-9.4,5.7-14.8,6.5"/>
                  <g>
                    <path class="st7" d="M289.8,74.9c-.5,2-1.8,3.7-3.5,4.8-.3.2-.5.3-.9.4-.3,0-.7,0-.9-.2-.2-.2-.3-.6,0-.9.3-.3.8-.2,1,.2.2.3,0,.8-.2,1.1-.2.3-.6.5-1,.7-.8.4-1.7.6-2.5.9s-1.7.8-2.3,1.4-1,1.6-.8,2.5"/>
                    <path class="st7" d="M273.2,73.7c0,1.5-.2,3-.9,4.4-.1.2-.2.5-.4.6-.2.2-.5.2-.7.1-.2-.1-.4-.4-.2-.6.1-.2.4-.2.6,0s.3.4.4.6c.2.7.1,1.5,0,2.2-.2.7-.4,1.5-.4,2.2s.2,1.5.7,2.1"/>
                  </g>
                  <line class="st10" x1="238" y1="67.1" x2="237.1" y2="71.3"/>
                </g>
              </g>
              <g>
                <g>
                  <path class="st12" d="M288.7,55.1c-.6-3-4.5-3.7-4.5-3.7,0,0-2.2-5.4-7.5-5.1-5.3.3-7.2,5.1-7.2,7.2,0,3,2.1,5,2.1,5l11.4,5.7c0,0,6.5-6,5.9-9.1Z"/>
                  <path class="st12" d="M284.5,51.2s.4-.8-.2-1.9l-.4,2.4h.7c0,.1,2.4-.6,2.4-.6,0,0-1.2-1.1-2.4,0Z"/>
                  <path class="st6" d="M275.7,69.4l-.9,6.6c5.5,1,10.2.5,10.2.5l-2.9-21.6-10.3-.7c-3.4,7.4-3.1,14.4,3.8,15.3Z"/>
                  <path class="st12" d="M271.4,54.3c-1.6,3.9,8.5,1,8.5,1-1,1.7.5,1.9.5,1.9l2.3,4,.8-6.9-11.7-1.9-.5,1.9Z"/>
                  <path class="st12" d="M275.7,69.4c1.6,0,3-.4,3-.4-.7,1.9-3.2,2.4-3.2,2.4l.3-1.9Z"/>
                  <path class="st6" d="M285.1,61.9c0,1-.9,1.8-1.9,1.7-1,0-1.8-.9-1.7-1.9s.9-1.8,1.9-1.7c1,0,1.8.9,1.7,1.9Z"/>
                  <g>
                    <path class="st10" d="M274,60.7c-.1,0-.3,0-.4,0,0,0-.1.2,0,.4,0,.1,0,.2.2.3"/>
                    <path class="st13" d="M273,62.6l2.9-.8c.2,0,.4,0,.4.3,0,1.9-2.8,2.7-3.5.9,0-.2,0-.3.2-.4Z"/>
                    <path class="st10" d="M276.3,59.4c.2-.3.6-.5.9-.4s.7.3.8.6"/>
                    <path class="st10" d="M271,59.1c.2-.3.6-.5.9-.4s.7.3.8.6"/>
                  </g>
                </g>
                <g>
                  <path class="st8" d="M274.1,54.7c-.2,1.5-.9,2.7-1.7,2.7-.8,0-1.3-1.4-1.1-2.9.2-1.5.9-2.7,1.7-2.7.8,0,1.3,1.4,1.1,2.9Z"/>
                  <path class="st8" d="M278.7,55.2c-.2,1.5-.9,2.7-1.7,2.7-.8,0-1.3-1.4-1.1-2.9.2-1.5.9-2.7,1.7-2.7.8,0,1.3,1.4,1.1,2.9Z"/>
                  <line class="st8" x1="278.7" y1="55.2" x2="287.4" y2="59.2"/>
                  <line class="st8" x1="274.1" y1="54.5" x2="275.9" y2="54.6"/>
                </g>
              </g>
            </g>
          </g>
          <g>
            <path class="st12" d="M100.9,63.4c-.7,0-1.3-.6-1.3-1.3,0-.7.5-1.4,1.2-1.7.6-.3,1.4-.3,2.1-.2-.3-1-.6-2.1-.5-3.1.1-1.1.8-2.1,1.8-2.3,1.1-.2,2.3.6,2.7,1.7.3-.9,1-1.7,1.8-2.1.8-.4,1.9-.5,2.7,0,.6.3,1.1.9,1.4,1.6.2.7.2,1.4-.2,2.1.5-.5,1.4-.7,2-.4s1.1,1,1.1,1.7c0,.7-.4,1.4-1.1,1.8l-9.9,4.7c-.6.3-1.2.7-1.9.8-.7.2-1.4.1-2-.2-.6-.3-1.1-.9-1.1-1.6,0-.7.5-1.4,1.2-1.5Z"/>
            <path class="st0" d="M104.7,64c.5.8,2.1.7,3.8-.2,1.6-.9,2.6-2.3,2.1-3.1-.5-.8-2.1-.7-3.8.2s-2.6,2.3-2.1,3.1Z"/>
            <path class="st12" d="M104.4,64.2c1.4-2.1,3.9-3.5,6.4-3.4.8,0,1.6.2,2.1.8,1.2-.5,2.5-1,3.8-1.1,1.3,0,2.7.3,3.6,1.4s.8,2.7-.2,3.6c.4,0,.8.4,1,.8.1.4.1.9,0,1.3-.3,1.6-1,3.2-2.1,4.4l-10.2,3.2c-1.4.7-3.2.5-4.3-.6-.8-.8-1.2-1.9-1.4-3-.5-2.5,0-5.2,1.4-7.3Z"/>
            <g>
              <g>
                <g>
                  <path class="st19" d="M79.5,252l13.2-.8c5.4-14,10.3-36.2,12.5-47.4.9-4.3,1.4-6.9,1.4-6.9l-20.4-3.3-1.1,9.9-5.6,48.6Z"/>
                  <path class="st19" d="M76.7,262.1h6.6l1.3-2.3,1.9,2.3h22.3l-11.9-8.1-6.1-4.2s-4.2,2.5-11,1.4l-.4,1.6-2.7,9.4Z"/>
                  <path class="st5" d="M76.7,262.1h6.6l1.3-2.3,1.9,2.3h22.3l-11.9-8.1c-6.6,3.5-14.7.1-17.5-1.2l-2.7,9.4Z"/>
                </g>
                <g>
                  <path class="st19" d="M113.8,198.5l.2,8,.9,45.5,13.2-.8c3.7-15.9,6.8-38,8.1-47.7.4-3.1.6-4.9.6-4.9h-23Z"/>
                  <path class="st19" d="M112,262.1h6.6l1.3-2.3,1.9,2.3h22.3l-11.9-8.1-6.1-4.2s-4.2,2.5-11,1.4l-.4,1.6-2.7,9.4Z"/>
                  <path class="st5" d="M112,262.1h6.6l1.3-2.3,1.9,2.3h22.3l-11.9-8.1c-6.6,3.5-14.7.1-17.5-1.2l-2.7,9.4Z"/>
                </g>
              </g>
              <g>
                <path class="st15" d="M100.2,121.2h30.1c19.8,19.7,3,126.7,3,126.7,0,0-10.6,3.1-22.4,0l2.8-75.7-13.6,74.2s-6,1.5-22.1-3.2c0,0,2.7-107.7,22.1-121.9Z"/>
                <g>
                  <line class="st10" x1="114.2" y1="170.9" x2="116.6" y2="153.9"/>
                  <path class="st10" d="M117.1,121.1c1.3,10.2,1,19.7,1,19.7"/>
                  <path class="st10" d="M119.8,121.1c1.7,13.7-1.6,16.9-1.6,16.9"/>
                  <line class="st10" x1="119.8" y1="156.9" x2="126.8" y2="169.3"/>
                  <line class="st10" x1="119.9" y1="160.5" x2="126" y2="178.1"/>
                  <path class="st10" d="M118.4,166.8c0,.4,0,.8-.1,1.3l-2.7,78"/>
                  <path class="st10" d="M100.4,127.8c-13.4,49.8-18.1,111.9-18.1,111.9"/>
                </g>
              </g>
            </g>
            <g>
              <g>
                <path class="st19" d="M122.1,86c8.3-.4,31.1-9.3,31.1-9.3l-4.7-28.1,12.3-3.1s11.6,29.9,6.6,41.4-37.1,20-37.1,20l-8.2-20.9Z"/>
                <g>
                  <path class="st9" d="M149.1,53.7c-1,.9-1.6,1.7-1.3,2,.5.8,4.4-.5,8.9-3,4.4-2.5,7.6-5.2,7.2-6-.2-.3-.9-.3-1.9,0"/>
                  <path class="st9" d="M147.9,50.7c-1.1.4-1.8.9-1.7,1.3.1,1,4.3,1.2,9.3.5,5-.7,9-2,8.9-2.9,0-.4-.8-.7-2-.8"/>
                </g>
                <g>
                  <path class="st19" d="M152.8,39.1s-4.2-5.2-4.8-4.6c-.6.5,1.7,3.6,1.7,3.6,0,0-4.1-4.2-4.8-3.9-.6.3,2.7,5,2.7,5,0,0-4.6-5.2-5.4-4.7-.8.6,3.6,5.5,3.6,5.5,0,0-4.4-4.5-5.2-3.8-.8.7,5.8,7.9,5.8,7.9-2.1-1-4-.3-4.8.3-.3.2-.2.7.2.8,1,.4,3.3,1.2,3.7,1.8.4.8,2.2,2,3.5,1.7l11.8-3.4c-3.7-7.6-7.9-6.4-7.9-6.4Z"/>
                  <path class="st10" d="M149.2,42.3c1.4-.8,3.2-.7,4.5.2"/>
                </g>
              </g>
              <g>
                <path class="st5" d="M95.5,108.2l1.2,3.2,3.6,9.9c15.9,2.5,30.1,0,30.1,0l.6-11.2c3.9-3.9.3-10.3-3.5-13.3l-5.3-10.8c-.7,0-1.4,0-2.1-.1-.9,0-1.8,0-2.7,0-4.3,0-9,.4-12.6.7h0c-.8,0-1.5.2-2.2.2-2.5.3-4.2.5-4.2.5l-2.8,20.9Z"/>
                <path class="st19" d="M104.6,86.6c2.9,7.9,13.9,12.5,12.6-.8-4.3,0-9,.4-12.6.7h0Z"/>
                <path class="st10" d="M120.8,109.4c-2.8.1-5.7.3-8.5.4"/>
              </g>
              <g>
                <g>
                  <path class="st19" d="M54.3,159l.3-1.4c-3.9-3.7-3.4-6.6-2.9-8.5l11.3,2.4c-.2.8,1.9,4.7,1.6,7.6-.3,2.9-2.8,7.2-4.4,4.9-1.7.8-2.4-1-2.4-1-2,.8-2.1-.7-2.1-.7-3.3.5-3.8-5.1-1.4-3.4Z"/>
                  <g>
                    <path class="st10" d="M60.4,163.9c.4-.1.7-.4.9-.8"/>
                    <path class="st10" d="M57.9,162.9c.4,0,.8-.4,1-.8"/>
                    <path class="st10" d="M55.9,162.3c.3,0,.5-.3.6-.5"/>
                    <path class="st10" d="M54.3,159.1c0,.2.2.5.4.6"/>
                  </g>
                </g>
                <path class="st19" d="M98.3,87.3c-25.9,5-46.6,61.8-46.6,61.8l10.9,3.3c13-26.1,33.4-42.8,33.4-42.8l2.3-22.3Z"/>
                <g>
                  <path class="st9" d="M52.7,145.5c-1.2,0-2,.2-2.1.6-.2.8,3.2,2.2,7.6,3.2,4.4.9,8,1,8.2.2,0-.3-.4-.7-1.2-1.1"/>
                  <path class="st9" d="M53.7,142.8c-1-.4-1.7-.4-1.9-.1-.5.7,2.2,3.3,5.9,5.7,3.7,2.5,7.1,3.9,7.6,3.2.2-.3-.1-.9-.9-1.7"/>
                </g>
              </g>
              <g>
                <path class="st19" d="M114.4,79.9l1.3,6.1c-5.2,1.3-9.6,1.1-9.6,1.1l1.3-20.6,9.7-1.4c3.7,6.8,3.8,13.4-2.7,14.7Z"/>
                <path class="st12" d="M105.3,67.3c.4-1.1,1.2-2.2,2.2-2.9,1.4-.9,3-1.3,4.7-1.5,1-.1,2-.2,3.1,0s2,.6,2.7,1.3c.7.7,1.1,1.9.7,2.8l.2.7c-.8-.2-1.5-.8-1.8-1.6-.3.2-.6.3-.9.2-.3,0-.6-.3-.7-.6-.7.6-1.7.6-2.4,0-.2.5-.6,1-1.1,1.2-.5.2-1.1.2-1.6,0,0,.4,0,.8-.3,1-.3.3-.7.3-1,.2.1.5.2,1,.1,1.4-.1.5-.5.9-1,1,.3.3.4.8.2,1.3-.2.4-.6.7-1.1.7-.4,0-.9,0-1.3-.4-.4-.3-.6-.9-.8-1.4-.3-1.2-.3-2.5.2-3.6Z"/>
                <path class="st12" d="M114.4,79.9c-1.5.2-2.8-.2-2.8-.2.8,1.7,3.2,2,3.2,2l-.4-1.8Z"/>
                <path class="st19" d="M105,73.4c.1.9,1,1.6,1.9,1.5s1.6-1,1.5-1.9c-.1-.9-1-1.6-1.9-1.5-.9.1-1.6,1-1.5,1.9Z"/>
                <g>
                  <path class="st10" d="M115.5,71.5c.1,0,.3,0,.3,0,0,0,.1.2.1.3,0,.1,0,.2-.2.3"/>
                  <path class="st13" d="M116.6,73.2l-2.8-.6c-.2,0-.4.1-.3.3.2,1.8,2.8,2.3,3.3.7,0-.2,0-.3-.2-.4Z"/>
                  <path class="st10" d="M113.3,70.5c-.2-.3-.6-.4-.9-.3-.3,0-.6.3-.7.6"/>
                  <path class="st10" d="M118.2,69.8c-.2-.3-.6-.4-.9-.3-.3,0-.6.3-.7.6"/>
                </g>
              </g>
            </g>
            <g>
              <path class="st16" d="M63.1,121.2s4.5,6.6,9.7,9.5c.1,0,.2.1.4.2,1.1.6,2.3,1,3.4,1.2.7-1.4,2.4-3.5,4.5-5.9,0-.1.2-.2.3-.3,2.8-3.2,6.2-6.8,9.1-9.6,0,0,.2-.2.3-.3,3-3,5.2-5.1,5.2-5.1l2.3,9.5c-.3.4-.7.9-1,1.3,0,.1-.2.2-.2.3-5,7-8.2,16.7-8.2,16.7,0,0,5,1.8,10.4,2.6h0c.2,0,.3,0,.5,0,2.9.4,5.8.5,8-.2,0-1.5,0-3.6,0-5.9,0-.1,0-.3,0-.4,0-1.8-.2-3.7-.3-5.8,0-.1,0-.3,0-.4-.4-5.9-.9-12.8-1.5-19.3,0-.2,0-.3,0-.5-.2-2.7-.5-5.3-.7-7.7,0-.1,0-.3,0-.4-.3-3.4-.6-6.4-.9-8.7,0-.2,0-.3,0-.4-.3-3.1-.5-5-.5-5l-5.3.3c-.5.1-1.1.3-1.6.4-.2,0-.3.1-.5.1-3,1-5.9,2.6-8.7,4.7-.1,0-.2.2-.4.3-2.9,2.1-5.6,4.7-8.1,7.3-.1.1-.2.2-.3.3-3.5,3.7-6.5,7.6-9,11.1,0,.1-.2.2-.2.3-3.9,5.5-6.3,9.7-6.3,9.7Z"/>
              <g class="st3">
                <path class="st13" d="M96.1,87.5c.2,0,.3-.1.5-.1,2.4,1.5,4.9,2.9,7.4,4.2,0,.1,0,.3,0,.4-.1,0-.2-.1-.4-.2-2.6-1.4-5.1-2.8-7.6-4.3Z"/>
                <path class="st13" d="M87.1,92.4c.1,0,.2-.2.4-.3,5.6,2.2,10.8,5.1,16.1,7.9.5.2.9.5,1.4.7,0,.1,0,.3,0,.4-2.5-1.3-4.9-2.6-7.4-3.8-3.5-1.8-7-3.5-10.6-4.9Z"/>
                <path class="st13" d="M96.9,122c0-.1.1-.2.2-.3,1.4,1.2,2.8,2.3,4.2,3.5,1.8,1.4,3.7,2.8,5.9,3.6,0,.1,0,.3,0,.4-1.4-.5-2.8-1.3-4-2.1-2.2-1.5-4.3-3.2-6.3-5Z"/>
                <path class="st13" d="M78.6,100.1c.1-.1.2-.2.3-.3,2.8.6,5.5,1.2,8.3,1.9,5.5,1.4,11,3.2,16.1,5.9.8.4,1.6.9,2.4,1.4,0,.2,0,.3,0,.5-3.4-2.2-7.2-3.8-11-5.2-5.2-1.8-10.7-3-16.1-4.1Z"/>
                <path class="st13" d="M79.6,111.1c2.4-1.4,5.3-.1,7.3,1.5,1.2.9,2.2,2,3.3,3,.1.1.2.2.4.3,0,0-.2.2-.3.3-.6-.6-1.2-1.1-1.8-1.7-2-1.9-4.5-4.2-7.6-3.6-2.9.6-3.7,3.7-3.2,6.2.3,1.5,1,2.9,1.7,4.3.7,1.4,1.3,2.8,1.8,4.2,0,0,0,0,0,.1,0,.1-.2.2-.3.3,0,0,0-.2,0-.3-.5-1.5-1.1-2.9-1.8-4.3-.7-1.4-1.3-2.7-1.6-4.2-.5-2.2,0-5,2.1-6.2Z"/>
                <path class="st13" d="M69.4,111.5c0-.1.2-.2.2-.3,1.3,1.9,2.2,4.1,2.8,6.3,1.2,4.4,1.1,8.9.7,13.4-.1,0-.2-.1-.4-.2,0-.3,0-.6,0-.8.4-5.8.1-11.7-2.7-17-.2-.5-.5-.9-.8-1.4Z"/>
                <path class="st13" d="M95.7,129.5c1.9-.5,3.9.3,5.5,1.3,1.7,1.1,3.2,2.5,5,3.4.5.2.9.4,1.4.6,0,.1,0,.3,0,.4-.9-.3-1.7-.7-2.5-1.2-.9-.6-1.7-1.2-2.5-1.8-1.6-1.2-3.4-2.5-5.5-2.5-1.7,0-3.5.9-3.9,2.6-.4,1.8,1.1,3.4,2.4,4.5,1.4,1.3,2.9,2.6,4,4.3,0,0,0,.1.1.2-.2,0-.3,0-.5,0h0c-1.1-1.6-2.5-2.9-3.9-4.2-1.2-1.1-2.6-2.5-2.5-4.3.1-1.6,1.5-2.9,3-3.3Z"/>
              </g>
              <path class="st16" d="M118.9,85.8c1.4,3.4,2.8,7.7,4.1,12.4,0,.3.2.6.3.9.7,2.6,1.4,5.2,2.1,7.9,0,.2,0,.3.1.5,1.1,4.5,2.1,9,3,13.2,0,.1,0,.2,0,.4.6,2.7,1.1,5.3,1.5,7.6,0,.1,0,.2,0,.4.6,3.3,1.1,6,1.5,7.9,0,.1,0,.3,0,.4.3,1.6.4,2.4.4,2.4,3.5.2,7.9-2.4,7.9-2.4-.2-.7-.4-1.4-.6-2,0-.1,0-.3-.1-.4-.8-2.4-1.6-4.5-2.4-6.3,0-.1-.1-.3-.2-.4-2.8-6-5.3-7.9-5.3-7.9v-.2s0-.4,0-.4v-9.6c.1,0,.2,0,.2,0,.1,0,.2-.2.4-.3,2.2-1.8,1.8-4,1.8-4,3.3-.8,6.4-1.8,9.3-2.9.1,0,.3,0,.4-.1,2.9-1.1,5.6-2.3,8-3.4.1,0,.2-.1.3-.2,6.7-3.2,11.1-6,11.1-6-.2-.7-.4-1.5-.6-2.2,0-.2-.1-.4-.2-.6-1.8-5.2-5.1-9.2-7.4-11.5-.2-.2-.4-.4-.6-.6-1.2-1.2-2.1-1.8-2.1-1.8-.4.1-.7.3-1.1.4-.2,0-.3.1-.5.2-1.7.7-3.5,1.3-5.2,1.9-.1,0-.3,0-.4.1-2.3.8-4.5,1.5-6.6,2.2-.1,0-.3,0-.4.1-1,.3-2.1.6-3,.9-.1,0-.2,0-.4.1-4.2,1.2-7.6,2.1-9.7,2.7h0c-.1,0-.3,0-.4.1-1.2.3-1.9.5-1.9.5h-3.5Z"/>
              <g class="st3">
                <path class="st13" d="M150.5,77.2c1.3.8,2.8,1.4,4.2,1.8-.2-.2-.4-.4-.6-.6-1.1-.4-2.1-.9-3.1-1.4-.2,0-.3.1-.5.2Z"/>
                <path class="st13" d="M149.1,82.3c2.6,1.8,5.2,3.6,7.8,5.4,1.8,1.2,3.5,2.3,5.3,3.5,0-.2-.1-.4-.2-.6-5.1-3.3-10-6.6-14.9-10.1-.6-.4-1.2-.9-1.8-1.3-.1,0-.3,0-.4.1.1.1.3.2.4.3,1.3.9,2.6,1.8,3.9,2.8Z"/>
                <path class="st13" d="M132,136.9c-.1,0-.3,0-.4,0,0,.1,0,.3,0,.4.6,0,1.2.1,1.8.1,2.2,0,4.4-.5,5.9-2.1,0-.1,0-.3-.1-.4-1.7,2.2-4.7,2.3-7.3,2.1Z"/>
                <path class="st13" d="M130.1,128.6c0,.1,0,.2,0,.4,2.2,0,4.5-.8,6.7-.4,0-.1-.1-.3-.2-.4-1.6-.3-3.4,0-5,.3-.5,0-1,.1-1.6.1Z"/>
                <path class="st13" d="M131.3,119.7c-1,.3-2,.6-2.9.9,0,.1,0,.2,0,.4,0,0,0,0,.1,0,.9-.3,1.8-.6,2.7-.9v-.4Z"/>
                <path class="st13" d="M125.3,107c0,.2,0,.3.1.5.2,0,.5.2.7.3,1.5.6,3,1.2,4.4,1.9.3.1.7.3,1,.5.1,0,.2-.2.4-.3-1.3-.7-2.7-1.2-4-1.7-.9-.4-1.7-.7-2.6-1.1Z"/>
                <path class="st13" d="M142.9,88c2,2.5,4,5.1,6,7.6.9,1.2,1.9,2.5,2.5,3.9.1,0,.2-.1.3-.2-.5-1.2-1.3-2.3-2.1-3.4-2-2.5-4-5-6-7.6-1-1.3-2-2.6-3.1-3.8-.8-1-1.7-2-2.4-3.1-.1,0-.3,0-.4.1.6.9,1.3,1.7,2,2.6l3.1,3.8Z"/>
                <path class="st13" d="M123,98.2c0,.3.2.6.3.9.2.2.3.4.5.6,1.5,1.7,3.8,3.3,6.2,2.3,1-.4,1.7-1.2,2-2.3.4-1.2.3-2.5,1.1-3.6,1.3-1.9,4.2-1.3,5.7-.1,2.1,1.6,2.9,4.4,4.2,6.7,0,0,0,.2.1.2.1,0,.3,0,.4-.1-1.8-2.9-2.6-6.6-6-7.9-1.8-.7-4.1-.4-5,1.5-.5,1.1-.5,2.3-.9,3.5-.4,1.2-1.5,2-2.8,2-2.4.1-4.3-1.9-5.7-3.7Z"/>
                <path class="st13" d="M124.3,85.4c.5.6,1,1.2,1.6,1.7.7.7,1.4,1.4,2.3,2,.8.5,1.8.9,2.7.9.9,0,1.7-.3,2.4-.9,1.6-1.3,2.1-3.3,1.8-5.3,0-.5-.2-.9-.3-1.4-.1,0-.2,0-.4.1.2.6.3,1.3.4,2,.1,1.8-.6,3.8-2.3,4.7-.8.4-1.7.5-2.6.3-.9-.3-1.8-.8-2.5-1.5-1-.8-1.9-1.8-2.7-2.7h0c-.1,0-.3,0-.4.1Z"/>
              </g>
              <g>
                <path class="st10" d="M133,104.8c-.5-4.9-5-7.4-5-7.4-1.3-4.3-4.2-8.9-4.2-8.9"/>
                <line class="st10" x1="96.2" y1="110.1" x2="100.6" y2="104.2"/>
              </g>
            </g>
          </g>
          <line class="st10" x1="49.4" y1="262.1" x2="341.5" y2="262.1"/>
          <g>
            <g>
              <g>
                <path class="st14" d="M162.1,100c-1.6-3.8-8.9-4.9-8.9-4.9-.8,1.5,2.7,3.8,2.7,3.8,0,0-11.8.4-11.7,1.3.1.8,5.6,1.1,5.6,1.1,0,0-6.8.8-6.7,1.8,0,1,6.4,0,6.4,0,0,0-6.3,2.4-6.1,3.1s5.7-1.1,5.7-1.1c0,0-4.1,2.6-4,3.2.1.6,4.6-1.6,5.4-1.7.8,0,8.4,4.8,8.4,4.8l3.2-11.5Z"/>
                <path class="st10" d="M158.6,101.4c-1.8,0-3.6.8-5,2"/>
              </g>
              <path class="st14" d="M209.8,84.3c-11.5,2.3-23.3,23.8-23.3,23.8l-25.1-9.1-4.3,11.3s22.4,14.8,30.6,14.9c11.1.2,14.2-7.4,14.2-7.4l7.8-33.6Z"/>
              <path class="st12" d="M189.3,103.6c6.4,4.4,9.2,12.3,9.2,12.3l.4-7.7-8.8-5.9-.8,1.4Z"/>
              <path class="st11" d="M209.8,84.3c-11.8,2.8-21,19.1-21,19.1,6.3,2.8,13.8,13.1,13.8,13.1l7.2-32.1Z"/>
            </g>
            <g>
              <path class="st14" d="M254.5,262.1h-6.8l-1.3-2.4-2,2.4h-23.1l12.4-8.4,6.3-4.3s4.4,2.6,11.4,1.4l.5,1.6,2.8,9.7Z"/>
              <path class="st15" d="M254.5,262.1h-6.8l-1.3-2.4-2,2.4h-23.1l12.4-8.4c6.8,3.7,15.2.2,18.1-1.3l2.8,9.7Z"/>
              <path class="st14" d="M220.3,262.1h-6.8l-1.3-2.4-2,2.4h-23.1l12.4-8.4,6.3-4.3s4.4,2.6,11.4,1.4l.5,1.6,2.8,9.7Z"/>
              <path class="st15" d="M220.3,262.1h-6.8l-1.3-2.4-2,2.4h-23.1l12.4-8.4c6.8,3.7,15.2.2,18.1-1.3l2.8,9.7Z"/>
              <path class="st16" d="M233.3,121.4l-37.4-.9c-18.2,31.2,5.9,131.2,5.9,131.2,5,3.5,16.4.6,16.4.6v-75.4c0,0,17.5,74.3,17.5,74.3,9.3,3,16.5.3,16.5.3,0,0,8.4-84.6-18.8-130Z"/>
              <g>
                <path class="st10" d="M217.9,175.4h0c0,0-3.5-19-3.5-19"/>
                <path class="st10" d="M209.8,126.6c.1,10.1,1.4,19.2,1.4,19.2"/>
                <path class="st10" d="M207.1,125.9c0,7-.3,16.1,3.7,16.5"/>
                <line class="st10" x1="212" y1="164.5" x2="204" y2="179.6"/>
                <line class="st10" x1="212.3" y1="167.8" x2="206.4" y2="190.4"/>
                <path class="st10" d="M226.2,127c2.5,10.7,10.8,8.2,10.8,8.2"/>
                <path class="st10" d="M199.9,127c-1.9,9.8-7.5,8.9-7.5,8.9"/>
                <path class="st10" d="M233.5,135.9c23,55.7,16.4,114.1,16.4,114.1"/>
                <line class="st10" x1="210.7" y1="173.9" x2="214.4" y2="251.8"/>
              </g>
              <path class="st15" d="M194.5,123.3c10.1,5.5,36,2.6,40.4.8l-2.1-3.6-36.8-.2c-.9,1.1-1.5,3-1.5,3Z"/>
              <path class="st17" d="M221.7,126.5c-.6-1.6-1.3-3.2-1.9-4.8-.2-.4-.5-.7-1-.5-.4.1-.7.6-.5,1,.6,1.6,1.3,3.2,1.9,4.8.2.4.5.7,1,.5.4-.1.7-.6.5-1Z"/>
              <path class="st17" d="M203.4,120.9c-.4-.2-.8-.1-1.1.3l-2.4,4.3c-.2.4,0,.9.3,1.1.4.2.8.1,1.1-.3l2.4-4.3c.2-.4,0-.9-.3-1.1Z"/>
            </g>
            <g>
              <path class="st12" d="M249.7,72c-1.6-.4-3.3,0-4.9.2-1.2.1-2.7.1-3.5-.8-.8-1-.6-2.5,0-3.6.6-1.1,1.6-2,2.2-3.2,1-1.8.9-4.2-.3-5.9-1.1-1.7-3.3-2.8-5.3-2.6-2.3.2-4.2,1.6-6.1,3s-4,2.7-6.3,2.5l-.5,8.2c-.7.7-.3,1.9.4,2.5.7.6,1.6.9,2.5,1.4.8.5,1.6,1.3,1.5,2.2-.1,1-1.1,1.5-2,2-1.4.7-2.9,1.4-3.8,2.6-1,1.2-1.3,3.1-.3,4.3.9,1.1,2.4,1.2,3.8,1.2,5.4.2,10.8.4,16.2.7,0-2.8,1.7-5.5,4.1-6.9,1.1-.6,2.2-.9,3.3-1.5,1.1-.6,2-1.6,2.1-2.8.1-1.6-1.4-3-3-3.4Z"/>
              <path class="st12" d="M215.7,57.7c-6.2-4.6-10.5,5.7-3.5,11l12.7,3.4c14.8-2.5-.9-18.1-9.2-14.4Z"/>
              <path class="st14" d="M218,75.9l-.5,7.9c5.5.6,10.6.2,10.6.2l-4.7-22.8h-10.1c-2.9,7.5-2,14.3,4.8,14.7Z"/>
              <path class="st12" d="M213.1,61.2c1.1,6.8,12.2,5.9,12.2,5.9l-1.3-6.7-10.6.8"/>
              <path class="st12" d="M218,75.9c1.8,0,2.5-.6,2.5-.6-.9,1.9-2.7,2.7-2.7,2.7v-2.1Z"/>
              <path class="st14" d="M226.7,67.9c0,1-.8,1.8-1.8,1.8s-1.8-.8-1.8-1.8.8-1.8,1.8-1.8,1.8.8,1.8,1.8Z"/>
              <g>
                <path class="st10" d="M217.6,66.2c.2-.4.6-.8,1.1-.8s.9.3,1.1.7"/>
                <path class="st10" d="M212.4,66.2c.2-.4.6-.8,1.1-.8s.9.3,1.1.7"/>
                <path class="st10" d="M215.7,67.5c-.1,0-.3,0-.3.1,0,.1,0,.2,0,.4,0,.1.1.2.2.3"/>
                <path class="st13" d="M214.8,69.2l2.9-.5c.2,0,.4.1.3.3-.3,1.8-3,2.3-3.5.5,0-.2,0-.3.2-.4Z"/>
              </g>
              <g>
                <path class="st7" d="M219.6,65.8c0,1.4-.8,2.5-1.8,2.5s-1.8-1.1-1.8-2.5.8-2.5,1.8-2.5,1.8,1.1,1.8,2.5Z"/>
                <path class="st7" d="M215.2,65.8c0,1.4-.8,2.5-1.8,2.5s-1.8-1.1-1.8-2.5.8-2.5,1.8-2.5,1.8,1.1,1.8,2.5Z"/>
              </g>
            </g>
            <g>
              <path class="st11" d="M238.4,83.3v24.6l-5.1,13.5c-16.4,1.3-31.6,2.1-37.4-.9,1.9-9.8,3.3-13.2,3.3-13.2-3.7-3.2,1.5-10.8,4.8-12l5.8-10.9c1.9-.6,3.8-1,5.6-1.3,5.8-1,11.3-1,15.5-.7,4.5.3,7.5,1,7.5,1Z"/>
              <path class="st13" d="M213.6,124.4c0,1.8-1.7,3.2-3.8,3.2s-3.8-1.4-3.8-3.2,1.7-3.2,3.8-3.2,3.8,1.4,3.8,3.2Z"/>
              <path class="st14" d="M231,82.4c-9.5,11.3-14.4,4.5-15.5.7,5.8-1,11.3-1,15.5-.7Z"/>
              <g>
                <path class="st10" d="M198.3,110c.6-1.9.9-2.7.9-2.7-3.7-3.2,1.5-10.8,4.8-12l3.6-6.7"/>
                <path class="st10" d="M237.3,108.3s0,0,0,0l-7.4-5.7"/>
                <path class="st10" d="M230.2,106.3c-2.4,1.4-5.1,2.1-7.9,2.1"/>
              </g>
              <g>
                <path class="st14" d="M271.4,116.5c-1.1,12.7-35.7,18.9-35.7,18.9-7.4.7-9.4-8.2-9.4-8.2l23.5-11.3-.9-.6h0l-3.6-2.4-7.6-5,.8-24.6c11.4,2.9,23.2,11.6,29.1,20.8,1,1.6,1.8,3.2,2.5,4.7,1.1,2.6,1.6,5.2,1.3,7.6Z"/>
                <path class="st12" d="M270,108.9s-14.6-.1-21.2,6.4h0l-3.6-2.4.9-5.9,21.4-2.9c1,1.6,1.8,3.2,2.5,4.7Z"/>
                <path class="st11" d="M248.9,115.3c5.4-8.6,19.7-9.8,19.7-9.8-9.2-14.8-21.2-20.1-30.1-22.2l-1.4,25,11.8,7Z"/>
              </g>
            </g>
          </g>
        </g>
      </g>
      <g>
        <g>
          <g>
            <path class="st5" d="M67.5,239.5c-1.5.6-3.1,1-4.7,1.4,1.9,1.7,4.2,3.2,6.8,4.6,1.2-.8,2.3-1.8,3.6-2.6,1-.7,2.4-.5,3.1.5.7.9.5,2.4-.5,3.1-.5.4-1,.7-1.6,1.1,7.1,2.7,15.4,3.8,22.6,1.8,2.1-3.4,3.5-6.7,4.3-9.9-1.3.6-2.6,1.1-3.9,1.6-2.7,1-4.3-3.1-1.6-4.2,2.2-.8,4.2-1.8,6.4-2.7.6-7.9-2.1-14.5-5.9-18.5-.8,1.3-1.8,2.5-2.8,3.5-.9.8-2.1,1.2-3.1.3-.9-.7-1.2-2.3-.3-3.1,1-1,2-2.2,2.8-3.5-5.1-2.8-10.6-.9-12.5,8.2-21.1,1.6-25,8.8-20.7,15.7,2.3-.2,4.5-.8,6.6-1.6,2.7-1,4.3,3.2,1.6,4.2ZM91.4,225.7c0-.5.4-1,.8-1.3,1.3-.8,2.2.4,2.3,1.6,0,.6,0,1.2-.4,1.6-.4.5-1,.7-1.5.5-.5-.1-.8-.5-1-1-.2-.5-.3-1-.3-1.5ZM81.2,240.5c.2-1.3,2.2-.9,3.1-.5.7.4,1.2,1.2,1.1,2-.2.8-1.1,1.4-1.9,1.3s-1.6-.7-2-1.5c-.2-.4-.3-.9-.3-1.3Z"/>
            <path class="st10" d="M61.2,236.6c-.4,9.9.5,19.6.5,19.6"/>
            <path class="st10" d="M87.2,232.6c-7.7-17.2-18.3-20.7-22.4-14-1.1,1.8-1.8,4.2-2.4,6.9"/>
          </g>
          <path class="st10" d="M85.8,229.9c-3.1-.5-6.3-.4-9.3.2"/>
          <path class="st10" d="M83.6,225.9c.2-2.8,1.1-5.6,2.6-8.1"/>
        </g>
        <g>
          <path class="st5" d="M56.9,215.8c2.6,0,5.2-.4,7.7-1,1.8-9-5.3-15.1-28.5-8.3-5.8-9-12.5-8.7-16.7-3.7,1.4,1.1,2.9,2,4.4,2.7,1.3.6,1.5,2.4.9,3.5-.8,1.3-2.2,1.5-3.5.9-1.5-.7-3.1-1.6-4.5-2.6-2.4,5.8-2.6,14,1.2,22.1,2.6.1,5.3.3,7.9.3,3.3,0,3.3,5.1,0,5.1-1.6,0-3.2,0-4.8-.2,2.2,3.1,5,6.1,8.6,8.8,8.5-.8,16.9-5.3,23.4-11.1-.7-.2-1.4-.4-2.1-.6-1.3-.3-2.1-1.8-1.8-3.1.4-1.4,1.8-2.1,3.1-1.8,1.6.4,3.2,1,4.9,1.4,2.2-2.5,4.1-5.1,5.4-7.7-1.8.3-3.7.5-5.6.5-3.3,0-3.3-5.1,0-5.1ZM26.2,217.6c0,.5-.2,1.1-.7,1.4-.5.4-1.3.4-1.8,0-.6-.3-.9-.9-1.1-1.6-.3-1.3.1-2.9,1.8-2.6.6,0,1.1.5,1.4,1s.4,1.1.3,1.7ZM43,229c-.1,1-.6,1.9-1.5,2.4-.9.4-2.1.2-2.6-.6-.5-.8-.3-1.9.4-2.5.7-.8,2.7-2,3.5-.7.3.4.3,1,.2,1.5Z"/>
          <path class="st10" d="M55.4,227.6c1.8,15.9,2.4,28.6,2.4,28.6"/>
          <path class="st10" d="M33,219.8c2.7-22.8,13.4-30.4,18.4-16.3"/>
          <path class="st10" d="M33.5,216.4c3.8-1.5,8.1-2,12.2-1.3"/>
          <path class="st10" d="M34.5,211.6c-1.4-2.9-3.5-5.4-6.1-7.2"/>
        </g>
        <path class="st18" d="M45.1,252.2c10.8-1.4,28.9-.6,28.9-.6l-2.6,10.6c-7.5,2.1-22.5.7-22.5.7l-3.8-10.6Z"/>
      </g>
      <g>
        <polygon class="st13" points="154.5 175.4 152.8 178.5 149.7 180.1 152.8 181.8 154.5 184.9 156.1 181.8 159.2 180.1 156.1 178.5 154.5 175.4"/>
        <polygon class="st13" points="61.2 52.2 59.5 55.3 56.4 57 59.5 58.7 61.2 61.8 62.8 58.7 65.9 57 62.8 55.3 61.2 52.2"/>
        <polygon class="st13" points="163.5 187.5 162.9 186.3 162.3 187.5 161.1 188.1 162.3 188.7 162.9 189.9 163.5 188.7 164.7 188.1 163.5 187.5"/>
        <polygon class="st13" points="346.6 173.1 343.5 171.4 341.8 168.3 340.1 171.4 337 173.1 340.1 174.8 341.8 177.9 343.5 174.8 346.6 173.1"/>
        <polygon class="st13" points="351.9 181.3 353 180.7 351.9 180.1 351.2 178.9 350.6 180.1 349.5 180.7 350.6 181.3 351.2 182.5 351.9 181.3"/>
        <polygon class="st13" points="48.8 60.8 48.2 59.7 47.5 60.8 46.4 61.4 47.5 62.1 48.2 63.2 48.8 62.1 49.9 61.4 48.8 60.8"/>
        <polygon class="st13" points="74.1 63.3 73.5 62.2 72.9 63.3 71.7 63.9 72.9 64.6 73.5 65.7 74.1 64.6 75.3 63.9 74.1 63.3"/>
      </g>
    </g>
  </g>
</svg>