<?xml version="1.0" encoding="UTF-8"?>
<svg id="Layer_1" xmlns="http://www.w3.org/2000/svg" xmlns:xlink="http://www.w3.org/1999/xlink" version="1.1" viewBox="0 0 817.9 650.9">
  <!-- Generator: Adobe Illustrator 29.8.2, SVG Export Plug-In . SVG Version: 2.1.1 Build 3)  -->
  <defs>
    <style>
      .st0, .st1, .st2, .st3, .st4, .st5, .st6 {
        fill: none;
      }

      .st7 {
        fill: #52b35e;
      }

      .st1 {
        stroke: #fff;
        stroke-miterlimit: 10;
      }

      .st2 {
        stroke: #d56767;
      }

      .st2, .st3, .st4, .st5, .st6 {
        stroke-linecap: round;
        stroke-linejoin: round;
      }

      .st8 {
        fill: #d56767;
      }

      .st9 {
        fill: #545dbf;
      }

      .st10 {
        fill: #822c29;
      }

      .st11 {
        fill: #e7a5dd;
      }

      .st12 {
        fill: #ed796a;
      }

      .st13 {
        clip-path: url(#clippath-1);
      }

      .st14 {
        fill: #dadef1;
      }

      .st15 {
        fill: #ab5a44;
      }

      .st16 {
        fill: #26244a;
      }

      .st17 {
        fill: #f29898;
      }

      .st18 {
        fill: #fff;
      }

      .st19 {
        fill: #b8c1ea;
      }

      .st20 {
        fill: #8c98e9;
      }

      .st21 {
        fill: #ef6856;
      }

      .st3, .st4 {
        stroke: #26244a;
      }

      .st22 {
        fill: #e7eaf7;
      }

      .st23 {
        fill: #f2a441;
      }

      .st24 {
        opacity: .9;
      }

      .st25 {
        opacity: .7;
      }

      .st26 {
        opacity: .4;
      }

      .st4 {
        stroke-width: 3px;
      }

      .st27 {
        fill: #4092e2;
      }

      .st28 {
        fill: #f4b298;
      }

      .st5 {
        stroke: #ed796a;
      }

      .st29 {
        fill: #f9ca51;
      }

      .st6 {
        stroke: #822c29;
      }

      .st30 {
        clip-path: url(#clippath);
      }
    </style>
    <clipPath id="clippath">
      <rect class="st0" x="190.4" y="110.8" width="73.6" height="36.4"/>
    </clipPath>
    <clipPath id="clippath-1">
      <rect class="st0" x="83.7" y="214.8" width="653.9" height="398.5"/>
    </clipPath>
  </defs>
  <path class="st20" d="M352.7,36.5h-27.7c-1.1,0-1.1,1.7,0,1.7h27.7c1.1,0,1.1-1.7,0-1.7Z"/>
  <path class="st20" d="M406.6,54.8c-8-5.1-18.7-4-25.6,2.3-1.9,1.8-3.6,3.8-5.6,5.4-2.4,2-5.3,3-8.4,3.2-6,.4-11.8-1.9-17.7-2.6-6.5-.8-13.2.2-19.3,2.7-1,.4-.6,2,.4,1.6,5.4-2.2,11.2-3.2,17-2.8s11.2,2.5,16.9,2.8c5.1.3,9.7-1.2,13.4-4.7,1.8-1.7,3.5-3.7,5.4-5.3s4.2-2.7,6.7-3.4c5.3-1.5,11.2-.7,15.9,2.2.9.6,1.8-.9.9-1.5h0Z"/>
  <path class="st11" d="M406.5,67.4h1.8c1.8,0,3.2-1.6,3.1-3.3l-.5-20.4c0-1.8-1.5-3.2-3.3-3.1h-1.8c-1.8,0-3.2,1.6-3.1,3.3l.5,20.4c0,1.8,1.5,3.2,3.3,3.1Z"/>
  <path class="st29" d="M391.8,64.3h1.8c1.8,0,3.2-1.6,3.1-3.3l-.5-20.4c0-1.8-1.5-3.2-3.3-3.1h-1.8c-1.8,0-3.2,1.6-3.1,3.3l.5,20.4c0,1.8,1.5,3.2,3.3,3.1Z"/>
  <path class="st20" d="M328.5,72.3h1.8c1.8,0,3.1-1.5,3.1-3.3l-.5-20.4c0-1.8-1.5-3.1-3.3-3.1h-1.8c-1.8,0-3.1,1.5-3.1,3.3l.5,20.4c0,1.8,1.5,3.1,3.3,3.1Z"/>
  <path class="st29" d="M366.6,80.7h1.8c1.8,0,3.2-1.6,3.1-3.3l-.5-20.4c0-1.8-1.5-3.2-3.3-3.1h-1.8c-1.8,0-3.2,1.6-3.1,3.3l.5,20.4c0,1.8,1.5,3.2,3.3,3.1Z"/>
  <path class="st20" d="M378.3,70.6h1.8c1.8,0,3.1-1.5,3.1-3.3l-.5-20.4c0-1.8-1.5-3.1-3.3-3.1h-1.8c-1.8,0-3.1,1.5-3.1,3.3l.5,20.4c0,1.8,1.5,3.1,3.3,3.1Z"/>
  <path class="st11" d="M354,73.1h1.9c1.8,0,3.1-1.5,3.1-3.3l-.5-20.4c0-1.8-1.5-3.1-3.3-3.1h-1.9c-1.8,0-3.1,1.5-3.1,3.3l.5,20.4c0,1.8,1.5,3.1,3.3,3.1Z"/>
  <path class="st29" d="M341.8,78.4h1.8c1.8,0,3.2-1.6,3.1-3.3l-.5-20.4c0-1.8-1.5-3.2-3.3-3.1h-1.8c-1.8,0-3.2,1.6-3.1,3.3l.5,20.4c0,1.8,1.5,3.2,3.3,3.1Z"/>
  <g class="st30">
    <g>
      <path class="st20" d="M214.2,110.8h-23c-1.1,0-1.1,1.7,0,1.7h23c1.1,0,1.1-1.7,0-1.7Z"/>
      <path class="st20" d="M263.7,128.3c-5.6-6.8-17.6-6.7-24.5-1.8-2.3,1.6-4,3.9-6.2,5.7-2.8,2.3-6.2,3-9.7,2.7-5.5-.4-10.9-2.3-16.4-2.5-5.2-.1-11.9.4-16.1,3.6-.9.6,0,2.1.9,1.5,3.8-2.9,9.6-3.4,14.2-3.4,5.3,0,10.5,1.6,15.7,2.3,2.7.4,5.6.4,8.2-.4s4.7-2.5,6.6-4.5c1.7-1.8,3.4-3.6,5.6-4.7,2-1,4.2-1.6,6.4-1.9,5.2-.7,10.8.3,14.3,4.5.7.8,1.9-.4,1.2-1.2Z"/>
      <path class="st11" d="M263.2,139.9c-10.5.8-16.6-9.7-23.9-15.4-4.3-3.4-9.9-6.3-15.2-3.3-5.3,3-7.2,9.1-9.9,14.2-3.5,6.6-10.1,10.6-17.6,9.8-1.1-.1-1.1,1.6,0,1.7,5.6.6,11.4-1.4,15.4-5.5,4.5-4.6,5.6-11.3,9.8-16.1,9.3-10.6,20,4.3,26.9,10.2,4.1,3.5,9,6.4,14.5,6,1.1,0,1.1-1.8,0-1.7h0Z"/>
    </g>
  </g>
  <path class="st14" d="M340.6,236l38.8-.6c2.6,0,4.8,2.1,4.8,4.7v.5c0,2.9-2.3,5.4-5.2,5.4l-38.2.5c-2.6,0-4.8-2.1-4.8-4.7v-1.1c0-2.6,2.1-4.8,4.7-4.9Z"/>
  <path class="st14" d="M372.9,254.5l-24.3.3c-2.9,0-5.4-2.3-5.4-5.3,0-2.9,2.3-5.4,5.2-5.4l24.3-.4c2.9,0,5.4,2.3,5.4,5.3,0,2.9-2.3,5.4-5.2,5.4h0Z"/>
  <path class="st23" d="M401.6,196c14.3-24.4,6.2-55.7-18.1-70.1-24.3-14.4-55.6-6.2-69.9,18.1-14.3,24.4-6.2,55.7,18.1,70.1,24.3,14.3,55.6,6.2,69.9-18.1Z"/>
  <path class="st23" d="M335.2,214.3l7.6,19.2,35.5-.9,8.5-23.9-51.5,5.6Z"/>
  <path class="st16" d="M350.3,232c-2.5-8.8-4.6-17.7-6.2-26.7-.8-4.5-1.5-9.1-2-13.7-.3-2.2-.5-4.5-.7-6.7-.2-2.2-.4-4.5-.5-6.8,0-3.8,1-8.5,5.1-9.9,3.5-1.2,7.3.6,9.4,3.4,2.3,3,3.3,7.3,3.1,11,0,2-.7,4.1-2.4,5.2-1.4,1-3.4,1-4.6-.4-1.1-1.2-1.3-2.9-1.3-4.4s.4-3.5.9-5.1c1.2-3.5,3.7-6.5,7.4-7.4,3.7-.9,7.7.4,10.4,3,2.8,2.5,4.5,6,5.3,9.6.4,2,.7,4.3-.5,6.1-1.2,1.7-3.2,2.1-4.9.9-1.7-1.2-2.1-3.5-2.1-5.5s.3-3.6,1-5.2c1.2-3.2,3.8-6,7.3-6.6,2.9-.6,6.4.4,8.2,2.9,2.5,3.5.9,8.1-.6,11.6-1.7,3.9-3.6,7.8-5.1,11.8-3.1,8.2-5.4,16.7-6.9,25.3-.4,2-.7,4.1-.9,6.2,0,.5.7.4.7,0,1.2-9.6,3.4-19,6.6-28.2,1.6-4.5,3.4-9,5.5-13.3,1.8-3.8,3.8-8.3,2-12.4-1.3-3-4.6-4.7-7.8-4.7-3.6,0-6.6,2-8.5,5-1,1.6-1.7,3.4-2,5.3-.3,1.9-.4,4.1.3,6,.6,1.7,2.1,3.2,4,3.4,1.9.2,3.4-1.1,4.2-2.6.9-2,.6-4.3.2-6.3-.5-2-1.2-3.9-2.2-5.6-1.9-3.4-5-6.2-8.9-7.1-3.9-1-7.8,0-10.5,2.8-2.5,2.7-3.8,6.7-3.8,10.3,0,1.6.3,3.3,1.3,4.6,1,1.3,2.6,1.9,4.2,1.4,1.8-.5,3.1-2,3.7-3.7.7-2,.6-4.3.3-6.3-.6-3.9-2.1-8-5.5-10.3-3-2-7.2-2.4-10,0-3.4,3-3.5,7.9-3.2,12,.4,4.9.9,9.8,1.5,14.7,1.3,10,3.3,19.8,5.8,29.6.6,2.4,1.3,4.7,1.9,7,.1.4.8.3.7-.2h0Z"/>
  <path class="st14" d="M381.7,237l-43.3.6c-2.9,0-5.4-2.3-5.4-5.3,0-2.9,2.3-5.4,5.2-5.4l43.3-.6c2.9,0,5.4,2.3,5.4,5.3,0,2.9-2.3,5.4-5.2,5.4Z"/>
  <path class="st16" d="M337.5,237.9c11.6-.1,23.3-.2,34.9-.3,3.3,0,6.6,0,9.9,0,.5,0,.5-.7,0-.7-11.6.1-23.3.2-34.9.3-3.3,0-6.6,0-9.9,0-.5,0-.5.7,0,.7Z"/>
  <path class="st16" d="M344,246.7c8.7-.2,17.3-.4,26-.5,2.5,0,4.9-.1,7.4-.2.5,0,.5-.7,0-.7-8.7.2-17.3.4-26,.6-2.5,0-4.9.1-7.4.2-.5,0-.5.7,0,.7Z"/>
  <path class="st18" d="M311.1,172.2c-.9,6,.5,12.2,4,17.1,1,1.4,2.1,2.7,3.4,3.8.3.3.8-.2.5-.5-4.3-3.9-6.9-9.5-7.3-15.3-.1-1.7,0-3.3.2-5,0-.4-.6-.6-.7-.2h0Z"/>
  <path class="st18" d="M394.1,193.1c0,.2-.4.2-.5.1.2.5-.2.4.4.7.2.4-.3.4-.5,0v.9c0,0,.3-.4.3-.4.5.4-.5.6,0,1l.3-.8h.2c-.1-.1.1-.4.3-.5,0,0,.2.1.2.3.5-.9-.8-.7-.6-1.5,0,0,0,.1-.1.2h0Z"/>
  <path class="st18" d="M395.7,192.9l-.5-.6.4-.5c-.2-.1-.3-.6-.6-.4,0,0,0,.2,0,.3-.5-.3,0-.8-.5-.9,0,.5-.2.5.1.9-.2.4-.4.6-.7.7,0,.1.3.3.3.5,0,0,0,0,0-.1l.7.3c0-.2,0-.3,0-.4.2.3.4.7.6,1,.8.1.7-.7,1.1-.8-.8,0-.2-.4-1,0h0Z"/>
  <path class="st18" d="M386.1,148.2c0,0-.3,0-.4,0,.3.4.5.8.8,1.2.2-.2.1-.6.4-.5.1-.2-.2-.4-.5-.3h.3c-.5-.1,0-.8.3-.7h0c-.6,0-1.2,0-1.8.2.1.3.6-.1.9.2h0Z"/>
  <path class="st18" d="M362.7,130.6c.2,0,.2,0,.2-.2,0,0-.2,0-.2.2Z"/>
  <path class="st18" d="M384.8,148.1h-.6c.2,0,.4,0,.6,0Z"/>
  <path class="st18" d="M392.2,145.5s0,0,0,0h-.3c0,0,.2,0,.2,0Z"/>
  <path class="st18" d="M379.3,144.6s0,0,0,0c0,0,0,0,0,0Z"/>
  <path class="st18" d="M397,147.9l-.8-.4c.2,0,0-.3.3-.3,0,0-.3-.2-.3-.1h0c-.8.1-.9.4-1.6.1-.1.6.3.5.6.6,0,0,.1,0,.2.1h1.1c0,.1.4,0,.4,0Z"/>
  <path class="st18" d="M372.8,130.7h0s0,0,0,0Z"/>
  <path class="st18" d="M373,130.5v.2c0,0,.1,0,0-.2Z"/>
  <path class="st18" d="M385.2,147.9c-.1,0-.2.1-.4.2h.4c0,0,0-.1,0-.2h0Z"/>
  <path class="st18" d="M386.6,147.5l.4.4h.4c-.2-.1-.5-.3-.8-.4Z"/>
  <path class="st18" d="M379.6,145.4c-.8-.7.7-.4.5-.8-.3-.2-.6,0-.8,0,.8.4-.9.8-.2,1.2-.6.4-.9,0-1-.2.2-.7.5-.2,1-.5-.3-.2-.4,0-.7.1-.3-.5-1.3-.2-.9-1-.4-.2-.6,0-.9.2-.5.5.2.6-.1,1.1,0,0,0-.2.1-.2v.3c0-.4.6-.5.8-.4,0,0,.3.2.1.3h-.2c0,.3.7,0,.6.4-.1.1-.2.1-.3.2.5-.2.7,0,1.2.1l-.6.3c.8-.3,1.1.4,1.1,1,0-.1,0-.2.2-.3.3.1.1.6-.2.7.6-.2.3,1.1,1.1.9,1.3-.3,2.6-.5,3.9-.7-.1,0-.2,0-.3,0,.4-.5.3-.5.9-.6-.4,0-.7.3-1,0,.3,0,.9-.4.7-.8-1.2-.5-2.9,0-4.2,0,.3-.3-.3-.8-.5-1.2.5-.2.7-.1,1,0-.1-.2-.3-.4-.5-.6l-.8.6h0Z"/>
  <path class="st18" d="M382.4,146.2s0,0,0-.1c0,0,0,0,0,.1Z"/>
  <path class="st18" d="M380.8,145.5s0,0,0,0h0s0,0,0,0Z"/>
  <path class="st18" d="M385.9,147.1c.1,0,.2,0,.3,0,0,0-.1,0-.2,0,0,0-.1,0-.2,0Z"/>
  <path class="st18" d="M385.3,147.8h-.2c0,0,0,.1,0,.2,0,0,.2-.1.2-.2Z"/>
  <path class="st18" d="M379.4,139.5h-.2c0,0,.1,0,.2,0Z"/>
  <path class="st18" d="M379.3,144.1c.3.2.5-.5.9-.1h0c.5,0,.8.5,1.2.8-.2.2,0,.4-.4.7.3.2.6.3,1,.1,0,.2.5.2.5.5.1-.2.9-.3.3-.6,0,0,0,0,.1,0,0-.5-.5-.2-.8-.5,0-.3.5,0,.5-.2-.5-.1-.7-1.2-1.4-.5-.3-.2-.1-.4,0-.5-1,.4-1-1.5-1.9-.6.2,0,.3.3.7.3l-.6.6h0Z"/>
  <path class="st18" d="M385.4,146.6s0,0,0,0c0,0,0,0,0,0Z"/>
  <path class="st18" d="M384.9,152.6l-.8.3c-.6-.6-.6-1-1-1.6,0-.1.2,0,.2,0-.3-.4-.7-1.1-1.2-1.2,0-.1-.1-.6.2-.7-.1,0-.2,0-.3-.1.2-.2.2.1.4,0,0,0,0-.1,0,0,.3,0,.7-.7,1.1-.2-.4.6-.3-.3-.9.3.1.2.3,0,.4,0,.1.2,0,.3-.2.4.3,0,.2.4.5.3.3.4-.5.3-.3.6l.8-.3.2.5c.7.5,1.1-.9,2-.4-.4.1-.8.8-.7,1.2-.2-.2-.8-.3-.8-.7-.3.7-.4-.5-.9.1.4,0,.6.3.6.6h-.1c0,.3.9,0,.9.5.1.2,0,.2-.3.3.2,0,.4.1.2.2h0ZM384.6,152.4v-.3c-.2.1-.1.2,0,.3Z"/>
  <path class="st18" d="M397.3,188.5s0,0,0,0c0,0,0,0,0,0Z"/>
  <path class="st18" d="M398.1,159v.2c0,0,0-.1,0-.2Z"/>
  <path class="st18" d="M401.7,162.8l.2.3c0-.1-.1-.2-.2-.3Z"/>
  <path class="st18" d="M398,186.3s0,0,0,0h0c0,0,0,0,0,0Z"/>
  <path class="st18" d="M400.8,172c0,0-.1,0-.2.2,0,0,.1,0,.2-.2Z"/>
  <path class="st18" d="M401.7,162.7s0,0,0,0h0s0,0,0,0Z"/>
  <path class="st18" d="M399.7,156.4s0,0-.1,0c0,0,0,0,.1,0Z"/>
  <path class="st18" d="M397.7,157.4s0,0-.1,0h.1Z"/>
  <path class="st18" d="M396.5,150.4l-.2-.2c0,.1.2.2.2.2Z"/>
  <path class="st18" d="M397.9,156.6h-.1s0,0,.1,0Z"/>
  <path class="st18" d="M394.5,189.2h0s0,0,0,0h0Z"/>
  <path class="st18" d="M395.4,190.2v.2c0,0,0-.2,0-.2Z"/>
  <path class="st18" d="M399.4,175.8c-.1,0-.3.2-.4.1.2.1.6.2.4-.1Z"/>
  <path class="st18" d="M390.1,186.5c0,0,.2.1.2.2,0-.1-.2-.2-.2-.2Z"/>
  <path class="st18" d="M390.4,186.7c0,0,0,.1.1.2,0,0,0-.1-.1-.2Z"/>
  <path class="st18" d="M392.9,173.9c0,0,.1,0,.1,0-.1,0-.1,0-.1,0Z"/>
  <path class="st18" d="M395.2,190.6c.2.1.2,1.2.6.4.5.2,0,.6.1.9.2,0,.3.2.5.3,0-.1-.1-.3,0-.5.3,0,.4.4.2.5.4-.1.3.5.7.2.1-.9.2-1.5-.5-2.3,0,.5,0,1-.4,1.3l-.4-.3c.6-.2.4-.6.5-1-.2.3-.4.5-.6.8-.6.2-.5,0-.5-.4,0,0,0,.1-.2.1Z"/>
  <path class="st18" d="M391.2,188.4h0s0,0,0,0h0Z"/>
  <path class="st18" d="M387.2,155.1h-.2c.1,0,.2,0,.2,0Z"/>
  <path class="st18" d="M387.8,156.6s0,0,0,0c0,0,0,0,0,0Z"/>
  <path class="st18" d="M398.2,152.7s0,0,0,0c0,0,0,0,0,0Z"/>
  <path class="st18" d="M387.9,156.6h0s0,0,0,0Z"/>
  <path class="st18" d="M392.2,163.9s0,0,.2-.1c0,0-.1,0-.2.1Z"/>
  <path class="st18" d="M392.6,162.1s0,0,0,0h0Z"/>
  <path class="st18" d="M401.8,175.5c0-.1,0-.2,0-.2,0,0,0,.2,0,.2Z"/>
  <path class="st18" d="M395.3,166.1h0s0,0,0,0h0Z"/>
  <path class="st18" d="M395,167.1c0,0-.1,0-.2,0,.2.3,0,.9.6.9,0-.1.2-.7.6-.7-.2-.2.2-.6,0-.7-.3.4-.5.1-.7-.1.1-.3.4,0,.5-.2l-.2-.5v.5h-.5s0,0,0,0c.4.8-.7.2-.3.9h0Z"/>
  <path class="st18" d="M394.8,167s0,0-.1-.1c0,0,0,0,.1.1Z"/>
  <path class="st18" d="M394.2,170.3s0,0,0,.1c0,0,0,0,0-.1Z"/>
  <path class="st18" d="M387.6,148.2c-.1.1-.1.7.2.4v-.4h-.2Z"/>
  <path class="st18" d="M396.3,179.2s0-.1,0-.2h0c0,0,0,.1,0,.2Z"/>
  <path class="st18" d="M396.2,167.4c0,0-.1-.1-.2-.1,0,0,0,0,.2.1Z"/>
  <path class="st18" d="M395.3,179.1c-.1,0-.3.1-.5.1,0,.1.2.3.2.4,0-.2,0-.3.2-.5h0Z"/>
  <path class="st18" d="M387.6,147.9s0,0-.1,0h.1v-.3c-.1,0-.2,0-.2,0,0,0,0,0,.1,0h0c-.5,0-1.1-.4-1.4-.4-.3,0-.5-.2-.6-.4,0,.1.3.3.4,0,0-.4.5-1-.4-1.1l.2.3h-1.2c.1-.5.6,0,.9-.1-.7-.2-.1-1.3-.9-1,.3-.3.9-.9.6-1.2-.2.6-.4,0-.7.6-.3,0-.2-.5-.4-.2h.2c0-1.1-.9-.5-1.4-.4-.7-.5-.7-.9-1.2-1.3.2-.2.7-1,.4-1.1-.4.2-.9,0-1.4.3.2.5.6,0,.9,0-.2.6-.4.4-.4.9,0-.3-1-.6-.9-1.2h.1c-.1-.5.7-1.6-.4-1.5h-.5s0,0,.1,0c-.4-.4,0-.8-.7-.9,0,0,0,0,.1,0,0-.5-.8-.2-1.1-.3.1-.5.3-.3.6-.5-.4-.6-1.5-.4-2.1-.2l-.2-.5c.3,0,.8-.2.9-.5-.2,0-.3.1-.6-.1.2-.2.5-.3.8-.5-.3-.8-.7.7-.6-.3-.2-.1-.5.1-.7.4v-.6c-.4.3-.8,0-1.1,0-.1.1,0,.5.1.5-.2.3-.6.2-.7,0,.4-.8-1.3-.6-.5-1.4-.5-.1-1-.4-1.6-.5-.5-.2-1-.3-1.4-.3,0-.3-.4-.5,0-.8-.7-.4-1.5.3-2.1-.2,0-.1.3.1.4-.2-.6.1-.7-.8-1.5-.8.1,0,.2-.1.3-.2,0,.1-.4.2-.7.2,0-.1.2,0,.2-.2-.6-.5-1.3-.6-2-.6-.7,0-1.4.1-2.1-.1.4.1.7-.4.8-.6h-.4c-.2.1-.5,0-.9.2,0-.1,0-.3,0-.4-.7-.8-1.6.7-2.4.2l1.5-.9-.2-.5.7-.4c-.2-.4-.7.3-.6-.2.1-.1.3,0,.3-.3-.3-.3-.4,0-.6,0,.8-.7,2.1-.4,2.8-.4.1,0-.2.2-.2.3.3,0,.4.4.7.3.3-.3,0-.3-.2-.4.1-.3.2-.3.4-.3-.1.5,1,.5,1,1.1,1,.2.2-1.2,1.1-.6v.6c.8-.2,1.7-.2,2.2.2h-.1c-.2.1,0,.3,0,.4.4.4,1.1,0,1.1.6.8-.3,1.8-.2,2.6-.2-.2.7-1.1.1-1.5.4.2,0,.4.2.5.3-.3-.2-.6,0-1,.3.4.3.8-.1,1.4,0-.1.2-.1.3,0,.4l.3-.4s0,0,0,.1l.9.2c0-.3.1-.6,0-.7,0,.3-.3.2-.5.1.3-.2,0-.3,0-.6.4.2,1,.5,1.3.5v.4c.2.3.7.4.9.6h-.2c.4.5,1,.6,1.2,1.2.7-.1,1.4-.1,2-.3.5-.3.8,1.4,1.7,1.1,0,0-.5.1-.8.2.2.3.9,0,.6.4-.5-.7-.2.4-.6.3.3.2.7.4,1,.3-.5-.4.7-.5,0-.7.7,0,1.3.2,1.7.7-.2.2-.2.3,0,.6l.4-.2c.2.2-.7,0-.3.4.8-.1,1,1.4,2,.7,0,.6-.9-.2-.8.6-.6,0-.6-.6-1.1-.3.4.1-.2.5,0,.6h.5,0c.9,0,1.5.9,2.2,1.4.9,0,1.9-.1,2.5.6-.4,0,.3.8-.6.8,0,.5.6.6.8.4-.2-.3,0-.2-.2-.5.4,0,.7.3.7.6,0,0,0,0-.2,0,.1.5.4,0,.7.1-.3.4.4.6.4,1h.7c-.5,0,.2.3,0,.6.4,0,1,0,1.2.4-.3,0,0,.5-.3.8.2.9,1.7.4,1.6,1.3,0,0-.4,0-.3.3.2,0,.3.4.5.5h0,0c0,0,.1,0,.2,0,.5,0,.9,0,1.6.3.4-.3,0-.6-.3-.8h-.5c.5-.5-.4-.3-.3-.6.9-.1,1.3.9,2.1,1.2.3-.7,0-1.5-.6-2.1v.4s-.3-.3-.3-.3l-.2.6c-.1-.4-.4-.6-.6-.9.3.3-.2.8-.2.6.1-.6-.5-.2-.7-.5,0,.2.2.4,0,.4,0-.9-.4-.8-.2-1.7-.6.5-.5-.6-1.1-.3v.3c-.1,0-.4-.1-.6-.2.1-.8.8,0,.6-.9-.4-.7-1.1-.1-1.5-.6.5-.1,1.1,0,1.4.4v-.4c.3,0,.7.5.9.8-.8-.1,0,.3-.1.8.4-.2.1-.5.6-.4-.3-.3-.3-.4-.5-.9.5,1,1.8-.1,2.1.9-.4-.3-.4.5-.6.7.2.1.5.4.7.5l.4-.5c.6.3-.4,1.3.5,1.4.4-.1-.2-.6,0-.5.8.6.2,1.4.2,2.3.2,0,.5-.3,1-.2-.4.1-.4.4-.8.3,0,.3.4.4.7.6,0-.6.6,0,.8-.1,0,.3-.4.1-.6,0,0,.3-.3.8.2.6-.3.2-1.2,0-1.5-.3v.3c-.2,0-.2-.1-.2-.4-.1.4-.4.6-.7.7,0,0,0,0,.1,0,0-.2-.2-.3-.4-.2-.6.1-.1.4-.3.7l.3.2c.7,0,1.4,0,2.1.1.4.3.2.7.1,1.2h.5c.2.3.2.7-.4.8.1,0,0-.1,0-.2,0,0-.1,0-.2,0h0c.3.4.6.6.6.6-1-.4-.8.4-1.6.6l.6.6c0-.5.4-.2.5,0-.4.2.3.6.3.8h0c0,.3.2.7.4,1,.1,0,1,0,1.5,0,0-.6.2-.4.5-.5,0,0,0,.2,0,.2.2,0,.1-.2.3-.2-.4-.5-.7-1-1.4-1-.2.3.4.2.3.4-.5,0-.6-.5-.8-.9l.3-.3-.4-.4c.3,0,.6-.2.9.2.3-.2-.3-.4-.3-.8h-.5c.3,0,0-.6.6-.4l.7.5.2-.4.4.6h-.3c.8.8-.8.7.2,1.5.7,0,.9.4,1.1,1.1-.3-.4-.4.1-.8,0,0,.6.5.5.8.7-.3.2-.5.4-.6,0-.7.2.3.5-.3.8.5,1.4,2.6.3,2.3,2.3h-.3c.7,1,.5,1.7,1,2.6l-.5,1c-.2-.2-.8-.5-1.1-.2.6-.6.3-.9.5-1.4-.2,0-.3.2-.4.3,0-.2.2-.5,0-.7-.1,0-.2.5-.4.2l.3-.6c-.4-.5-1.1,0-1.1-.7.4,0,1.1,0,1.2.3,0-.3.4.3.5,0-.7-.3-.3-.6-.9-1.1.1,0,.2,0,.3.2v-.9c-.3.3-.7-.6-1.1-.3.1,1,.3.6.4,1.7-.2-.3-.9-.5-1.4-.5,0,0,0,0,0,0-.5,0-.6.2-1.5.5.8.2.4.7.9,1.1.5,0,.5-.5.3-.7l.5.4h-.2s.2,1.2.2,1.2c0-.2-.4-.2-.6-.3,0,.2,0,.4-.1.6.4-.2.8-.2.8,0,.1.8-.2,1.3-.6,1.8,0,0,0,0,0,0,.4-.2,1,.3,1.5.5-.5.1-.2.5-.4.8.6,0,1.3-.3,1.7-.7-.6-.4-.6-.2-1.4-.3l-.7-.7h.5c.1-.4-.6-.7,0-.8.5.1.3.6.7.7v-.3c.8.4-.3.4.2.9.4-.3,0,0,.4.2.3-.3-.4-1.1.5-1.1.4.2-.7,1.3.2,1.6h-.1c0,.7.6.8.9,1-.2.3.2.6.3.9h-.2s.2.4.2.4c-.5-.1,0-.5-.2-.9h-.4c.5-.4-.4-.5-.9-.7.5.4.1,1.3,1,1.3l-.4.4h.2c-.3.4-.9.3-1.1-.1.1,0,.2-.1.3-.1-.2-.2-.6-.3-.6-.7l.3.2c0-.6-.4-1.1-.9-1.2,0,.8,0,1.7.2,2.4,1.1,0,1.7.2,2.7.2.3.5.5,1.2.2,1.8h-.2c0,.2,0,.4.1.6-.2.3-.5-.1-.7,0l.4.7c-.4,0-.5-.7-.6-.9,0,0,.1.2.2.1.1-.4-.7-.9,0-1.2-.1-.2.5.3.5-.3.2-.4-.4-.5-.6-.5-.2,0-.2.7-.6.5,0,.3.4.4.2.8,0-.3-.6-.6-.2-.9-.5-.5-1.7-.3-1.7,0,.4-.1.6,1,1,.2.5.3.6.9.9,1.3h0l.2.5c-.1,0-.3-.2-.5-.2l.8.7c-.5-.4-.3.3-.5.5.4,0,.7.3.9,0,.3-.4-.2-.2-.3-.5l.6.4h0s.5.3.5.3c0,.6-1.2-.2-.6.6h.7c0,.8-.7,1.9-.4,2.5-.4-.2-1-.2-1.4,0,.1-.3,0-.8,0-1.2.1,0,.8.4.7.9,1.1-.2-.7-1,.4-1.1.3-1.1-1.1-.7-.5-1.7-.5,0-.3-.2-.7-.2-.8.3.1,1.2-.2,1.8,0,0-.1-.2-.2-.2-.1.4,0,.6.2.9h0c.5.4-.4.3-.6.6,0,.1,0,.5.3.4l-.5.5h.6c0,.3-.3.3,0,.6h.5s.2-.7.2-.7c.2.4.5.1.6.5-.5-.5-.3.3-.7.4l.3.3h-.1c-.3.2.2.2.1.5.3-.3.6-.5.3-1,.3.3.6.9.6,1.1.2.3-.2.6-.3.9-.2-.6-1.5.1-1.1-1,0,0,0,.1,0,.2.7-.1,0-.7-.3-.9-.4,0-.5-.2-.7.2.2-.1.8.4.5.8h-.8c0,0-.1.5-.1.5h0c-.5.1,0,.6-.3,1,.3.3,0,1.4.8,1-.5.3,0,.7.1,1.1l.4-.5c.5.7.2.4,1,1-.2,0-.4.1-.6,0-.1.8-.5,1.9,0,2.5-.1.6-1.1.5-.8,1.4,0,.2.8,0,.4.5,0,0-.5-.6-.5,0,.5.5-.5.9-.2,1.6-.3.2-.3.8-.7.5.2-.4.2-1.1,0-1.2.3.1.3-.3.5.1.5-.6-.2-.5.2-1.1-.2,0-.6.2-.4.4-.6-.1,0-1.3-.9-.9-.2.6,1.1,1.1.3,1.5-.3-.3,0-.6-.5-1l-.4.4.4.4h0c-.8.6.5.9.6,1.7.6-.3,1.1.4,1.4.1,0,.5-.2.9-.9.7-.3-1-.6-.2-1.1-1.2-.3,0-.9-.4-1.1,0,.3.7.6,0,.6.6,0,0-.1,0-.2,0,.3.3-.2.3,0,.7h-.1c-.5.2.3.4-.2.6.5,0,.3.3.5.6.3-.3,1-.3,1.1-.9-.4-.2-.6-.2-.7-.5v.4c-.1-.1-.2-.2-.2-.3l.3-.4c.1.6.6.5.9.8-.3.4,0,.4-.2.7-.5-.2-1.2.7-1.7,1.1,0,0,0-.2.1-.2-.2-.5-.5.1-.7,0l.2.4c0,0-.1-.2-.2,0,0,.4.5.6.5,1-.3,0-.6-.6-.9-.4-.3,0-1.1,0-1,.6,0,0,.1.2.1.4,0,0,0,0,0,0l-.4.2c-.4-.5.5-.5,0-.9l-.5-.2c0-.2,0-.6-.2-.8-.2.3,0,.4-.1.8-.3,0-.4-.4-.5-.4l.2.2c.5-.3-.2-.8,0-1.3,0,0,0,0,.2,0-.3-.6.5-.8,0-1.4l.2.2c-.1-.4-.4-1.1-.7-1.7h-.2c-.1,0,0-.2,0-.3-.2-.3-.3-.7-.4-.9-.1,0-.2.1-.3.2.2.1-.1.6.4.7-.4.2,0,.6-.3.8.4-.2.4.4.7.5-.3,0-.1.5-.5.3-.1,0,.3,0,.1-.3-.3-.4-.5.5-.8,0,.2.6-.2,1.2,0,1.9l.3-.2c-.1.2-.2.8-.5.8,0-.2,0-.4,0-.6-.5-.2-.2.5-.5.5l.6.9v-.3c.4.3-.2.7-.5,1.1-.5-.5.3-.6.2-1.2-.1-.4-.7,0-.7-.4-.2,0-.2.2-.1.4h-.2c-.5-.4-.2-1-.5-1.6,0,0,.1.1.2.1.3-.2.4-.6.4-.9-.2.1-.1.2,0,.3-.2,0-.1-.3-.2-.5-.3.2-.4,0-.5,0,0-.2,0-.4.1-.6.3,0,.3.2.6.3-.1-.3.6-.2.4-.6-.2.4-.6-.3-.8-.5h0c-.3-.2-.3-.3,0-.3,0,.2,0,.4.3.4,0-.1,0-.2,0-.4l.2.2v-.6c-.2-.2-.6-.4-1-.6.3,0,.1-.3,0-.5h.1c.3-.1.2-.7,0-.9.3-.2,1.5,1.8,1.5.3.1-.5-.8-.5-1.1-.9,0,0,0,0,.2,0,.1-.2-.2-.3-.3-.5-.2.1-.2.3,0,.4-.4-.1.1-.5-.1-.7.5.3.3-.4.6-.2.4-.4,0-.9-.3-1.2.8-.2,0-.5.4-1,0,0,0,.2,0,.3.4.3.3-.5.7,0,0-.1-.2,0-.2,0,0,.2.2.4.4.4.2-.1.3-.2.5-.4v.2c0,0,.7-.6.7-.6,0,0-.2,0-.3,0,.3-.7.1-1.6.2-2.2-1.3-.2-.5-1.6-1.3-2.1.4.1,1.1.2,1.3.2,0,.1.6.4.4.6-.2,0-.5.4-.7.1.1.7.6,0,1.1.2,0-.8-.9-1.3-1.2-1.8h.2l-.3-.4c0,.3-.8.3-.6-.1h0c.3-.2,0-.7,0-1l-.4-.2c0-.4.8-.4,1.3-.6,0-.6-.7-.9-1.1-1.2.4-.2.3-1.1.8-.6-.4-.5-2.2-.2-1.3-1.1l.4.2c-.1-.8-1-1.9-.7-2.3,1.3,0,1.1-1.2,2.2-1.6-.3,0-.4-.2-.6-.2.1,0,.2-.2,0-.3-.2.4-1.3,0-.7.6-.9-.1-1.6-.4-1.7-1h.5c0-.1,0,.4,0,.4.4-.1.4.1.6.2,0-1,1.2-.1.9-1.1-.3,0-.2,0-.4-.2,0,.1.4,0,.3-.1h-.4c.7-.7.7.4,1.2,0,.5.3.8,1,1.4.7,0-.7-1.3-.3-1.2-1.1h.2c-.2-.3-.7-.3-1-.3.1,0,.2-.1.2-.3-.7-.2-.9-.5-1.7-.6.8.8-.2.9.5,1.8-.2-.1-.6-.7-1.3-.6h.5c-.3-.4-.7-.6-.6-1l.3.2c-.5-.4.5-1.1-.5-1.3,0,.2,0,.3.2.3-.3-.2-.4-.5-.4-.9l-1-.3c.2,0,.1-.5.5-.4.2-.6-.6-.5-.8-.7.3-.6.4.3,1,0,0-.7-.5-1.2-1.1-1.4,0,.2,0,.3-.2.3.1,0,0-.3,0-.4h-.3c.1-.3.3-.3.6-.2,0-.2-.7-.2-.4-.6.5.2.4.8.7.9-.6-.6.5-1.2-.3-1.9.1,0,.5,0,.4-.2-.3-.4-.7.2-1,.2.3.2.2.5,0,.8h-.3c.1,0,0-.2.1-.4l-.5.2c.5-.2.8-.8.5-.9-.3.5-.3.4-.8.7-.7,0,.4-.7-.4-.7.2,0,.5.2.5-.2-.1-.2-.5,0-.7,0,.5,0,.8-.3,1.5-.4.3.4,0,.2.5.5l.2-.6c.3.3.6,0,.8,0,.1-.9-.9-.1-1-.6-.4,0,.2.4-.3.3-.2-.4-.3,0-.8-.2h.2c.2-.3-.2-.3-.3-.4-.2,0-1.4,1-1.8.4.1,0,.2,0,.3-.1,1.3-.5,2.6-1,4-1.5-.2-.4-.4-.8-.6-1.2-.2-.4-.4-.9-.5-1.4.5-.6.9.2,1.2,0v.5c-.2.2-.5-.7-.8,0,.7.5.5,1,1.5,1.3.6-.6-.6-.8-.4-1.5,0,.2.2.3.4.4-.2-.5-.4-.9-.5-1.5h-.2c.1.4.2.6.2.6-.2-.4-.8-.5-1.3-.2h0c0,0-.2,0-.2,0v-.3c0,0,0,0,0,0ZM363.8,130.2s0-.1.1-.2c0,0,0,.1-.1.2ZM393.8,155.1c-.2-.6-.3-1.3-.5-1.9-.6,1.5-1.2,2.6-1.8.9h-.1c0,.2.1.6.3.9.5.1,2.3.5,2.4.4.3-.2-.1-.2-.1-.5l-.2.2h0ZM392.1,156.3c0,.4.2.2.5.2l-.2-.3c0,0-.1.1-.2.1ZM392.8,156.3s0,0,0-.1h0ZM390,150s0,0,0,0c0,0,0-.2,0-.3,0,0,0,.1,0,.2h0ZM389.8,150.9h.4c0-.2,0-.3,0-.4-.2.1-.3.2-.3.4h0ZM389.7,153.6c.5-.1.8.3,1.3,0,.2,0,.2-.2.2-.3,0-.1,0-.3-.1-.4,0,0-.2,0-.3,0,0,.2,0,.3-.4.4.5-.7-.7,0-.6-.5-.4,0-.2.6,0,.6h0ZM394.7,182.9c0,0-.2,0-.4,0l-.2-.3c.2-.5,1.2-.7.5-1.3.2-.2.6-.2,1-.3,0,0,0,.2-.2.3.8,1.5-1.2.4-.7,1.6h0ZM396.6,177.2c0,0,.1,0,.1,0-1-1.2-1.3-2.2-1.2-2.8-.4.1-.8.6-1,.9l-.5-.2h.4c0-.1-.4-.5-.4-.5-.3,0-.3.4-.5.6,0,0,.6.7.9.9l.4-.5c-.2.1,0,.9,0,1.1.3,0,.7-.4.1-.5.4,0,.3.5.8.2.4.5,0,1.1-.3,1.4h-.6c-.3.3.7.3.3.7,0-.5-.7,0-.7-.4-.2,0-.7,0-.6.3.8.4-.5.3.1.7-.3.2-.5-.3-.6,0,.4.5.7.5,1.2.7.2-.4-.7-.6-.5-.9l.9.9c.2-.1.2-.2.2-.3,0,.2.2.3.3.4.1,0,.2.2.3.2,0-.4.1-.8.4-.8h.3c.3,0,.1-.3,0-.4,0-.4-.3-.8,0-.8l.2.2c0-.5,0-.5,0-1.1h0ZM396.1,161.9c-1,.5-1.8,1-1.4,2.2h0c-.5.7,1.1,1,.5,1.9-.5-.3-.4-.3-1.4-.6l.4.4c-.6,0-.2.3-.2.6l-.7-.2c.2-.2.2-.7,0-.6,0,0,.7-.7.5-1.1-.4.1-.1.9-.9.7.4.3,0,.4.1.7-.4-.3-.6,0-1-.1l.2.5c-.2,0-.5-.7-1-.2.3.2,0,.7.6.7h-.2c0,.4.7.1.5.6.2,0,.4-.1.3-.3-.1-.1-.5-.1-.6-.4.4-.2,0,.4.6,0,.3-.2-.4-.7.4-.6v.4c.5,0,.5.2.9.2.2.2-.3.5.1.7.3,0,.9-.2.7.3-.7.4-.4,1.3-.3,1.7l.3.3c.3,0,0-.6.3-.4l.2.5h-.2c0,.1.2.3.3.4-.4-.1-.2-.5-.8-.4,0,.2-.3.3-.2.5,0,0,0,0-.2,0-.2.5.6.4.8.5.7.4.6-.5,1.1-.5.1.5.3.9.4,1.4-.2-.1-.3-.2-.5-.2-.2.4-.4,0-.4.5.7,0,.4.6.9,1-.3.2-.3.2-.4-.2-.5,0-.3.5-.3.7.1,0,.2.3.3.4.2-.1.5,0,.7.2h0c.1-.5.6-1.3.2-1.6h.2c.4-.5-.8-1.2,0-1.5.4,0,0-.1.6-.1l-.4-.4h.2c0,0-.2-.7-.2-.7h0c-.5-.3-.9-.6-1.2-.8-.2,0-.3,0-.4,0-.1-.1-.1-.2-.1-.3,0-.2.3-.3.4-.6v.7c.5,0,.9,0,1.1-.4,0,.1.3.2.3,0,0,0-.3-.4-.6-.2-.2-.6.7-1.9-.2-2.8.5.7.4-.7.7.1.5-.7-.7-.4-.7-1,.2,0,0,.3.5.4,0-1-1.2-1.4-1.3-2.3h.4c0-.3-.2-.5-.3-.7h0ZM395.1,160.3c-.1-.2-.2-.3-.3-.5h0c0,0-.5-.3-.5-.3,0,.4-.5.7-.9.4.2,0,.4-.2.5,0,.2-.4.3-1.1-.4-.7.8.4-.8.4-.2.7-.5,0-.4-.4-.6-.5.4.1.8-.3.9-.7-.2-.1-.2-.5-.5-.7-.4.2-.7.1-.6.5-.2-.1-.3-.3-.2-.6.1,0,.2.2.4.2.3-.3.2-.5.3-.6l-.2-.2s0,0-.1.1h-.5c.3.2-.1,0-.4.2.5-.2,0-.3,0-.4l-.4.5c-.3,0,.2-.6-.3-.3,0,.6.2.8.5,1.3l.3-.3c.5.5-.5.6-.3,1.2.5.1.3,1,1.1.8-.2,0-.5.6-.1.7.7,0,1.1.8,1.3.5,0-.2-.5-.4-.1-.7l.3.4.3-.4c0,.2.3,0,.8-.2h0Z"/>
  <path class="st18" d="M394.4,189.4c.1.2,0,.5.3.5-.4-.1.1-.6-.3-.5Z"/>
  <path class="st18" d="M393.9,189.7c0,0,.2,0,.2.2,0-.1,0-.3,0-.4l-.2.2h0Z"/>
  <path class="st18" d="M391.2,189c.2.3.3.5.2.7-1-.3,0-.5-.9-1-.3.4.5.9.4,1.4.5,0,1-.8.3-1.1Z"/>
  <path class="st18" d="M390.1,188.4v.3h.2v-.4c0,0-.2,0-.2,0Z"/>
  <path class="st18" d="M400.2,184.2c.3,0,0-.2,0-.4,0,0-.1.2,0,.4Z"/>
  <path class="st18" d="M373,127l-2.5-.8c.7.2,1.4.5,2.5.8Z"/>
  <path class="st18" d="M399.4,175.4c.2.7.8,1,.9,1.8.7-.9-.9-1.3-.2-2l-.6.3Z"/>
  <path class="st18" d="M401.8,175.8c-.6,0-.7-.6-1.1-.5.1.5.5.2.5.7l.6-.2Z"/>
  <path class="st18" d="M392,177.9l-.3-.2v.2c0,0,.3,0,.3,0Z"/>
  <path class="st18" d="M401.4,172.5h.1c0,0,.2-.3.2-.3l-.3.3Z"/>
  <path class="st18" d="M390.8,177.6l-.2.2.2.2v-.4Z"/>
  <path class="st18" d="M394.1,175.5l.2.3s.2-.4-.2-.3Z"/>
  <path class="st18" d="M401.6,170.4l-.2-.3h0s.2.4.2.4h0Z"/>
  <path class="st18" d="M392.6,173.5c-.4.2-.1-.5-.5-.1,0,.3.3.2.5.1Z"/>
  <path class="st18" d="M395.5,169.9s0,0,0-.1c0,0,0,0,0,.1Z"/>
  <path class="st18" d="M395.5,169.9c0,.1-.2.3,0,.4.2-.2.1-.2,0-.4Z"/>
  <path class="st18" d="M395.3,168.3h0c-.2,0-.2,0,0,.2,0,.1.2.1.3.1,0,0,.1,0,.2,0,0,0-.1,0-.2,0,0-.2,0-.3-.3-.3Z"/>
  <path class="st18" d="M401.6,161c0,.6,0,.7-.4.7,0,.5.6.3.8.6-.2-.5,0-.7-.3-1.3Z"/>
  <path class="st18" d="M402,162.3c0,0,0,.1,0,.2,0,0,0-.1,0-.2Z"/>
  <path class="st18" d="M391.6,170.4l-.5-.2h0c0,0,.5.2.5.2Z"/>
  <path class="st18" d="M401.6,160.2c0,.1,0,.2,0,.4.3,0,0-.5,0-.4Z"/>
  <path class="st18" d="M395.4,163.6c-.2,0,0,.4,0,.5,0-.2.6-.4,0-.5Z"/>
  <path class="st18" d="M399.9,159.1c0,0-.2.3-.5.3.2,0,.8.1.5-.3Z"/>
  <path class="st18" d="M395.3,162.7h0c0,0,.3.3.3.3l-.2-.3Z"/>
  <path class="st18" d="M390.6,164.8c.5.2.9-.7,1.3-.2.3-.8-.5.2-.6-.4,0,.3-.6.6-.7.6Z"/>
  <path class="st18" d="M391.3,164.2s0,0,0-.2v.2Z"/>
  <path class="st18" d="M392.6,159.1c0,0,.1,0,.2,0,0,0,0,0-.2,0Z"/>
  <path class="st18" d="M390.6,162.7l.7.3c-.5-.2-.6-1-1.2-.8,0,.3.2.5.5.6h0c0-.1,0-.1,0-.1Z"/>
  <path class="st18" d="M399.3,153.3l.3.2v-.3c-.1.1-.6.1-.3.2Z"/>
  <path class="st18" d="M399.5,153.1h0c0,0,0,0,0,0Z"/>
  <path class="st18" d="M393.2,159.9c0,.2,0,.3.2.4,0,0,0-.5-.2-.4Z"/>
  <path class="st18" d="M397.7,152l.3.4-.2-.4h0Z"/>
  <path class="st18" d="M397.8,149.7h0c0-.1-.4-.3-.4-.3h0c0,.1.4.3.4.3Z"/>
  <path class="st18" d="M387.8,156.9c0,.2.6.2.7,0l-.2-.4c-.4.3,0,.1,0,.4h-.5c0,0,0,0,0,0Z"/>
  <path class="st18" d="M388.6,138c.3-.1.6.4.4.7-.2,0-.5-.1-.5.2l.9-.2c0,.8-1.1.3-1.5.3.4.5.9.3,1.3.8,0-.2,0-.4,0-.6.4-.4.6.3,1,.6,0-.4.3-.4.6-.4,0,0,0,0,.1,0h.1,0c0,0,.1-.1.2-.2-.4-.2-.2-.7-.4-.9-.5.8-.7-.5-1.2-.6l-.3-.2h0c0-.2.2-.2.4-.2-.3,0-.6-.5-.8-.2-.3-.3-.6-.7-.9-1,0,0,0-.1,0-.2,0,0-.1,0-.1,0-.7-.7-1.4-1.3-2.1-2-.7-.6-1.5-1.3-2.2-1.9.2.2.2.6.4.8-.7.2.3.4-.2.7-.3,0-.5-.2-.5-.4-.2.2-.2.5-.5.8.3.7,1.3-.2,1.7.4-.2.2-.6.3-.2.6h-.1c.8.2,0,.9.9.5l-.3.4c.5,0,1,.4,1.3.6h0c1.1.4.5.4,1.5,1-.3,0-.5,0-.8,0,.1.4.6,0,.8.3,0,0-.3.4-.5.2l1.6.4c.5,0,.2-.3.3-.5h0Z"/>
  <path class="st18" d="M389.3,139.8c0,0,0,.1.2.2,0,0,0-.2-.2-.2Z"/>
  <path class="st18" d="M383.2,131.9l.3.2c0-.1-.2-.2-.3-.2Z"/>
  <path class="st18" d="M391.4,140.7c0-.4.4,0,.6-.2l-.6-.7c-.1.1-.4.2-.5.3l.5.5Z"/>
  <path class="st18" d="M391.5,139.4c-.1,0-.3,0-.4,0l.3.4c.1,0,.2-.2.1-.4Z"/>
  <path class="st18" d="M383.7,146h0c0,0-.2-.1-.2-.1h.3Z"/>
  <path class="st18" d="M383,143.9c-.1.3.3.4.4.4-.2-.2,0-.2-.4-.4Z"/>
  <path class="st18" d="M380.9,146.3h-.3c0-.1,0,0,0,0h.3Z"/>
  <path class="st18" d="M379.6,131.7h-.2c0,0,.1,0,.2,0Z"/>
  <path class="st18" d="M382.5,133.3c-.4-1,.8,0,1-.7h-.5c0-.1.2-.2.2-.2l-.5-.3c-.1.3,0,.4-.3.7-.6-.6,0-.5-.2-1.2l-.8-.5h.1c0,0-.1,0-.2,0-.9-.6-1.8-1.1-2.7-1.6-.6,0,0,.7-.7.9.5.4,1.1,1.2,1.6.7,0,0-.2.2-.2.3l.6-.3-.2-.4c.6-.3,1.6.6,1.5,1-.7-.3-.8.5-1.4-.4,0,.2,0,.5-.3.5,1.1.5,1.6,1.4,2.9,1.6h0Z"/>
  <path class="st18" d="M372.9,127.5h0c0,0,0,0,0,0Z"/>
  <path class="st18" d="M373.2,127.8l.8-.4-.8-.4-.3.4c.1,0,.5-.2.5,0l-.3.2Z"/>
  <path class="st18" d="M374.8,127.4c-.5,0-.7.5-.6.8-.5,0,0-.6-.4-.2-.2.4.4.4.5.4l.6-.9Z"/>
  <path class="st18" d="M377.5,129.3h-.2c0,.1.2.3.2.3v-.3Z"/>
  <path class="st18" d="M377.2,129.4l-.2-.2c0,.2-.1.3-.2.4l.4-.2Z"/>
  <path class="st18" d="M376.4,128.6c0-.1-.2-.2-.3-.3l.3.3Z"/>
  <path class="st18" d="M376.6,128.9h0c0,0-.3-.3-.3-.3,0,.1.2.2.2.3Z"/>
  <path class="st18" d="M377,129.2c.2-.4.3-.7-.1-.9l-.2.6.3.3Z"/>
  <path class="st18" d="M379.8,144.3h-.4s0,0,0,0h.4s0,0,0,0Z"/>
  <path class="st18" d="M378.9,142.9c0,0-.2,0-.3,0,0,0,.2,0,.3,0Z"/>
  <path class="st18" d="M376.2,144.1c0-.5.7-.1.4-.6.2-.3.7-.5.8-.2-.2.2-.4,0-.5.4.4-.2.3,0,.6-.4.5,0,.7-.3,1.1-.4-.4-.1-.7-1-1.5-.9-.6.3-1,1.1-1.6,1.7-.1.2.3.7.7.3h0Z"/>
  <path class="st18" d="M376,145.1c0,.1.1.1.2.1.2-.2-.1,0-.2-.1Z"/>
  <path class="st18" d="M377.6,137.6c-.1,0-.4,0-.5.2h.5c0,0,0,0,0-.2Z"/>
  <path class="st18" d="M377.8,138.1h-.2c0,0,0,0,.2,0Z"/>
  <path class="st18" d="M377.7,137.5h0c0,0,0,0,0,0Z"/>
  <path class="st18" d="M375.4,127.8c.1-.2-.2-.2-.3-.2,0,0,.2.2.3.2Z"/>
  <path class="st18" d="M367.1,125.1v-.2c-.1.1,0,.2,0,.2Z"/>
  <path class="st18" d="M362.3,130.7s0,0,0,.1c0,0,0,0,0-.1Z"/>
  <path class="st18" d="M362.2,130.9c-.2.2-.4-.2-.7,0h0c0,0-.3,0-.3,0,.2,0,.7.2.9,0h0Z"/>
  <g class="st13">
    <g>
      <path class="st27" d="M511.2,226.2c-.8.2-1.8.5-2,1.3-.2.7.4,1.5,1,1.9,1.5,1.2,3.5,1.5,5.4,1.8,3.3.5,6.5.7,9.8,1l2.2-6.7c-4.9-.2-11.5-.2-16.4.7Z"/>
      <path class="st28" d="M539,261.7c-.2.4-6,15.3-6,15.3l-18.5-7.3,8.7-22.4,15.8,14.3Z"/>
      <path class="st28" d="M537.7,267.1s11.9,2.7,16.8-9.9c1.7-4.3,3.4-8.8,5.7-17.1,2.4-8.9-2.6-15-11.8-18.4l-.9-.3c-10.1-3.1-18.3-.2-20.8,9.4l-2.3,9.3s-8.3,19,13.4,27"/>
      <path class="st16" d="M552.2,248.5c-.2.7-1,1.1-1.8.9-.8-.2-1.2-1-1-1.7.2-.7,1-1.1,1.8-.9.8.2,1.2,1,1,1.7Z"/>
      <path class="st16" d="M539.3,243.6c-.2.7-1,1.1-1.8.9-.8-.2-1.2-1-1-1.7.2-.7,1-1.1,1.8-.9.8.2,1.2,1,1,1.7Z"/>
      <path class="st3" d="M537.2,238.4c1.6-.4,3.4.3,4.4,1.5"/>
      <path class="st3" d="M551.3,243.3c1.6-.4,3.4.3,4.4,1.5"/>
      <path class="st4" d="M553.2,239.3c1.3.2,2.5.7,3.6,1.4"/>
      <path class="st4" d="M538.9,234.3c1.3.2,2.5.7,3.6,1.4"/>
      <path class="st28" d="M522.6,237.7c-1.8.1-3.5,1.6-4.1,3.4-.6,1.8,0,3.9,1.2,5.3,1.2,1.3,3.1,2,5,1.7l2.5-8.1c-1.2-1.4-2.8-2.4-4.6-2.3h0Z"/>
      <path class="st12" d="M524.6,243.7c0-.7,0-1.3-.4-1.9-.4-.7-.9-1.2-1.6-1.4-.4-.2-.9-.2-1.3-.2,0,0-.2,0-.3.1,0,0-.1.2-.1.3,0,.2.2.4.4.4.2,0,.4,0,.5,0h0s0,0,0,0h0s0,0,.1,0c0,0,.2,0,.2,0,0,0,0,0,.1,0,0,0,0,0,0,0,0,0,0,0,0,0,0,0,.1,0,.2.1,0,0,.1,0,.2.1,0,0,0,0,0,0,0,0,0,0,0,0,0,0,0,0,0,0,0,0,0,0,0,0,.1.1.2.2.3.3,0,0,0,0,0,0,0,0,0,0,0,0,0,0,0,0,0,0,0,0,0,.1.1.2,0,.1.2.3.2.4,0,0,0,0,0,0,0,0,0,0,0,0,0,0,0,0,0,.1,0,0,0,.1,0,.2,0,0,0,.2,0,.2h0c0,.1,0,0,0,0s0,0,0,.1v.2h0c0,.1,0,.3,0,.1,0,0,0,.2,0,.3,0,0,.1.1.2.2.2,0,.4,0,.4-.2h0Z"/>
      <path class="st12" d="M537.1,266.4c-2.6-.7-5-2.3-6.7-4.5-.5-.6-.9-1.3-1.2-2-.2-.4-.8,0-.6.4,1.3,2.6,3.4,4.7,6,6,.7.4,1.5.6,2.3.9.4.1.6-.6.2-.7h0Z"/>
      <path class="st16" d="M546.1,245c-.3,1.5-.6,2.9-.8,4.4,0,.3,0,.7.2.9.2.2.4.3.7.4.2,0,.5.1.6.3.1.1,0,.3-.1.4-.3.2-.7.4-1,.6-.4.2-.7.4-1.1.7-.4.2,0,.9.4.6.7-.4,1.3-.8,2-1.2.3-.2.5-.4.6-.7.1-.3,0-.6-.2-.9-.2-.2-.5-.3-.7-.4-.2,0-.5-.1-.6-.3,0,0,0-.2,0-.3,0-.2,0-.4.1-.6,0-.4.1-.8.2-1.1.2-.9.3-1.7.5-2.6,0-.2,0-.4-.2-.4-.2,0-.4,0-.4.2h0Z"/>
      <path class="st12" d="M541.6,255.5c-.2,0-.4,0-.5-.2,0,0,0,0-.1,0,0,0,0,0,0,0,0,0,0,0,0,0,0,0-.2,0-.3-.1-.2,0-.3-.2-.5-.3,0,0,0,0,0,0,0,0,0,0,0,0,0,0,0,0,0,0,0,0-.2-.1-.2-.2,0,0-.1-.1-.2-.2,0,0,0,0,0,0,0,0,0,0,0,0t0,0h0c-.1-.2-.2-.4-.3-.5,0-.2-.1-.3-.2-.5,0-.2-.1-.4-.1-.6,0,0,0,0,0,0t0,0h0c0,0,0-.2,0-.2,0-.1,0-.2,0-.3s0-.2,0-.3h0c0,0,0-.1,0,0,0,0,0-.1,0-.2,0-.2,0-.4-.2-.4-.2,0-.4,0-.4.2-.2.9,0,1.8.3,2.7.4.8,1,1.4,1.7,1.9.4.2.9.4,1.3.5.2,0,.4,0,.4-.2,0-.2,0-.4-.2-.4h0Z"/>
      <path class="st9" d="M453.7,284s-52-47.2-68.7-49.9c-16-2.5-28.7,8.4-28.6,20.8,0,7.2,4.2,75.6,4.2,75.6l46.1-2.9-5.3-46.5,24.3,38.4,28.1-35.6h0Z"/>
      <path class="st23" d="M509.9,262.8s-19.2-8.9-26.6-5.2c-7.4,3.7-32.9,28.8-32.9,28.8l94.9,48.9-.4-57.1-34.9-15.4h0Z"/>
      <path class="st16" d="M522.3,237.8c1.6-.3,3,.7,3.3,2.4.2,1,0,2,.6,2.8.4.6,1.3.8,2,.7.7-.1,1.4-.6,1.9-1.1,2.3-2.2,2.8-5.7,3.9-8.7,1.1-2.9,2.8-5.5,5-7.5-2.4-1.3-5-2.2-7.7-2.8-1-.2-2-.4-3,0-1.4.5-2,.7-2.5,2.1-1.2,3-3.2,6.4-3.6,12.2"/>
      <path class="st27" d="M556.5,220c-4.4-4.5-12.9-6.2-19.1-4.6-6.2,1.5-9.2,4.4-11.9,10.1l35.8,12.2c2.5-5.9-.4-13.2-4.8-17.7Z"/>
      <path class="st16" d="M551.3,232.3c2.1,2.4,6,3,8.7,1.3.5-.3,1.1-.8,1.4-1.3.3-.6.3-1.3-.1-1.8-.4-.5-1.1-.7-1.8-.6-.6.1-1.2.4-1.8.7,1.1-.2,1.9-1.2,1.9-2.3,0-1.1-.9-2.1-1.9-2.2-1.1-.2-2.2.5-2.5,1.6.2-1.7-.4-3.5-1.8-4.3-1.5-.8-3.5,0-4.3,1.5-.8,1.5-.6,3.4.2,4.8.9,1.4,2,2.6,3.5,3.7"/>
      <path class="st16" d="M384.7,262.8c2.3,3.5,4.5,7.1,6.8,10.6.2.4.9,0,.6-.4-2.3-3.5-4.5-7.1-6.8-10.6-.2-.4-.9,0-.6.4Z"/>
      <path class="st22" d="M311.9,272.1h223.2c2.1,0,3.8,1.7,3.8,3.9v167.3c0,3.2-2.6,5.8-5.8,5.8h-218.6c-3.2,0-5.8-2.6-5.8-5.8v-168c0-1.7,1.4-3.1,3.1-3.1h0Z"/>
      <path class="st16" d="M311.9,272.1h223.2c2.1,0,3.8,1.7,3.8,3.9v13.9h-230.2v-14.7c0-1.7,1.4-3.1,3.1-3.1Z"/>
      <path class="st21" d="M319.6,281.5c0,1.4-1.1,2.5-2.5,2.5s-2.5-1.1-2.5-2.5,1.1-2.5,2.5-2.5,2.5,1.1,2.5,2.5Z"/>
      <path class="st23" d="M326.5,281.5c0,1.4-1.1,2.5-2.5,2.5s-2.5-1.1-2.5-2.5,1.1-2.5,2.5-2.5,2.5,1.1,2.5,2.5Z"/>
      <path class="st7" d="M333.3,281.5c0,1.4-1.1,2.5-2.5,2.5s-2.5-1.1-2.5-2.5,1.1-2.5,2.5-2.5,2.5,1.1,2.5,2.5Z"/>
      <g class="st25">
        <path class="st19" d="M418.1,343.4c2.2-1.3,4.5-2.3,6.8-3l1-4.8c.2-1.2,1.2-2,2.4-2h7.4c1.2-.2,2.2.6,2.5,1.8l1.2,4.8c2.4.6,4.7,1.5,7,2.7l4.2-2.7c.9-.6,2.2-.5,3,.3l5.4,5.3c.8.8,1,2,.4,3l-2.6,4.3c1.3,2.2,2.3,4.5,3,6.9l5.3,1.1c.9.2,1.5,1,1.5,1.9l.2,8.4c0,.9-.6,1.7-1.5,1.9l-5.2,1.3c-.6,2.4-1.5,4.8-2.7,7l2.5,3.8c.8,1.2.6,2.7-.4,3.7l-4.7,4.8c-1,1-2.5,1.2-3.7.5l-3.9-2.4c-2.2,1.3-4.5,2.3-6.9,3l-1.1,5.1c-.2,1-1.1,1.7-2,1.7h-8.1c-1,.2-1.9-.5-2.1-1.5l-1.2-5.1c-2.4-.6-4.7-1.5-7-2.7l-4.1,2.7c-1,.6-2.3.5-3.1-.3l-5.4-5.2c-.8-.8-1-2.1-.4-3.1l2.6-4.2c-1.3-2.2-2.3-4.5-3-6.9l-5.4-1.1c-.8-.2-1.4-.9-1.4-1.8l-.2-8.6c0-.9.6-1.6,1.4-1.8l5.3-1.3c.6-2.4,1.5-4.8,2.7-7l-2.6-4c-.7-1-.5-2.4.3-3.3l5-5.2c.9-.9,2.2-1.1,3.3-.4l4.1,2.5h0ZM425.4,357.6c-6.3,5.1-6.1,14.7.3,19.5,4.4,3.3,10.7,3.2,15-.3,6.3-5.1,6.1-14.7-.3-19.5-4.4-3.3-10.7-3.2-15,.3Z"/>
      </g>
      <path class="st19" d="M388.5,308.1c1.3-.8,2.7-1.4,4.2-1.8l.6-2.9c.1-.7.8-1.2,1.5-1.2h4.5c.7,0,1.3.4,1.5,1.1l.7,2.9c1.5.4,2.9.9,4.2,1.7l2.5-1.7c.6-.4,1.3-.3,1.8.2l3.3,3.2c.5.5.6,1.2.2,1.8l-1.6,2.6c.8,1.3,1.4,2.7,1.8,4.2l3.2.7c.5.1.9.6.9,1.1v5.1c0,.5-.3,1-.8,1.2l-3.2.8c-.4,1.5-.9,2.9-1.7,4.3l1.5,2.3c.5.7.4,1.6-.2,2.2l-2.9,3c-.6.6-1.5.7-2.2.3l-2.4-1.4c-1.3.8-2.7,1.4-4.2,1.8l-.7,3.1c-.1.6-.6,1-1.3,1h-4.9c-.6,0-1.1-.3-1.3-.9l-.8-3.1c-1.5-.4-2.9-.9-4.2-1.7l-2.5,1.7c-.6.4-1.4.3-1.9-.2l-3.3-3.2c-.5-.5-.6-1.3-.2-1.9l1.6-2.6c-.8-1.3-1.4-2.7-1.8-4.2l-3.3-.7c-.5-.1-.9-.5-.9-1.1v-5.2c0-.5.2-1,.7-1.1l3.2-.8c.4-1.5.9-2.9,1.7-4.3l-1.6-2.5c-.4-.6-.3-1.5.2-2l3.1-3.2c.5-.5,1.4-.7,2-.3l2.5,1.5h0ZM392.9,316.8c-3.8,3.1-3.8,9,.2,11.9,2.7,2,6.5,2,9.1-.2,3.9-3.1,3.8-9-.2-11.9-2.7-2-6.5-2-9.1.2h0Z"/>
      <g class="st26">
        <path class="st19" d="M369.9,367.2c1-.6,2.1-1.1,3.1-1.4l.5-2.2c.1-.5.6-.9,1.1-.9h3.4c.5,0,1,.3,1.1.8l.5,2.2c1.1.3,2.2.7,3.2,1.3l1.9-1.3c.4-.3,1-.2,1.4.1l2.5,2.4c.4.4.4.9.2,1.4l-1.2,2c.6,1,1.1,2.1,1.4,3.2l2.4.5c.4,0,.7.4.7.9v3.9c0,.4-.2.8-.6.9l-2.4.6c-.3,1.1-.7,2.2-1.3,3.2l1.1,1.8c.4.5.3,1.2-.2,1.7l-2.2,2.2c-.4.5-1.1.5-1.7.2l-1.8-1.1c-1,.6-2.1,1.1-3.1,1.4l-.5,2.4c0,.4-.5.8-.9.8h-3.7c-.5,0-.9-.2-1-.7l-.6-2.3c-1.1-.3-2.2-.7-3.2-1.3l-1.9,1.2c-.4.3-1,.2-1.4-.1l-2.5-2.4c-.4-.4-.5-1-.2-1.4l1.2-1.9c-.6-1-1.1-2.1-1.4-3.2l-2.5-.5c-.4,0-.7-.4-.7-.8v-3.9c0-.4.2-.7.6-.8l2.4-.6c.3-1.1.7-2.2,1.3-3.2l-1.2-1.9c-.3-.5-.3-1.1.1-1.5l2.3-2.4c.4-.4,1-.5,1.5-.2l1.9,1.1h0ZM373.7,373.4c-3.5,2.3-3.4,7.4.2,9.6,1.8,1.1,4.2,1.1,6-.1,3.5-2.3,3.4-7.4-.2-9.6-1.8-1.1-4.2-1.1-6,.1Z"/>
      </g>
      <path class="st14" d="M480.5,335.5c1-.6,2.1-1.1,3.1-1.4l.5-2.2c.1-.5.6-.9,1.1-.9h3.4c.5,0,1,.3,1.1.8l.5,2.2c1.1.3,2.2.7,3.2,1.3l1.9-1.3c.4-.3,1-.2,1.4.1l2.5,2.4c.4.4.4.9.2,1.4l-1.2,2c.6,1,1.1,2.1,1.4,3.2l2.4.5c.4,0,.7.4.7.9v3.9c0,.4-.2.8-.6.9l-2.4.6c-.3,1.1-.7,2.2-1.3,3.2l1.1,1.8c.3.5.3,1.2-.2,1.7l-2.1,2.2c-.4.5-1.1.5-1.7.2l-1.8-1.1c-1,.6-2.1,1.1-3.1,1.4l-.5,2.4c0,.4-.5.8-.9.8h-3.7c-.5,0-.9-.2-1-.7l-.6-2.3c-1.1-.3-2.2-.7-3.2-1.3l-1.9,1.2c-.4.3-1,.2-1.4-.1l-2.5-2.4c-.4-.4-.5-1-.2-1.4l1.2-1.9c-.6-1-1.1-2.1-1.4-3.2l-2.5-.5c-.4,0-.7-.4-.7-.8v-3.9c0-.4.2-.7.6-.8l2.4-.6c.3-1.1.7-2.2,1.3-3.2l-1.2-1.9c-.3-.5-.3-1.1.1-1.5l2.3-2.4c.4-.4,1-.5,1.5-.2l1.9,1.1h0ZM483.8,342c-2.9,2.3-2.8,6.7.2,9,2,1.5,4.9,1.5,6.9-.1,2.9-2.3,2.8-6.7-.2-9-2-1.5-4.9-1.5-6.9.1Z"/>
      <path class="st14" d="M458.1,402c1.1-.7,2.3-1.2,3.4-1.5l.5-2.4c.1-.6.6-1,1.2-1h3.8c.6,0,1.1.3,1.3.9l.6,2.4c1.2.3,2.4.8,3.5,1.4l2.1-1.4c.5-.3,1.1-.3,1.5.1l2.7,2.7c.4.4.5,1,.2,1.5l-1.3,2.2c.7,1.1,1.2,2.3,1.5,3.5l2.7.6c.4,0,.8.5.8.9v4.2c0,.5-.2.9-.7,1l-2.6.6c-.3,1.2-.8,2.4-1.4,3.5l1.3,1.9c.4.6.3,1.4-.2,1.9l-2.4,2.4c-.5.5-1.3.6-1.8.2l-2-1.2c-1.1.7-2.3,1.2-3.5,1.5l-.5,2.6c-.1.5-.5.8-1,.9h-4.1c-.5,0-.9-.3-1.1-.7l-.6-2.6c-1.2-.3-2.4-.8-3.5-1.4l-2.1,1.4c-.5.3-1.1.3-1.6-.2l-2.7-2.6c-.4-.4-.5-1.1-.2-1.6l1.3-2.1c-.7-1.1-1.2-2.3-1.5-3.5l-2.7-.6c-.4,0-.7-.5-.7-.9v-4.3c0-.4.2-.8.6-.9l2.7-.7c.3-1.2.8-2.4,1.4-3.5l-1.3-2c-.3-.5-.3-1.2.2-1.7l2.5-2.6c.4-.4,1.1-.5,1.6-.2l2.1,1.3h0ZM461.8,409.2c-3.2,2.6-3.1,7.4.2,9.8,2.2,1.7,5.4,1.6,7.6-.1,3.2-2.6,3.1-7.4-.2-9.9-2.2-1.7-5.4-1.6-7.6.1h0Z"/>
      <path class="st7" d="M497.7,298.4l-14.5-5.5c0,0,0-.1,0,0l-18.8-7.1-17.6-6.7c-1.9-.7-3.9.2-4.6,2.1l-5,13.3c-1.1-.2-2.2-.3-3.4-.3-6.8.4-12,6.3-11.6,13.1.3,4.4,2.8,8.1,6.3,10.1l-4.9,13c-1.1,2.9.4,6.2,3.3,7.3l15.9,6c-.1.3-.2.6-.3.9-1.6,5.4,1.4,11,6.8,12.7,5.2,1.6,10.7-1.3,12.5-6.4l12.4,4.7c2.9,1.1,6.1-.4,7.2-3.3l18.5-49.1c.7-2-.2-4.1-2.2-4.9h0Z"/>
      <path class="st18" d="M448.6,279.9c-2,1.3-2.9,4-3.2,6.3-.4,2.8-.1,5.6,1.3,8,1.9,3.2,4.9,5.6,6.4,9,.8,1.7,1.1,3.7.5,5.5-.6,1.7-1.8,3.1-3,4.4-2,2.3-4.6,5.8-2.7,8.9,1.8,2.9,5.7,3,8.5,1.8,3.1-1.3,5.9-3.5,8.2-5.9,2.3-2.4,4-5.2,5.3-8.3,2.6-6.5,2.1-14-.4-20.4-.3-.8-.6-1.5-1-2.3-.2-.4-.8,0-.6.4,2.9,5.9,3.9,13.2,2.2,19.5-1.8,6.4-5.9,11.7-11.3,15-2.7,1.7-6.6,3.2-9.4.8-3.1-2.6-.4-6.6,1.6-8.9,1.1-1.2,2.2-2.4,2.9-3.8.7-1.4.9-3,.6-4.6-.6-3.4-3-6-5.1-8.6-1.1-1.3-2.2-2.7-2.8-4.2-.5-1.2-.7-2.4-.7-3.7,0-2.5.4-5.3,1.9-7.3.3-.4.7-.8,1.1-1.1.4-.2,0-.9-.4-.6h0Z"/>
      <path class="st18" d="M460.2,330.9c-1.4.4-2.3,1.8-2.5,3.3-.2,1.5.4,3,1.7,3.6,1.3.7,2.9.5,4.1-.3.6-.4,1.1-1,1.4-1.7.3-.7.3-1.6,0-2.4-.6-1.5-2.1-2.8-3.8-2.7-.2,0-.4,0-.6,0-.4.1-.3.8.2.7,0,0,.2,0,.3,0,0,0,0,0,0,0h.4s0,0,.1,0h0s0,0,0,0c.4,0,.7.2,1,.3.6.3,1.1.8,1.5,1.5.2.3.3.6.4,1,0,.3,0,.7,0,1,0,0,0,.2,0,.2,0,0,0,0,0,.1,0,0,0,.1,0,0,0,0,0,0,0,0,0,0,0,0,0,.1,0,0,0,.1-.1.2,0,0,0,.1-.1.2,0,0,0,0,0,0,0,0,0,0,0,0-.1.1-.2.2-.3.3,0,0,0,0,0,0,0,0,0,0,0,0,0,0,0,0,0,0,0,0-.1,0-.2.1-.1,0-.3.2-.4.2,0,0,0,0-.1,0,0,0,0,0,0,0s0,0,0,0c0,0-.2,0-.2,0-.2,0-.3,0-.5.1-.3,0-.5,0-.9,0,0,0-.1,0-.2,0h0s0,0,0,0,0,0-.1,0c-.2,0-.3,0-.5-.1,0,0,0,0,0,0,0,0-.1,0,0,0,0,0,0,0,0,0h-.1c-.1-.1-.3-.2-.4-.3,0,0,0,0,0,0,0,0,0,0,0,0,0,0-.1-.1-.2-.2,0,0,0,0,0,0,0,0,0,0,0,0,0,0,0-.1-.1-.2,0,0,0-.1-.1-.2,0,0,0,0,0-.1,0,0,0-.1,0,0,0-.1-.1-.3-.1-.4,0,0,0-.2,0-.2,0,0,0,0,0,0,0,0,0,0,0,0,0,0,0,0,0,0,0-.2,0-.3,0-.5v-.2s0,0,0-.1h0s0-.1,0,0c0,0,0,0,0,0,0,0,0,0,0,0,0,0,0,0,0-.1,0,0,0-.2,0-.2,0-.2,0-.3.2-.5,0,0,0,0,0,0,0,0,0,0,0,0,0,0,0,0,0,0,0,0,0-.2.1-.2,0-.1.2-.3.3-.4,0,0,0,0,0,0,0,0,0,0,0,0,0,0,.1-.1.2-.2,0,0,.1-.1.2-.2,0,0,0,0,0,0,0,0,0,0,0,0,0,0,0,0,0,0,.1,0,.3-.2.4-.2,0,0,0,0,0,0,0,0,0,0,0,0,0,0,.2,0,.2,0,.4-.1.2-.8-.2-.7h0Z"/>
      <path class="st18" d="M426.6,324.5c2.7-2,6.6-1.4,8.9.8,2.5,2.4,3.3,6,2.7,9.4-.4,2.1-1.2,4.1-2.4,6-.2.4.4.8.6.4,2.1-3.4,3.3-7.5,2.3-11.4-.9-3.4-3.4-6.3-7-6.9-1.9-.3-4,0-5.6,1.2-.4.3,0,.9.4.6h0Z"/>
      <path class="st18" d="M464.3,351.1c1.1-3.8,3.7-6.6,6.8-8.9,2.9-2.2,6-4,8.6-6.6,6.4-6.4,9.8-15.2,10.1-24.1.2-5.7-.7-11.4-2.5-16.7-.1-.4-.8-.2-.7.2,3.1,9.3,3.6,19.5,0,28.7-1.6,4.1-4,7.9-7,11-2.6,2.7-5.7,4.6-8.7,6.7-3.3,2.4-6.1,5.4-7.3,9.5-.1.4.6.6.7.2h0Z"/>
      <path class="st28" d="M507,306.1s-7-4.5-11.3-5.6c-4.3-1.1-7.3-.4-9.9.2-2.5.6-8,3.3-6.1,6.1,1.2,1.9,3.2.7,6.2-.4,3-1.1,7.9-.3,7.9-.3,0,0-7.7,5.7-7.3,10.7,0,0,.2,3,4.2,1.9,0,0,.5,4.7,4.8,3.1,0,0,2.6-4.4,5-6.4l1.4-.9s-3,6.1-2.3,7.8c.7,1.7,1.8,3,3.5,2.1,1.6-.9,1.3-4,3.2-5.5,0,0,2.2,2.2,3.1,3.2.9.9,14.3,7.5,14.3,7.5l5.2-19-21.9-4.6h0Z"/>
      <path class="st12" d="M490.8,309.3c1.2-1.9,3.2-3.3,5.4-3.8.6-.1,1.3-.2,1.9-.2.5,0,.5-.7,0-.7-2.4,0-4.9.9-6.6,2.6-.5.5-.9,1-1.3,1.6-.2.4.4.7.6.4h0Z"/>
      <path class="st12" d="M491.6,319c1.3-3.7,3.7-6.9,6.9-9.1.9-.6,1.9-1.2,2.9-1.6.4-.2,0-.8-.4-.6-3.7,1.7-6.8,4.5-8.7,8-.6,1-1,2-1.4,3.1-.2.4.5.6.7.2h0Z"/>
      <path class="st23" d="M528.3,308.6l-5.7,23.7s31.8,18.7,37.4,19.5c6.3.9,17.2-1.8,17.5-15.6.2-10.5-15.3-37-22.6-48.9-2.4-3.9-5.9-7.1-10.1-9.1v32.6s-14.4-1.4-14.4-1.4"/>
      <path class="st16" d="M529.3,309c8.3,1.9,16.4,4,24.5,6.4,2.3.7,4.6,1.4,6.8,2.1.4.1.6-.6.2-.7-8.1-2.5-16.2-4.8-24.4-6.8-2.3-.6-4.6-1.1-7-1.6-.4-.1-.6.6-.2.7Z"/>
      <path class="st28" d="M478.2,272.1s-.4-5.8-8-5.2c0,0-.3-6.7-6.7-3.3,0,0-2.6-5.5-7-.3,0,0-5.1-3.4-7.6,2.1,0,0-3.7-1-4.7,3.6-1,4.5,3.3,4.5,3.3,4.5,0,0,.3,4,5,3,0,0,2.5,2.9,5.5.2,0,0,.3,2.9,3.2,1.9,2.9-1,5.9-6.3,5.9-6.3l11.2-.2h0Z"/>
      <path class="st12" d="M469.9,265.9c0,0,0,.2,0,.3v-.2c-.2.9-.6,1.7-1,2.4-.5.9-1,1.8-1.6,2.6-.3.4-.5.7-.8,1.1-.3.4.2.8.5.5.7-.7,1.2-1.6,1.7-2.4.6-.9,1.1-1.9,1.5-2.9,0-.2.2-.5.3-.7,0-.1,0-.2,0-.3,0-.2,0-.4,0-.6-.1-.4-.8-.2-.7.2h0Z"/>
      <path class="st12" d="M463.5,263.4c-2.9,2.7-5,6.4-5.7,10.3-.2,1.1-.3,2.2-.3,3.4,0,.5.7.5.7,0,0-3.8,1.2-7.7,3.5-10.7.7-.9,1.4-1.7,2.2-2.4.3-.3-.2-.8-.5-.5h0Z"/>
      <path class="st12" d="M456.4,263.2c-2.2,2.8-3.5,6.2-3.8,9.7,0,1-.1,2,0,3,0,.5.7.5.7,0-.3-4.4,1-8.8,3.7-12.3.3-.4-.2-.9-.5-.5Z"/>
      <path class="st12" d="M448.2,273.9c.3-3.1.9-6.2,1.8-9.2.1-.4-.5-.6-.7-.2-.9,3-1.6,6.2-1.9,9.4,0,.5.7.5.7,0Z"/>
      <path class="st16" d="M102.5,600.3h634.7c.5,0,.5-.7,0-.7H102.5c-.5,0-.5.7,0,.7Z"/>
      <path class="st14" d="M141.4,380.2c-10.9,10.1-28.7,15.4-43.6,14.2-.8,0-1.5.7-1.2,1.6l9.4,31.6c.2.5.6.9,1.1.9,7.2.2,15.5-.5,22.2-2.4,7.6-2.1,11.4-3.3,19.9-8.2,1.7-1,6.2-3.8,7.8-6.6.2-.3.2-.7,0-1.1l-13.7-29.6c-.4-.8-1.3-.9-1.9-.4h0Z"/>
      <path class="st16" d="M107.3,401.5c1.9,7.2,4.3,14.2,7.3,21,.2.4.8,0,.6-.4-2.9-6.7-5.4-13.7-7.2-20.8-.1-.4-.8-.3-.7.2Z"/>
      <path class="st16" d="M114.7,400.6c2.7,6.7,5.1,13.5,7.3,20.4.1.4.8.2.7-.2-2.1-6.9-4.6-13.7-7.3-20.4-.2-.4-.9-.2-.7.2Z"/>
      <path class="st16" d="M121.7,398.3c1.9,7.2,4.3,14.2,7.3,21,.2.4.8,0,.6-.4-2.9-6.7-5.4-13.7-7.2-20.8-.1-.4-.8-.3-.7.2Z"/>
      <path class="st16" d="M128.5,396.1c2.7,6.7,5.1,13.5,7.3,20.4.1.4.8.2.7-.2-2.1-6.9-4.6-13.7-7.3-20.4-.2-.4-.9-.2-.7.2Z"/>
      <path class="st16" d="M134.6,392.1c2.7,6.7,5.1,13.5,7.3,20.4.1.4.8.2.7-.2-2.1-6.9-4.6-13.7-7.3-20.4-.2-.4-.9-.2-.7.2Z"/>
      <path class="st16" d="M140.4,389.9c1.4,3.2,2.9,6.3,4.3,9.5,0,.2.3.2.5.1.2-.1.2-.3.1-.5-1.4-3.2-2.9-6.3-4.3-9.5,0-.2-.3-.2-.5-.1-.2.1-.2.3-.1.5Z"/>
      <path class="st14" d="M708.1,359.7c-5.8,13.7-19.8,25.9-33.8,31-.8.3-1,1.3-.5,1.9l21.6,24.8c.3.4.9.5,1.4.3,6.6-2.8,13.9-6.9,19.3-11.3,6.1-5.1,9-7.8,14.8-15.7,1.2-1.6,4.1-6,4.4-9.3,0-.4-.1-.7-.4-1l-24.7-21.3c-.6-.5-1.6-.3-1.9.5h0Z"/>
      <path class="st16" d="M685.8,393.2c3.6,4.5,7.5,8.7,11.7,12.7,1.2,1.1,2.4,2.2,3.6,3.3.3.3.8-.2.5-.5-4.3-3.8-8.3-7.9-12.1-12.3-1.1-1.2-2.1-2.5-3.2-3.8-.3-.4-.8.2-.5.5Z"/>
      <g class="st26">
        <path class="st19" d="M690.1,271.1c1-.6,2.1-1.1,3.1-1.4l.5-2.2c.1-.5.6-.9,1.1-.9h3.4c.5,0,1,.3,1.1.8l.5,2.2c1.1.3,2.2.7,3.2,1.3l1.9-1.3c.4-.3,1-.2,1.4.1l2.5,2.4c.4.4.4.9.2,1.4l-1.2,2c.6,1,1.1,2.1,1.4,3.2l2.4.5c.4,0,.7.4.7.9v3.9c0,.4-.2.8-.6.9l-2.4.6c-.3,1.1-.7,2.2-1.3,3.2l1.1,1.8c.4.5.3,1.2-.2,1.7l-2.2,2.2c-.4.5-1.1.6-1.7.2l-1.8-1.1c-1,.6-2.1,1.1-3.1,1.4l-.5,2.4c0,.4-.5.8-.9.8h-3.7c-.5,0-.9-.2-1-.7l-.6-2.3c-1.1-.3-2.2-.7-3.2-1.3l-1.9,1.2c-.4.3-1,.2-1.4-.1l-2.5-2.4c-.4-.4-.5-1-.2-1.4l1.2-1.9c-.6-1-1.1-2.1-1.4-3.2l-2.5-.5c-.4,0-.7-.4-.7-.8v-3.9c0-.4.2-.7.6-.8l2.4-.6c.3-1.1.7-2.2,1.3-3.2l-1.2-1.9c-.3-.5-.3-1.1.1-1.5l2.3-2.4c.4-.4,1-.5,1.5-.2l1.9,1.1h0ZM693.9,277.3c-3.5,2.3-3.4,7.4.2,9.6,1.8,1.1,4.2,1.1,6-.1,3.5-2.3,3.4-7.4-.2-9.6-1.8-1.1-4.2-1.1-6,.1Z"/>
      </g>
      <g class="st26">
        <path class="st19" d="M121.8,286.8c1-.6,2.1-1.1,3.1-1.4l.5-2.2c.1-.5.6-.9,1.1-.9h3.4c.5,0,1,.3,1.1.8l.5,2.2c1.1.3,2.2.7,3.2,1.3l1.9-1.3c.4-.3,1-.2,1.4.1l2.5,2.4c.4.4.4.9.2,1.4l-1.2,2c.6,1,1.1,2.1,1.4,3.2l2.4.5c.4,0,.7.4.7.9v3.9c0,.4-.2.8-.6.9l-2.4.6c-.3,1.1-.7,2.2-1.3,3.2l1.1,1.8c.4.5.3,1.2-.2,1.7l-2.2,2.2c-.4.5-1.1.6-1.7.2l-1.8-1.1c-1,.6-2.1,1.1-3.1,1.4l-.5,2.4c0,.4-.5.8-.9.8h-3.7c-.5,0-.9-.2-1-.7l-.6-2.3c-1.1-.3-2.2-.7-3.2-1.3l-1.9,1.2c-.4.3-1,.2-1.4-.1l-2.5-2.4c-.4-.4-.5-1-.2-1.4l1.2-1.9c-.6-1-1.1-2.1-1.4-3.2l-2.5-.5c-.4,0-.7-.4-.7-.8v-3.9c0-.4.2-.7.6-.8l2.4-.6c.3-1.1.7-2.2,1.3-3.2l-1.2-1.9c-.3-.5-.3-1.1.1-1.5l2.3-2.4c.4-.4,1-.5,1.5-.2l1.9,1.1h0ZM125.6,293c-3.5,2.3-3.4,7.4.2,9.6,1.8,1.1,4.2,1.1,6-.1,3.5-2.3,3.4-7.4-.2-9.6-1.8-1.1-4.2-1.1-6,.1Z"/>
      </g>
      <g class="st26">
        <path class="st19" d="M139.3,243.9c1.3-.8,2.8-1.4,4.3-1.9l.6-3c.2-.7.8-1.2,1.5-1.2h4.6c.7,0,1.4.4,1.5,1.1l.7,3c1.5.4,2.9.9,4.3,1.7l2.6-1.7c.6-.4,1.4-.3,1.9.2l3.4,3.3c.5.5.6,1.3.2,1.9l-1.6,2.6c.8,1.3,1.4,2.8,1.8,4.3l3.3.7c.5.1.9.6,1,1.2v5.2c.1.6-.3,1.1-.8,1.2l-3.2.8c-.4,1.5-.9,3-1.7,4.3l1.6,2.4c.5.7.4,1.7-.2,2.3l-2.9,3c-.6.6-1.5.7-2.3.3l-2.4-1.5c-1.3.8-2.8,1.4-4.3,1.9l-.7,3.2c-.1.6-.7,1-1.3,1.1h-5c-.6,0-1.2-.3-1.3-.9l-.8-3.2c-1.5-.4-2.9-.9-4.3-1.7l-2.6,1.7c-.6.4-1.4.3-1.9-.2l-3.3-3.2c-.5-.5-.6-1.3-.2-1.9l1.6-2.6c-.8-1.3-1.4-2.8-1.8-4.3l-3.3-.7c-.5-.1-.9-.6-.9-1.1v-5.3c0-.5.3-1,.8-1.1l3.3-.8c.4-1.5.9-3,1.7-4.3l-1.6-2.5c-.4-.6-.3-1.5.2-2.1l3.1-3.2c.5-.5,1.4-.7,2-.3l2.6,1.5h0ZM144.4,252.3c-4.8,3.2-4.6,10,.2,13,2.5,1.5,5.7,1.5,8.1-.1,4.8-3.2,4.6-10-.2-13-2.5-1.5-5.7-1.5-8.1.1h0Z"/>
      </g>
      <path class="st22" d="M105.4,488.6c8.6-12.1,25-21,39.8-22.8.8-.1,1.3-1,.9-1.8l-15.6-29c-.2-.5-.8-.7-1.3-.6-7.1,1.3-15.1,3.7-21.3,6.8-7,3.6-10.5,5.6-17.9,12.1-1.5,1.3-5.3,5-6.3,8.1-.1.4,0,.8.2,1.1l19.5,26.2c.5.7,1.5.6,2,0h0Z"/>
      <path class="st16" d="M134.4,460.7c-3.3-6.6-7.1-13-11.4-19-.3-.4-.9,0-.6.4,4.3,6,8.1,12.4,11.4,19,.2.4.8,0,.6-.4Z"/>
      <path class="st16" d="M127.4,463.2c-4-6-7.8-12.2-11.3-18.5-.2-.4-.8,0-.6.4,3.5,6.3,7.3,12.5,11.3,18.5.3.4.9,0,.6-.4Z"/>
      <path class="st16" d="M121.1,466.8c-3.3-6.6-7.1-13-11.4-19-.3-.4-.9,0-.6.4,4.3,6,8.1,12.4,11.4,19,.2.4.8,0,.6-.4Z"/>
      <path class="st16" d="M114.8,470.3c-4-6-7.8-12.2-11.3-18.5-.2-.4-.8,0-.6.4,3.5,6.3,7.3,12.5,11.3,18.5.3.4.9,0,.6-.4Z"/>
      <path class="st16" d="M109.7,475.5c-4-6-7.8-12.2-11.3-18.5-.2-.4-.8,0-.6.4,3.5,6.3,7.3,12.5,11.3,18.5.3.4.9,0,.6-.4Z"/>
      <path class="st16" d="M310,406.8c.2-2.2,1.2-4.3,1-6.4-.3-2.6-2.4-4.8-5-5.2-2.5-.3-5.2,1.3-6.2,3.7,0-5.1-4.6-9.9-9.7-10.1-5.1-.2-10,4.1-10.5,9.3-.4,5.1,3.7,10.2,8.8,10.9-3.1,5.1-.7,12.2,4.1,15.8,4.8,3.5,11.2,4.1,17.1,3l6.6-11.1c-4-1.3-6.8-5.6-6.3-9.8h0Z"/>
      <path class="st27" d="M314,414.9c-1.7.6-3,2-4,3.6-1.2,2-2,4.4-2.2,6.8-.1,1.3,0,2.7.6,3.8.7,1.1,2.1,1.8,3.3,1.4l7.1-14c-.9-1.6-3.1-2.1-4.8-1.5Z"/>
      <path class="st16" d="M355.4,426.6c-1.1-5.6-4.8-11.6-9.8-14.5-5.9-3.3-13.2-3.3-19.6-1.3-3.3,1-6.6,2.6-8.9,5.2-2.6,2.8-4,6.5-4.9,10.2-1.3,5.7-1.6,11.7.3,17.2,1.9,5.5,5.5,11.7,13.2,13.1l28.1-11.3c3.1-4.9,2.7-13,1.6-18.7h0Z"/>
      <path class="st17" d="M344.1,452.7c0,.5,3.2,15.9,3.2,15.9l-18.1,3.7-4.9-21.9,19.8,2.4Z"/>
      <path class="st17" d="M346.5,457.5s11.3-4.2,8.7-17.1c-.9-4.4-1.9-9.1-4.4-17.2-2.7-8.7-10.1-11-19.6-8.9l-.9.2c-10,2.8-15.2,9.6-12.2,18.9l3,8.9s3.2,20.2,25.5,15.1"/>
      <path class="st16" d="M350.1,433.4c.2.7-.3,1.5-1,1.7-.8.2-1.5-.2-1.7-.9-.2-.7.3-1.5,1-1.7.8-.2,1.5.2,1.7.9Z"/>
      <path class="st16" d="M337.4,436.9c.2.7-.3,1.5-1,1.7-.8.2-1.5-.2-1.7-.9-.2-.7.3-1.5,1-1.7.8-.2,1.5.2,1.7.9Z"/>
      <path class="st3" d="M330.8,434c1.1-1.1,2.9-1.6,4.5-1.1"/>
      <path class="st3" d="M345,430.5c1.1-1.1,2.9-1.6,4.5-1.1"/>
      <path class="st4" d="M343.6,425.5c1.2-.5,2.4-.7,3.7-.8"/>
      <path class="st4" d="M330,429.7c1.2-.5,2.4-.7,3.7-.8"/>
      <path class="st16" d="M320.9,442.6c6.2,3.4,9.1-9.4,12.8-15.6,2.7-4.5,7.4-10.8,7.4-16.2,0,0-12.6-4-20.4,4.4-7.9,8.3-6,20.3-6,20.3l6.3,7.1Z"/>
      <path class="st17" d="M318.7,441.8c1.5-1,3.4-.8,5-.2l1.7,8.2c-1.5,1.1-3.4,1.4-5.1.9-1.7-.6-3.1-2.1-3.5-3.9-.4-1.9.4-3.9,1.9-4.9h0Z"/>
      <path class="st2" d="M322.8,445.2c-.5-1.1-2.6-2.2-4.1-.9"/>
      <path class="st2" d="M346.4,457.7c-3.4,1.1-7.2.7-10.3-1.2"/>
      <path class="st16" d="M341.6,434.7c.5,1.3,1.1,2.7,1.6,4,.1.3.3.6.6.7.3.1.6,0,.9,0,.2,0,.4-.2.7-.1.2,0,.1.3,0,.4-.1.3-.3.7-.5,1-.2.4-.4.7-.5,1.1,0,.2,0,.4.1.5.2,0,.4,0,.5-.1.3-.7.7-1.3,1-2,.1-.3.3-.6.2-.9,0-.3-.3-.6-.6-.7-.3,0-.6,0-.8,0-.2,0-.5.2-.7,0,0,0-.1-.2-.2-.3,0-.2-.2-.4-.2-.5-.1-.3-.3-.7-.4-1-.3-.8-.6-1.6-1-2.4,0-.2-.2-.3-.4-.2-.2,0-.3.3-.2.4h0Z"/>
      <path class="st8" d="M344.1,446.2c0-.3-.2-.6-.5-.7-1.2-.4-2.5-.8-3.7-1.2-.4-.1-.8-.2-1.2,0-.3.1-.5.5-.6.8-.4,1.1,0,2.3.9,3.1.9.7,2.1.9,3.2.5,1-.3,1.9-.9,1.9-2.4h0Z"/>
      <path class="st17" d="M299.2,536.4c.7.3,1.3,48.7,1.3,48.7l-20.9,9.2c-1.6.7-2.7,2.3-2.7,4.1v2.3s45.6-.2,45.6-.2l-3.8-60.5-19-3.6"/>
      <path class="st8" d="M304.8,590.4c-3.6-1.3-6.8,1.3-9.8,2.8-.9.4-1.8.7-2.7.9-.9.2-1.8.3-2.7.6-1.4.5-2.7,1.5-2.8,3.1-.2,2.6,2.9,2.8,4.8,2.8,2.3,0,4.6,0,6.9-.1,1.2,0,2.5,0,3.7,0s1.7,0,2.4.1c.4,0,.6-.6.2-.7-1.6-.3-3.2-.1-4.8-.1-2.2,0-4.5.1-6.7.1-.9,0-1.8,0-2.6,0-.9,0-1.9,0-2.6-.7-.6-.5-.7-1.3-.5-1.9.2-.7.8-1.2,1.5-1.6,1.5-.8,3.4-.8,5-1.4,3.4-1.2,6.8-4.6,10.6-3.2.4.2.6-.5.2-.7h0Z"/>
      <path class="st21" d="M321.3,493.3l-9.4-19.1s-9.1,4.4-11.6,16.9c-2.5,12.5-6.8,50-6,56.4l27,3.7v-57.9s0,0,0,0Z"/>
      <path class="st9" d="M322.6,527.5c-1.3,2.3-12.7,29.8-14.2,36.8-1.6,7-5.3,28.4,10.2,35.8,15.6,7.4,61.2,1.6,61.2,1.6l6.8-27.9,2.4-12.4-31.3-36.9-35.1,3h0Z"/>
      <path class="st9" d="M365.7,523.7l2,7.3c7.3,0,27.3,6.6,27.3,6.6,0,0,49.5.5,69.3,2.4,11.3,1.1,38.1,17,13.8,42.5,0,0-14.2,7.2-20,8.5-5.8,1.3-33.4,6.3-33.4,6.3l-8.8-20.8-29.3-2.9-36.5-48.6,15.7-1.3h0Z"/>
      <path class="st8" d="M386.3,579.2l26.8-10.9,4.6,13-20.6,13.2-10.8-15.2Z"/>
      <path class="st16" d="M454.2,543.1c-5.3,2.8-10.5,5.9-15.7,8.9-5.7,3.4-11.4,6.8-17.2,10.2-2.7,1.6-5.5,3.2-8.2,4.8-.1,0-.2.3-.2.4.9,3,1.9,6.1,2.8,9.1.1.4.3.9.4,1.3.1.4.8.2.7-.2-.9-3-1.9-6.1-2.8-9.1-.1-.4-.3-.9-.4-1.3l-.2.4c5.2-3,10.4-6.1,15.5-9.2,5.7-3.4,11.5-6.9,17.2-10.2,2.8-1.6,5.6-3.2,8.4-4.7.4-.2,0-.8-.4-.6h0Z"/>
      <path class="st16" d="M355,529.6c2.6,7.9,4,16.2,4,24.6,0,2.3-.1,4.7-.3,7,0,.5.7.5.7,0,.7-8.3.2-16.8-1.7-24.9-.5-2.3-1.2-4.6-1.9-6.9-.1-.4-.8-.2-.7.2Z"/>
      <path class="st21" d="M447.3,592.5c-2.6-2.9-6.1-4.9-9.7-6.5-7.6-3.6-15.6-6-23.6-8.4-3-.9-6.1-1.8-9.2-1.6-3.1.2-6.3,1.8-7.6,4.6l-.9,20.7c7.8,2.4,18.1,6.8,25.9,9.3,5.3,1.7,10.9,3.3,16.4,2.6,5.6-.7,11.2-4.4,12.2-9.9.7-3.9-.9-7.9-3.6-10.8h0Z"/>
      <path class="st17" d="M384.7,578.9l18.3,2c8,8.4,3.7,17.7-4.1,20.4l-19.5-.3,5.3-22Z"/>
      <path class="st16" d="M414.8,601.9c-.6-2.6-.2-5.4,1.3-7.6.4-.6.9-1.2,1.4-1.8.3-.3-.2-.8-.5-.5-2.1,2-3.2,4.8-3.2,7.7,0,.8.1,1.6.3,2.4.1.4.8.3.7-.2h0Z"/>
      <path class="st16" d="M419,603.4c-.6-2.6-.2-5.4,1.3-7.6.4-.6.9-1.2,1.4-1.8.3-.3-.2-.8-.5-.5-2.1,2-3.2,4.8-3.2,7.7,0,.8.1,1.6.3,2.4.1.4.8.3.7-.2h0Z"/>
      <path class="st16" d="M423.6,605.1c-.6-2.6-.2-5.4,1.3-7.6.4-.6.9-1.2,1.4-1.8.3-.3-.2-.8-.5-.5-2.1,2-3.2,4.8-3.2,7.7,0,.8.1,1.6.3,2.4.1.4.8.3.7-.2h0Z"/>
      <path class="st16" d="M412.4,596.4c-2-.4-4.2.3-5.5,1.9-.4.4-.7.9-.8,1.5,0,.7.5,1.1,1.2,1.2.5,0,1.1-.2,1.6-.4.5-.2,1-.4,1.4-.7,1-.7,1.8-1.6,2.2-2.7,0-.2,0-.4-.1-.5-.2,0-.4,0-.5.1-.8,1.6-2.2,2.9-4,3.3-.2,0-.5.1-.7,0-.2,0-.3-.1-.4-.2-.2-.3.3-.9.5-1.1.5-.7,1.3-1.2,2-1.5.2,0,.5-.2.7-.2s.5-.1.7-.1c.5,0,1,0,1.4,0,.2,0,.4,0,.4-.2,0-.2,0-.4-.2-.4h0Z"/>
      <path class="st16" d="M412.7,597.1c1.4-1.9,1.4-4.7,0-6.5-.4-.4-.9-.9-1.4-.9-.6,0-1.2.1-1.6.6-.9,1-.6,2.5,0,3.6.6,1.2,1.6,2.2,2.8,2.8.4.2.8-.4.4-.6-.9-.5-1.7-1.2-2.2-2.1-.5-.8-1.2-2-.7-3,.2-.4.5-.7,1-.7.5,0,.9.3,1.2.6.6.7.9,1.7,1,2.7,0,1.1-.3,2.2-.9,3.1-.1.2,0,.4.1.5.2.1.4,0,.5-.1Z"/>
      <path class="st16" d="M330.4,561.1c14.9,1.2,29.7,3.9,44.3,7.5,4,1,8.1,2.1,12.1,3.2l-.2-.4c-.8,3.4-1.6,6.8-2.4,10.2l-3.8,16.2c-.3,1.2-.6,2.5-.9,3.7-.1.4.6.6.7.2.8-3.4,1.6-6.8,2.4-10.2l3.8-16.2c.3-1.2.6-2.5.9-3.7,0-.2,0-.4-.2-.4-7.2-2-14.5-3.9-21.8-5.4-7.3-1.6-14.8-2.9-22.3-3.9-4.1-.6-8.3-1-12.5-1.4-.5,0-.5.7,0,.7Z"/>
      <path class="st23" d="M435.5,437.9c4.4-1.9,7.5-6.2,7.5-11.2.1-6.9-5.4-12.5-12.2-12.6-.1,0-.2,0-.4,0,.1,0,.2,0,.3,0l-4-20.4c-.4-2.1-2.5-3.5-4.6-3.1l-17.1,3.4s0,0,0,.1c-2.2-3.3-6.3-5.4-10.6-5.4-6,0-11.1,4.1-12.3,9.8l-16.8,3.3c-3.3.7-5.5,3.9-4.9,7.3l10.8,54.6c.7,3.4,3.9,5.5,7.3,4.9l56.5-11.2c2.3-.4,3.7-2.6,3.3-4.9l-2.9-14.6h0Z"/>
      <path class="st18" d="M366.6,402.2c-2.1,3-1.8,7,0,10.1.8,1.5,2,2.9,3.5,3.7,2,1.1,4.3,1.1,6.5,1,2.6-.2,5.3-.8,8-.6,2.2.2,4.3,1.1,6.1,2.4,3.9,2.8,6.6,7.4,7.5,12.1.9,4.7-.3,10.5-4.7,13.3-3.9,2.5-9.6,1.9-11.8-2.5-.9-1.9-1.1-4.2,0-6.1,1-1.7,3-2.8,5-2.8,5-.1,6.5,6.3,6.8,10.2.6,9.3-4.3,19.3-12.9,23.4-1,.5-2.1.9-3.1,1.2-.4.1-.2.8.2.7,4.4-1.3,8.2-4,11-7.6,3.1-4.1,5.1-8.9,5.5-14,.2-2.6,0-5.2-.6-7.8-.5-2.1-1.5-4.3-3.4-5.7-3.4-2.5-8.5-.4-9.7,3.5-1.3,4.4,2,8.9,6.3,9.7,4.9.9,9.4-2.3,11.3-6.7,2.1-5,.9-10.7-1.7-15.3-2.3-3.9-5.9-7.4-10.5-8.4-2.7-.6-5.5,0-8.2.2-2.5.3-5.2.5-7.5-.8-3.3-1.9-5.1-6.4-4.3-10.1.2-.9.6-1.8,1.2-2.6.3-.4-.4-.7-.6-.4Z"/>
      <path class="st18" d="M410.3,461.1c-.2-3.8-.4-7.6.4-11.3s2.5-7.1,5.4-9.6c2.9-2.5,6.4-4.1,9.7-5.8,3.4-1.7,6.9-3.4,9.5-6.2,2.5-2.8,4.3-6.5,4.3-10.3,0-.5-.7-.5-.7,0,0,3.5-1.6,7-3.9,9.6-2.5,2.9-6.3,4.7-9.7,6.4-3.4,1.7-6.7,3.3-9.5,5.7-2.8,2.4-4.6,5.4-5.5,9-1,4.1-.8,8.4-.6,12.5,0,.5.7.5.7,0h0Z"/>
      <path class="st18" d="M381.3,399.5c2.7,4.1,6.2,7.9,11,9.4,2.3.7,4.9.8,7.2,0,2.3-.8,4.8-2.4,7.4-2.2,4.9.3,3.8,6.7,7,9.2,1.7,1.3,4.1,1.3,6,.7,2.1-.7,3.9-2.2,5.3-3.9.7-.9,1.3-1.8,1.7-2.8.4-1,.6-2,.8-3,.2-1.3.4-2.7.5-4,0-.5-.7-.5-.7,0,0,1-.2,2.1-.4,3.1-.3,1.7-.6,3.5-1.5,4.9-1.2,1.9-2.8,3.7-4.9,4.7-2,.9-4.6,1.2-6.4-.2-1.5-1.2-1.9-3.3-2.5-5-.6-1.7-1.5-3.3-3.3-4-2.2-.8-4.5,0-6.5.9-1.2.5-2.4,1.1-3.7,1.4-1.2.3-2.4.3-3.6.2-5.7-.6-9.9-5-12.8-9.5-.3-.4-.9,0-.6.4h0Z"/>
      <path class="st17" d="M416.8,464.2c2-1.8,3.4-4.3,3.7-7,.1-.9.2-1.9.6-2.7.5-.8,1.5-1.4,2.3-.9.5.3.8,1,.9,1.6,1.1,4.6-.2,9.7-3.3,13.2-3.1,3.6-7.9,5.5-12.6,5.1-.6,3.1-3.3,14.6-3.2,14.1-5-1.3-16.6-3.9-16.6-3.9.7-3.1,3.2-9.8,4.4-12.7,1.3-2.9,3.1-5.6,5.7-7.3.9-.6,1.9-1.1,2.3-2,.4-.7.4-1.6.5-2.4,0-1.2.3-2.4.6-3.5.3-1.3,1.1-2.8,2.4-3,1.1-.2,2.2.7,2.7,1.7.5,1,.5,2.2.5,3.3,0-1.2.1-2.4.5-3.5.4-1.1,1.3-2.1,2.4-2.4,1.1-.3,2.5.3,2.9,1.4,0-1.3.8-2.8,2.1-2.8.9,0,1.6.6,2,1.4.4.8.4,1.7.4,2.6,0,3.1-.2,6.2-.8,9.3,0-.2-.2-.3-.3-.5"/>
      <path class="st8" d="M407.4,455.6c.4,2.9-.5,5.9-2.3,8.2-.1.2-.1.4,0,.5.1.1.4.2.5,0,1.5-1.9,2.4-4.2,2.6-6.7,0-.7,0-1.4,0-2,0-.2-.2-.4-.4-.4s-.4.2-.4.4h0Z"/>
      <path class="st8" d="M413.4,453.3c.8,4,.1,8.2-1.9,11.8-.2.4.4.8.6.4,2.1-3.7,2.8-8.2,2-12.3,0-.4-.8-.3-.7.2h0Z"/>
      <path class="st21" d="M362.6,464.1s10.7,2.5,14.7,15.1l7.6,17.9,3.9-18.1,18.7,4.7s-4.5,20.9-7.2,28.9c-4.9,14.1-11.1,15.6-19.2,13.9-6.5-1.3-21.1-34.8-21.1-34.8l2.7-27.5Z"/>
      <path class="st21" d="M371.1,502.1l-2-34.6c-2.3-1.8-5-3.2-7.8-3.8l-1.4-.2c-1.2-.2-2.4-.2-3.7-.2l-10.2.3c-.2,6.5-9.2,4.6-18,3l-16.3,7.8,8.9,53.7h1.1c0-.1-.1,0-.1,0,12.6-.4,25.3-.7,37.9-1.1,1.9,0,3.8-.1,5.6-.8,1.8-.7,3.4-2,3.7-3.8.4-2-.8-3.9-2.4-5.4,1.4-4.4,3.4-10.3,4.7-14.6h0s0,0,0,0Z"/>
      <g class="st24">
        <path class="st18" d="M359.7,482.6c0,0,.2.2.2.4.2-.4.2,0,.1-.7,0-.4.3,0,.2.4l.3-.5h-.2c0-.7.4,0,.4-.6h-.4c0,.1,0,0,0,0,0,.2-.3.2-.3,0,0,0,0-.2,0-.3-.5,0,0,1-.4,1.3,0,0,0,0,.1,0h0Z"/>
        <path class="st18" d="M359.1,481.2v.7c0,0-.4-.1-.4-.1,0,.2-.2.5,0,.7,0,0,0-.1.1-.1,0,.5-.4.3-.2.8.2-.2.3,0,.3-.5.2,0,.4.1.5.3,0,0,0-.4,0-.5,0,0,0,0,0,0v-.8c-.2.2-.2.1-.3.1l.2-1c-.2-.7-.5-.2-.7-.5.3.7,0,.4.3.9h0Z"/>
        <path class="st18" d="M334.9,490.9c0,0,0,.2,0,.3h.8c0-.3-.3-.6-.2-.7-.1-.2-.3,0-.3.3v-.3c-.1.4-.4-.4-.3-.6h0l-.3,1.7c.2,0,0-.6.3-.6h0Z"/>
        <path class="st18" d="M318.1,492.5c0,0,0-.2,0-.2,0,0,0,.1,0,.2Z"/>
        <path class="st18" d="M334.5,491.9v.5c0-.1,0-.3,0-.5Z"/>
        <path class="st18" d="M334.6,484.2s0,0,0,0v.3c0,0,0-.1,0-.2h0Z"/>
        <path class="st18" d="M331.1,494.3s0,0,0,0c0,0,0,0,0,0Z"/>
        <path class="st18" d="M336.4,481l-.3.5c0-.2-.2-.1-.1-.4,0,0-.1.2,0,.3h0c0,.7,0,.9-.2,1.4.3.4.3,0,.3-.3,0,0,0,0,0-.1l.2-1v-.4h0Z"/>
        <path class="st18" d="M322.6,487.8v.2c0-.1,0-.2,0-.2Z"/>
        <path class="st18" d="M334.5,491.4c0,.1,0,.3,0,.4v-.4c0,0,0,0,0,0Z"/>
        <path class="st18" d="M334.6,490h.3c0-.1,0-.5,0-.5,0,.1-.2.3-.4.5h0Z"/>
        <path class="st18" d="M331.7,494.6c-.6.2,0-.8-.3-.9-.2.1-.2.5-.3.6.5-.4.1,1.2.6.9,0,.7-.3.8-.5.6-.3-.6.1-.5,0-1.1-.2.1-.1.2-.2.6-.3-.1-.5.9-.9,0-.2.2-.2.5-.2.8,0,.7.4.3.6.8,0,0,0-.2,0-.3h.2c-.2,0,0-.6,0-.6,0,0,.2,0,.2.1v.2c0,.2.2-.5.4-.2,0,.2,0,.2,0,.3.1-.5.3-.5.5-.9v.7c0-.8.5-.6.9-.3,0-.1-.1-.2-.1-.3.2-.2.4.3.3.6,0-.6.8.4.9-.4l.6-3.6c0,0,0,.2-.1.2-.2-.6-.2-.5-.1-1.1-.1.3,0,.8-.3.9,0-.3,0-1-.3-1-.5.7-.7,2.4-1.2,3.4,0-.5-.5-.3-.8-.3,0-.5.2-.7.3-.8-.1,0-.3,0-.4,0v1c0,0,0,0,0,0Z"/>
        <path class="st18" d="M332.9,492.8s0,0,0,0c0,0,0,0,0,0Z"/>
        <path class="st18" d="M332.1,493.6h0s0,0,0,0h0,0Z"/>
        <path class="st18" d="M334.2,490.4c0-.1,0-.2,0-.3,0,0,0,0,0,.1,0,0,0,.1,0,.2h0Z"/>
        <path class="st18" d="M334.5,491.2v.2s0,0,0,0c0-.1,0-.2,0-.2Z"/>
        <path class="st18" d="M328.6,490.8h0c0,.1,0,0,0,0Z"/>
        <path class="st18" d="M330.8,493.9c.2,0,0-.7.2-.7h0c.2-.4.6-.3.9-.3,0,.3.2.3.2.7.2-.1.3-.2.4-.7.1.1.2-.3.4-.1,0-.2,0-.9-.2-.5,0,0,0,0,0-.1-.3-.3-.3.3-.5.3-.2-.2.1-.4,0-.5-.2.3-.8-.2-.6.7-.2,0-.2-.1-.3-.3-.1,1.1-1.1-.3-.9,1,0,0,.3,0,.4-.4v.9c.1,0,.1,0,.1,0Z"/>
        <path class="st18" d="M337.2,493.9v.9c-.5.3-.7,0-1.1.2,0-.1,0-.2,0-.2-.3.1-.8,0-1,.5-.1,0-.4-.2-.3-.5,0,0,0,.2-.1.1,0-.3.1-.1,0-.4,0,0,0,0,0,0,0-.3-.2-1,.1-1.1.2.7-.2.1,0,.9.1,0,0-.3,0-.4.2,0,.2.2.2.4,0-.3.3,0,.3-.3.3-.1,0,.6.3.6v-.8h.3c.4-.2-.3-1.3.2-1.8,0,.4.3,1.1.6,1.2-.1,0-.3.6-.6.4.4.6-.3.1-.1.8,0-.4.3-.4.5-.3h0c.2.1.2-.7.5-.4.1,0,.1.2.1.4,0-.1.2-.3.2-.1h0ZM336.9,494.1h-.2c0,0,.1,0,.2,0Z"/>
        <path class="st18" d="M356.7,481.7s0,0,0,0c0,0,0,0,0,0Z"/>
        <path class="st18" d="M343.7,480.6v-.2c0,0,0,.1,0,.2Z"/>
        <path class="st18" d="M355.6,481.8s0,0,0,0h0Z"/>
        <path class="st18" d="M348.3,481.8c0,0,0,.1.1.2,0,0,0-.1-.1-.2Z"/>
        <path class="st18" d="M343.7,480.6h0s0,0,0,0h0Z"/>
        <path class="st18" d="M340.6,481.3s0,0,0,0c0,0,0,0,0,0Z"/>
        <path class="st18" d="M341.1,483.6s0,0,0,0h0Z"/>
        <path class="st18" d="M337.5,482.5h-.1c0,.1,0,0,.1,0Z"/>
        <path class="st18" d="M340.7,483.1h0c0,0,0,0,0,0Z"/>
        <path class="st18" d="M357.9,483.9h0,0c0,0,0,0,0,0Z"/>
        <path class="st18" d="M358.1,482.7s0,0,.1,0c0,0,0,0-.1,0Z"/>
        <path class="st18" d="M350.4,482.8c0,.1.2.2.1.4,0-.2,0-.6-.1-.4Z"/>
        <path class="st18" d="M358,489c0-.1,0-.2,0-.3,0,.1,0,.2,0,.3Z"/>
        <path class="st18" d="M358,488.7c0,0,0-.1,0-.2,0,0,0,.1,0,.2Z"/>
        <path class="st18" d="M350.5,489.6c0,0,0,0,0-.1,0,.1,0,.1,0,.1Z"/>
        <path class="st18" d="M358.3,482.8c0-.2.4-.7,0-.7,0-.6.2-.3.3-.5-.1-.1,0-.4,0-.6,0,0,0,.3-.2.2,0-.3,0-.5.2-.4-.2-.3.1-.5-.1-.7-.4.3-.6.5-.8,1.4.2-.2.4-.4.7-.2v.5c-.3-.4-.4,0-.6,0l.5.2c.3.4.2.5,0,.6,0,0,0,0,.1.1h0Z"/>
        <path class="st18" d="M358.6,487.3h0s0,0,0,0h0Z"/>
        <path class="st18" d="M339,492.9v.2c0,0,0-.2,0-.2Z"/>
        <path class="st18" d="M338.7,481.7s0,0,0,0c0,0,0,0,0,0Z"/>
        <path class="st18" d="M344.7,490.1s0,0,0-.2c0,0,0,.1,0,.2Z"/>
        <path class="st18" d="M343.6,489.5s0,0,0,0h0Z"/>
        <path class="st18" d="M349.8,480.6s0,0-.1,0c0,0,0,0,.1,0Z"/>
        <path class="st18" d="M345.8,487.3s0,0,0,0c0,0,0,0,0,0h0c0,0,0,0,0,0Z"/>
        <path class="st18" d="M346.3,487.6c0,0,0,.1,0,.2.2-.2.5,0,.5-.6,0,0-.4-.2-.4-.6-.1.2-.4-.2-.4-.1.2.3,0,.5,0,.7-.2-.1,0-.4-.2-.5h-.3c0,.1.3.1.3.1v.5s0,0,0,0c.4-.3.2.8.5.4Z"/>
        <path class="st18" d="M346.3,487.8s0,0,0,.1c0,0,0,0,0-.1Z"/>
        <path class="st18" d="M348.2,488.4s0,0,0,0c0,0,0,0,0,0Z"/>
        <path class="st18" d="M335.2,489.5c0,.2.3.4.3,0,0,0-.2,0-.2,0h0Z"/>
        <path class="st18" d="M352.6,485.4h0c0,.1,0,0,0,0h0Z"/>
        <path class="st18" d="M346.4,486.4c0,0,0,.1,0,.2,0,0,0,0,0-.2Z"/>
        <path class="st18" d="M352.8,486.3c0,.1.1.3.2.4,0,0,0-.2.2-.3,0,0-.2,0-.3-.1h0Z"/>
        <path class="st18" d="M335,489.4s0,0,0,0h0c0-.1-.1-.2-.2-.2,0,0,0,0,0,0,0,0,0,0,0-.1,0,0,0,0,0,0,0,.4-.4.8-.4,1-.1.2-.2.3-.4.3,0,0,.2-.1.1-.3-.2-.2-.4-.9-.7-.2h.2s-.3.9-.3.9c-.2-.4.2-.5.2-.8-.3.5-.7-.6-.8.2,0-.5-.2-1.2-.4-1.1.2.5,0,.4.1.9,0,.3-.3-.1-.2.2v-.2c-.5-.7-.4.5-.5.9-.4.3-.7,0-1,.1,0-.3-.3-1.1-.4-1.1,0,.4-.3.7-.3,1.2.3.2.2-.5.3-.6.2.5,0,.5.3.9-.2-.2-.6.4-.8-.1h0c-.3-.4-.5-1.7-.8-.8l-.2.4v-.2c-.3,0-.3-.6-.6,0,0,0,0,0,0-.1-.2-.3-.4.4-.5.5-.2-.4,0-.4,0-.8-.4-.1-.7.7-.8,1.3l-.3-.2c.1-.2.2-.7.1-1-.1.1,0,.3-.3.3,0-.3,0-.6,0-.9-.4-.4,0,1-.3.2-.1,0-.1.4,0,.8l-.3-.4c0,.4-.2.5-.4.6,0,.2.2.4.2.3,0,.3-.1.5-.2.5-.2-.9-.8.2-.8-.9-.5.4-1.2.6-1.5,1-.2-.2-.4-.2-.3-.7-.4,0-.5,1-1,.8,0-.1.2,0,.1-.3-.2.4-.6-.3-1,0,0,0,0-.2,0-.3,0,.2-.1.3-.2.5,0,0,0-.1,0-.2-.9-.3-1.4,1-2.2,1.1.2,0,.2-.6.2-.9h-.2c0,.3-.2.4-.3.6,0-.1-.1-.2,0-.4-.5-.6-.6,1.2-1.2,1l.5-1.3-.2-.4.2-.6c-.2-.3-.3.5-.4,0,0-.1.1-.1,0-.4-.2-.2-.2.2-.3.3.2-1,.9-1.1,1.2-1.3,0,0,0,.2,0,.3.1,0,.3.2.4,0,0-.4-.1-.3-.2-.3,0-.3,0-.3.1-.4,0,.5.6,0,.8.6.5-.2-.3-1.2.3-1.1l.2.5c.2-.4.6-.9,1-.8h0c0,.3,0,.4.1.5.3.2.4-.5.7,0,.2-.6.7-1.1,1-1.4.2.7-.4.7-.4,1.1h.3c-.2,0-.2.3-.3.7.3,0,.3-.5.5-.7,0,.2,0,.3.2.3v-.5s0,0,0,0l.4-.4c-.1-.2-.2-.6-.3-.6,0,.3,0,.3-.1.3,0-.3-.2-.2-.2-.5.2,0,.5-.1.7-.3v.4c.4,0,.6-.2.7,0v.2c.3,0,.5-.2.8.2.2-.5.4-1,.5-1.5,0-.6.8.6,1-.2,0,0-.1.4-.2.7.2,0,.2-.6.4,0-.4-.1,0,.5,0,.6.2,0,.4-.2.4-.4-.3,0,0-.8-.3-.5.2-.5.5-.8.8-.6,0,.2,0,.4.2.4v-.4c.2,0-.2.5.1.6.2-.7.9.2.9-.9.3.4-.3.5,0,1-.1.4-.5,0-.4.6.2-.2.1.5.3.5l.2-.4h0c.3-.6.8-.4,1.3-.6.3-.6.4-1.5.9-1.5,0,.4.4.3.2.9.2.3.4-.1.4-.4-.2,0,0,0-.2-.2,0-.3.3-.3.4-.2,0,0,0,0,0,.1.2.2,0-.3.2-.5.1.4.4,0,.5.3v-.6c0,.4.3.1.4.5.1-.3.2-.8.4-.7,0,.2.2.3.3.7.4.3.5-1.2.9-.7,0,0,0,.4,0,.5,0-.1.2,0,.3-.2s0,0,0-.2c0-.4.1-.8.4-1.2,0-.5-.3-.2-.4,0v.5c-.2-.7-.3.2-.4,0,0-.8.6-.7.9-1.3-.3-.6-.7-.6-1.1-.5l.2.2h-.2s.3.5.3.5c-.2,0-.3,0-.5,0,.2,0,.4.6.2.5-.3-.4-.2.3-.3.3,0,0,.2,0,.2.3-.4-.5-.4-.1-.8-.7.1.8-.3.1-.3.8h.1s-.2.5-.2.5c-.4-.6.1-.7-.3-1.1-.4,0-.3.8-.5.9,0-.5.2-.9.4-.9l-.2-.2c0-.3.4-.3.5-.3-.2.6.2.1.3.5,0-.4-.2-.4,0-.7-.2,0-.2,0-.5,0,.6.1.3-1.6.8-1.3-.2.2.2.6.2.8,0,0,.3-.2.3-.3l-.2-.6c.2-.3.5,1,.7.3,0-.4-.3,0-.2-.2.4-.5.7.5,1.1,1,0-.2,0-.6,0-.9,0,.4.1.6,0,.9.2.1.3-.2.3-.3-.3-.2,0-.6,0-.8.1,0,0,.4,0,.5.1,0,.3.6.3,0,0,.4-.2,1.1-.3,1.2h.1c0,.3,0,.2-.2.2.2.3.2.6.2.9,0,0,0,0,0-.2-.1,0-.2,0-.1.2,0,.6.2.3.3.6,0,0,.1,0,.2-.1l.3-1.8c.2-.2.4.2.6.4v-.5c.2,0,.4.1.4.7,0-.2,0-.1-.1-.1v.2h0c.2,0,.3-.2.3-.2-.3.7.1.8.2,1.7l.4-.3c-.3-.2,0-.4,0-.5,0,.5.3,0,.5,0h0c.2.2.4.2.5,0,0-.2,0-.9,0-1.4-.3-.1-.2-.3-.2-.6,0,0,0,0,0,0,0-.1,0-.2-.1-.3-.3.3-.5.4-.6,1,.1.3.1-.3.2-.1,0,.5-.3.4-.5.4v-.4c-.1,0-.3.2-.3.2,0-.2,0-.6.2-.7,0-.4-.2.1-.4,0v.5c0-.3-.4-.3-.2-.7l.3-.5-.2-.3h.3c0-.1,0,.1,0,.1.5-.4.3,1,.7.3,0-.6.2-.7.6-.6-.2.2,0,.4,0,.8.3.2.3-.3.4-.6.1.3.2.6,0,.6,0,.7.3-.2.4.5.7-.1.2-2.4,1.2-1.6v.3c.5-.4.8-.1,1.3-.4l.5.7c0,.1-.2.7,0,1-.3-.7-.4-.4-.7-.8,0,.2.1.3.2.4-.1,0-.2-.3-.4-.2,0,.2.2.3.1.4l-.3-.4c-.3.3,0,1.1-.3.9,0-.4,0-1,.2-1.1-.2,0,.2-.3,0-.5-.1.6-.3.2-.5.6,0,0,0-.2,0-.3l-.5-.2c.2.3-.3.4-.2.9.5.2.3-.1.9,0-.1.1-.2.7-.3,1.2,0,0,0,0,0,0,0,.5,0,.6.2,1.5.1-.7.4-.2.6-.6,0-.5-.3-.6-.4-.5l.2-.4v.2s.6,0,.6,0c-.1,0-.1.3-.1.6,0,0,.2.1.3.3,0-.5-.1-.8,0-.8.4,0,.7.4.9,1,0,0,0,0,0,0-.1-.5.2-.9.2-1.4,0,.5.2.3.4.5,0-.6-.2-1.3-.4-1.8-.2.6,0,.5,0,1.3l-.4.6v-.5c-.2-.2-.3.5-.4-.1,0-.4.3-.2.3-.6l-.2-.2c.2-.6.2.5.5,0-.2-.5,0,0,.1-.4-.2-.3-.5.2-.5-.6.1-.4.7.9.8,0h0c.3.2.4-.3.4-.7.2.3.3-.2.4-.2v.2s.2-.1.2-.1c0,.5-.2,0-.4.1v.5c-.2-.5-.2.3-.3.7.2-.4.7,0,.6-.9l.2.4v-.2c.2.3.2.9,0,1,0-.1,0-.2,0-.3,0,.2,0,.6-.3.5v-.3c-.2,0-.4.2-.5.7.4.1.8.1,1.2,0,0-1.1,0-1.7,0-2.6.2-.2.6-.4.8,0v.2c.1,0,.2,0,.3-.1.2.2,0,.5,0,.6l.3-.4c0,.4-.3.5-.4.5,0,0,0-.1,0-.2-.2-.2-.4.6-.6,0,0,.1.1-.5-.2-.5-.2-.2-.2.4-.2.6,0,.2.3.3.3.6.1,0,.2-.4.4-.2-.1,0-.3.6-.4.2-.2.5,0,1.7.1,1.7,0-.4.5-.5,0-.9.1-.5.4-.5.6-.9h0c0,0,.3,0,.3,0,0,.1,0,.3,0,.5l.3-.7c-.2.5.2.3.3.5,0-.4,0-.7,0-.9-.2-.3,0,.2-.2.3v-.6c.1,0,.2,0,.2,0v-.5c.3,0,0,1.2.4.6v-.7c.3,0,.9.7,1.2.4,0,.4,0,1,.2,1.4-.1,0-.4,0-.6,0,0-.1.1-.8.3-.7-.3-1.1-.4.7-.6-.4-.6-.3-.2,1.1-.7.5,0,.5,0,.3,0,.7.2.8.6-.1.9.1,0,0,0,.1,0,.2.2.1.3,0,.4-.2h0c.2-.6.2.3.4.5,0,0,.3,0,.2-.3l.3.4v-.5c0,0,.1.3.2,0v-.5c0,0-.5-.1-.5-.1.2-.2,0-.5.2-.6-.2.6.2.2.3.7v-.3c.1,0,0,.1,0,.1.2.2.1-.2.3-.2-.2-.3-.4-.6-.5-.2.1-.3.4-.7.4-.7.1-.2.3.1.4.2-.3.2.3,1.5-.3,1.2,0,0,0,0,0,0-.2-.6-.3,0-.4.4,0,.4,0,.5.2.6-.1-.2,0-.8.3-.6v.8c0,0,.4,0,.4,0h0c.2.5.3-.1.6.2.1-.3.7-.2.3-.9.3.5.3-.2.5-.3l-.3-.3c.2-.6.2-.2.3-1.1,0,.2.1.4.1.6.4,0,1,.1,1.2-.6.3,0,.5.9.8.5,0-.1-.2-.7.1-.5,0,0-.2.6.1.5.1-.6.5.3.7-.3.2.2.4,0,.4.6-.2,0-.5,0-.6.3,0-.3-.2-.3,0-.5-.4-.3-.2.3-.5.1,0,.2.2.5.3.3,0,.6-.6.4-.2,1.1.3,0,.2-1.4.6-.7,0,.4-.3.1-.3.8l.3.2v-.5c.1,0,.1,0,.1,0,.5.5.3-.7.6-1.1-.3-.4-.1-1.1-.3-1.4.2-.1.4,0,.5.6-.4.6,0,.7-.3,1.4.1.2,0,1,.3,1,.2-.5-.2-.5,0-.8,0,0,0,.1,0,.2,0-.4.2,0,.3-.3h0c.3.5.2-.3.4,0-.1-.5,0-.4.1-.7-.2-.2-.4-.8-.7-.7,0,.4,0,.6,0,.8h.2s0,0,0,.2l-.2-.2c.2-.3,0-.7.1-1.1.3.1.2-.1.4,0,0,.6.6.9.9,1.2,0,0-.1,0-.1,0-.2.4.2.4.2.6v-.3c.1,0,0,.2.1.2.2-.1,0-.7.3-.8,0,.3,0,.8.1.9,0,.3.3,1,.5.6,0-.1,0-.2.1-.3,0,0,0,0,0,0l.2.3c0,.6-.3-.2-.4.3v.5c0,0-.2.3-.2.5.2,0,.2,0,.4-.2,0,.3,0,.6,0,.6v-.3c-.3-.4-.3.5-.6.5,0,0,0,0,0-.2-.2.5-.5-.1-.7.6v-.3c0,.2-.3.8-.6,1.3v.2c0,.1,0,.1-.1,0-.1.3-.2.5-.3.7,0,.1.1.2.2.2,0-.2.3,0,.2-.6.2.3.3-.2.5,0-.2-.3,0-.5,0-.8.1.3.3,0,.3.4,0,.1-.1-.3-.2,0-.1.4.4.3.2.7.3-.4.7-.3.9-.7l-.2-.2c.1,0,.5,0,.5.1,0,0-.2,0-.3.2,0,.5.3,0,.4.3l.3-.9h-.2c0-.3.5,0,.7,0,0,.7-.4,0-.6.4-.2.3.2.6,0,.8,0,.2.2.1.2,0h0c0,.7-.5.7-.6,1.2,0,0,0-.1,0-.2-.2-.2-.4-.2-.6,0,.1.2.1,0,.2,0,0,.2-.1.2-.2.4.2.2,0,.4.2.4,0,.2-.2.1-.3,0-.1-.2,0-.3,0-.6-.1.2-.3-.5-.4-.1.3,0,0,.7,0,.9h0c0,.4-.1.4-.2,0,0-.2.2,0,.1-.4,0,0-.1,0-.2.2v-.3s-.3.1-.3.1c0,.3,0,.8,0,1.3-.1-.3-.2,0-.3.1h0c-.2-.4-.5-.1-.5.2-.2-.2.5-1.9-.2-1.5-.3,0,0,.9-.2,1.3,0,0,0,0,0-.2-.1,0-.1.3-.2.5.1.1.2.1.2,0,0,.4-.3,0-.3.3,0-.6-.3-.2-.2-.5-.3-.3-.5.2-.6.6-.3-.7-.3.1-.7-.2,0,0,.1-.1.2,0,.1-.5-.3-.2-.1-.7,0,0,0,.2,0,.2,0,0,.2-.3.1-.5l-.3-.4h0c0-.1-.4-.6-.4-.6,0,0,0,.2,0,.3-.5-.2-.9.2-1.3.2.1,1.3-.8.7-1,1.5,0-.4,0-1.1-.1-1.3,0,0,.1-.6.3-.5,0,.2.3.4.2.7.4-.2-.1-.6,0-1.1-.4.2-.6,1-.9,1.4v-.2s-.2.3-.2.3c.2,0,.3.8,0,.6h0c-.2-.3-.4,0-.6,0v.4c-.3,0-.4-.8-.5-1.3-.3,0-.4.7-.6,1.1-.2-.3-.7-.3-.5-.8-.2.4,0,2.2-.6,1.3v-.4c-.4.1-1,.9-1.3.6,0-1.2-.8-1.1-1-2.3,0,.3-.1.4-.1.5,0-.1-.1-.3-.2,0,.2.2,0,1.3.3.7,0,.8-.2,1.5-.6,1.5v-.5c0,0,.3.1.3.1,0-.4,0-.4.1-.5-.6-.2,0-1.2-.7-1,0,.3,0,.2-.1.3,0,0,0-.4,0-.4v.4c-.4-.8.2-.6,0-1.1.2-.4.5-.7.4-1.3-.4-.2-.2,1.2-.6,1v-.3c-.2.2-.2.6-.2.9,0-.2,0-.3-.2-.3-.1.7-.3.8-.4,1.5.5-.6.6.4,1.1-.1,0,.2-.5.4-.4,1.1v-.5c-.2.3-.4.6-.6.4v-.3c-.2.4-.5-.7-.7.2,0,0,.2,0,.2,0-.1.2-.3.2-.5.2l-.3.9c0-.2-.3-.2-.2-.6-.3-.3-.3.4-.5.6-.3-.5.2-.3.1-1-.4-.2-.8,0-.9.6,0,0,.1.2.2.3,0-.2-.2,0-.3,0v.3c-.2-.2-.2-.4-.1-.6-.1,0-.2.6-.4.2.2-.4.5-.1.6-.4-.4.4-.6-.9-1.2-.4,0-.2,0-.5,0-.5-.3.2,0,.7,0,1,.2-.2.3,0,.5.3v.3c0-.1-.2-.1-.2-.2v.5c0-.6-.3-1-.4-.8.2.4.2.4.3,1.1-.1.7-.4-.6-.5.1,0-.2.2-.4,0-.5-.2,0,0,.5-.2.6,0-.5,0-.9,0-1.5.3-.1.1,0,.4-.3l-.3-.4c.2-.1,0-.6,0-.8-.5-.4-.2.8-.5.7,0,.4.3,0,.1.4-.3,0,0,.3-.3.6v-.2c-.1-.3-.1,0-.2.2,0,.2.4,1.7,0,1.8,0-.1,0-.2,0-.3l-.2-4.2c-.5,0-1,0-1.6-.2-.2-.8.3-.7.2-1.1h.3c0,.5-.5.3-.2.9.4-.3.6,0,1-.7-.2-.8-.5.2-.9-.4.1,0,.2,0,.3-.2-.3,0-.5-.1-.9-.2v.2c.2,0,.3.1.3.1-.3,0-.4.4-.3,1h0s0,.2,0,.2c0,0-.1,0-.2,0h0ZM318.5,491.6c0,0,0-.1,0-.2,0,0,0,.1,0,.2ZM339.7,486.7c-.4,0-.7-.2-1.1-.2.8,1.1,1.3,1.9.3,2h0c.2.2.4.2.6,0,.1-.4.4-2,.4-2.2-.1-.3-.1,0-.3,0v.3c0,0,0,0,0,0ZM340.2,488.6c.2.1.1-.2.1-.4,0,0-.1,0-.2.1,0,0,0,.1,0,.3h0ZM340.3,488s0,0,0,0h0ZM336.5,488.2s0,0,0,0c0,0,0,0-.1,0,0,0,0,0,.1,0h0ZM337,488.8v-.4s-.1,0-.2,0c0,.2,0,.4.2.5ZM338.5,490c0-.5.3-.6.2-1.2,0-.2,0-.2-.1-.2,0,0-.2,0-.2,0,0,0,0,.2,0,.2,0,0,.2.2.2.6-.3-.8,0,.6-.3.4,0,.4.3.4.3.2h0ZM354.9,486s0,.2.1.3v.3c-.4,0-.7-.9-.9-.1-.1-.2-.3-.6-.4-.9,0,0,.1,0,.2,0,.5-1.2.5,1.1,1,.3h0ZM351.6,485.4h0c-.5,1-.9,1.4-1.2,1.4.1.4.5.7.6.9v.5c0,0-.2-.4-.2-.4l-.2.5c.1.3.3.2.4.5,0,0,.3-.7.3-1l-.3-.3c.1.1.5,0,.6-.2,0-.2-.4-.6-.3,0,0-.4.2-.4,0-.8.2-.4.6-.2.8,0v.6c.3.2.1-.8.4-.4-.3.2.1.7,0,.7.1.2,0,.6.3.6,0-.8.3.5.4-.3.2.2,0,.5.2.6.2-.5.1-.8,0-1.4-.3-.1-.2.8-.4.7l.2-1.1c0-.1-.2-.1-.2,0,0,0,.1-.2.1-.4,0-.1,0-.2,0-.3-.2,0-.4,0-.5-.2v-.3c-.1-.2-.2,0-.3.2-.2,0-.3.5-.4.1v-.3c-.2.1-.2.2-.5.2h0ZM343.4,486c.3,1,.6,1.9,1.3,1.6h0c.4.7.6-.9,1.1-.2-.2.4-.1.4-.2,1.3l.2-.3c0,.6.2.3.4.3v.7c-.2-.2-.4-.2-.4,0,0,0-.5-.8-.6-.6,0,.5.5.2.4,1,.1-.3.2.1.4,0-.1.3,0,.6,0,1l.3-.2c0,.2-.4.4,0,.9,0-.3.5,0,.4-.5v.2c.3,0,0-.7.3-.5,0-.2-.1-.4-.2-.4,0,.1,0,.5-.2.6-.1-.4.2,0,0-.6-.1-.3-.4.4-.4-.4h.2c0-.4.1-.4,0-.8.1-.2.3.3.4-.1,0-.3-.2-.9,0-.7.3.7.8.5,1,.4v-.3c0-.3-.2,0-.1-.3l.3-.2v.2c.1,0,.2-.2.2-.3,0,.4-.3.3-.1.8.1,0,.2.3.3.2,0,0,0,0,0,.2.3.2.2-.6.2-.8.2-.7-.4-.6-.4-1.1l.7-.4c0,.2,0,.4,0,.6.2.2,0,.4.3.3-.1-.7.3-.5.4-.9.1.3.2.3,0,.4,0,.5.3.2.4.3,0-.1.1-.2.2-.3-.1-.2-.1-.5,0-.7h0c-.3-.2-.8-.6-.9-.1v-.2c-.3-.4-.5.9-.8,0,0-.3,0,0-.1-.6l-.2.4v-.2s-.4.2-.4.2h0c-.1.4-.2.8-.3,1.1,0,.2,0,.3,0,.4,0,.1,0,.1-.1.1-.1,0-.2-.4-.4-.5h.4c0-.5-.1-.9-.3-1.1,0,0,0-.3,0-.3,0,0-.2.3,0,.5-.3.2-1-.7-1.5,0,.3-.5-.4-.4,0-.7-.4-.5-.2.6-.5.6,0-.2.2,0,.2-.4-.5-.2-.7,1.1-1.2,1v-.5c-.2,0-.3.2-.4.2h0ZM342.5,486.7c0,0-.2.1-.3.2,0,0,0,0,0,0l-.2.4c.2.2.4.6.2.9,0-.2-.1-.4,0-.5-.2-.3-.6-.5-.4.2.2-.7.2.9.4.4,0,.5-.2.3-.3.5,0-.4-.2-.9-.4-1,0,.1-.3,0-.4.3.1.4,0,.7.3.7,0,.1-.2.2-.4,0,0,0,.1-.2.1-.3-.2-.4-.3-.3-.3-.5,0,0,0,0-.1,0,0,0,0,0,0,.1v.4c0-.2,0,.2,0,.4,0-.5-.1,0-.2,0l.2.5c0,.3-.3-.3-.2.2.4.2.5,0,.8-.2l-.2-.4c.3-.3.3.7.7.6.1-.4.6-.1.5-.9,0,.2.3.6.4.3,0-.7.5-.9.3-1.1-.1,0-.2.4-.4,0l.2-.2-.2-.4c0,.1,0-.2,0-.8h0ZM336.8,483.2h0,0Z"/>
        <path class="st18" d="M358.1,484c0-.2.2-.2.1-.5,0,.4-.3.1-.1.5Z"/>
        <path class="st18" d="M358.3,484.3c0,0,0-.2,0-.3h-.2c0,.1.2.3.2.3Z"/>
        <path class="st18" d="M358.9,487.1c0-.3.1-.5.3-.5.2,1-.2.3-.2,1.2.3,0,.3-.8.5-.9-.2-.4-.7-.6-.6.2h0Z"/>
        <path class="st18" d="M359,488.3v-.2c.1,0,.1,0,.1,0v.2c-.1,0-.1,0-.1,0Z"/>
        <path class="st18" d="M354.1,480.4c0-.3-.1,0-.2,0,0,0,.1,0,.2,0Z"/>
        <path class="st18" d="M321.3,484.8l-1.2.5c.4-.1.7-.2,1.2-.5Z"/>
        <path class="st18" d="M350.2,483c.3-.3.4-.9.7-1.1-.5-.5-.5,1-.9.5l.2.6Z"/>
        <path class="st18" d="M350,480.5c.1.6-.2.7,0,1.1.2-.2,0-.6.2-.5l-.2-.6h0Z"/>
        <path class="st18" d="M352.9,489.8v.3c0,0,0-.1,0-.1v-.2Z"/>
        <path class="st18" d="M348.5,481.2h0c0-.1-.2-.3-.2-.3l.2.3Z"/>
        <path class="st18" d="M352.9,491h.2c0,.1,0-.2,0-.2l-.2.2Z"/>
        <path class="st18" d="M351.1,488.1v-.2c.1,0-.1-.2,0,.2Z"/>
        <path class="st18" d="M347.4,481.1v.2c-.1,0-.1,0-.1,0v-.2c.1,0,.1,0,.1,0Z"/>
        <path class="st18" d="M350.3,489.9c.2.4-.3.2,0,.5.2,0,0-.3,0-.5Z"/>
        <path class="st18" d="M347.8,487.2s0,0,0,0c0,0,0,0,0,0Z"/>
        <path class="st18" d="M347.8,487.2c0,0,.2.2.2,0-.1-.2-.1-.1-.2,0Z"/>
        <path class="st18" d="M347,487.4h0c0,.2,0,.2,0,0,0,0,0-.2,0-.3,0,0,0-.1,0-.2,0,0,0,.1,0,.2-.1,0-.2,0-.1.2h0Z"/>
        <path class="st18" d="M342.8,480.4c.3.1.3.2.4.5.2,0,.1-.5.2-.7-.3.1-.3,0-.6.1Z"/>
        <path class="st18" d="M343.4,480.3s0,0,0,0c0,0,0,0,0,0Z"/>
        <path class="st18" d="M348.5,491v.6c0,0,0,0,0,0v-.5Z"/>
        <path class="st18" d="M342.4,480.3s.1,0,.2.1c0-.3-.2-.1-.2-.1Z"/>
        <path class="st18" d="M344.3,486.9c0,.2.2,0,.3.1,0,0-.3-.7-.3-.1Z"/>
        <path class="st18" d="M341.9,481.8s.2.2.2.5c0-.2,0-.8-.2-.5Z"/>
        <path class="st18" d="M343.9,486.9h0c0,.1.1-.1.1-.1h-.2Z"/>
        <path class="st18" d="M345.2,491.9c.1-.4-.4-.9-.2-1.3-.5-.4.1.6-.2.5.2.1.4.6.4.8Z"/>
        <path class="st18" d="M344.8,491.1s0,0,0,0c0,0,0,0,0,0Z"/>
        <path class="st18" d="M341.8,488.9s0,0,0-.2c0,0,0,0,0,.2Z"/>
        <path class="st18" d="M343.9,491.6l.2-.7c-.1.4-.6.5-.5,1.1.2.1.3,0,.4-.4h0c0,0,0,0,0,0Z"/>
        <path class="st18" d="M339.1,480.9v-.3c0,0,0,0,0,0,0,0,0,.6,0,.3h0Z"/>
        <path class="st18" d="M339,480.6h0s0,0,0,0Z"/>
        <path class="st18" d="M342.3,488.5c0,0,.2,0,.2-.1,0-.1-.3-.2-.2.1Z"/>
        <path class="st18" d="M338.4,481.9h.2c0-.1-.2,0-.2,0h0Z"/>
        <path class="st18" d="M337.3,481h0c0-.1-.1.1-.1.1h0c0,.1.1-.1.1-.1Z"/>
        <path class="st18" d="M340.2,492.9c.1,0,.2-.5.1-.6h-.3c.1.5,0,0,.2.1v.5c-.1,0-.1,0-.1,0Z"/>
        <path class="st18" d="M330.4,482.9c0-.3.3-.2.4.1,0,.1-.2.3,0,.5v-.8c.5.4,0,1.1,0,1.4.3,0,.3-.5.7-.5-.1,0-.2-.2-.3-.4,0-.6.2-.4.5-.4-.2-.2-.1-.4,0-.7,0,0,0,0,0,0,0,0,0,0,0,0h0c0,0,0-.1,0-.2-.2.2-.4-.3-.5-.2.2.9-.4.3-.5.6h-.2c0,.1,0,.1,0,.1,0,0,0-.2,0-.4,0,.2-.3.2-.3.5h-.6c0,.1,0,0,0,0,0,0,0,.1,0,.2l-2.7.5c.1,0,.3.2.4.3-.1.6.2,0,.3.7,0,.2-.2.2-.3,0,0,.3.2.5.2.9.4.3.2-1.1.6-.9,0,.3,0,.7.2.6h0c.3-.4.4.8.5-.2v.5c.2-.4.5-.4.6-.5h0c.4-.5.3,0,.8-.4l-.2.6c.2.2.2-.4.3-.4,0,0,0,.5,0,.6l.5-1c.1-.4,0-.4-.1-.6h0Z"/>
        <path class="st18" d="M331.4,483.5s0,0,.1,0h-.1Z"/>
        <path class="st18" d="M326.5,482.7h.2c0,0-.1,0-.2,0Z"/>
        <path class="st18" d="M332.2,482.3c-.2-.2,0-.4,0-.6h-.4c0,.3,0,.5,0,.6h.3Z"/>
        <path class="st18" d="M331.6,481.5c0,.1,0,.3,0,.4h.2c0-.2,0-.3-.2-.4Z"/>
        <path class="st18" d="M333.1,491.7h0s0,.2,0,.2l.2-.2Z"/>
        <path class="st18" d="M331.9,491c.1.3.3,0,.3,0-.2,0-.1,0-.3,0Z"/>
        <path class="st18" d="M332.6,494.1l-.2.2h0c0,0,.1-.2.1-.2Z"/>
        <path class="st18" d="M325.4,484.9s0,0,0,0c0,0,0,0,0,0Z"/>
        <path class="st18" d="M326.9,484.2c-.5-.5.2-.5,0-1.2l-.2.3v-.2h-.3c.1.4.2.4.2.8-.4,0-.2-.4-.5-.8h-.4c0,.1,0,0,0,0,0,0,0,0,0,.1l-1.4.4c-.2.3.2.6.1,1.1.3,0,.8.3.7-.4,0,0,0,.3,0,.4v-.6c0,0-.1-.2-.1-.2,0-.6.7-.6.9-.2-.3.2,0,.9-.5.6,0,.2.2.5,0,.6.5-.3,1,0,1.5-.7h0Z"/>
        <path class="st18" d="M321.7,485.4l.2-.7h-.4c0,.1,0,.6,0,.6,0-.1.1-.4.2-.2v.3h0Z"/>
        <path class="st18" d="M322.1,484.2c-.2.2,0,.8,0,1-.2.3-.2-.6-.2,0,0,.4.3.1.3,0v-1.1Z"/>
        <path class="st18" d="M323.7,484.3v.2s.1,0,.1,0v-.3Z"/>
        <path class="st18" d="M323.7,484.5h-.2c0,.1,0,.3.1.4v-.4s0,0,0,0Z"/>
        <path class="st18" d="M323.1,484.3c0,0-.1,0-.2,0h.2Z"/>
        <path class="st18" d="M323.3,484.5h0c0,0-.2-.1-.2-.1,0,0,.1,0,.2.1h0Z"/>
        <path class="st18" d="M323.5,484.5c0-.4-.2-.8-.4-.6v.6c.1,0,.4,0,.4,0Z"/>
        <path class="st18" d="M331.1,493.7v.2c-.1,0-.1,0-.1,0v-.2c.1,0,.1,0,.1,0Z"/>
        <path class="st18" d="M330.1,493.5c0,0,0,.2,0,.2,0,0,0-.1,0-.2Z"/>
        <path class="st18" d="M329.8,496.2c-.3-.4.2-.6-.2-.7,0-.4,0-.9.2-.7,0,.3-.1.2,0,.6,0-.4.1-.2,0-.7.1-.3.1-.7.2-1.1-.2.3-.8-.2-1,.5,0,.6.2,1.5.3,2.4,0,.2.5.2.4-.4h0Z"/>
        <path class="st18" d="M330.2,497.1c0,0,.1,0,.2,0,0-.3,0,0-.2,0Z"/>
        <path class="st18" d="M327.2,490.6c0,.1-.1.3,0,.5l.2-.2c0,0-.1-.2-.2-.3h0Z"/>
        <path class="st18" d="M327.4,490.9h0c0,0,0,0,0,0Z"/>
        <path class="st18" d="M327.2,490.5s0,0,0,0c0,0,0,0,0,0Z"/>
        <path class="st18" d="M322.5,484.2c0-.2-.1,0-.2,0,0,0,.1,0,.2,0Z"/>
        <path class="st18" d="M318.5,485.8v-.2c0,.1,0,.2,0,.2Z"/>
        <path class="st18" d="M317.9,492.8c0,.2-.3,0-.3.2h0c0,0-.1.1-.1.1.1,0,.4,0,.4-.4Z"/>
      </g>
      <path class="st16" d="M322.3,525.9c-2.5-10.3-4.8-20.6-7.3-30.9-.7-3-1.4-6-2.1-9-.1-.4-.8-.3-.7.2,2.5,10.3,4.8,20.6,7.3,30.9.7,3,1.4,6,2.1,9,.1.4.8.3.7-.2Z"/>
      <path class="st16" d="M382.9,515.2c-.9-6.1,0-12.4,2.3-18,.2-.4-.4-.8-.6-.4-2.5,5.8-3.4,12.3-2.4,18.6,0,.5.7.3.7-.2h0Z"/>
      <path class="st16" d="M352.6,519.1c3.6-1.9,7.8-2.6,11.8-2,.4,0,.6-.6.2-.7-4.2-.6-8.6,0-12.4,2-.4.2,0,.8.4.6Z"/>
      <path class="st16" d="M367.3,516.9c2.3-7.5,3.6-15.2,3.8-23,0-2.2,0-4.5,0-6.7,0-.5-.7-.5-.7,0,.4,7.8-.3,15.6-2,23.2-.5,2.2-1.1,4.3-1.7,6.4-.1.4.5.6.7.2h0Z"/>
      <path class="st16" d="M387.6,528l54.6-2c3.2-.1,5.7,2.9,4.8,6.1l-10.2,41.6c-.5,2.1-2.4,3.5-4.5,3.6l-56.4,4.2c-3.2.1-4-2-3.2-5.1,3.1-11.4,7.9-35.9,10.3-44.8.6-2,2.4-3.5,4.5-3.6h0Z"/>
      <path class="st16" d="M355.6,560.7l16.4,18.9,49.3-17.4-11.5-15.8-51.1,6.2c-3.9.5-5.6,5.1-3.1,8h0Z"/>
      <path class="st14" d="M373.2,578c.9-3.9,1.8-7.9,2.7-11.9,1.7-7.5,3.5-15,5.2-22.6.8-3.4,1.5-6.7,2.2-10.1,0-.4-.6-.6-.7-.2-1.4,6.7-3,13.3-4.5,20-1.5,6.7-3.1,13.5-4.7,20.3-.3,1.4-.7,2.8-1,4.2-.1.4.6.6.7.2h0Z"/>
      <path class="st14" d="M410.9,548.1c2.3-.2,4.4,1.5,4.6,3.9,0,.5,0,1-.1,1.6-.6,2.4-3.1,4.4-5.4,4.1-2.3-.3-3.9-2.9-3.3-5.3.4-1.8,1.8-4,4.2-4.2Z"/>
      <path class="st22" d="M486,470.7h-28.4c-3.5,0-6.3,2.8-6.3,6.3v29.8c0,3.5,2.8,6.3,6.3,6.3h28.4c3.5,0,6.3-2.8,6.3-6.3v-29.8c0-3.5-2.8-6.3-6.3-6.3Z"/>
      <path class="st14" d="M492.3,492.8c-.9-1.5-3.6-4.3-5-5.4-1.3-1.2-3.2-1.8-4.9-1.5-2,.4-3.5,1.8-4.9,3.3-3.5,3.7-6.8,7.6-10.1,11.5-1.6-2.5-3.7-6.9-7-6.6-1.2.1-1.9.7-3,1.8-1.4,1.4-2.6,3.5-4.2,6l-1.7,2.5v3c0,3.2,2.6,5.7,5.7,5.7h29.5c3.2,0,5.7-2.6,5.7-5.7v-14.5h0Z"/>
      <path class="st14" d="M466.7,488.3c2.9,0,5.2-2.3,5.2-5.2s-2.3-5.2-5.2-5.2-5.2,2.3-5.2,5.2,2.3,5.2,5.2,5.2Z"/>
      <path class="st22" d="M637.9,231.5h-34.5c-3.5,0-6.3,2.8-6.3,6.3v36.2c0,3.5,2.8,6.3,6.3,6.3h34.5c3.5,0,6.3-2.8,6.3-6.3v-36.2c0-3.5-2.8-6.3-6.3-6.3Z"/>
      <path class="st14" d="M644.2,256.9c-1-1.7-4.2-4.9-5.7-6.2-1.5-1.3-3.7-2.1-5.7-1.8-2.3.4-4.1,2.1-5.7,3.8-4.1,4.2-7.9,8.7-11.6,13.2-1.8-2.8-4.2-8-8.1-7.6-1.4.1-2.2.8-3.5,2.1-1.6,1.6-3,4.1-4.8,6.9l-2,2.9v3.4c0,3.6,2.9,6.6,6.6,6.6h33.9c3.6,0,6.6-2.9,6.6-6.6v-16.7h0Z"/>
      <path class="st14" d="M620.6,244.8c.6,4-2.8,7.5-6.8,6.9-2.5-.4-4.6-2.4-5-5-.6-4,2.8-7.5,6.8-6.9,2.5.4,4.6,2.4,5,5Z"/>
      <path class="st22" d="M272.3,225.3h-21.6c-3.5,0-6.3,2.8-6.3,6.3v22.8c0,3.5,2.8,6.3,6.3,6.3h21.6c3.5,0,6.3-2.8,6.3-6.3v-22.8c0-3.5-2.8-6.3-6.3-6.3Z"/>
      <path class="st14" d="M278.6,243.7c-.7-1.2-3-3.5-4.1-4.5-1.1-1-2.7-1.5-4.1-1.3-1.6.3-3,1.5-4.1,2.7-3,3.1-5.7,6.3-8.4,9.6-1.3-2.1-3.1-5.8-5.9-5.5-1,.1-1.6.6-2.5,1.5-1.1,1.2-2.2,3-3.5,5l-1.4,2.1v2.5c0,2.6,2.1,4.8,4.8,4.8h24.6c2.6,0,4.8-2.1,4.8-4.8v-12.1h0Z"/>
      <path class="st14" d="M261.5,235c.4,2.9-2,5.4-5,5-1.8-.3-3.3-1.8-3.6-3.6-.4-2.9,2-5.4,5-5,1.8.3,3.3,1.8,3.6,3.6Z"/>
      <path class="st15" d="M293.7,317.9l-23.9,26.7-40.5-8.7-3.5,23.2s39,14.5,51.7,10.1c8.7-3,27-38.6,27-38.6l-10.8-12.6h0Z"/>
      <path class="st15" d="M297.3,312.2s3.1-9.4,5.6-12.7c2.5-3.3,4.4-3.4,6.5-4.4,2.2-1,7.8-1.3,8,1.8.3,3.1-1.1,2.4-3.9,3.4-2.8,1-4,2.4-4,2.4,0,0,6.9,1.7,8.8,5.5,0,0,1.8,2.8-1.8,4.3,0,0,2.2,3.2-1.9,4.6,0,0-4.4-1.6-7.3-1.7l-1.5.2s6.3,2.7,6.8,4.3c.5,1.6-.2,3.2-1.9,3.6-1.7.3-3.3-2.1-5.5-2.1,0,0,1.4,3.4,1.3,4.6-.1,1.2-8.1,13.9-8.1,13.9l-12.7-9.4,11.5-18.1h0Z"/>
      <path class="st27" d="M334.3,365.3c0-.2-.2-.4-.2-.7-1.7-6.8,3.2-13.8,10.7-13.9,3.9,0,7.7,2.1,9.7,5.5,1,1.7,1.5,3.5,1.5,5.2l20.4-3.7c2.1-.4,3.6-2.4,3.2-4.6l-3.1-17.2c-2.9,1.4-6.4,2.1-11.8-1.8-1.7-1.2-3.2-3-3.8-5-1.9-6.5,2.2-13.1,8.7-14.2,1-.2,2-.2,3,0l-3.4-18.7c-.6-3.4-3.8-5.6-7.2-5l-54.7,9.9c-3.4.6-5.6,3.8-5,7.2l10.2,56.8c.4,2.3,2.6,3.8,4.8,3.4l16.8-3h0Z"/>
      <path class="st18" d="M339.1,295.9c.6,4.7,3.7,8.8,7.7,11.2,4.5,2.7,9.9,3.2,14.9,2,3.1-.7,6-2,8.7-3.8.4-.2,0-.9-.4-.6-4.4,2.9-9.7,4.6-15,4.3-4.7-.3-9.2-2.5-12.2-6.2-1.6-2-2.7-4.4-3-6.9,0-.4-.8-.5-.7,0h0Z"/>
      <path class="st18" d="M346,350c1.8-6.3,6.2-11.7,11.9-14.8,1.6-.9,3.3-1.6,5.1-2.1.4-.1.3-.8-.2-.7-6.4,1.9-12,6.4-15.3,12.3-.9,1.6-1.6,3.4-2.2,5.2-.1.4.6.6.7.2h0Z"/>
      <path class="st18" d="M377.2,344c-3,4.3-5.2,9.1-6.6,14.2-.1.4.6.6.7.2,1.4-5,3.6-9.7,6.5-14,.3-.4-.4-.7-.6-.4h0Z"/>
      <path class="st18" d="M305.2,319.6c3.4,1.2,6.8,2.5,9.6,4.8,2.6,2.2,4.4,5.2,4.2,8.7-.2,3.8-2.4,7.2-2.3,11.1,0,2.7,1.7,5.9,4.6,6.3,3,.4,5-2,6.4-4.3.9-1.5,1.8-3.1,2.6-4.6.9-1.6,1.7-3.3,2.5-5,2.8-6.3,4.3-13.7,1.4-20.2-2.4-5.4-7.9-8.7-10.3-14.1-.3-.7-.5-1.4-.7-2.1-.1-.4-.8-.3-.7.2,1.4,5.6,6.4,9.1,9.6,13.7,4,5.8,3.6,13.1,1.2,19.5-1.3,3.4-3,6.7-4.8,9.9-1.3,2.3-2.9,5.6-5.7,6.2-1.5.3-2.9-.4-3.9-1.5-1.1-1.3-1.5-2.9-1.4-4.6.1-3.7,2.2-7.1,2.3-10.8.1-3.5-1.8-6.7-4.3-8.9-2.9-2.5-6.5-3.8-10-5.1-.4-.2-.6.5-.2.7h0Z"/>
      <path class="st18" d="M319.7,360.6c-.2,0-.4.2-.5.3-.1.1-.3.3-.4.4-.2.3-.3.7-.3,1.1,0,.4,0,.8.2,1.1.2.4.5.6.9.8.7.3,1.6,0,2.2-.4.3-.2.5-.6.6-.9.1-.4,0-.9-.1-1.3-.4-.7-1.2-1.3-2.1-1.2-.1,0-.2,0-.4,0-.2,0-.3.2-.2.4,0,.2.2.3.4.2,0,0,0,0,.1,0,0,0,0,0,0,0h0s0,0,0,0,.2,0,.3,0h0c0,0,0,0,0,0,0,0,0,0,.1,0,0,0,.2,0,.2,0-.1,0,0,0,0,0,0,0,0,0,0,0,0,0,0,0,.1,0,0,0,0,0,.1,0,0,0,0,0,0,0,0,0,0,0,0,0,0,0,.1.1.2.2,0,0,0,0,0,.1,0,0,0,0,0,0,0,0,0,0,0,0,0,0,0,0,0,0,0,0,0,.2.1.2,0,0,0,0,0,0,0,0,0,0,0,0s0,0,0,0c0,0,0,0,0,.1,0,0,0,0,0,.1,0,0,0,0,0,0,0,0,0,0,0,0v.3h0c0,0,0,0,0,0,0,0,0,0,0,0,0,0,0,0,0,.1,0,0,0,0,0,.1,0,0,0,0,0,0,0,0,0,0,0,0,0,0,0,0,0,0,0,0,0,.1-.1.2,0,0,0,0,0,0,0,0,0,0,0,0,0,0,0,0,0,0,0,0,0,0,0,0,0,0,0,0,0,0,0,0,0,0,0,0h0s0,0,0,0c0,0,0,0,0,0,0,0-.1,0-.2.1,0,0,0,0,0,0,0,0,0,0,0,0,0,0,0,0-.1,0,0,0-.2,0-.2,0h0c0,0,0,0,0,0h-.4s0,0,0,0h0s0,0-.1,0c0,0-.1,0-.2,0,.1,0,0,0,0,0,0,0,0,0-.1,0,0,0,0,0,0,0,0,0,0,0,0,0,0,0,0,0,0,0,0,0,0,0,0,0,0,0,0,0,0,0,0,0,0,0,0,0,0,0,0,0,0,0,0,0,0,0,0,0,0,0,0-.1-.1-.2,0,0,0,0,0,0,0,0,0,0,0,0,0,0,0,0,0,0,0,0,0-.1,0-.2,0,0,0,0,0-.1,0,0,0,0,0,0h0v-.3h0c0-.1,0-.2,0-.1,0,0,0,0,0,0,0,0,0-.1,0-.2s0,0,0-.1c0,0,0,0,0,0,0,0,0,0,0,0,0,0,0,0,0,0,0,0,0-.1.1-.2,0,0,0,0,0,0,0,0,0,0,0,0,0,0,0,0,0,0,0,0,0-.1.2-.2,0,0,0,0,0,0h0s0,0,0,0c0,0,0,0,0,0,0,0,0,0,0,0,0,0,.2,0,0,0,0,0,.2,0,.2-.2,0,0,0-.2,0-.3,0,0,0-.2-.2-.2s-.2,0-.3,0h0Z"/>
      <path class="st15" d="M298.3,313.5c2.8-3.2,3.7-8,7.3-10.3.8-.5,1.6-.8,2.5-.8.9,0,1.8.4,2.3,1.2.8,1.3,0,3-.9,4.1-1,1.1-2.3,2.1-2.9,3.4-.8,1.8-.3,3.9-.6,5.9-.5,3.2-3.4,5.9-6.6,6.1"/>
      <path class="st10" d="M298.5,313.8c1.6-1.9,2.6-4.2,3.8-6.3.6-1.1,1.3-2.1,2.2-3,1-1,2.5-1.9,3.9-1.7,1.6.3,2.2,1.7,1.7,3.2-.5,1.4-1.7,2.3-2.7,3.3-1,1-1.6,2.2-1.8,3.7-.2,1.5,0,3.1-.2,4.6-.7,2.9-3.3,5.1-6.2,5.4-.5,0-.5.7,0,.7,2.7-.2,5.2-2,6.4-4.5.7-1.4.7-2.9.7-4.5s0-1.7.2-2.6c.2-.8.7-1.5,1.3-2.2,1-1.1,2.2-2,2.8-3.5.5-1.3.5-2.8-.7-3.7-2.5-1.9-5.6.5-7.1,2.6-1.9,2.5-2.8,5.6-4.9,8-.3.3.2.8.5.5h0Z"/>
      <path class="st15" d="M157.1,469.5l-16.6-6.9-9.6,39.9,23.5,9.8,2.7-42.9Z"/>
      <path class="st9" d="M104,513.4s14.3,3.4,21.7-13.2l5.9,2.7,10.9-39.5-22.1-8.4-16.5,58.4h0Z"/>
      <path class="st16" d="M122.8,509c-.4-3.3-1-6.5-2-9.7-.1-.4-.8-.3-.7.2.9,3.1,1.5,6.3,1.9,9.5,0,.2.1.4.4.4.2,0,.4-.2.4-.4h0Z"/>
      <path class="st16" d="M125.2,505.4c-.8-2.9-1.5-5.8-2.3-8.7-.1-.4-.8-.3-.7.2.8,2.9,1.5,5.8,2.3,8.7.1.4.8.3.7-.2Z"/>
      <path class="st9" d="M286.8,603.1s1.3-15.1-16.7-20.2l3.6-12.7-41.8-5.3-7,30.1,61.9,8Z"/>
      <path class="st16" d="M279.4,584.6c-3.3.9-6.4,2.1-9.5,3.5-.2,0-.2.3-.1.5.1.2.3.2.5.1,3-1.4,6.1-2.5,9.4-3.4.4-.1.3-.8-.2-.7Z"/>
      <path class="st16" d="M275.4,582.7c-2.8,1.2-5.7,2.4-8.5,3.7-.2,0-.2.3-.1.5.1.2.3.2.5.1,2.8-1.2,5.7-2.4,8.5-3.7.2,0,.2-.3.1-.5-.1-.2-.3-.2-.5-.1Z"/>
      <path class="st15" d="M210.7,316.6c0,.5-2.2,16.3-2.2,16.3l-19.7-2.6,3.2-23.8,18.7,10.2Z"/>
      <path class="st15" d="M210.7,322.1s12.2-.3,14-13.6c.6-4.6,1.2-9.4,1.4-18,.2-9.2-6.1-13.9-15.8-15h-1c-10.5-.7-17.8,4.1-18,14v9.6c0,0-3.7,20.4,19.4,23"/>
      <path class="st16" d="M222.1,300.2c0,.7-.7,1.3-1.5,1.3-.8,0-1.4-.7-1.3-1.4,0-.7.7-1.3,1.5-1.3.8,0,1.4.7,1.3,1.4Z"/>
      <path class="st16" d="M208.8,299.4c0,.8-.7,1.3-1.5,1.3-.8,0-1.4-.7-1.3-1.4,0-.7.7-1.3,1.5-1.3.8,0,1.4.7,1.3,1.4Z"/>
      <path class="st3" d="M203.4,294.4c1.5-.7,3.3-.6,4.6.4"/>
      <path class="st3" d="M218.3,295.8c1.5-.7,3.3-.6,4.6.4"/>
      <path class="st4" d="M219.2,291.4c1.3,0,2.6.1,3.8.5"/>
      <path class="st4" d="M204.1,290c1.3,0,2.6.1,3.8.5"/>
      <path class="st15" d="M189,297.1c-1.7.6-3,2.4-3.1,4.3-.1,1.9.9,3.8,2.4,4.8,1.5,1,3.5,1.2,5.2.5l.5-8.5c-1.4-1.1-3.3-1.7-5-1.2Z"/>
      <path class="st6" d="M192.1,302.5c-.1-1.3-1.8-3-3.7-2.3"/>
      <path class="st6" d="M210,321.9c-3.6,0-7.2-1.7-9.5-4.5"/>
      <path class="st16" d="M213.6,298.6c0,1.5.1,3,.2,4.5,0,.3,0,.7.4.9.2.2.5.2.8.2.2,0,.4,0,.6.1.2.1,0,.3,0,.4-.3.3-.6.6-.9.9-.3.3-.6.6-.9.9-.3.3.2.8.5.5.5-.5,1.1-1.1,1.6-1.6.2-.2.5-.5.5-.9,0-.3-.1-.6-.4-.8-.2-.2-.5-.2-.8-.2-.2,0-.5,0-.6-.1,0,0,0-.2,0-.3,0-.2,0-.4,0-.6,0-.4,0-.8,0-1.2,0-.9,0-1.7-.1-2.6,0-.5-.7-.5-.7,0h0Z"/>
      <path class="st16" d="M187.1,293.7c-.2-.7-.6-1.6-.9-2.3-1.3-3-1.9-6.2-1.5-9.7.3-3,2.2-5.8,4.8-7.3,1.9-1.1,7.2-.2,7.2-.2,0,0,4.1-5.2,6.7-6.7,2.9-1.7,6.1-3,9.5-3,3.4,0,6.8,1.3,8.9,4,.5.7,1,1.5,1.6,2,1.2,1,3,.9,4.5,1.1,3.4.3,6.8,1.8,8.5,4.7,1.8,2.9,1.3,7.2-1.6,9-1.2.7-2.8,1.2-3.2,2.6-.2.9.2,1.8.4,2.7.3,1.7-.2,3.5-1.4,4.6-1.2,1.1-3,1.5-4.6,1.2v-3s.9-7.8-1.6-6.8c-5.5,2.3-9.4-.8-11.8-2.9-1.3-1.2-3-1.6-4.7-1.8-4.2-.6-7.5,1.9-8.5,6-1,4.2-.8,10.3-1.6,12.6-.2.6-.5,2.4-2.6,2.1,0,0-.8.4-1.3-1.6-.5-2-1.2-4.2-5.5-3.6l-1.3-3.7h0Z"/>
      <path class="st10" d="M211.7,309.9c-.2,0-.4,0-.6,0,0,0,0,0,0,0,0,0,0,0,0,0,0,0,0,0-.1,0,0,0-.2,0-.3,0,0,0-.2,0-.3,0,0,0,0,0-.1,0,0,0,0,0,0,0,0,0,0,0,0,0-.2,0-.3-.2-.5-.3,0,0-.2-.1-.2-.2,0,0,0,0,0,0,0,0,0,0,0,0,0,0,0,0-.1-.1-.1-.1-.3-.3-.4-.4,0,0,0,0,0,0,0,0,0,0,0,0,0,0,0,0,0-.1,0,0-.1-.2-.2-.2,0,0,0-.2-.1-.2,0,0,0,0,0-.1,0,0,0,0,0,0,0,0,0,0,0,0,0-.2-.2-.4-.2-.6,0,0,0-.1,0-.2,0,0,0,0,0,0,0,0,0-.1,0,0,0-.1,0-.2,0-.3,0-.2-.2-.4-.4-.4s-.4.2-.4.4c0,.9.3,1.7.9,2.4.5.7,1.3,1.2,2.1,1.5.5.2,1,.2,1.4.2.2,0,.4-.2.4-.4s-.2-.4-.4-.4h0Z"/>
      <path class="st16" d="M166.8,389.9s-4.7,16.7-1.7,33.9c3,17.2,21,53.5,21,53.5l-39.1-13.8-9.4,43.5s58.6,22.2,68.4,25.2c15.7,4.7,35.9-7.4,31.9-32.6-3.8-23.9-26.5-83.7-26.5-83.7l-1.8-23.2-42.9-2.9h0Z"/>
      <path class="st16" d="M230.3,569.3l12.5-67.7c.9-4.7-.2-9.5-2.9-13.4l-61.3-87.9,45.3-9.6,5,13.9,52.9,57.2c3.8,4,10.2,16.3,6.3,32.7l-14.1,82.5"/>
      <path class="st22" d="M193.7,528.6c6.5,1.6,12.7,4.2,19.4,5,2.9.3,5.7.1,8.5-1,3.2-1.3,6-3.5,8.5-5.9,2.5-2.4,4.6-5.1,6.1-8.2,1.7-3.4,2.3-7.1,2.4-10.9.1-4.2-.2-8.4-1-12.5-.8-3.6-1.7-7.1-2.7-10.6-1.3-4.5-2.6-9.1-4-13.6-1.5-4.9-3.1-9.9-4.6-14.8-1.5-4.9-3-9.7-4.5-14.5-1.3-4.2-2.6-8.3-3.8-12.5-.8-2.9-1.7-5.9-2.3-8.9,0-.5-.2-.9-.3-1.4,0-.5-.7-.3-.7.2.4,2.6,1.1,5.1,1.8,7.6,1.1,3.9,2.2,7.7,3.4,11.5,1.4,4.7,2.9,9.3,4.3,14,1.5,4.9,3.1,9.8,4.6,14.8,1.4,4.6,2.8,9.3,4.2,13.9,1.1,3.8,2.2,7.7,3.2,11.6.6,2.5,1.3,5.1,1.4,7.7.3,3.8.5,7.8,0,11.6-.5,3.6-1.9,6.9-4,9.9-2.1,3-4.6,5.6-7.5,7.7-2.5,1.8-5.5,3.5-8.7,3.8-3.2.3-6.2-.3-9.1-1-3.3-.8-6.6-1.8-9.9-2.8-1.5-.4-3-.9-4.5-1.3-.4-.1-.6.6-.2.7h0Z"/>
      <path class="st22" d="M215.3,419.1c.9-.7,1.4-1.7,1.8-2.7.5-1.3.8-2.8,1.1-4.2.5-3.2.7-6.4.7-9.5s0-2.8-.1-4.1c0-.5-.7-.5-.7,0,.1,2.6.1,5.3,0,8-.1,3-.4,6.1-1.3,8.9-.4,1.1-.9,2.4-1.9,3.1-.4.3.2.8.5.5h0Z"/>
      <path class="st23" d="M235.5,336.4c-3-2.4-8.4-5.6-11.3-6.7l-1.4-.4c-1.3-.4-2.6-.6-3.9-.8l-9.7-1.3c-1.3,6.9-15.3.9-19.6-2.2l-23,.9,5.8,66.9,47.4-1c1.1-4.9,2.7-11,4.9-22.8l10.8-32.7Z"/>
      <path class="st23" d="M241.4,390.6c-.2-3-2.3-5.6-4.5-7.6-2.2-2-4.8-3.8-6.5-6.3-2.4-3.4-2.8-7.9-2.2-12,.7-4.1,2-21.5,3.7-25.3l-62.3,18.4,1.4,14.2s-.4,5.2-.2,11.8c.2,6.6-4.8,3.3-6.3,5.9-1.5,2.6.9,4.9.9,4.9,6.8,4.7,21,5,29.2,3.8,8.2-1.2,16.2-3.8,24.4-4.3,2.6-.2,5.6.2,6.8,2.5.7,1.3.6,2.9,1.3,4.2.9,1.5,2.9,2,4.6,1.7,1.7-.4,3.2-1.5,4.5-2.6,2.8-2.4,5.3-5.7,5.1-9.3h0Z"/>
      <path class="st23" d="M136.8,338.1l21.9,20.1,10.8-4.4.5-27.9s-4.9-.3-9.2,1.6c-4.3,1.9-24,10.7-24,10.7Z"/>
      <path class="st23" d="M231.7,333.8c-1.3-1-4.4-2.6-5.9-3.4-1.5-.8-2.2.3-3.8.9l.5,33.3c6.2,2,12.4,4,18.7,6,3.3-9.7,7.9-21.1,11.2-30.8-7.9-2.9-15.1-1.6-20.7-6h0Z"/>
      <path class="st16" d="M228.3,368.5c-.6-9.2.9-18.4,4.3-26.9.2-.4-.5-.6-.7-.2-3.4,8.6-4.9,17.9-4.3,27.1,0,.5.7.5.7,0h0Z"/>
      <path class="st16" d="M166.3,328.7c3.3,2.8,5.6,6.8,6.5,11.1.2,1.2.4,2.4.3,3.7,0,.5.7.5.7,0,0-4.5-1.6-9-4.3-12.5-.8-1-1.7-1.9-2.7-2.8-.4-.3-.9.2-.5.5Z"/>
      <path class="st27" d="M177.4,344.8l-32.9,37.1c-1.4,1.6-1.3,4.1.3,5.5l27.8,24.8c1.6,1.4,4.1,1.3,5.5-.3l32.9-37.1c1.4-1.6,1.3-4.1-.3-5.5l-27.8-24.8c-1.6-1.4-4.1-1.3-5.5.3Z"/>
      <path class="st15" d="M138.7,339.7c-3.6,2.1-6.5,3.7-9.8,5.9-3.3,2.2-6.3,5.2-7.7,8.9-1.4,3.7-1.2,8.2,1.3,11.4,2,2.5,5,3.8,7.9,5.1,16.8,7.3,32.8,14.6,50.5,19.2l5.3-18.1-32-15.9,1.2-1-16.7-15.4h0Z"/>
      <path class="st10" d="M141.7,350.5c5.7,2.8,11.4,5.6,17.1,8.4,6,3,12,5.9,18,8.9,3.1,1.5,6.2,3,9.2,4.5.4.2.8-.4.4-.6-5.6-2.8-11.3-5.5-16.9-8.3-6-3-12-6-18.1-8.9-3.1-1.5-6.2-3.1-9.4-4.6-.4-.2-.8.4-.4.6h0Z"/>
      <path class="st15" d="M207.4,375.9s1.3-3.7-6.1-6.6c-7.4-2.9-15.2,3.1-15.2,3.1l-3.6-1.1-6.1,17.7s20.8,5.7,24.1,5.4c3.3-.3,3.8-3.3,3.8-3.3,2.7-1.1,2-3.1,2-3.1,2.4-1,1.9-3.1,1.9-3.1,0,0,5.5,1.2,6.6-2.8,1-3.4-7.4-6.2-7.4-6.2h0Z"/>
      <path class="st6" d="M199.6,374.2c3.6.8,4.9,1.1,8.5,2"/>
      <path class="st6" d="M205.1,384c2.2.5,1.4.3,3.6.8"/>
      <path class="st7" d="M170.4,546.2c-1.1-9.6.2-19.5.4-29.2.1-9.8-1-19.8-6.6-27.8-12.8,35.5-3.2,75.3,24.1,100.5l2.5,1.8c-9.5-13.9-18.5-28.7-20.4-45.3Z"/>
      <path class="st7" d="M194.6,542.1c2.7-6.6,3.8-14.6.2-20.7-8.3,7.3-13.8,17.6-15.4,28.6-1.6,10.9.8,22.4,6.7,31.7l.8.3c-4.4-5.6-4-13.8-1.6-20.5,2.4-6.7,6.6-12.7,9.3-19.3h0Z"/>
      <path class="st7" d="M173.9,583.9c-.4.3-.7.5-1.1.8,0,0,0,0,0,0l1.1-.9Z"/>
      <path class="st7" d="M150.4,568.3c-2-.9-4.1-1.7-6.2-1.5-2.3.3-4.6,1.4-5.8,3.3-5.1,8.3-8.7,17.1-10,26.2,3.1-.3,5.8-3.1,7.5-5.7,3.5-5.2,6.5-10.8,8.9-16.5.3-.7.7-1.5,1.4-1.6.5-.1,1,.1,1.4.3,8.3,4,16.6,8,25,12,0,0,.1,0,.2-.1-6.3-6.9-13.9-12.5-22.3-16.4h0Z"/>
      <path class="st7" d="M151,550.7c-11-8-23.9-13.2-37.4-15-.7,0-1.5,0-1.8.6-.2.5.2,1.1.6,1.5,5.4,5.8,12,10.4,18.9,14.4,7.9,4.6,16.3,8.6,24,13.5,7.9,5.1,15.2,11.2,21.5,18.1l1.3.2c-5.8-12.3-16.1-25.2-27.1-33.3h0Z"/>
      <path class="st16" d="M179.3,577.1c-4-7.3-7.2-14.9-9.6-22.9-2.4-7.9-4-16.1-4.8-24.3-.4-4.7-.6-9.3-.5-14,0-.5-.7-.5-.7,0-.2,8.3.5,16.6,2,24.8,1.5,8.2,3.9,16.3,7,24.1,1.8,4.3,3.8,8.5,6,12.6.2.4.8,0,.6-.4h0Z"/>
      <path class="st16" d="M183.3,573.5c-3.2-10.6-2.1-22.3,2.8-32.1,1.4-2.8,3-5.4,5-7.8.3-.4-.2-.9-.5-.5-7,8.7-10.5,20.2-9.6,31.4.2,3.1.8,6.3,1.7,9.3.1.4.8.2.7-.2h0Z"/>
      <path class="st16" d="M176,579.3c-5.5-6.3-11.6-12.2-18.1-17.4-6.5-5.3-13.5-9.9-20.8-13.9-4.1-2.3-8.4-4.3-12.7-6.2-.4-.2-.8.4-.4.6,7.7,3.3,15,7.2,22,11.7,7,4.5,13.6,9.8,19.7,15.5,3.4,3.2,6.7,6.6,9.8,10.2.3.3.8-.2.5-.5h0Z"/>
      <path class="st16" d="M129.8,595.3c1.7-6.7,4.5-13,8.3-18.7,1.1-1.7,2.3-3.2,3.6-4.8.3-.4-.2-.9-.5-.5-4.5,5.4-8,11.5-10.4,18.1-.7,1.9-1.3,3.8-1.7,5.7-.1.4.6.6.7.2Z"/>
      <path class="st21" d="M192.7,568.5l-32,20.3,21.5,22.2.3.5,21.4-12.5-11.2-30.5Z"/>
      <path class="st21" d="M194.1,567l-36,22.6,4.5,7.2,36-22.6-4.5-7.2Z"/>
      <path class="st16" d="M163.6,597.1c9-5.9,18.1-11.8,27.1-17.6,2.5-1.7,5.1-3.3,7.6-5,.4-.2,0-.9-.4-.6-9,5.9-18.1,11.8-27.1,17.6-2.5,1.7-5.1,3.3-7.6,5-.4.2,0,.9.4.6Z"/>
      <path class="st9" d="M481,580.4s7.2-11.8,23.2-5.6l4.2-8.8,34.4,15.3-11.3,25-50.4-25.9h0Z"/>
      <path class="st16" d="M495.9,571.4c1.9,2.4,3.5,4.9,5,7.6.2.4.8,0,.6-.4-1.1-2.1-2.4-4.1-3.8-6.1-.4-.6-.8-1.1-1.3-1.7-.1-.2-.4-.1-.5,0s-.1.4,0,.5Z"/>
      <path class="st16" d="M499.7,572.1c1.4,2.4,2.8,4.9,4.2,7.3.2.4.8,0,.6-.4-1.4-2.4-2.8-4.9-4.2-7.3-.2-.4-.8,0-.6.4Z"/>
      <path class="st9" d="M626,596.8s-10.4-9.1-1.8-23.8l-9.5-6.6,22.1-30.4,22.8,15.2-33.5,45.7h0Z"/>
      <path class="st16" d="M619.5,580.6c2.6-1.5,5.4-2.7,8.3-3.7.4-.2.2-.8-.2-.7-2.9,1-5.7,2.3-8.4,3.8-.4.2,0,.8.4.6h0Z"/>
      <path class="st16" d="M620.7,576.9c2.6-1,5.3-2,7.9-3,.2,0,.3-.2.2-.4,0-.2-.3-.3-.4-.2-2.6,1-5.3,2-7.9,3-.2,0-.3.2-.2.4,0,.2.3.3.4.2Z"/>
      <path class="st16" d="M649.9,307.1c.6,4.2-2.3,8.1-6.5,8.6-4.2.6-8.1-2.4-8.6-6.5-.6-4.2,2.3-8.1,6.5-8.6,4.2-.6,8.1,2.4,8.6,6.5Z"/>
      <path class="st27" d="M644.9,310.9c-1.4-2.2-3.4-4-5.8-5-1.2-.5-2.5-.9-3.7-.6-1.2.3-2.3,1.5-2.1,2.8l9.3,9.4c1.5-1,3.1-2.2,3.2-3.9,0-.9-.4-1.8-.9-2.6Z"/>
      <path class="st16" d="M662.4,315.1c-4.7.4-8.4,4.6-13.1,4.8-4.3.2-5.5-9.7-15.7-12.4l-13.6-1.3c-7.6,1.9-13.7,8.7-15.2,15.9-1.4,7.2.6,14.8,5,20.7,4.3,5.9,10.7,10.1,17.6,12.5,4.5,1.5,9.5,2.3,14,.9,4.5-1.4,8.5-5.6,8.5-10.4,3,1.4,6.3,2.4,9.5,1.8,3.2-.6,6.3-3,6.8-6.3.5-3.3-2.2-6.9-5.5-6.5,5.3,0,10.5-4.2,11.1-9.5.6-5.3-4.2-10.7-9.5-10.3h0Z"/>
      <path class="st16" d="M638.9,313.8c2.7,2.9,6.7,4.5,10.7,4.3,4-.2,7.5-2.1,9.9-5.1,1.4-1.7,2.3-3.7,2.7-5.8,0-.4-.6-.6-.7-.2-.7,3.6-3,6.7-6.1,8.6s-7.2,2.3-10.7,1.1c-2-.7-3.9-1.9-5.4-3.4-.3-.3-.8.2-.5.5h0Z"/>
      <path class="st28" d="M620.3,349.4c0,.5-.5,16.2-.5,16.2l18.5.6,1.1-22.4-19.1,5.7Z"/>
      <path class="st28" d="M618.7,354.5s-11.8-2.2-11.4-15.4c.1-4.5.3-9.3,1.5-17.7,1.3-9,8.1-12.5,17.8-12h1c10.3,1.2,16.6,7,15.2,16.6l-1.5,9.3s.2,20.4-22.6,19.2Z"/>
      <path class="st16" d="M611.2,331.4c0,.7.5,1.4,1.3,1.5.8,0,1.5-.4,1.5-1.2,0-.7-.5-1.4-1.3-1.5-.8,0-1.5.4-1.5,1.2Z"/>
      <path class="st16" d="M624.2,332.7c0,.7.5,1.4,1.3,1.5.8,0,1.5-.4,1.5-1.2,0-.7-.5-1.4-1.3-1.5-.8,0-1.5.4-1.5,1.2Z"/>
      <path class="st3" d="M630.3,328.7c-1.3-.9-3.1-1.1-4.6-.4"/>
      <path class="st3" d="M615.7,327.7c-1.3-.9-3.1-1.1-4.6-.4"/>
      <path class="st4" d="M616.2,322.5c-1.2-.3-2.5-.3-3.8-.1"/>
      <path class="st4" d="M630.4,324.4c-1.2-.3-2.5-.3-3.8-.1"/>
      <path class="st16" d="M641.5,335.6c-5.5,4.4-10.6-7.7-15.2-13.2-3.4-4-9.2-9.4-10-14.7,0,0,11.7-6,20.9.9,9.2,6.9,9.4,19,9.4,19l-5,8.1h0Z"/>
      <path class="st28" d="M643.5,334.4c-1.6-.7-3.5-.2-5,.7l-.3,8.4c1.6.8,3.6.8,5.2,0,1.6-.8,2.7-2.6,2.8-4.5,0-1.9-1-3.8-2.7-4.5h0Z"/>
      <path class="st5" d="M640,338.5c.3-1.2,2.2-2.6,3.9-1.6"/>
      <path class="st5" d="M618.9,354.7c3.5.5,7.2-.5,9.9-2.9"/>
      <path class="st16" d="M619.1,331.1c-.2.7-.3,1.5-.5,2.2-.2.7-.3,1.5-.5,2.2,0,.2-.2.2-.5.2-.3,0-.5,0-.8,0-.3,0-.5.2-.7.4-.2.3,0,.7,0,1,.2.4.5.7.7,1,.3.3.5.7.8,1.1.1.2.3.2.5.1.2,0,.2-.3.1-.5-.4-.6-.9-1.2-1.3-1.8,0-.1-.4-.4-.2-.6.1-.1.4,0,.6,0,.6,0,1.2,0,1.4-.6.1-.3.2-.7.2-1,0-.4.2-.7.2-1.1.2-.8.4-1.6.5-2.4,0-.4-.6-.6-.7-.2h0Z"/>
      <path class="st12" d="M619.2,343c0-.3,0-.6.4-.8,1.1-.6,2.3-1.2,3.4-1.8.4-.2.8-.4,1.1-.3.3,0,.6.4.7.7.5,1,.4,2.3-.4,3.2-.7.9-1.9,1.3-3.1,1.1-1-.2-2-.6-2.3-2.1h0Z"/>
      <path class="st16" d="M658.1,424l-34.6-4.5-68.9,85.8c-2.9,3.9-4.4,8.8-3.8,13.6.4,3.5,2,7.3,5.8,10.3,9.7,7.6,56.9,40.9,56.9,40.9l27-34.3-33-25.1s50.7-52.7,52.9-60.9c4.1-15-2.3-25.9-2.3-25.9h0Z"/>
      <path class="st16" d="M621.8,421.3l-13.2.7-66.1,63.6c-3.7,3.6-6.8,7.8-9.1,12.4l-32.3,67.3,40.5,21.4,30.7-60.5,74.6-96.7-25.2-8.2h0Z"/>
      <path class="st22" d="M607.8,566c-2.9-1.8-5.7-3.8-8.5-5.8-4.7-3.4-9.4-6.7-14.1-10.2-4.7-3.4-9.7-7.2-14.5-10.8-3.2-2.5-6.5-4.9-9.5-7.7-2.3-2.1-4.1-4.8-5.5-7.7-2-4.3-2.6-9.1-1.3-13.6,1.3-4.5,4.1-8.5,6.8-12.2.9-1.3,2-2.5,3-3.7,3.4-4,6.9-7.8,10.4-11.6,4.4-4.8,8.8-9.6,13.3-14.3,4.5-4.8,8.6-9.2,12.9-13.8,3.1-3.3,6.2-6.6,9.2-10,.4-.5.9-1,1.3-1.5.3-.4-.2-.9-.5-.5-2.5,3-5.3,5.9-7.9,8.8-4.1,4.5-8.3,8.9-12.5,13.4-4.6,4.9-9.1,9.7-13.6,14.6-3.8,4.1-7.7,8.3-11.4,12.6-3.4,3.9-6.7,8-9.3,12.6-2.3,4.1-3.7,8.6-3.1,13.3.6,4.7,2.7,8.7,5.6,12.2,2.3,2.9,5.4,5.1,8.3,7.4,4.6,3.6,9.2,7,13.8,10.5,4.9,3.6,9.8,7.2,14.8,10.8,3.5,2.5,6.9,5,10.5,7.3.4.3.8.6,1.3.8.4.2.7-.4.4-.6h0Z"/>
      <path class="st22" d="M611.4,442.5c-2.1-2.5-3.2-5.8-3.1-9.1,0-.9.2-1.8.4-2.7.1-.4-.6-.6-.7-.2-.9,3.4-.4,7,1.2,10,.5.9,1,1.7,1.7,2.4.3.4.8-.2.5-.5h0Z"/>
      <path class="st9" d="M586.2,424.5l-54.5-4c-3.2-.2-5.8,2.7-5.1,5.9l8.6,42c.5,2.1,2.2,3.6,4.3,3.8l56.2,6.3c3.2.2,5.8-2.7,5-5.9-2.7-11.5-8.2-35.3-10.3-44.3-.5-2.1-2.2-3.6-4.3-3.7h0Z"/>
      <path class="st9" d="M617,458.5l-17.1,18.3-48.6-19.2,12.1-15.4,50.9,8.1c3.9.6,5.5,5.3,2.8,8.2Z"/>
      <path class="st22" d="M599.5,474.9c-.4-2.8-.9-5.6-1.3-8.4-.9-5.7-1.8-11.3-2.7-17-.5-3-1-5.9-1.5-8.8,0-.4-.8-.3-.7.2,1,5.5,1.9,11,2.7,16.5.8,4.9,1.6,9.8,2.3,14.7.2,1,.3,2,.5,2.9,0,.5.8.3.7-.2h0Z"/>
      <path class="st22" d="M562.2,443.8c-2.3-.3-4.5,1.3-4.7,3.7,0,.5,0,1,0,1.6.5,2.5,2.9,4.5,5.2,4.3,2.3-.2,4-2.7,3.5-5.2-.3-1.8-1.6-4.1-4-4.4h0Z"/>
      <path class="st28" d="M532.6,368.2s-6.2-6.8-9.6-8.6c-3.4-1.8-5-1.2-7.2-1.3-2.2,0-7.1,1.8-6.1,4.6,1,2.7,1.8,1.7,4.6,1.4,2.7-.2,4.3.5,4.3.5,0,0-5.2,4-5.4,8,0,0-.5,3,3.1,3,0,0-.7,3.5,3.3,3.2,0,0,3.1-3.1,5.6-4.2l1.4-.4s-4.3,4.7-4.2,6.2c.2,1.6,1.4,2.7,2.9,2.3,1.6-.4,2-3,3.9-3.9,0,0,.4,2.6.9,3.6.5,1,13.1,8.5,13.1,8.5l5.9-11.8-16.5-11h0Z"/>
      <path class="st21" d="M507.8,363.2c0,.2,0,.4,0,.7-.2,6.4-6.3,11.2-12.9,9.4-3.4-.9-6.2-3.8-7.1-7.3-.4-1.7-.4-3.4,0-5l-18.7-2c-2-.2-3.7,1.2-4,3.2l-1.7,15.8c2.9-.5,6.1-.2,9.8,4.6,1.2,1.5,2,3.4,2,5.3,0,6.2-5.3,10.8-11.2,10.2-.9-.1-1.8-.4-2.7-.7l-1.9,17.2c-.3,3.1,1.9,5.9,5,6.2l50.3,5.5c3.1.3,5.9-1.9,6.2-5l5.7-52.2c.2-2.1-1.3-4-3.4-4.2l-15.4-1.7h0Z"/>
      <path class="st18" d="M465.5,367.8c4.6.3,9,2.7,11.9,6.3,1.6,2,2.5,4.4,3.1,6.9.6,2.7.9,5.5,1.7,8.1,1.2,4.1,3.8,8.3,8.4,8.7,1.8.2,3.8-.4,5.1-1.7,1.6-1.7,1.8-4.1,1.2-6.3-.8-2.9-2.8-5.3-3.8-8-.8-2.3-.9-5.4,1.3-7,.4-.3,0-.9-.4-.6-1.7,1.2-2.3,3.3-2.2,5.3.2,2.5,1.5,4.6,2.7,6.8,1.2,2.1,2.5,4.9,1.8,7.5-.6,2.1-2.5,3.3-4.6,3.4-5,.3-7.7-4.4-8.9-8.6-.7-2.6-1-5.4-1.6-8-.6-2.4-1.5-4.6-3-6.6-3-3.9-7.6-6.5-12.6-6.8-.5,0-.5.7,0,.7h0Z"/>
      <path class="st18" d="M507.7,396.5c1.5.2,2.8,1.5,3.1,2.9.4,1.5-.4,3-1.7,3.8-.6.4-1.4.6-2.1.6-.7,0-1.5-.3-2-.8-1.2-1-1.7-2.6-1.2-4.1.6-1.6,2.3-2.6,4-2.4.2,0,.4-.2.4-.4s-.2-.3-.4-.4c-1.8-.2-3.6.8-4.4,2.4-.8,1.6-.5,3.6.7,4.9.6.7,1.4,1.1,2.2,1.3.9.2,1.8,0,2.6-.3,1.6-.7,2.8-2.4,2.6-4.2-.2-2-1.7-3.8-3.7-4.1-.2,0-.4,0-.4.2,0,.2,0,.4.2.4h0Z"/>
      <path class="st18" d="M503.2,373.3c0,2,1,3.9,2.5,5.2,1.7,1.5,3.9,2.3,6.1,3,2.1.7,4.5,1.4,6.3,2.9,1.7,1.4,2.5,3.4,2.9,5.5.4,2.4.1,4.9-.2,7.3,0,.5.7.4.7,0,.5-3.9.9-8.5-1.6-11.9-2.9-3.8-7.9-3.9-11.8-6-2.2-1.2-4.2-3.3-4-5.9,0-.5-.7-.5-.7,0Z"/>
      <path class="st18" d="M467,400.2c2.4,7.2,8.4,12.9,15.6,15.2,4.1,1.3,8.2,1.2,12.4.4,4.5-.8,9-2.3,13.7-2.3,4.2,0,8.7,1.4,11.2,5,.3.4.9,0,.6-.4-2.1-3-5.5-4.6-9.1-5.1-4.2-.6-8.4.3-12.5,1.2-4.4,1-8.9,1.9-13.5,1.1-3.8-.7-7.4-2.4-10.4-4.9-3.4-2.7-6-6.4-7.3-10.5-.1-.4-.8-.2-.7.2h0Z"/>
      <path class="st28" d="M526.2,366.1c-3.6-1.6-6.2-5.4-10.1-6-.8-.1-1.7,0-2.5.3-.8.4-1.4,1.1-1.5,1.9-.2,1.4,1.1,2.6,2.3,3.1,1.3.6,2.7.9,3.8,1.8,1.4,1.2,1.8,3.2,2.7,4.8,1.6,2.6,5.1,3.7,7.9,2.7"/>
      <path class="st12" d="M526.3,365.8c-2.5-1.1-4.3-3.1-6.6-4.6-2-1.3-5.6-2.6-7.4-.2-.8,1.1-.6,2.5.3,3.5,1,1.1,2.3,1.5,3.6,2,.7.3,1.4.6,2,1.2.5.5.8,1.1,1.1,1.7.6,1.2,1,2.5,1.9,3.5,1.8,2.2,5.1,3.1,7.8,2.1.4-.2.2-.8-.2-.7-2.3.8-4.9.2-6.6-1.4-1.7-1.7-1.9-4.6-4-6.1-1.1-.8-2.4-1.1-3.6-1.7-1.1-.5-2.4-1.5-2.2-2.9.2-1.5,2-2,3.3-1.8,1.2.1,2.3.6,3.4,1.3,2.4,1.4,4.3,3.6,6.8,4.7.4.2.8-.4.4-.6h0Z"/>
      <path class="st27" d="M646.9,366.3c.5,0,13.2,3.2,17.1,15.4,3.9,12.1,12.1,45.7,12,52.1-.2,6.4-2,16.3-13.3,14.6-11.3-1.8-20.5-14.5-20.5-14.5l6.8-18.7-4.6-25.3,2.6-23.4Z"/>
      <path class="st16" d="M650.7,417.4c5.8,1.3,11.2,4.1,15.6,8.1,1.2,1.1,2.4,2.3,3.5,3.6.3.4.8-.2.5-.5-3.8-4.6-8.9-8.2-14.5-10.4-1.6-.6-3.3-1.1-4.9-1.5-.4-.1-.6.6-.2.7Z"/>
      <path class="st27" d="M650.6,423.7l-3.6-57.3-8.8-3.5c-4.7,4-17,3.5-18.2-1.2l-10.4.8c-1.2.1-2.4.3-3.6.6l-1.4.3c-2.8.9-5.3,2.6-7.4,4.7l-23.1,20.2-34-17.1-9,20.4s42.2,23.7,48.2,23.9c2.9.1,11.6-6.2,19.8-12.8h0c1.6,3.9,3.9,9,5.8,13,0,0-.2.1-.2.2-1,.8-2,2-1.8,3.3.2,1.1,1.3,1.8,2.2,2.4,1.1.7,2.5,1.4,3.7.9l41.9,1h0Z"/>
      <path class="st16" d="M602.9,410.6c-4.5-8.2-5.5-18.1-4.2-27.3.3-2.4.8-4.8,1.5-7.1.1-.4-.6-.6-.7-.2-2.6,8.8-2.9,18.6-.3,27.5.7,2.6,1.8,5.1,3.1,7.5.2.4.8,0,.6-.4h0Z"/>
      <path class="st16" d="M650.6,416.6c-.8-10-1.6-19.9-2.5-29.9,0-.5-.7-.5-.7,0,.8,10,1.6,19.9,2.5,29.9,0,.5.7.5.7,0Z"/>
      <path class="st28" d="M650.1,416l-10.5-5.3s-5-4.9-8.5-6.5c-3.4-1.6-6-1.5-8.2-1.5-2.2,0-7.2,1.4-6.1,4.1.7,1.8,2.5,1.1,5.2.7,2.7-.4,6.6,1.1,6.6,1.1,0,0-7.3,3.5-7.8,7.7,0,0-.4,2.5,3.2,2.2,0,0-.4,4,3.5,3.4,0,0,2.9-3.2,5.2-4.5l1.3-.5s-3.5,4.6-3.2,6.1c.3,1.5,1,2.8,2.5,2.4s1.8-3.1,3.6-4c0,0,1.4,2.2,2,3.1.6.9,4.7,4.7,4.7,4.7,0,0,2.1-4,3.6-7.2,1.7-3.7,2.9-6.1,2.9-6.1h0Z"/>
      <path class="st12" d="M625.6,410.8c1.3-1.4,3.1-2.2,5-2.2.5,0,1.1,0,1.6.2.4.1.6-.6.2-.7-2-.5-4.2,0-6,1.1-.5.3-.9.7-1.3,1.1-.3.3.2.8.5.5h0Z"/>
      <path class="st12" d="M624.7,418.9c1.7-2.8,4.2-5.1,7.3-6.4.8-.4,1.7-.6,2.6-.9.4-.1.3-.8-.2-.7-3.3.8-6.4,2.6-8.6,5.2-.6.7-1.2,1.5-1.7,2.4-.2.4.4.7.6.4h0Z"/>
    </g>
  </g>
  <path class="st20" d="M541,124.5c0,2.2-1.9,3.9-4,3.9-2.2,0-3.9-1.9-3.9-4,0-2.2,1.9-3.9,4-3.9,2.2,0,3.9,1.9,3.9,4Z"/>
  <path class="st20" d="M540.7,136.4c0,2.2-1.9,3.9-4,3.9-2.2,0-3.9-1.9-3.9-4,0-2.2,1.9-3.9,4-3.9,2.2,0,3.9,1.9,3.9,4Z"/>
  <path class="st20" d="M540.4,148.3c0,2.2-1.9,3.9-4,3.9-2.2,0-3.9-1.9-3.9-4,0-2.2,1.9-3.9,4-3.9,2.2,0,3.9,1.9,3.9,4Z"/>
  <path class="st1" d="M527.9,168.1l99.9-.2c3.2,0,5.9-2.6,5.9-5.9v-57.5c-.1-3.2-2.7-5.9-6-5.9l-99.9.2c-3.2,0-5.9,2.6-5.9,5.9v57.5c.1,3.2,2.7,5.9,6,5.9Z"/>
  <path class="st11" d="M623.1,127h-30.8c-1.7,0-3-1.3-3-3v-.4c0-1.7,1.3-3,3-3h30.8c1.7,0,3,1.3,3,3v.4c0,1.7-1.3,3-3,3Z"/>
  <path class="st29" d="M623.1,139.8h-15.8c-1.7,0-3-1.3-3-3v-.4c0-1.7,1.3-3,3-3h15.8c1.7,0,3,1.3,3,3v.4c0,1.7-1.3,3-3,3Z"/>
  <path class="st29" d="M576.6,151.6h-15.8c-1.7,0-3-1.3-3-3v-.4c0-1.7,1.3-3,3-3h15.8c1.7,0,3,1.3,3,3v.4c0,1.7-1.3,3-3,3Z"/>
  <path class="st20" d="M595.5,139.8h-15.8c-1.7,0-3-1.3-3-3v-.4c0-1.7,1.3-3,3-3h15.8c1.7,0,3,1.3,3,3v.4c0,1.7-1.3,3-3,3Z"/>
  <path class="st11" d="M622.4,151.9h-30c-1.7,0-3-1.3-3-3v-.4c0-1.7,1.3-3,3-3h30.1c1.7,0,3,1.3,3,3v.4c0,1.7-1.3,3-3,3h0Z"/>
  <path class="st11" d="M578.5,127.1h-30.8c-1.7,0-3-1.3-3-3v-.4c0-1.7,1.3-3,3-3h30.8c1.7,0,3,1.3,3,3v.4c0,1.7-1.3,3-3,3Z"/>
  <path class="st18" d="M522.2,112.7h111.4c1.1,0,1.1-1.7,0-1.7h-111.4c-1.1,0-1.1,1.7,0,1.7Z"/>
  <path class="st18" d="M538.4,105.4c0,1.4-1.1,2.5-2.5,2.5s-2.5-1.1-2.5-2.5,1.1-2.5,2.5-2.5,2.5,1.1,2.5,2.5Z"/>
  <path class="st18" d="M545.6,105.4c0,1.4-1.1,2.5-2.5,2.5s-2.5-1.1-2.5-2.5,1.1-2.5,2.5-2.5,2.5,1.1,2.5,2.5Z"/>
  <path class="st18" d="M552.9,105.4c0,1.4-1.1,2.5-2.5,2.5s-2.5-1.1-2.5-2.5,1.1-2.5,2.5-2.5,2.5,1.1,2.5,2.5Z"/>
</svg>