<?xml version="1.0" encoding="UTF-8"?>
<svg id="Layer_1" xmlns="http://www.w3.org/2000/svg" xmlns:xlink="http://www.w3.org/1999/xlink" version="1.1" viewBox="0 0 841.9 595.3">
  <!-- Generator: Adobe Illustrator 29.8.2, SVG Export Plug-In . SVG Version: 2.1.1 Build 3)  -->
  <defs>
    <style>
      .st0, .st1, .st2, .st3, .st4, .st5, .st6, .st7, .st8, .st9, .st10, .st11, .st12, .st13, .st14, .st15, .st16, .st17, .st18, .st19 {
        fill: none;
      }

      .st20 {
        fill: #b7c8ea;
      }

      .st21 {
        fill: #9ed1a8;
      }

      .st1, .st2, .st3, .st4, .st5, .st6, .st10, .st11, .st12, .st13, .st14, .st15, .st17, .st18 {
        stroke-miterlimit: 10;
      }

      .st1, .st3, .st9, .st22 {
        stroke: #acb6e8;
      }

      .st1, .st4, .st6, .st7, .st8, .st9, .st10, .st11, .st12, .st14, .st17, .st18, .st22, .st19 {
        stroke-width: 1.5px;
      }

      .st23 {
        fill: #4491fd;
      }

      .st23, .st24, .st25, .st26, .st27 {
        isolation: isolate;
      }

      .st23, .st24, .st25, .st27 {
        opacity: .6;
      }

      .st28 {
        fill: #ffeac5;
      }

      .st2 {
        stroke: #554c63;
      }

      .st29 {
        fill: #acb6e8;
      }

      .st4 {
        stroke: #b7c8ea;
      }

      .st30 {
        fill: #342e3d;
      }

      .st5 {
        stroke: #4c4144;
      }

      .st31 {
        fill: #e4e9f4;
      }

      .st6 {
        stroke: #a84f4f;
      }

      .st7 {
        stroke: #c2caef;
      }

      .st7, .st8, .st9, .st16, .st22, .st19 {
        stroke-linejoin: round;
      }

      .st32 {
        fill: #735d9d;
      }

      .st24 {
        fill: #fff6d2;
      }

      .st25, .st33 {
        fill: #ffefe3;
      }

      .st26 {
        fill: #554c63;
        opacity: .3;
      }

      .st34 {
        fill: #dc4f35;
      }

      .st8, .st12 {
        stroke: #fff;
      }

      .st35 {
        fill: #c2caef;
      }

      .st10, .st15, .st16 {
        stroke: #000;
      }

      .st36 {
        fill: #f9b7b7;
      }

      .st37 {
        fill: #f3f9ff;
      }

      .st27 {
        fill: #f7dad7;
      }

      .st38 {
        fill: #4c4139;
      }

      .st11 {
        stroke: #cc8a4a;
      }

      .st39 {
        fill: #21212d;
      }

      .st40, .st22 {
        fill: #fff;
      }

      .st41 {
        fill: #ebeef7;
      }

      .st42 {
        fill: #ffc183;
      }

      .st43 {
        fill: #a85c47;
      }

      .st13 {
        stroke: #d7eaca;
      }

      .st14 {
        stroke: #635245;
      }

      .st44 {
        fill: #19151e;
      }

      .st45 {
        fill: #cc8a4a;
      }

      .st46 {
        fill: #efd5bb;
      }

      .st17 {
        stroke: #eab773;
      }

      .st18 {
        stroke: #ddb78a;
      }

      .st47 {
        fill: #ffe689;
      }

      .st19 {
        stroke: #7984d1;
      }

      .st48 {
        clip-path: url(#clippath);
      }
    </style>
    <clipPath id="clippath">
      <rect class="st0" x="93.4" y="91.8" width="655" height="411.6"/>
    </clipPath>
  </defs>
  <g class="st48">
    <g>
      <path class="st22" d="M691.9,123.6h-293.2v184.9h293.2V123.6Z"/>
      <path class="st29" d="M451.3,118.6h-21.7v9.2h21.7v-9.2Z"/>
      <path class="st9" d="M440.5,123.3v-31.4"/>
      <path class="st29" d="M661,118.6h-21.7v9.2h21.7v-9.2Z"/>
      <path class="st9" d="M650.2,123.3v-31.4"/>
      <path class="st22" d="M532.3,141.8h-100c-6,0-10.9,4.9-10.9,10.9v112.9c0,6,4.9,10.9,10.9,10.9h100c6,0,10.9-4.9,10.9-10.9v-112.9c0-6-4.9-10.9-10.9-10.9Z"/>
      <path class="st28" d="M512.9,201.9c0-16.9-13.7-30.6-30.6-30.6s-30.6,13.7-30.6,30.6,2.4,13.5,6.4,18.7c2.1,3,12.4,17.9,12.4,19.9v2.7c0,1.6,1.3,3,2.9,3h17.8c1.6,0,2.9-1.3,2.9-3v-2.7c0-2,10.3-16.9,12.4-19.9,4-5.2,6.4-11.7,6.4-18.7Z"/>
      <path class="st46" d="M491,250.2h-17.4c-1.1,0-2-.9-2-2s.9-2,2-2h17.4c1.1,0,2,.9,2,2s-.9,2-2,2Z"/>
      <path class="st46" d="M491,254.2h-17.4c-1.1,0-2-.9-2-2s.9-2,2-2h17.4c1.1,0,2,.9,2,2s-.9,2-2,2Z"/>
      <path class="st46" d="M491,258.2h-17.4c-1.1,0-2-.9-2-2s.9-2,2-2h17.4c1.1,0,2,.9,2,2s-.9,2-2,2Z"/>
      <path class="st12" d="M487.9,246.2c.1-10.2-.1-21,5-30.2.8-1.4,2.7-4,4.6-2.7.6.4.8,1.1,1,1.7,1,3.8-.3,7.7-2.2,10.9-1.6,2.7-4.8,7.3-8.5,6.7-2.8-.4-5-3.4-6.2-6.7-2.2-5.8-3.7-13.2-3.8-19.7-.1-6.2,1.4-12.2,4.5-12.2h-.1c3.1,0,4.7,6,4.5,12.2-.1,6.5-1.6,13.8-3.8,19.7-1.4,3.6-4.9,8.3-9.2,5.9-4.9-2.7-8-9.6-8.1-15,0-1.5.5-4.2,2.6-3.7.9.2,1.7,1,2.3,1.7,6.5,8.1,6.1,19.3,6.1,29.1,0,.7,0,1.5,0,2.2"/>
      <path class="st18" d="M473.1,246.2h18.4"/>
      <path class="st18" d="M473.1,250.2h18.4"/>
      <path class="st18" d="M473.1,254.2h18.4"/>
      <path class="st29" d="M484.7,161.8h-4.8v4.8h4.8v-4.8Z"/>
      <path class="st3" d="M506.5,173.4c-6.6-5.8-15.1-9.2-24.2-9.2s-17.6,3.4-24.2,9.2"/>
      <path class="st37" d="M655.5,141.8h-84.7v57.2h84.7v-57.2Z"/>
      <path class="st31" d="M632.1,185.2h-45.8c-.7,0-1.3-.6-1.3-1.3s.6-1.3,1.3-1.3h45.8c.7,0,1.3.6,1.3,1.3s-.6,1.3-1.3,1.3Z"/>
      <path class="st7" d="M497.3,186.1h62.3v-34.8h15"/>
      <path class="st35" d="M499.9,186.1c0,1.5-1.2,2.7-2.7,2.7s-2.7-1.2-2.7-2.7,1.2-2.7,2.7-2.7,2.7,1.2,2.7,2.7Z"/>
      <path class="st35" d="M577.2,151.3c0,1.5-1.2,2.7-2.7,2.7s-2.7-1.2-2.7-2.7,1.2-2.7,2.7-2.7,2.7,1.2,2.7,2.7Z"/>
      <path class="st31" d="M632.1,160.8h-45.8c-.7,0-1.3-.6-1.3-1.3s.6-1.3,1.3-1.3h45.8c.7,0,1.3.6,1.3,1.3s-.6,1.3-1.3,1.3Z"/>
      <path class="st31" d="M632.1,168.9h-45.8c-.7,0-1.3-.6-1.3-1.3s.6-1.3,1.3-1.3h45.8c.7,0,1.3.6,1.3,1.3s-.6,1.3-1.3,1.3Z"/>
      <path class="st31" d="M632.1,177.1h-45.8c-.7,0-1.3-.6-1.3-1.3s.6-1.3,1.3-1.3h45.8c.7,0,1.3.6,1.3,1.3s-.6,1.3-1.3,1.3Z"/>
      <path class="st35" d="M617.7,152.6h-31.4c-.7,0-1.3-.6-1.3-1.3s.6-1.3,1.3-1.3h31.4c.7,0,1.3.6,1.3,1.3s-.6,1.3-1.3,1.3Z"/>
      <path class="st37" d="M629.5,264.9h-71.5v32h71.5v-32Z"/>
      <path class="st7" d="M484.1,258.6v30.5h64"/>
      <path class="st35" d="M486.6,258.6c0,1.5-1.2,2.7-2.7,2.7s-2.7-1.2-2.7-2.7,1.2-2.7,2.7-2.7,2.7,1.2,2.7,2.7Z"/>
      <path class="st35" d="M550.8,289.1c0,1.5-1.2,2.7-2.7,2.7s-2.7-1.2-2.7-2.7,1.2-2.7,2.7-2.7,2.7,1.2,2.7,2.7Z"/>
      <path class="st31" d="M618.7,282.6h-54c-.7,0-1.3-.6-1.3-1.3s.6-1.3,1.3-1.3h54c.7,0,1.3.6,1.3,1.3s-.6,1.3-1.3,1.3Z"/>
      <path class="st31" d="M618.7,290.8h-54c-.7,0-1.3-.6-1.3-1.3s.6-1.3,1.3-1.3h54c.7,0,1.3.6,1.3,1.3s-.6,1.3-1.3,1.3Z"/>
      <path class="st35" d="M588.4,274.5h-24c-.7,0-1.3-.6-1.3-1.3s.6-1.3,1.3-1.3h24c.7,0,1.3.6,1.3,1.3s-.6,1.3-1.3,1.3Z"/>
      <path class="st37" d="M665.9,213.5h-83.2v45h83.2v-45Z"/>
      <path class="st7" d="M479.7,204.3h47.6v16.5h67.2"/>
      <path class="st35" d="M482.3,204.3c0,1.5-1.2,2.7-2.7,2.7s-2.7-1.2-2.7-2.7,1.2-2.7,2.7-2.7,2.7,1.2,2.7,2.7Z"/>
      <path class="st35" d="M597.1,220.8c0,1.5-1.2,2.7-2.7,2.7s-2.7-1.2-2.7-2.7,1.2-2.7,2.7-2.7,2.7,1.2,2.7,2.7Z"/>
      <path class="st31" d="M657.4,231.6h-54c-.7,0-1.3-.6-1.3-1.3s.6-1.3,1.3-1.3h54c.7,0,1.3.6,1.3,1.3s-.6,1.3-1.3,1.3Z"/>
      <path class="st31" d="M657.4,239.7h-54c-.7,0-1.3-.6-1.3-1.3s.6-1.3,1.3-1.3h54c.7,0,1.3.6,1.3,1.3s-.6,1.3-1.3,1.3Z"/>
      <path class="st31" d="M657.4,247.9h-54c-.7,0-1.3-.6-1.3-1.3s.6-1.3,1.3-1.3h54c.7,0,1.3.6,1.3,1.3s-.6,1.3-1.3,1.3Z"/>
      <path class="st35" d="M627.4,223.4h-24c-.7,0-1.3-.6-1.3-1.3s.6-1.3,1.3-1.3h24c.7,0,1.3.6,1.3,1.3s-.6,1.3-1.3,1.3Z"/>
      <path class="st37" d="M273.8,221.4c24.8,0,45-20.1,45-45s-20.1-45-45-45-45,20.1-45,45,20.1,45,45,45Z"/>
      <path class="st7" d="M304.5,155.7c4,5.9,6.3,13,6.3,20.7,0,20.5-16.6,37-37.1,37s-37.1-16.6-37.1-37,16.6-37,37.1-37,6.2.4,9.1,1.1"/>
      <path class="st9" d="M298.7,170.3l-24.9,6.1-17-10.2"/>
      <path class="st9" d="M273.8,141.8v6.6"/>
      <path class="st9" d="M273.8,203.2v6.5"/>
      <path class="st9" d="M307.7,175.8h-6.5"/>
      <path class="st9" d="M246.4,175.8h-6.6"/>
      <path class="st8" d="M258.4,202.4l-1.6,2.8"/>
      <path class="st8" d="M290.8,146.4l-1.6,2.8"/>
      <path class="st8" d="M247.2,191.2l-2.8,1.6"/>
      <path class="st8" d="M303.2,158.8l-2.8,1.6"/>
      <path class="st8" d="M289.1,202.4l1.6,2.8"/>
      <path class="st8" d="M256.8,146.4l1.6,2.8"/>
      <path class="st8" d="M300.4,191.2l2.8,1.6"/>
      <path class="st8" d="M244.4,158.8l2.8,1.6"/>
      <path class="st24" d="M560.4,329.8h-157.5c-7.9,0-14.2,6.4-14.2,14.2s6.4,14.2,14.2,14.2h157.5c7.9,0,14.2-6.4,14.2-14.2s-6.4-14.2-14.2-14.2Z"/>
      <path class="st25" d="M729.3,134.4h-56.9v27.4h56.9v-27.4Z"/>
      <path class="st25" d="M221.5,212.4h-96.5v16.6h96.5v-16.6Z"/>
      <path class="st23" d="M350.7,125.8c0,17.4,14.2,31.6,31.6,31.6v-63.2c-17.5,0-31.6,14.1-31.6,31.6Z"/>
      <path class="st1" d="M158.9,188.8c0,1.7-1.4,3-3,3s-3-1.4-3-3,1.4-3,3-3,3,1.4,3,3Z"/>
      <path class="st1" d="M305.4,293.8c1.7,0,3-1.4,3-3s-1.4-3-3-3-3,1.4-3,3,1.4,3,3,3Z"/>
      <path class="st1" d="M560.9,370.6c0,1.7-1.4,3-3,3s-3-1.4-3-3,1.4-3,3-3,3,1.4,3,3Z"/>
      <path class="st1" d="M285.5,260.8v6.5"/>
      <path class="st1" d="M288.8,264.1h-6.5"/>
      <path class="st1" d="M586.1,104.3v6.5"/>
      <path class="st1" d="M589.4,107.5h-6.5"/>
      <path class="st1" d="M586,339.6v6.5"/>
      <path class="st1" d="M589.3,342.9h-6.5"/>
      <path class="st27" d="M289.5,118.6l6.4-8.1-13.4-6.2,7,14.3Z"/>
      <path class="st27" d="M161.2,233.1l-14.6-14-14.6,24.9,29.2-10.9Z"/>
      <path class="st33" d="M335.3,222.1l-7.9,16.5,25.5,5.6-17.5-22.1Z"/>
      <path class="st45" d="M464.2,409.6s5.6,18.8,7,22.1c1.4,3.3,34.3,71,34.3,71h-69.2s-27.6-39.8-34-55.3c-6.4-15.5-7.2-49.7-7.2-49.7"/>
      <path class="st45" d="M363.5,395.9l-7.2,23.6s-6.5,29.8-3.2,48.7c3.3,19,5,34.5,5,34.5h68.6l-8.4-52.5,2.8-42.8"/>
      <path class="st17" d="M374.6,395.9l-7.2,23.6s-6.5,29.8-3.2,48.7c3.3,19,5,34.5,5,34.5"/>
      <path class="st10" d="M423.8,484.2c-.2-1.2-3.4-30.5-3.4-30.5"/>
      <path class="st17" d="M422.1,416.4l-1.7,22.6s5.3-.1,7-1.6c1.6-1.5,5.2-20.9,5.2-20.9"/>
      <path class="st17" d="M443.7,416.4s10.4,17.1,18,19.8c7.6,2.6,13.2,3.2,13.2,3.2"/>
      <path class="st17" d="M361.3,449.3l19.5-9.5s8.7-6.9,18.6-27.4"/>
      <path class="st36" d="M409,221.1l-13.8,8,2,8.7-5.6,14.4-16.4,5.2s31,21.3,39.2,22.7c10.6,1.9,25.6-16.9,25.6-16.9l-8.7-3.8,5.2-19.7"/>
      <path class="st36" d="M442.7,222.7c-2.6-7.2-5.3-17.1-8.3-22.3-2.5-4.5-6.7-10.9-11.5-12.9-6.1-2.6-13,.9-19.1,3.3-10,3.9-12,15.9-10.6,25.3,1.1,7.3,3.3,14.1,8.6,19.4,8.6,8.6,26.3,12.8,36.3,4,4.8-4.2,7.3-8.7,4.5-16.7h0Z"/>
      <path d="M421.4,211.8c.6,1.2.3,2.4-.6,2.9-.9.4-2-.2-2.6-1.3-.6-1.2-.3-2.4.6-2.9.9-.4,2,.2,2.6,1.3Z"/>
      <path d="M437.1,207.2c.6,1.2.3,2.4-.6,2.9-.9.4-2-.2-2.6-1.3-.6-1.2-.3-2.4.6-2.9s2,.2,2.6,1.3Z"/>
      <path class="st15" d="M427.9,207.3c1.7,2.9,4,5.5,5.7,8.4.3.5.6,1.2.6,1.8,0,1.9-2.6,2.7-4,3.4"/>
      <path class="st34" d="M395.6,241.7s7.5-7.3,8.2-11c1.5-7.5-1.4-19.5.1-27.1,7.5-2.6,12.5-4.4,20-7,2.8-1,5.6-2,8.3-3.3,1.9-.9,3.6-2.1,4.9-3.7,1.2-1.4,1.9-3.1,2.5-4.9.6-1.9,1.1-3.8,1-5.8-.3-4.4-4.5-8.3-9.2-8.6-3.2-.2-6.4,1.2-8.5,3.4-1.2,1.3-3.1,1.5-4.7.9-.2,0-.4-.2-.7-.2-1.6-.4-3.3,0-4.9.6-3.5,1.3-5.8,5.4-8.3,7.9-1.7,1.8-3.5-.6-7.4.6-12.2,3.9-18.2,13.1-19.9,23.7-1.8,11.5,3.9,23.8,12.9,30.9,1.8,1.4,5.7,3.4,5.7,3.4h0Z"/>
      <path class="st15" d="M411.6,240.8c3.5,3.1,14,6.4,23.5,1.1"/>
      <path class="st15" d="M410.4,209c.6-1.6,1.3-3.2,2.5-4.4,1.8-1.8,3.9-1.7,6-.9"/>
      <path class="st15" d="M430,200.4c.2-.9.6-1.8,1.2-2.5,1.6-1.8,3.7-.3,5,1.1"/>
      <path class="st6" d="M426.4,211.6c1.1,3.7-1,7.7-4.7,8.8-3.7,1.1-7.7-1-8.8-4.7-1.1-3.7,1-7.7,4.7-8.8,3.7-1.1,7.7,1,8.8,4.7Z"/>
      <path class="st6" d="M441.9,206.9c1.1,3.7-.2,7.5-2.9,8.3-2.8.8-5.9-1.5-7.1-5.3-1.1-3.7.2-7.5,2.9-8.3,2.8-.8,5.9,1.5,7.1,5.3Z"/>
      <path class="st6" d="M431.5,207.9l-6.1,1.9"/>
      <path class="st6" d="M412.6,214.7l-12.6,9.7"/>
      <path class="st36" d="M408.7,223c-1.3-3.4-6.9-4.4-9.5-2.2-6.3,5.2.9,17.3,8.1,16.1,2-.3,4.5-2.1,4.4-4.5"/>
      <path class="st15" d="M400.8,226.7l8.3,3.4"/>
      <path class="st15" d="M403.9,219.9c1.8.4,3.6,1.3,4.9,2.7"/>
      <path class="st15" d="M398.9,233c1.9,2.4,4.9,4.7,8.1,4.1,2.2-.4,4.3-2.2,4.3-4.7"/>
      <path class="st15" d="M426.2,223.1c.3,1.8,1,5.3,4.6,4.1,1.1-.4,2-1.2,2.5-2.1"/>
      <path class="st38" d="M384.2,253.6s20.1,24.6,35,23.9c9.9-.4,17.4-15.8,17.4-15.8,0,0,18.7,2.5,24.9,5.8,6.2,3.3-3,51.4-.7,67.8,2.3,16.4,8.5,84.2,8.5,84.2h-114.2s-14.3-81.8-11.5-112.5c2.8-30.7,11.7-45.2,18.2-48.9,6.5-3.7,22.5-4.4,22.5-4.4h0Z"/>
      <path class="st14" d="M375.3,256.1c7.8,10.9,21.6,24.1,33.6,29.9,6.5,3.1,17.2,2.5,23.3-1.1,7.7-4.5,15.1-21.2,15.1-21.2"/>
      <path class="st38" d="M459.6,266.8c5.9,2.2,11.6,5.7,15.3,10.9,3.9,5.4,5.3,12.1,6.4,18.6,2.3,13.6,3.3,27.5,3.1,41.3-.2,13.5-.9,29.4-3.8,42.7-3.5,15.8-13.6,25.5-30.1,25.8-15.6.3-31.4-5.6-45.8-11.1-8.1-3.1-16.1-6.4-23.9-10.1l16.6-40.9,43.9,7.9s8.2-42.2,16-55.4"/>
      <path class="st14" d="M454.4,303c7.4-6,16.8-9.5,26.3-8.9"/>
      <path class="st10" d="M397.4,344.1l43.9,7.9s8.2-42.2,16-55.4"/>
      <path class="st10" d="M467.4,401.3c-4.6,3-10.2,4.6-16.8,4.8-15.6.3-31.4-5.6-45.8-11.1-8.1-3.1-16.1-6.4-23.9-10.1"/>
      <path class="st10" d="M440.4,351.8c8.2,1.4,16.3,4,23.8,7.5"/>
      <path class="st36" d="M400.5,265.8c4.1-5.3,7.9-10.9,12.3-16,3.2-3.6,6.8-6.7,10.9-9.2,4-2.5,8.7-4.8,13.4-5.2,3.1-.3,5.6,1.7,7.8,3.6,1.3,1.1,2.6,2.3,3.9,3.4.3.2.5.5.6.8.1.7-.7,1.1-1.4,1.3-1,.3-1.6-.1-2.7-.2.9.5,1.5,1.5,1.8,2.2.4,1,.3,1.5-.2,2.5,1.1.2,1.9,1.1,2.2,2.1.3,1.1,0,2.2-.4,3.2-.1.3-.2.5-.2.8,0,.3.3.6.6.9,4.7,5.1-3.1,11.4-7.4,13.4-.3.1-.6.3-1,.3-.6,0-1.1-.6-1.2-1.2-.1-.6,0-1.2.1-1.8-6.3,6.6-6.2,14.5-14.4,18.2"/>
      <path class="st15" d="M400.5,265.8c4.1-5.3,7.9-10.9,12.3-16,3.2-3.6,6.8-6.7,10.9-9.2,4-2.5,8.7-4.8,13.4-5.2,3.1-.3,4,.8,4,.8"/>
      <path class="st15" d="M445.8,244.5c-2.6-1.5-3.6-2.3-6.5-2.8-3-.5-6.9.5-9.4,2"/>
      <path class="st15" d="M446.9,249s-3.2-1.1-7.6-.6c-2.6.3-5.9,1.7-5.9,1.7"/>
      <path class="st15" d="M448.5,255.2c-2.1-.4-4.3-.5-6.4,0-2,.4-3.8,1.3-5.6,2.2"/>
      <path class="st15" d="M439.7,266.7l6.7-5.9"/>
      <path class="st38" d="M367,256.1c-8.5,2-29.4,9-35.7,32-5.9,21.5-3,43.3.6,60.8,3.6,17.4,14.6,51.3,30.6,54.8,22.3,4.9,33.1-2.3,51.5-49.4s23.9-71.7,23.9-71.7l-39.4-19.4s-40.3,60.5-44.4,81.3"/>
      <path class="st14" d="M386.4,282l44.2,21.9"/>
      <path class="st10" d="M398.4,263.2s-40.3,60.5-44.4,81.3"/>
      <path class="st10" d="M350.7,395.2c3.5,4.4,7.5,7.5,11.8,8.5,22.3,4.9,33.1-2.3,51.5-49.4,18.3-47,23.9-71.7,23.9-71.7"/>
      <path class="st14" d="M336.8,276.5c6.5-.4,12.9,1.5,18.6,4.8,5.7,3.2,10.6,7.7,15.2,12.5"/>
      <path class="st10" d="M368.9,288.1c1.6,5.4,3.6,16.5,3.6,16.5"/>
      <path class="st21" d="M216.9,478.7c3.9-23.8,3.6-47.6,3.1-71.7-.5-24.6-1.1-49.3-4.2-73.7-1.9-15.1-4.9-30-9.2-44.6-.1,1.9-.7,3.7-1.6,5.3-.3.6-.7,1.2-1.3,1.4-4.3,1.4-4.6-13.1-4.6-15.3,0-3,.2-6.1-.4-9.1-.5-2.5-1.6-4.9-2.8-7.1-3.1-5.8-7.2-11.2-11.9-15.7-2.4-2.3-5.3-4.6-8.6-5.1-8-1.2-13.8,7.8-15.6,14.7-2,7.8-2.3,17.2-.8,25.1,3.2,16.6,3.5,33.8,5.5,50.7,2.1,17.1,4.8,34.1,8.1,51,6.1,31.3,11.9,62.6,17.5,94.1"/>
      <path class="st21" d="M229.1,488.2c14.9-25.5,30-51.2,38.1-78.6,8.2-27.4,9-56.9-4-82.9-2.5-4.9-7-15.2-14.8-15.9-10.7-.9-12.6,7.1-14.5,13.6-2.7,9.5-5.3,19-7.8,28.6-10.5,41.2-18.1,82.4-17.3,124.5"/>
      <path class="st13" d="M249,340.8c-1.5,49-9.5,97.8-23.7,145.5"/>
      <path class="st13" d="M177.2,273.4c14.5,65.9,20.2,135.9,25.9,205.5"/>
      <path class="st13" d="M161.9,296.4s18.5,28.8,25.6,33.8"/>
      <path class="st13" d="M197.8,416.7s-19.1-23.5-25.1-31.9"/>
      <path class="st13" d="M192.5,366.5s17.4-29.8,21.6-44.9"/>
      <path class="st13" d="M185.7,315.7s9.4-33,10.2-51.6"/>
      <path class="st13" d="M242.6,408.3s27.5-28.2,30.9-39.9"/>
      <path class="st13" d="M244.7,393.9s-17.2-15.9-19.6-21.1"/>
      <path class="st21" d="M144.4,407.7c-5.4-8.3-11.2-16.4-18.2-23-7-6.7-15.4-11.9-24.6-13.6-1.5-.3-3.1-.5-4.5.2-2.7,1.2-3.6,4.8-3.6,8-.1,7.9,2.6,15.1,5.6,22.3,3.2,7.7,6.7,15.3,10.6,22.7,7,.5,13.8,3.6,18.8,8.5,1.1,1,2.1,2.4,1.8,3.9-.4,1.7-2.5,2.4-4.3,2.6-2.6.3-7.7-.2-7.7-.2,0,0,7.9,14.7,47.2,45.4l16.1-7.3c-10.7-24.1-22.9-47.5-37.1-69.3ZM123.2,395c-.2,3.2-3.5,0-4.4-1-2-2-4.4-4.7-5.4-7.4-.4-1.1-1.1-3.9.3-4.5,1.3-.5,4,1.6,4.9,2.4,2.6,2.5,4.6,6.2,4.7,9.9v.6h0Z"/>
      <path class="st13" d="M107.7,386.9c21.9,31.6,45.1,71.3,69.2,101"/>
      <path class="st13" d="M124.3,447s14.7,1.4,24.8,2.6"/>
      <path class="st21" d="M187.7,420.9c-4.4-21.8-10.2-43.4-17.6-64.4-4.8-13.7-10.2-27.9-20.3-38.7,0,2.8-.5,5.5-1.5,8.1-.9,2.4-3.8,4.9-5.7,1.8-1.8-3-1.2-8.1-.8-11.4.2-2.3,1-4.6.6-6.9-.9-4.3-4.6-8.9-7.5-12-3.2-3.4-7.2-6.1-11.6-7.5-2.4-.7-5-1.1-7.3-.3-4.7,1.6-6.7,7-8.2,11.8-1.1,3.6-1.6,6.5,0,10.2,2.3,5.5,6.3,10.3,8.9,15.6,1.5,3,5,8.5,3.1,11.9-4.1-.9-7.2-4.2-10.1-7.2,1.4,5.6,5.2,18.8,5.9,20.6,11.4,32,22.4,49.5,37.4,80,2.4,4.9,4.8,9.8,7.3,14.7,6.7,13.6,12.1,28,17.3,42.3l20.4-6.5c-3.6-20.6-5.9-41.4-10-62h0ZM138.4,370.6c-.5,0-1-.3-1.5-.6-3.6-2.4-6.4-6-9-9.7-1.6-2.3-3.3-4.9-4-7.8-1-3.7.9-6.6,4.2-3.8,4.1,3.6,8.7,6.7,10.7,12.4,1.4,3.9,2.5,9.3-.4,9.5Z"/>
      <path class="st16" d="M218.9,379.8c.9,34.6-.2,69.2-3.2,103.7"/>
      <path class="st13" d="M125.8,309.6c22.1,49.5,47.6,114,60.1,168.5"/>
      <path class="st13" d="M124.3,375.1s27.8,13.4,36.3,19.9"/>
      <path class="st13" d="M173.2,431.9s-19.9-9-28.6-12.2"/>
      <path class="st16" d="M132.5,391.3s22.5,55.8,42.4,88.1"/>
      <path class="st13" d="M153.1,375.1s9-19,10.5-32.1"/>
      <path class="st16" d="M154.9,322.5c27.4,56.4,32.7,106.6,44.2,157"/>
      <path class="st41" d="M139.2,502h100.8v-31.5h-100.8v31.5Z"/>
      <path class="st47" d="M285.3,388.7c9.7,39.6,25.1,114,25.1,114h-113.5l-18.1-104.7,24.8-40.5s18.1-4.8,20.9-7.3c2.8-2.5,34,2.4,34,2.4l21.6,8.1,5.1,28Z"/>
      <path class="st43" d="M332.4,377.4c4.3-14.8,10.6-25,16.7-31.9,6-6.7,11.9-13.1,19.4-18,1.7-1.1,3.4-2.1,5.1-3.1,2.1-1.2,4.2-2.4,6.4-3.1.6-.2,1.3-.3,1.7.2.2.2.2.6.2.9,0,2.9-2.2,5.2-4.3,7.2-1.9,1.8-3.9,3.7-5.8,5.5-1.9,1.8-3.9,3.7-4.7,6.2,1.4-1.2,3.5-1.4,5.1-.6,1.6.8,2.6,2.7,2.5,4.5,1.3-.8,3.1-.7,4.3.2,1.3.9,1.9,2.5,1.7,4,.7-.4,2.4,0,3,.6,2.9,2.5.7,6.6-.6,9.4-.9,1.9-2.9,4.5-4.3,4-2.5,3.8-3.9,8.7-6.5,11.6-4,4.4-7,7.1-9.4,12.7"/>
      <path class="st43" d="M347.7,352.1c3.3-3.9,8.4-5.6,13.3-7.1,1.9-.6,3.9-1.2,5.8-1.8.5-.2,1.1-.3,1.6,0,.4.2.5.7.6,1.1.4,2.4-1.1,4.8-3,6.3-1.9,1.5-4.2,2.6-6.1,4.2-.4.3-.8.7-1.1,1.2-.5,1-.2,2.1,0,3.2,1.7,6.9,1.2,14.4-1.2,21.1"/>
      <path class="st15" d="M347.7,352.1c3.3-3.9,8.4-5.6,13.3-7.1,1.9-.6,3.9-1.2,5.8-1.8.5-.2,1.1-.3,1.6,0,.4.2.5.7.6,1.1.4,2.4-1.1,4.8-3,6.3-1.9,1.5-4.2,2.6-6.1,4.2-.4.3-.8.7-1.1,1.2-.5,1-.2,2.1,0,3.2,1.7,6.9,1.2,14.4-1.2,21.1"/>
      <path class="st15" d="M374.5,345.4c-.3,1-.6,1.9-.8,2.9-.4,1.4-.8,2.8-1.4,4.2-.6,1.5-1.6,3-3.2,3.6-1.2.4-2.5.2-3.5-.5-1-.7-1.6-2-1.6-3.2"/>
      <path class="st15" d="M380.7,349.6c-.5,2.1-1.2,4.5-2.2,6.4-.5.9-1,1.8-1.7,2.5-.7.7-1.7,1.3-2.7,1.3-1.1,0-3.8-.3-4.9-3.8"/>
      <path class="st15" d="M374.8,359.8c.4.9,1,1.7,1.7,2.3.6.6,1.5,1.2,2.5,1.2"/>
      <path class="st47" d="M251.7,351.9c8.7.9,17.4,1.8,25.8,4,11.6,3,20.1,7.8,26.3,18.4,3.5,6,16.6,29,16.6,29l13.2-33.4,40.8,13.9s-17.1,62.3-20.7,72.2c-3.6,9.9-12,24.9-25.2,24-13.2-.9-19.8-6.9-28.5-20.1-8.7-13.2-32.2-52.2-32.2-52.2"/>
      <path class="st11" d="M284.4,400h-24.5s2.9,14.5,4.3,18.1c1.5,3.6,5.3,8.3,13.8,8.3s10.3-5.6,9.5-11.1c-.8-5.6-3-15.3-3-15.3h0Z"/>
      <path class="st11" d="M261.5,405.8h24.1"/>
      <path class="st11" d="M210.8,355.3c2.3,10.5,11.9,15.8,21.6,17.2"/>
      <path class="st11" d="M240.4,373.4c7.4.6,15.4-1.2,20-6.3,4-4.5,4.4-8.2,3.5-13.7"/>
      <path class="st10" d="M302.1,463.2s-12.2-62.2-12.2-71.7"/>
      <path class="st10" d="M320.4,403.2s-15,27.4-15,36.6"/>
      <path class="st11" d="M328.7,382.3l41.6,16.4"/>
      <path class="st43" d="M229.2,323.5l-11.7,9.8,3.4,7.9-2.9,14.6s7.8,12.3,23.8,12.3,16.8-12.1,16.8-12.1l-2-19.1"/>
      <path class="st43" d="M267.6,326.7c-.3-7.4-2.8-15.1-4.9-20.5-1.8-4.6-5.2-11.2-9.5-13.7-5.6-3.2-12.5-.6-18.6,1-10,2.6-13.3,13.7-13,22.9.2,7,1.5,13.9,6,19.5,7.2,9.2,22.2,15.7,32.9,8.6,5.8-3.9,7.5-10.6,7.2-17.8h0Z"/>
      <path d="M249,316.9c.6,1.1.5,2.3-.3,2.8-.8.5-2,0-2.6-1-.6-1.1-.5-2.3.3-2.8.8-.5,2,0,2.6,1Z"/>
      <path d="M264.1,313c.6,1.1.5,2.3-.3,2.8-.8.5-2,0-2.6-1-.6-1.1-.5-2.3.3-2.8.8-.5,2,0,2.6,1Z"/>
      <path class="st15" d="M256.4,312.8s2.4,5.3,3.7,6.9c.9,1.2,2.7,3.1,1.1,4.5-1,.9-3.9,1.7-3.9,1.7"/>
      <path class="st40" d="M259.5,330.4l-8-2.9s-2.2,7.7.9,8.9c5,2,7.1-6.1,7.1-6.1Z"/>
      <path class="st39" d="M220.8,341.2s3.1-13.9,1.9-21.4c6-.4,11.7-3.6,15.2-8.4,1.5-2.2,2.7-4.6,4.1-6.8,3.4-5,9.4-7.6,15.4-7.6,1.5,2,3.3,4.9,4.3,7.4,5.3-3.9,6.6-11.4,6.1-17.9-.3-3.5-1.6-7-4-9.6-2.4-2.6-5.9-4.2-9.5-4-6.3.4-10.9,5.9-16.5,8.7-5.7,2.8-12.5,2.7-18.3,5.3-8,3.5-14.3,11.5-16.8,19.8-1.7,5.8-1.4,12.3.9,17.9,1.8,4.4,4.7,8.3,8.5,11.2.7.5,8.7,5.5,8.7,5.5Z"/>
      <path class="st43" d="M232.4,323.8c-1-3.8-6.8-5.6-9.9-3.6-7.5,4.8-1.3,18.7,6.6,18.4,2.2-.1,5.1-1.7,5.3-4.3"/>
      <path class="st15" d="M223.4,326.8l8.5,4.7"/>
      <path class="st15" d="M227.7,319.9c1.9.6,3.7,1.9,4.9,3.5"/>
      <path class="st15" d="M220.7,333.3c1.8,2.9,4.7,5.7,8.2,5.4,2.4-.2,4.9-1.8,5.3-4.5"/>
      <path class="st15" d="M240.6,345.5c.3,0,8.1,4.5,17.8.4"/>
      <path class="st15" d="M257.4,296.5c1.7-.2,3.3-.6,4.7-1.5,1.4-.9,2.6-2.3,2.9-3.9"/>
      <path class="st39" d="M247.5,308.1c-1.9,0-5.2,2.1-5.8,2.6-.6.5-1.9,2.3,0,2.1,1.1-.1,1.2,0,2.1-.4,1.2-.6,2.7-.8,3.9-1.3.7-.3,1.1-1.1,1.1-1.8,0-1-.6-1.3-1.4-1.3h0Z"/>
      <path class="st39" d="M257.7,305.8c1.4-.7,4.4-.3,5,0,.8.2,1.5.9,1.6,1.8,0,.6-.7.9-1.2.8-1.7-.4-2.8.2-4.5.3-.6,0-1.2-.6-1.4-1.1-.4-.9-.1-1.4.5-1.7h0Z"/>
      <path class="st44" d="M338.1,476.4l-43.3-4.7c-1.1-.1-1.8-1.2-1.5-2.3l14.3-56.5c.3-1.2,1.4-2,2.6-1.9l43.3,4.7c1.1.1,1.8,1.2,1.5,2.3l-14.3,56.5c-.3,1.2-1.4,2-2.6,1.9Z"/>
      <path class="st30" d="M341.2,476.7l-43.3-4.7c-1.1-.1-1.8-1.2-1.5-2.3l14.3-56.5c.3-1.2,1.4-2,2.6-1.9l43.3,4.7c1.1.1,1.8,1.2,1.5,2.3l-14.3,56.5c-.3,1.2-1.4,2-2.6,1.9Z"/>
      <path class="st2" d="M321.2,428.1l-8.4-.9c-.7,0-1.1-.7-.9-1.4l2.1-8.1c.2-.7.9-1.2,1.6-1.2l8.4.9c.7,0,1.1.7.9,1.4l-2.1,8.1c-.2.7-.9,1.2-1.6,1.2Z"/>
      <path class="st44" d="M319.4,420.9c-.2,1-1.2,1.7-2.2,1.6-.9-.1-1.5-1-1.3-2,.2-1,1.2-1.7,2.2-1.6.9.1,1.5,1,1.3,2Z"/>
      <path class="st26" d="M332.8,440.6c-.4,1.3-2.3,2.1-4.4,1.7-2-.4-3.4-1.8-3-3.1.4-1.3,2.3-2.1,4.4-1.7,2,.4,3.4,1.8,3,3.1Z"/>
      <path class="st43" d="M265,458.8c5.6-.8,11.2-1.9,16.7-3.5,4.5-1.3,9.6-3.1,13-6.5,1.1-1.1,2-2.4,2.9-3.7.4-.5.8-1.1,1.5-1.1s.8.3,1.2.6c1.2,1.3,1.2,3.1.9,4.8-.4,1.8-1.2,3.4-2.2,4.9-1.1,1.5-2.1,3.2-2,5,0,.6,5.9,0,6.3,0,2.5-.3,4.9-1,7.2-1.7,4.4-1.4,8.7-3.2,13.2-3.8,1.1-.1,2.5,0,2.7,1,.3,1.2-1.1,2-1.7,3,.9.2,1.9-.2,2.9-.4.9-.2,2.1-.2,2.6.7.6,1-.3,2.3-1.2,3.2,1.3.7,1,2.7.2,3.9-.8,1.2-2.7,2.9-2.7,2.9,0,0,2.5-.5,2,1.5,0,.2-.1.3-.2.4-6.3,7.4-12.3,13.1-21.1,17-4.3,1.9-9,3.1-15.4,4.5-6.6,1.5-14,2.5-20.8,3.6"/>
      <path class="st15" d="M298.7,459.5c-4-.1-7.4-.2-11.3-.1"/>
      <path class="st15" d="M324.6,457.9c-2.5,2.3-5.6,3.8-8.7,5.3-1.4.6-2.7,1.3-4.1,1.9-3.5,1.5-7.1,2.6-10.8,3.4"/>
      <path class="st15" d="M329.4,460.9c-7.5,6.4-15.8,11.4-24.6,14.7"/>
      <path class="st15" d="M327.3,467.2c-6.3,5.6-13.5,10.3-21.2,13.6"/>
      <path class="st47" d="M208.4,356.4c-17.6,4.6-26.8,4.6-38.6,22.5-7.7,11.7-8.4,26.8-8.3,40.8.1,15.6,1.2,31.3,4.3,46.5,2.7,13.2,6.5,36.5,31.2,36.5h80.6l-9.8-44.5-51-2.3s-10-48.1-13.7-55.9"/>
      <path class="st10" d="M218.9,456s-16.9-1-23,2.2"/>
      <path class="st11" d="M257.5,502.7l-8.4-46.1"/>
      <path class="st10" d="M203,400.1c3.7,7.8,13.7,55.9,13.7,55.9l51,2.3"/>
      <path class="st32" d="M611.9,375.6c-1.9-1.6-3.8-3.1-4.2-5.6-.9-5.1,1.4-10.3,5.3-13.7,8.2-7.2,18.9-11.8,30-13,4.9-.5,9.8-.4,14.8,0,10.2.6,20.6,2,29.7,6.3,9.1,4.4,16.9,12.2,18.6,21.7.9,5.1,1.1,11.2-2.1,15.7-1.7,2.5-4.4,4.3-7.3,5.4-6.2,2.5-13.3,3.1-20,3"/>
      <path class="st36" d="M649.6,343.7l12.7,8.4-2.4,8.2v13.9c-.1,0,15.3,5.9,15.3,5.9,0,0-31,18.6-38.9,19.5-10.2,1.2-24.5-24-24.5-24l5.3-3.1,5-12.7"/>
      <path class="st36" d="M614.5,342.4c2.4-7,5.1-16.4,7.9-21.5,2.4-4.3,6.5-10.5,11-12.4,5.9-2.5,12.5.9,18.4,3.2,9.6,3.7,11.6,15.2,10.2,24.3-1,7-3.2,13.6-8.3,18.7-8.3,8.3-25.2,12.4-34.9,3.9-4.6-4-7.1-8.4-4.4-16.1Z"/>
      <path class="st38" d="M654.7,335.3c-5,1.7-9.7,4.8-13.3,8.9-.3.4-.6.7-1.1.8-.3,0-.7,0-1-.1-7.4-2.1-23-7.8-23-7.8,0,0-1.7,4.6-2.1,6.3-1,3.7-3.4,9.7-2.5,13.5,1.3,5.4,10.4,8.7,15.9,9.5,6.7.9,10.4.8,16.1-2.5,5.6-3.3,17.3-12.6,17.3-12.6"/>
      <path d="M634.5,334.5c-.5,1.1-.3,2.3.6,2.7.8.4,2-.2,2.5-1.3.5-1.1.3-2.3-.6-2.7-.8-.4-2,.2-2.5,1.3Z"/>
      <path d="M620.5,328.8c-.5,1.1-.3,2.3.6,2.7.9.4,2-.2,2.5-1.3.5-1.1.3-2.3-.6-2.7-.8-.4-2,.2-2.5,1.3Z"/>
      <path class="st15" d="M628.7,327.6c-1,1.7-2.1,3.3-3.4,4.8-1.1,1.4-2.5,2.6-3.1,4.3-.8,2.3,2.5,3.2,4,3.9"/>
      <path class="st38" d="M659.8,360.7s-7.2-7-7.9-10.5c-.9-4.5.3-9.1.2-13.7,0-2.1-.2-4.5-1.1-6.4-1.1-2.1-3-3.9-4.8-5.4-2.9-2.3-6.3-4.2-9.6-5.8-1.8-.8-5.5-2.3-7.5-2.3-3.5.9-6.3,4.2-8.5,8.2-3.2-6.5-4.6-14-3-21.1.2-.9.4-1.8.9-2.6,1.1-1.8,3.1-2.8,5.2-3,2.1-.3,4.1.1,6.2.5.6.1,1.3.2,1.9,0,1-.3,1.5-1.3,2.1-2.2,2.2-3.7,6.4-6.6,10.7-6.1.8,0,1.5.3,2.2.6,3.1,1.7,2.9,6.3,5.2,8.9.2.2.4.4.6.4.6.2,1.1-.3,1.5-.7,1.8-1.6,4.3-2.3,6.6-1.8s4.3,2.3,5.1,4.5c.4,1.1.5,2.3.7,3.5.7,5.1,2.3,10,4.8,14.4,2.9,5.2,4.1,7.9,4.6,14.2,1.1,13.7-16.1,26.4-16.1,26.4h0Z"/>
      <path class="st15" d="M644,332.1c-.7-1.1-1.5-2.3-2.7-3.2-1.8-1.4-3.8-1.5-5.7-1.1"/>
      <path class="st15" d="M627.3,324.4c-.2-.6-.7-1.3-1.3-1.8-1.7-1.4-3.5-.5-4.6.3"/>
      <path class="st36" d="M657,342.5c-1.1-1.6-3.2-2.2-5-2.1-2.1.1-3.3,1.3-4.4,3-1.2,1.8-2.9,3.7-3.6,5.7-.8,2.1.4,4.1,2.4,5,5.7,2.7,14.7-5.7,10.6-11.6h0Z"/>
      <path class="st15" d="M654.2,347.1l-7.8.8"/>
      <path class="st40" d="M623.4,345.8c.2,1.8,1.1,3.4,2.2,3.9,3.3,1.6,5.6-1.5,4.9-5l-7,1.1h0Z"/>
      <path class="st5" d="M629.9,316.2c-1.7-.7-3.4-1.6-4.8-2.9-1.4-1.3-2.4-3-2.6-4.8"/>
      <path class="st36" d="M531.6,389.5c-4.5-14.1-9.1-28.3-12-42.7-.5-2.7-3.1,0-3.6,1.1-2,4.6-.4,9.6-1.5,9.9-1.5-5.5-3.2-9.8-4-11.9-1.5-4.1-3.5-7.9-5.2-11-.1-.3-.3-.5-.7-.6-1.7-.5-2.6,1.6-2.7,2.3-1.4,6.4,2,9,2.6,15.9-.9-3.3-2.5-6.8-3.9-9.9-.8-1.8-4.8-9.1-7-9.6-1.5-.3-2,1.9-2.1,2.8-.2,1.8.2,3.6.6,5.4,0,0-1.2-1.9-1.6-3-.2-.7-.9-1.4-1.8-1.5-1.1-.2-2.2,1.5-2.4,2.3-.9,3.2,2.8,12.7,2.8,12.7,0,0-4.5-5.9-6.3-5.2-1.8.7-1.1,3-.4,5.1.7,2.1,2.6,4.3,3.7,6.3,2.7,5,3.4,9.8,5.1,15.2,1,3.3,2.2,6.5,3.7,9.5,1.4,3,3.4,5.6,4.6,8.7.9,2.3.3,4.7,1.1,7"/>
      <path class="st15" d="M515.1,356.6c.1,1.8-.6,3.7-1.2,5.6-1.6,5-2,10.2-1.3,15"/>
      <path class="st15" d="M502,343.8c1.9,5.1,3.6,10.3,5.1,15.5"/>
      <path class="st15" d="M491.7,340.9c3.1,6.2,5.8,13.3,7.3,19.8"/>
      <path class="st15" d="M487.4,348.9c2.9,4.4,5.1,9.2,6.6,14.2"/>
      <path class="st32" d="M614.1,364.4c1.9,1.6,1.8,5,2.8,7,4.2,7.9,15.2,8.2,22.9,5,7.1-3,12-9.4,19.4-11.8,6.1-2,12.6-2.5,18.8-1,8.8,2.1,16,20.3,16,20.3,0,0,10.5,7.5,18.3,23.2,7.8,15.7,23.1,95.7,23.1,95.7h-128s-5.5-49.7-8.8-60c-3.3-10.2-10.6-34-10.6-40.4s3.9-22.1,3.9-22.1l15.6-10.3,6.5-5.7h0Z"/>
      <path class="st32" d="M607.7,370.1s-5.9,2.4-12.4,3.9c-6.6,1.5-18.4,7.4-23.9,16.3-5.5,8.9-17.8,23.7-17.8,23.7,0,0-9-20.2-14.8-26.6-1.8-2-7.1-4.9-7.1-4.9l-3.1-6.2-33.6,12.1,2.4,7.4s-4.1,5-1,12.5c3.1,7.5,18.3,48.2,22.4,56,4.1,7.8,7.5,25,32.7,25s56.2-57.9,56.2-57.9"/>
      <path class="st10" d="M615.2,363.3c.7,4.6,2.3,9.6,6.2,12.7,4.7,3.7,11.5,3,16.8.9,5.7-2.3,10.2-6.3,15.5-9.2,5.3-2.9,11-5.2,16.9-6.3,8-1.5,16.5-1,23.9,2.2"/>
      <path class="st10" d="M670.4,375.7c10.7,1.3,21.5,5.7,30.4,14.4"/>
      <path class="st10" d="M607.9,370c1,1.9,2.3,3.7,3.7,5.3"/>
      <path class="st10" d="M646.4,385.5c1.3,0,2.3-1.1,2.3-2.3s-1.1-2.3-2.3-2.3-2.3,1.1-2.3,2.3,1.1,2.3,2.3,2.3Z"/>
      <path class="st10" d="M617.6,382.1c1.3,0,2.3-1.1,2.3-2.3s-1.1-2.3-2.3-2.3-2.3,1.1-2.3,2.3,1.1,2.3,2.3,2.3Z"/>
      <path class="st19" d="M617.6,379.7c0,14.8.2,29.7.2,44.5"/>
      <path class="st19" d="M646.2,382.2c2.1,17.9,3.2,36,3.3,54"/>
      <path class="st10" d="M600.2,450.2s-7.2-37.7-9.8-44.6"/>
      <path class="st10" d="M553.6,413.9s16.6,25.7,17.8,34.9"/>
      <path class="st10" d="M531.6,382.4l-34.3,13.3"/>
      <path class="st36" d="M602.4,446.7c-11.4-4.5-23.4-9-35.5-7.6-6.2.7-13.7,2.7-19,6.2-4.5,2.9-6.6,6.9-6.7,12.2,0,2-.2,3.9-.2,5.9,0,2.6-.7,5,2.4,5-.3,1.5-.6,3.1.1,4.4.7,1.3,3,1.8,3.7.5-.3,1.1.7,2.1,1.8,2.3,1.1.2,2.2-.2,3.2-.7-.7.5-.5,1.8.2,2.3.7.5,1.7.6,2.6.5,4.7-.5,8.1-4,13-4,5.1,0,9.9,2.5,14.7,4.3,7.2,2.7,15.2,4,23,3.6"/>
      <path class="st15" d="M543.3,467.9c.5-4.6,1.8-9.1,4.2-13,2.4-3.9,6-7.1,10.4-8.6"/>
      <path class="st15" d="M547.2,473.6c1.8-4.3,3.5-8.9,6.2-12.6,2.4-3.3,5.5-6,9-7.6"/>
      <path class="st15" d="M551.7,475.1c3.4-3.3,4.9-6.4,8.9-8.9,1.7-1,5.1-1.9,7.4-2.2"/>
      <path class="st32" d="M672.6,392c-4.8,7.3-13.7,36.1-17.2,45.1-.7,1.9-1.3,4.5-2.6,6.2,0,0-19.5,1.2-30.8-.4-6.2-.9-19.9-2.9-24.9.8l-8.4-2.1-11.5,37.2,8.7,2.9s.8,4.4,6.8,8.2c5.9,3.7,55.5,10.9,72.9,11.9,17.5,1.1,25.1-3.8,32.3-25.1,7.8-23.2,12.2-38.3,12.2-38.3"/>
      <path class="st10" d="M580.3,479.4l5.6,2.2s.8,4.4,6.8,8.2c5.9,3.7,55.5,10.9,72.9,11.9,17.5,1.1,25.1-3.8,32.3-25.1,7.8-23.2,12.2-38.3,12.2-38.3"/>
      <path class="st10" d="M672.6,392c-4.8,7.3-13.7,36.1-17.2,45.1-.7,1.9-1.3,4.5-2.6,6.2,0,0-19.7.1-30.8-.4-6.3-.3-19.9-2.9-24.9.8l-9.1-2.1"/>
      <path class="st10" d="M597.2,443.6l-11,38.7"/>
      <path class="st10" d="M651.1,443.4c4.1-.1,8.1.3,12.8.9,4.6.6,10.6,1.9,14.5,4.5"/>
      <path class="st42" d="M461.2,469.6h41.1v19.2c0,5-4.1,9.1-9.1,9.1h-22.8c-5,0-9.1-4.1-9.1-9.1v-19.2Z"/>
      <path class="st42" d="M467.9,502.7h28.1c6-1.5,9.8-4.1,9.8-6.9h-47.8c0,2.8,3.9,5.3,9.8,6.9h0Z"/>
      <path class="st42" d="M507.6,490.1c-4.1,0-7.5-3.3-7.5-7.5s3.4-7.5,7.5-7.5,7.5,3.4,7.5,7.5-3.4,7.5-7.5,7.5ZM507.6,478.1c-2.5,0-4.5,2-4.5,4.5s2,4.5,4.5,4.5,4.5-2,4.5-4.5-2-4.5-4.5-4.5Z"/>
      <path class="st10" d="M463.8,495.9h35.7"/>
      <path class="st20" d="M500.2,437h80.6c2.1,0,4,1.4,4.7,3.6l19.2,57.5h40.2c2,0,3.6,1.8,3.6,4h-130.6l-20.4-60.9c-.7-2,.7-4.1,2.6-4.1h0Z"/>
      <path class="st41" d="M513.7,502.1h88l-20.6-61.4c-.7-2.2-2.6-3.6-4.7-3.6h-80.6c-1.9,0-3.2,2.1-2.6,4.1l20.4,60.9h0Z"/>
      <path class="st4" d="M548.8,472h-11c-.8,0-1.6-.5-1.8-1.3l-1.7-5c-.4-1.1.4-2.3,1.6-2.3h11c.8,0,1.6.5,1.8,1.3l1.7,5c.4,1.1-.5,2.3-1.6,2.3Z"/>
      <path class="st10" d="M114.4,502.7h634"/>
    </g>
  </g>
</svg>