<?xml version="1.0" encoding="UTF-8"?>
<svg id="Layer_1" xmlns="http://www.w3.org/2000/svg" xmlns:xlink="http://www.w3.org/1999/xlink" version="1.1" viewBox="0 0 817.9 529.3">
  <!-- Generator: Adobe Illustrator 29.8.2, SVG Export Plug-In . SVG Version: 2.1.1 Build 3)  -->
  <defs>
    <style>
      .st0 {
        fill: #d4bcdd;
      }

      .st1 {
        mask: url(#mask);
      }

      .st2 {
        stroke: #8f96db;
      }

      .st2, .st3, .st4, .st5, .st6, .st7, .st8, .st9, .st10 {
        fill: none;
        stroke-miterlimit: 10;
      }

      .st2, .st4, .st5, .st10 {
        stroke-width: 1.5px;
      }

      .st11 {
        fill: #1e1611;
      }

      .st12 {
        fill: #893d33;
      }

      .st13 {
        fill: #d16159;
      }

      .st14 {
        fill: #d5d8bc;
      }

      .st3 {
        stroke: #d8a798;
      }

      .st15 {
        fill: #a04b4b;
      }

      .st16 {
        fill: #735d9d;
      }

      .st17 {
        fill: #c5b3dd;
      }

      .st18 {
        fill: #b5ae6b;
      }

      .st19 {
        fill: #ffc36c;
      }

      .st20 {
        fill: #fcddd2;
      }

      .st21 {
        fill: #4c4139;
      }

      .st4 {
        stroke: #fd9;
      }

      .st22 {
        fill: #fff;
      }

      .st23 {
        fill: #e27769;
      }

      .st24 {
        fill: #ffcaa3;
      }

      .st5 {
        stroke: #fff;
      }

      .st6 {
        stroke: #000;
      }

      .st7 {
        stroke: #572a2f;
      }

      .st25 {
        fill: #2c221d;
      }

      .st8 {
        stroke: #635149;
      }

      .st26 {
        fill: #a29dce;
      }

      .st27 {
        fill: #f9d4bb;
      }

      .st28 {
        fill: #fd9;
      }

      .st29 {
        fill: #afb9e8;
      }

      .st9 {
        stroke: #6d574e;
      }

      .st30 {
        fill: #ef9748;
      }

      .st31 {
        fill: #ed725a;
      }

      .st32 {
        fill: #909df4;
      }

      .st10 {
        stroke: #ed725a;
      }
    </style>
    <mask id="mask" x="460.4" y="59.1" width="287.8" height="222.1" maskUnits="userSpaceOnUse">
      <g id="mask0_3316_36">
        <path class="st22" d="M740.5,59.9h-272.4c-4.2,0-7.7,3.4-7.7,7.7v147.4c0,4.2,3.4,7.7,7.7,7.7h272.4c4.2,0,7.7-3.4,7.7-7.7V67.6c0-4.2-3.4-7.7-7.7-7.7Z"/>
      </g>
    </mask>
  </defs>
  <path class="st10" d="M429.1,82.1c-51.5-12.1-89-.3-131.8,14.4-21.1,7.3-42.5,15-64.7,17.9-16.6,2.2-33.4,2.8-50,4.4-17.3,1.7-34.6,3.9-51.7,7.7-28.6,6.4-78.6,18.3-75.5,56.9,1.2,15.4,11.8,29.5,10.7,45-1.4,19.8-19.8,35.2-32,49.2-16.7,19.3-31.8,40.8-29,67.6,2.2,21.7,16.3,40.7,33.6,53.9,17.4,13.2,37.9,21.3,58.1,29.4,30.8,12.3,56.9,26.7,81.1,49.5,14,13.2,29,26.4,47.2,32.8,24.5,8.6,55.6,1.1,65.6-24.8,5.4-14.1,7-30.6,15.4-43.4,8.7-13.2,27-24.3,43.1-22.2,26.3,3.5,36.5,23,49,43.5,6.1,10,13.4,19.2,23.6,25.3,17.6,10.3,35.2,6.3,53.8,2.1,20.1-4.5,40.4-8.2,60.8-10.6,34.7-4.1,69.5-2.3,104.1,2.1,32.8,4.1,80.4,25.7,107.5-3.6,11.9-12.8,14.2-30.4,9.9-46.8-6.2-23.5-19.5-49.5-18.8-73.9,1.1-36,17.3-59.9,37.1-88.1,9.5-13.5,16.8-28.4,16.5-45.3-.8-38.8-25.1-68.5-50.4-95.2-25.3-26.7-50.5-57.1-76.1-80.7"/>
  <path class="st10" d="M456,466.9c0,5.6-4.6,10.2-10.2,10.2s-10.2-4.6-10.2-10.2,4.6-10.2,10.2-10.2,10.2,4.6,10.2,10.2Z"/>
  <path class="st22" d="M420.4,22.9c4.2,0,7.7,3.4,7.7,7.7v151.5c0,4.2-3.4,7.7-7.7,7.7H126.2c-4.2,0-7.7-3.4-7.7-7.7V30.6c0-4.2,3.4-7.7,7.7-7.7h294.1ZM420.4,21.1H126.2c-5.2,0-9.5,4.3-9.5,9.5v151.5c0,5.2,4.3,9.5,9.5,9.5h294.1c5.2,0,9.5-4.3,9.5-9.5V30.6c0-5.2-4.3-9.5-9.5-9.5Z"/>
  <path class="st29" d="M118.6,43.4h309.4v138.8c0,4.2-3.4,7.7-7.7,7.7H126.3c-4.2,0-7.7-3.4-7.7-7.7V43.4Z"/>
  <path class="st5" d="M118.6,43.4h309.4"/>
  <path class="st32" d="M403.1,168.5c-3.1-4.1-8.4-7.9-12.6-5.1-3.5,2.4-3.6,7.8-3.3,12.2-9.9-14-21.6-26.4-34.7-36.6-7.1-5.6-15.3-10.7-24-10.1-8.7.7-13.3,12.9-11,22.1-23.8-31.6-50.4-54-78.1-73.3-9.4-6.6-19.9-13-31.2-16.8-11.9-4-28.4-8.7-39.2.6-4.6,4-7,10.1-7.7,16.1-.8,7.5.5,15.4,2.5,22.7,4.9,17.3,12.7,33.6,21.9,49,9.1,15.4,29.1,40.6,29.1,40.6h197.7c-1.5-7.9-4.8-15.3-9.5-21.5h0Z"/>
  <path class="st30" d="M299.2,159.1s-38-32.9-54.2-38.5c-16.3-5.6-49.7,3.4-50.1,3.4s-29.9,65.8-29.9,65.8h121.1l13.2-30.6Z"/>
  <path class="st24" d="M371.3,248.5c2.8,2.9,5.6,5.7,8.6,8.3,2.9,2.6,6,4.9,8.8,7.5.7.6,1.3,1.4,2,2.1,2.3,2.6,4.6,5.2,6.3,8.2.2.4.4.8.8,1.1.3.3.8.5,1.3.4.5-.1.7-.6.9-1,.8-1.8.6-3.9.1-5.8-.3-1.2-.7-2.4-1.1-3.7-.3-1-.7-2.1-.5-3.2,8.1,3.4,14.7,9.6,22.2,14.3,1.5,1,4.9,1.3,5.4,0,.7-1.8-10.1-9.8-15-15.1,3.7,1.9,7.7,3.9,11.1,6.4,2.3,1.7,4.9,3.2,7.7,4.1,1.6.5,5.2,1.2,4.4-1.6-.2-.8-.9-1.5-1.5-2.1-4.8-4.7-10.7-8-15.8-12.5,5.7,2.3,11,6.3,17.1,6.5.6,0,1.2,0,1.7-.4.7-.6,1-1.3.5-2.1-.5-.8-1.3-1.3-2.1-1.8-5.7-3.5-11.7-7.4-17.4-10.9,3.1.8,5.9,2.3,8.8,3.6,2.9,1.2,6.1,2.2,9.3,1.8,1-.1,2.3-.8,2.1-1.8-.1-.5-.5-.8-1-1.1-6.9-4.7-13.9-9.5-20.8-14.2-1.9-1.3-3.9-2.7-5.9-3.9-2.4-1.5-5.2-2.6-7.4-4.3-1.7-1.3-3.9-2.3-5.7-3.5-4.6-2.8-9.1-5.9-13.4-9.2"/>
  <path class="st6" d="M398.5,262.5c-2.2-1-4.4-1.8-6.6-2.7"/>
  <path class="st6" d="M411.3,261.7c-3-2-6-3.9-9.2-5.6"/>
  <path class="st6" d="M416.9,255.9c-2.4-1.5-4.9-3.1-7.3-4.6"/>
  <path class="st6" d="M419.6,249c-1.8-1-3.6-2.1-5.2-3.3"/>
  <path class="st30" d="M253.7,121.7c15,4.7,22.5,5.1,35.9,13.5,14.3,8.8,49.5,46,49.5,46,0,0,47.6,33.5,65.4,46.2l-32,30.5c-35.4-21.2-71.8-46.5-98.7-77.8"/>
  <path class="st24" d="M199.3,183.4s14.9-8,21.4-9.6c9.1-2.3,19.8-2.9,22.7-2,1.3.4,6.4,2.5,9.1,5.6,2.8,1.2,4,1.9,5.6,2.6s2.5,2.7,4.2,4.2c1.8,1.5,3.7,5.7,3.7,5.7,0,0-13.4,0-17.1.2-3.8.1-7.8,7.3-16.2,9.8"/>
  <path class="st30" d="M229.9,115.8c-10.3,0-20.4-2.8-30.7-2.8-18.7,0-29.4,9.8-38.5,23.4-6.9,10.3-13.4,23-18.2,34.3-5.7,13.2-12.1,27.9-13.7,42.3-.8,6.6.2,13.4,3.2,19.3,5.6,10.8,18.2,12.7,25.5,13.5,7.3.8,20.1-1.7,26.4-5.5,33-20.5,54.8-41,54.8-41l-35.5-18.2-17,6.7,21.5-39.8"/>
  <path class="st6" d="M205.9,151.1l-19.8,36.5"/>
  <path class="st6" d="M203.2,181c-10.2,3.9-20.4,7.9-30.5,11.9-7,2.7-13.8,8-19.3,13"/>
  <path class="st6" d="M191,186l36.8,22.6"/>
  <path class="st6" d="M289.9,168.3c-4.9,8.1-11.6,21.5-11.6,21.5"/>
  <path class="st6" d="M391.5,218.1l-35.7,29.7"/>
  <path class="st6" d="M251.1,181.2c2.6.7,5.2,1.2,7.9,1.6.8.1,1.7.2,2.4.7"/>
  <path class="st6" d="M253.4,178c-.5-.2-.9-.4-1.4-.6-2.6-.9-5.2-1.9-7.9-1.8"/>
  <path class="st6" d="M245.1,191.4c1.4-1,3.1-1.5,4.8-1.6,3.5-.4,7.3.4,10.7-.9"/>
  <path class="st6" d="M303.2,126.7c10.9,9.2,20.9,19.3,30.1,30.2"/>
  <path class="st6" d="M303.5,115.8c7.6,5.6,14.5,12.1,20.7,19.3"/>
  <path class="st30" d="M215.8,134.3c-5.7-2.1-11.1-5.1-16.3-8.2-2.2-1.3-4.5-2.7-6.3-4.5-1.8-1.9-3.1-4.3-3.1-6.9,0-2.4,1.2-4.6,2.7-6.5,4.6-5.8,12.1-8.8,19.5-9.5,7.4-.7,14.8.8,22.1,2.5,10.9,2.6,22,6,30.4,13.4,2.4,2.1,4.5,4.5,5.8,7.3,1.8,3.9,2,8.5,1.2,12.8-.8,4.3-2.4,8.3-4,12.4"/>
  <path class="st24" d="M245.2,91.3l-14.6,4.3.3,7.4-7.4,12.6s17.5,6.8,24.1,20.6c7.2,1.1,10-4.7,10-4.7l7.1-16.9"/>
  <path class="st24" d="M279.6,106c1.3-7.2,2.8-15.1,2.7-20.9,0-4.9-.8-12.3-4-16.1-4.1-4.9-11.5-5-17.7-5.7-10.2-1.1-17.3,8.1-20.3,16.7-2.3,6.6-2.1,13.1,0,19.9,2.8,8.9,12.8,20.9,25.7,19.5,6.9-.8,12.2-5.8,13.6-13.5h0Z"/>
  <path d="M267.1,90.1c-.1,1.1-.9,1.9-1.7,1.8-.8,0-1.4-1.1-1.3-2.1.1-1.1.9-1.9,1.7-1.8.8,0,1.4,1.1,1.3,2.1Z"/>
  <path d="M281.2,91.5c-.1,1.1-.9,1.9-1.7,1.8-.8,0-1.4-1.1-1.3-2.1.1-1.1.9-1.9,1.7-1.8.8,0,1.4,1.1,1.3,2.1Z"/>
  <path class="st6" d="M275,89.1c-.3,2.5,0,5,0,7.6,0,1.6,0,4.3-2,4.6-1.3.2-4.2-.6-4.2-.6"/>
  <path class="st22" d="M269.9,105.1l-5.3-4.4s-3.9,5.1-1.9,6.9c3.2,3,7.2-2.5,7.2-2.5h0Z"/>
  <path class="st11" d="M278.5,70.5c2.3,3.7,3.6,6.6,3.7,17.5,1.1-.3,2.2-.6,3.3-1.1,1-.6,1.9-1.5,2.2-2.6.5-2.1-1-4.1-1.1-6.2,0-1.5.6-3,1.5-4.3.6-1,1.4-2,1.6-3.2.2-1.7-.8-3.2-2.1-4.4-2.8-2.5-6.5-3.5-9.6-5.3-1.5-.9-2.4-2.3-3.8-3.3-1.6-1.2-3.3-2.2-5.1-3.1-4.2-2-8.7-3.1-13.3-3.3-8.9-.4-17.7,2.9-24,9.2-8.2,8.2-11.5,24-6.4,33,2.9,5.1,5.6,9.3,5.6,9.3.3.5,7.4-5.9,7.9-6.7.4-.9.6-1.9.9-2.8.9-3.2,4.1-3.8,6.9-4.8,4-1.5,6-5,6.8-9.1.5-2.3.5-4.7.6-7.1,0,.5,3.2,1.7,3.7,1.8,4.8,1.5,10.2,1.7,15,.4,1.4-.4,3-.9,4.1-1.9.3-.3,2.2-1.8,1.7-2.3h0Z"/>
  <path class="st6" d="M248.6,113c.3.2,5.3,5.7,15.1,6.6"/>
  <path class="st6" d="M258.6,82.5c.9-1.7,2.6-2.9,4.5-3.2,1.9-.2,3.9.5,5.1,1.9"/>
  <path class="st6" d="M276.5,82.7c.6-1.4,2-2.3,3.2-2.2,1.2.2,2.1,1.5,2.2,3.1"/>
  <path class="st7" d="M272.2,92.9c-1.2,3.7-5.1,5.6-8.7,4.4-3.6-1.3-5.5-5.3-4.3-8.9,1.2-3.7,5.1-5.6,8.7-4.4,3.6,1.3,5.5,5.3,4.3,8.9Z"/>
  <path class="st7" d="M285.4,94.6c-.7,3.8-3.1,6.6-5.5,6.1-2.4-.4-3.8-3.9-3.1-7.7.7-3.8,3.1-6.6,5.5-6.1,2.4.4,3.8,3.9,3.1,7.7Z"/>
  <path class="st7" d="M277.4,91l-4.8-.9"/>
  <path class="st7" d="M259.5,87.6l-14.6,1.1"/>
  <path class="st24" d="M249.1,91.4c0-3.5-4.8-6.3-8-5.2-7.5,2.7-5,16.2,2,17.5,2,.4,4.8-.4,5.5-2.7"/>
  <path class="st6" d="M240.6,92.2l6.5,5.9"/>
  <path class="st6" d="M245.8,87c1.6,1,2.8,2.4,3.6,4.1"/>
  <path class="st6" d="M236.8,97.3c1,2.9,2.9,5.9,6.1,6.5,2.2.4,4.7-.6,5.6-2.8"/>
  <path class="st19" d="M220.2,77.5c.1-4.7.7-9.5,2.2-14,1.5-4.5,4.2-8.7,8-11.5,2.1-1.6,4.5-2.7,6.9-3.7,2-.8,4.1-1.6,6.3-2.1,8.1-1.7,16.5.8,24.1,4.2"/>
  <path class="st19" d="M271.4,51c-2-1.9-4.6-3.2-7.3-3.9-1.6-.4-3.3-.6-4.9-.5-.9,0-1.7.2-2.6.3-5.9,1.2-11.2,4.2-16.3,7.4-6.8,4.2-13.6,8.7-18.6,15-1.8,2.3-3.4,4.9-3.6,7.7,0,1.6.3,3.2.8,4.7.9,2.6,3,6.2,4.7,8.2,15-14,31.8-25.1,51.2-31.6,0-2.8-1.5-5.4-3.5-7.4h0Z"/>
  <path class="st6" d="M221.2,70s12.6-17.6,36.1-23.5"/>
  <path class="st6" d="M227.8,72c1.8,3.2,3.7,6.5,6.5,8.9"/>
  <path class="st6" d="M242.5,58.7c1.9,4,4.3,7.9,7.1,11.4"/>
  <path class="st6" d="M258.2,50.3c3.2,3.3,6,7.1,8.2,11.2"/>
  <path class="st6" d="M263.6,48.4c2.8,3.4,5.2,7.5,7,11.4"/>
  <path class="st6" d="M220.4,73.9c.9,5.1,3.9,9.4,7.7,12.4"/>
  <path class="st6" d="M211.8,110.9c7.1,2.7,14.4,5.4,20.7,9.6,6.4,4.2,12.8,10.1,15.1,17.4"/>
  <path class="st6" d="M252.5,135.7c3.3-1.6,5.9-4.4,7.3-7.7"/>
  <path class="st6" d="M190.1,113.8c3.3,19,28.4,15.4,40,21.3"/>
  <path class="st6" d="M272.3,127.6c-.5,2.6-1.4,5.2-3.1,7.2-2.6,3-6.6,4.3-10.5,5.4"/>
  <path class="st6" d="M262.2,135.7c1.7,11.9,3.5,25.3,2.9,37.4"/>
  <path class="st6" d="M235.6,132.9c1.8,5,1,18.4.8,30.6"/>
  <path class="st0" d="M77.1,288.8h287.4v184.2c0,4.2-3.4,7.7-7.7,7.7H84.8c-4.2,0-7.7-3.4-7.7-7.7v-184.2Z"/>
  <path class="st22" d="M356.9,264c4.2,0,7.7,3.4,7.7,7.7v201.4c0,4.2-3.4,7.7-7.7,7.7H84.8c-4.2,0-7.7-3.4-7.7-7.7v-201.4c0-4.2,3.4-7.7,7.7-7.7h272.1M356.9,262.1H84.8c-5.2,0-9.5,4.3-9.5,9.5v201.4c0,5.2,4.3,9.5,9.5,9.5h272.1c5.2,0,9.5-4.3,9.5-9.5v-201.4c0-5.2-4.3-9.5-9.5-9.5h0Z"/>
  <path class="st5" d="M77.1,288.8h287.4"/>
  <path class="st28" d="M336.9,480.7c-3.9-9.5-9.1-18.4-15.5-26.3-3.9-4.9-8.5-9.5-14.3-11.6-5.8-2.1-13-1.2-16.9,3.7-3,3.7-3.6,8.9-4,13.7-9.5-10.2-19.2-20.6-30.8-28.1-11.6-7.6-25.7-13-39.2-10-14.9,3.3-14.9,22.1-14.9,22.1,0,0-9.2-12.8-10-14-6.1-8.9-13-17.1-20.4-25-7.2-7.7-14.1-15.9-22.3-22.6-8.1-6.7-21.3-15.3-32.2-11.2-5.7,2.1-7.2,7-6,12.7,1.2,5.3,1.8,10.6,3.4,15.9-9.2-10.2-19.6-19.7-31.7-26-8.7-4.6-27-12.4-36-4.9-2.6,2.2-3.8,5.8-3.9,9.2-.5,21.2,14.8,43.9,27.1,59.6,12.6,16,27.8,30.3,43.6,43h224.2Z"/>
  <path class="st16" d="M281.7,385.1c-1.6,9-1.1,18.3-1.1,27.5,0,9.2.8,15.2-2.5,23.6-3,7.5-9.3,10.1-12.6,17.5-1.7,3.8-8,27.1-8,27.1h-84.9s-2.4-36.7,10.7-68c13.1-31.3,29.5-36.9,29.5-36.9l48.3-12.5,20.6,21.7h0Z"/>
  <path class="st23" d="M392.9,330.3c2.5-3,6-4.9,9.1-7.4,2.8-2.3,4.9-5.5,7.2-8.2,2.8-3.4,5-7.2,7.5-10.9,2.6-3.9,6-7.1,9.3-10.4.5-.5.9-.9,1.2-1.5.5-1.1,0-2.5-1.3-2.8-2.4-.6-5,0-7.3.8-1.4.5-6.1,2.2-6.4-.5-.3-3,2.2-7.4,3.1-10.1,1.2-3.6,2.5-7.2,3.5-10.9,1-3.5.7-10.3-1.1-10.4-1.9-.1-.5,1-.9,1.3.8-1-.6-3.4-1.7-4.1-1.1-.7-2.6,1.6-2.9,2.8.4-1.2-.7-3.2-1.6-3.3-1.3-.1-2.3,1.1-3.1,2.1-.8,1-1.5,2.1-2.6,2.8,0-.9-.1-1.7-.4-2.6-.9-.5-1.8.3-2.4,1-12.5,14.8-21,33.1-34.9,47.3"/>
  <path class="st6" d="M412.4,287.5c0,3.6,0,7.3-.3,10.9"/>
  <path class="st6" d="M416.3,258.5c-1.1,3.4-3.2,6.3-4.8,9.5-2.5,5.1-4.8,10.3-7.1,15.5"/>
  <path class="st6" d="M412,257.8c-.8,1.6-1.6,3.2-2.6,4.6-1,1.6-2.2,3.1-3.3,4.7-3.2,4.4-6.1,9.1-8.6,13.9"/>
  <path class="st6" d="M404.5,260.3c-.8,1.8-2.2,3.3-3.5,4.8-4.1,4.7-7.6,9.9-10.4,15.4"/>
  <path class="st16" d="M236.7,368.2c15.2-6.4,25.1-13,40.2-19.8,13.6-6.1,32.6-11.1,46-17.6,18.5-9,35.8-19,51-32.6l27.6,29.1s-39,39.8-52.7,47.6c-32.8,18.7-44.8,22.2-78.9,40.1"/>
  <path class="st6" d="M280.2,409.8c.2-6.9,1.8-13.7,4.6-20"/>
  <path class="st6" d="M364.7,305.8l27.4,30.7"/>
  <path class="st23" d="M232.3,452.5c11.6.2,23.1,2,33.2,8.1,4.8,2.9,7.5,6.8,8.8,12.3,1.1,4.6,1.5,9.5,1.1,14.2,0,.5-.4.9-.8,1-.5.1-1.6-.4-1.6-.4,0,0,1,4.7,0,5.6-.7.7-2.1-.2-2.6-.8-.6-.7-1.4-2.3-1.4-2.3,0,0,.7,2.7.1,3.1-.9.7-3.4-1.1-4-2.8-.4,1-1,1.9-1.9,1.7-2.9-.8-5.2-4.9-7.5-6.9-3.2-2.7-7.4-2.9-11.4-2.8-1.8,0-3.6,0-5.5-.1-1.9-.2-3.5-.9-5.3-1.3-3.4-.7-6.9-1-10.3-1.2"/>
  <path class="st6" d="M253.7,476.6c3.2,1.3,6.6,2.8,8.3,5.5.5.8.9,1.7,1.2,2.6.7,1.9,1.2,3.8,1.7,5.8"/>
  <path class="st6" d="M258.2,470.9c1.8,1.1,3.6,2.4,5.1,3.9,1.5,1.5,2.8,3.3,3.5,5.3.4,1.2.6,2.4.8,3.6.4,2.5.8,5,1.3,7.5"/>
  <path class="st6" d="M264.4,466.9c3,2.2,5.4,5.4,6.7,8.9,1.2,3.1,1.6,6.4,2,9.7.1,1,.2,2.1.4,3.1"/>
  <path class="st16" d="M219.5,370.4s-24,3.5-33.2,8.8c-14.4,8.3-20.7,20.9-29.9,42.3-9.2,21.4-12.9,30.8-13,37.9-.1,10.4,4.6,21.4,23.7,21.4h61.2l12.3-28.8-47.6-7.4,13.1-30.8"/>
  <path class="st6" d="M240.8,451.9l-47.6-7.4,13.1-30.8"/>
  <path class="st6" d="M176.3,448.8c.4,0,7.6-4.5,16.9-4.4"/>
  <path class="st6" d="M227.7,449.8l-13.1,30.9"/>
  <path class="st6" d="M256.7,377.8c.6-3.3.6-6.7,0-10.2"/>
  <path class="st6" d="M206,376.9c2.6,6.6,8.5,12.1,14.9,14.9,8,3.5,18.9,4.2,26.6-.5,3.6-2.2,6-5.1,7.6-8.4"/>
  <path class="st6" d="M341.2,389.3c14.3-7.3,27.4-17,38.5-28.5"/>
  <path class="st6" d="M367.9,382.4c6.9-5.4,13.4-11.3,19.4-17.7"/>
  <path class="st23" d="M227.6,341l-13.1,8.8,2.8,9.4-3.9,14.1c-.3.9,0,1.9.4,2.6,2.1,3.2,8.8,11.1,22,11.1,13.9,0,13.7-9.3,13.7-9.3l2.5-19.7"/>
  <path class="st23" d="M253.9,339.8c-3.6-6.7-5.7-10.9-9.4-15.5-3.2-3.9-8.5-9.5-13.6-10.6-6.5-1.4-12.6,3.2-18.1,6.6-9,5.6-8.9,17.6-5.8,26.6,2.3,6.9,7.2,9.5,13.3,13.7,8,5.5,25.4,8,32.8,2,5.6-4.5,4.5-15.7.7-22.8h0Z"/>
  <path d="M234.6,339.2c.4,1,.1,2.2-.7,2.5-.8.3-1.8-.3-2.2-1.3-.4-1-.1-2.2.7-2.5.8-.3,1.8.3,2.2,1.3Z"/>
  <path d="M247.4,332.1c.4,1,.1,2.2-.7,2.5-.8.3-1.8-.3-2.2-1.3-.4-1-.1-2.2.7-2.5.8-.3,1.8.3,2.2,1.3Z"/>
  <path class="st6" d="M240.6,336.6c1.4,1.3,3.2,2.1,4.9,2.9,1.1.5,4.7,1.5,3.9,3.2-.5,1.1-2.6,2.9-2.6,2.9"/>
  <path class="st25" d="M214.3,369.6s1.6-4.2,2-5.7c.7-2.5-1.5-2.7-2.2-4.9-.4-1.2,0-2.6.2-3.7.5-2.5,1.8-5.2.7-7.7-.7-1.6-2.3-2.6-3.5-3.8-1.2-1.2-2.2-3.1-1.5-4.6.9-1.9,3.5-2,5.1-3.3,1.6-1.3,2-3.6,1.9-5.6-.1-2-.6-4.1-.2-6.1,0-.4.2-.7.4-1,.8-.8,2.1,0,3,.5,1.7,1,3.9.9,5.7.1.9-.4,1.8-1.1,2.1-2,.2-.6.2-1.2.3-1.8,0-.6.3-1.2.9-1.6.4-.2.9-.3,1.3-.2,1.4,0,2.8.6,3.9,1.4,1,.7,1.5,1.2,2.7,1.2,1.1,0,2.3-.4,3.4,0,1.4.4,2.3,1.7,3.1,2.9,2.2,3.3,4.5,6.6,6.8,9.8,1.1-1.6,2.3-3.3,2.8-5.2.5-1.9.4-4.1-.8-5.6-1.2-1.5-3.3-2.1-4.3-3.8-1.1-1.8-1-4.4-1.1-6.4-.1-2.2-.8-4.4-2.1-6.3-1.2-1.8-3.3-3.2-5.4-3-1.2,0-2.4.7-3.7.7-.8,0-1.5-.3-2.2-.6-3.3-1.4-6.2-3.7-9.4-5.2-3.3-1.4-7.4-1.9-10.3.3-1.5,1.1-2.4,2.8-4,3.8-4.6,2.7-11.1-2.4-15.5.6-2.8,2-2.9,6.2-5.3,8.7-3,3.2-8.5,2.3-12,5.1-3.5,2.8-3.5,8.2-1.4,12.1,1,1.9,2.5,3.9,2.1,6.1-.3,1.3-1.3,2.4-2.1,3.5-1.2,1.5-2.2,3.3-2.4,5.2-.2,1.9.4,4,1.8,5.3.9.8,2.3,1.1,3,2.2.8,1.1,1,3.2,1.2,4.5.1,1.2.1,2.4.5,3.5,1,3.1,4.4,4.9,7.6,4.9s3.1-.3,4.4.6c1,.7,1.4,2,2.1,3,2,3.5,6.9,4.9,10.5,3.1,1.3-.7,2.6-1.8,4.1-1.8,1.5,0,4.3,1.1,5.7.9h0Z"/>
  <path class="st6" d="M235.4,365.8c4,1,11.7,1.2,17.5-2.4"/>
  <path class="st6" d="M224.5,338.9c0-4.1,2.7-7.9,7-7.2"/>
  <path class="st6" d="M239.5,328.8c-.1-1.2.7-2.5,2-3.2s2.9-.6,3.8.2"/>
  <path class="st23" d="M221.4,350.6c-2.3-2.8-8-2-9.8.9-4.4,7,6.3,16.4,12.8,13,1.8-1,3.7-3.4,2.8-5.7"/>
  <path class="st6" d="M215,356.7l9,.6"/>
  <path class="st6" d="M215.9,349.2c1.9-.2,3.9.1,5.6,1.1"/>
  <path class="st6" d="M215.2,363.3c2.6,1.7,6.2,3,9.1,1.4,2-1.1,3.4-3.5,2.7-5.9"/>
  <path class="st6" d="M242,346.3c-.6,2.2.1,5,2.6,5.5,1.9.3,3.9-.8,4.5-2.6"/>
  <path class="st14" d="M460.4,80.4h287.8v134.7c0,4.2-3.4,7.7-7.7,7.7h-272.4c-4.2,0-7.7-3.4-7.7-7.7V80.4Z"/>
  <path class="st22" d="M740.5,59.9c4.2,0,7.7,3.4,7.7,7.7v147.4c0,4.2-3.4,7.7-7.7,7.7h-272.4c-4.2,0-7.7-3.4-7.7-7.7V67.6c0-4.2,3.4-7.7,7.7-7.7h272.4ZM740.5,58.1h-272.4c-5.2,0-9.5,4.3-9.5,9.5v147.4c0,5.2,4.3,9.5,9.5,9.5h272.4c5.2,0,9.5-4.3,9.5-9.5V67.6c0-5.2-4.3-9.5-9.5-9.5Z"/>
  <path class="st22" d="M474,66.4c2.4,0,4.4,2,4.4,4.4s-2,4.4-4.4,4.4-4.4-2-4.4-4.4,2-4.4,4.4-4.4ZM474,64.5c-3.4,0-6.2,2.8-6.2,6.2s2.8,6.2,6.2,6.2,6.2-2.8,6.2-6.2-2.8-6.2-6.2-6.2Z"/>
  <path class="st22" d="M491,66.4c2.4,0,4.4,2,4.4,4.4s-2,4.4-4.4,4.4-4.4-2-4.4-4.4,2-4.4,4.4-4.4ZM491,64.5c-3.4,0-6.2,2.8-6.2,6.2s2.8,6.2,6.2,6.2,6.2-2.8,6.2-6.2-2.8-6.2-6.2-6.2Z"/>
  <path class="st5" d="M460.4,80.4h287.8"/>
  <path class="st18" d="M708.9,197.3c-5.4-9-11.1-18.3-19.9-23.8-8.8-5.5-21.8-5.7-28.4,2.4-5.9,7.2-4.8,17.7-3.4,26.9-6.5-8.3-14.2-15.7-22.6-22-6.5-4.8-13.7-9-21.7-10.5-8.2-1.6-17.6.2-24.4,5.3-9.2,7-9.1,17.9-8.2,28.5-11.2-21.2-23.6-42.3-40.9-59.3-4.5-4.4-9.7-8.2-15.7-9.9-3.5-1-7.4-1.1-10.5.7-4.7,2.8-6,9-6.1,14.4-.2,6.6.6,13.2,2.2,19.6-3-3.2-7-5.6-11.3-6.5-10-1.9-19.8,5.6-20.4,15.9-.6,10.7,5.9,20.8,10.9,29.8,1.9,3.4,3.8,6.8,6,10.1.4.6,2,3.8,3,3.8h225.8c-4.8-8-9.5-17.4-14.3-25.3h0Z"/>
  <g class="st1">
    <g>
      <path class="st22" d="M728.6,212.6l-75.5-144.7-21.5-1.3-16.9,13.7-43.4,31.5,48.7,142.8,108.5-42.1Z"/>
      <path class="st6" d="M586.8,109.8c4.2,3.5,10.1,4.9,15.4,3.8"/>
      <path class="st6" d="M607.5,111.9c5.3-1.8,10-5.3,13.2-9.8,3.2-4.6,4.9-10.2,4.8-15.7"/>
      <path class="st21" d="M708,158.8c-13.1-24.9-52.3-103.4-62.6-99.6-11.9,4.4-25.2,15.9-25.2,15.9,0,0,6.4,20.5,6.9,22.4,1.8,7.1,3.6,14.1,5.5,21.2,4.7,17.6,8.9,35.4,14.6,52.6,5.9,17.5,12.4,34.8,19.4,51.9,2.8,6.8,5.1,14.9,10.4,20.2,3,3.1,7.3,5.3,11.6,4.9,3-.3,5.7-1.7,8.4-3.1,11.7-6.1,44.2-20.7,44.2-20.7,0,0-16.7-34.3-33.2-65.7h0Z"/>
      <path class="st21" d="M641.4,254.6c-3.2-11.6-8.6-22.2-12.6-33.5-5.3-14.7-9.9-29.6-15.4-44.3-8.3-22.4-20-53.3-29-75.3,0,0-16.5,9.5-19.8,11.8s-2.6,7.8-2.6,7.8c13.1,49,52.9,160.2,52.9,160.2,4.7-2.5,16.4-9,21.1-11.5,6.2-3.3,7.3-8.6,5.5-15.1h0Z"/>
      <path class="st6" d="M567.8,111.2c15.3,23.4,27.1,42.5,43,65.5"/>
      <path class="st6" d="M640.9,65.2c3.2,31.1,5.1,62.3,5.8,93.5"/>
    </g>
  </g>
  <path class="st13" d="M482.6,231.1c-3.2,2.4-6.5,4.7-9.8,6.9-3.2,2.1-6.7,3.9-9.9,6.1-.8.5-1.5,1.1-2.2,1.7-2.7,2.2-5.4,4.4-7.5,7.2-.3.4-.6.7-.9,1-.4.3-.9.4-1.3.2-.4-.2-.6-.7-.8-1.1-.5-1.9,0-4,.8-5.8.5-1.2,1.1-2.3,1.7-3.5.4-1,1-2,1-3.1-8.6,2.1-16,7.2-24.1,10.7-1.7.7-5,.6-5.4-.8-.5-1.9,11.5-8.1,17.2-12.6-4,1.3-8.2,2.7-11.9,4.6-2.6,1.4-5.3,2.4-8.2,2.9-1.6.2-5.3.4-4.1-2.3.3-.8,1.1-1.4,1.8-1.9,5.5-3.9,11.8-6.3,17.5-9.9-6,1.3-11.8,4.5-17.9,3.8-.6,0-1.2-.2-1.6-.6-.6-.7-.7-1.5-.2-2.2.6-.7,1.5-1.1,2.3-1.4,6.2-2.6,12.7-5.5,18.8-8-3.2.4-6.2,1.4-9.3,2.1s-6.4,1.2-9.4.3c-1-.3-2.1-1.1-1.7-2.1.2-.5.7-.7,1.1-.9,7.6-3.6,15.2-7.2,22.8-10.9,2.1-1,4.3-2,6.4-3,4.7-2,9.3-4.3,14-6.4,5-2.1,9.9-4.2,14.9-6.2"/>
  <path class="st6" d="M453.5,240.6c2.3-.6,4.6-1.1,7-1.6"/>
  <path class="st6" d="M441,237.9c3.2-1.6,6.6-2.9,9.9-4.1"/>
  <path class="st6" d="M436.4,231.4c2.6-1.1,5.3-2.3,7.9-3.4"/>
  <path class="st6" d="M434.8,224c1.9-.7,3.8-1.6,5.7-2.5"/>
  <path class="st21" d="M564.5,113.3c-5.6,3.8-11.2,8-14.8,11.9-5.8,6.3-39.6,47.2-39.6,47.2,0,0-34.6,20.9-54.5,32.4l21.7,35.4s40.2-14.5,60.8-28.9c18.7-13.1,54.4-56,54.4-56"/>
  <path class="st6" d="M578.7,172.4l-10.9-33.8"/>
  <path class="st6" d="M473.9,194.1l24.1,37.4"/>
  <path class="st6" d="M471,229.8l20-9.3"/>
  <path class="st6" d="M484.3,220.1c0,.9-.6,1.7-1.5,1.8-.9,0-1.7-.6-1.8-1.5,0-.9.6-1.7,1.5-1.8.9,0,1.7.6,1.8,1.5Z"/>
  <path class="st6" d="M474.6,224.5c.9,0,1.7-.8,1.7-1.7s-.7-1.7-1.7-1.7-1.7.8-1.7,1.7.7,1.7,1.7,1.7Z"/>
  <path class="st6" d="M509.9,172.9c0-.2,0-.5,0-.7,4.6-1.4,9-3.5,13-6.1"/>
  <path class="st6" d="M526.2,133c6.6-7.9,14.6-14.5,23.5-19.5"/>
  <path class="st6" d="M531.5,115.1c6.2-4.6,13-8.4,20.1-11.4"/>
  <path class="st13" d="M597.7,50.7l4.8,14.3,17.3,16.7s.5,9.9-9.3,20.3c-9.7,10.3-20.2,3.4-20.2,3.4l-12.5-18.4"/>
  <path class="st13" d="M557.3,88c-2-6.4-4.5-20.1-4.3-25.3.2-4.4,1.5-8.8,4.4-12.2,3.8-4.4,12.6-2.8,18.2-3.4,9.3-.9,15,10.1,17.6,17.9,2,6,3,12.2.9,18.4-3.3,10-14,20.1-25.3,17.4-6.1-1.5-9.6-6.7-11.5-12.9Z"/>
  <path class="st25" d="M606.4,48.9c-1.5-1.6-3.5-2.8-4.2-4.9-.4-1.1-.9-4.6-1.3-5.7-2.1-6.4-7.4-8.5-13.5-7.5-.6-6.1-7.1-6.7-12.4-6.8-2.2,0-4.5-.2-6.5-1.3-2.1-1.1-4-2.7-6.5-2.9-2.2-.2-4.4.5-6.2,1.7-6.3,4.1-8.1,12.2-15.8,14.6-2.4.8-5,1-7.1,2.6-1.6,1.2-2.7,3-3,4.9-.3,2.8,1.5,4.5,3.4,6.2,2.2,2,3.5,4.5,3.3,7.5-.1,1.8-.6,3.6-.9,5.4-.8,5.2.8,10,5.1,13.2.9.7,2.1,1.3,5.5,2,2.3.5,8.4-.4,8.4-.4,0,0-1.5-8.8-1.5-12.2,0-3.3,1-6.3,2.9-8.9,1.6-2.2,5.2-3,7.8-2.9,3.9.2,7.7,2.4,11.7,1.9,1.6-.2,3.2-.9,4.5-1.9,5.3,3.4,10.8,8.5,12,14.6,0,.3.8,3.9.6,4,4.5-1,10.2-1.3,12.3-6.3.7-1.7.4-3.5.9-5.2.4-1.4,1.7-2.5,2.3-3.9,1.1-2.7,0-5.9-1.9-8h0Z"/>
  <path class="st13" d="M587.6,67.5c.2-3.9,5.7-6.8,9.1-5.4,8.3,3.3,4.9,18.3-3,19.5-2.2.3-5.4-.7-6.1-3.2"/>
  <path class="st6" d="M597.1,68.8l-7.5,6.3"/>
  <path class="st6" d="M591.5,62.8c-1.8,1-3.3,2.6-4.2,4.5"/>
  <path class="st6" d="M601.1,74.7c-1.2,3.2-3.6,6.5-7.1,7-2.5.3-5.2-.9-6.1-3.4"/>
  <path class="st6" d="M584.8,97.4s4-2.6,6.7-8.2"/>
  <path class="st6" d="M564.1,72.9c.4,3.5.8,7,1.2,10.5,0,.5.1,1,.5,1.4,1.3,1.4,4.4.7,5.8-.1"/>
  <path class="st22" d="M574.8,86.1l-6.1,3.6s2.4,4.5,4.7,3.6c4.4-1.6,1.4-7.2,1.4-7.2h0Z"/>
  <path class="st6" d="M567.1,65.3c.6-1.3,1.9-2.1,3.3-2.6,2.3-.7,4.9-.4,6.9,1"/>
  <path class="st6" d="M552.9,70.4c.2-1.3,1-2.4,1.9-3,1.5-1,3.5-1,5.2,0"/>
  <path d="M575.2,70.5c.3,1.3-.3,2.6-1.3,2.8-1,.2-2.1-.6-2.4-1.9-.3-1.3.3-2.6,1.3-2.8,1-.2,2.1.6,2.4,1.9Z"/>
  <path d="M561.2,74.7c.3,1.3-.3,2.6-1.3,2.8-1,.2-2.1-.6-2.4-1.9-.3-1.3.3-2.6,1.3-2.8,1-.2,2.1.6,2.4,1.9Z"/>
  <path class="st8" d="M557.5,55.4c-2.6,1.4-3.8,4.5-5.5,6.9-2.9,3.8-7.8,6-12.6,5.6"/>
  <path class="st8" d="M580.8,53.3c2.4-2.2,4.1-5.1,4.8-8.2"/>
  <path class="st27" d="M590.2,223.6h220.2v145.5c0,4.2-3.4,7.7-7.7,7.7h-204.8c-4.2,0-7.7-3.4-7.7-7.7v-145.5h0Z"/>
  <path class="st22" d="M802.7,203.2c4.2,0,7.7,3.4,7.7,7.7v158.3c0,4.2-3.4,7.7-7.7,7.7h-204.8c-4.2,0-7.7-3.4-7.7-7.7v-158.3c0-4.2,3.4-7.7,7.7-7.7h204.8ZM802.7,201.4h-204.8c-5.2,0-9.5,4.3-9.5,9.5v158.3c0,5.2,4.3,9.5,9.5,9.5h204.8c5.2,0,9.5-4.3,9.5-9.5v-158.3c0-5.2-4.3-9.5-9.5-9.5Z"/>
  <path class="st5" d="M608.2,214c0,2.4-2,4.4-4.4,4.4s-4.4-2-4.4-4.4,2-4.4,4.4-4.4,4.4,2,4.4,4.4Z"/>
  <path class="st5" d="M625.2,214c0,2.4-2,4.4-4.4,4.4s-4.4-2-4.4-4.4,2-4.4,4.4-4.4,4.4,2,4.4,4.4Z"/>
  <path class="st5" d="M590.2,223.6h220.2"/>
  <path class="st30" d="M753.7,317.8c-5-.9-6.5,12.7-4,17.2-6.6-9.5-15-24-21.7-33.5-7.4-10.6-16.3-23.9-29.8-27.4-12.1-3.1-18.4,7.4-18.6,18.2-.2,10.3.9,20.7,2.8,30.8,2.1,11,4.8,23.6,10.8,33.2-6.4-10.2-16.6-13.7-28-12.7-5.3.4-10.8,2.2-14.2,6.4-5.4,6.6-3.3,18.7-1.1,26.9h15c26.5,0,131.7,0,131.7,0,0,0-26.4-56.2-42.8-59h0Z"/>
  <path class="st23" d="M601.2,298.7c-21.9.3-43.6-4.3-64.5-10.7-20.9-6.4-59-20.4-59-20.4l-10.9,32.9s56.4,35.7,131.3,41.8"/>
  <path class="st25" d="M648,307.7c-14.6-12.4-46.2-11.5-55.2-11.1-9.1.4-25.2-2.3-25.2-2.3l-5.9,49.5s33.5,5.6,52.2,7"/>
  <path class="st25" d="M607,319.6c2.3,6.5,1.2,15.9,1.3,22.8,0,6.1,2.2,9.5,3.1,15.5,1.1,7.2,5.2,12.4,9.5,18.9h92.9l-4.9-51.5-12.6-18.3-26.7-7.1-60.3,15.9"/>
  <path class="st9" d="M636.1,307.1c-.9,3.3-1.6,6.9-1,10.3.7,4,3.2,6.5,6.8,7.9"/>
  <path class="st9" d="M646.4,326.4c16.5,2.9,33.8-8.8,35.4-23.8"/>
  <path class="st23" d="M770.2,370.9c-1.3-3.9-3.9-7.2-6.4-10.4-7.1-8.8-15-16.9-23.7-24.1l-31.1,28.3,19.2,18.6-22.5,40.7,29.8,8.5s22.8-25.2,31.5-39.2c4.3-6.9,5.8-14.7,3.1-22.4h0Z"/>
  <path class="st23" d="M711.7,414.9s-13,18.7-14.3,22.1c-1.2,3-1.8,6.8-2.3,10.1-1.3,8.9,3.5,18.1,7.1,22.5.4.5,1,.8,1.6.9,1.3.2,1.9-.4,1.8-2,.7,1,1.5,2,2.2,3,.3.4.6.8,1.1,1.1.8.4,1.9,0,2.5-.9.6-.8,1-1.9,1.3-2.9.8,1.1,2,2.3,3.1,1.6,1.2-.7,2.2-3.2,1.9-4.6.4,1.2,2,1.3,2.9.4.9-.9,1.2-2.3,1.5-3.7.7-3.4,1.3-6.8,3-9.8,1.1-2,2.6-3.6,3.9-5.4,4.2-5.8,6.3-13.3,7.7-20.6"/>
  <path class="st6" d="M720.3,443.8c-.6,1.3-1.2,2.6-1.8,3.9-.5,1.1-1,2.1-1.3,3.2-1.7,4.9-1.4,10.5.8,15.1"/>
  <path class="st6" d="M710.5,443.3c-1.2,5.9-1.7,13-.8,17.4.5,2.9,1.8,5.6,3.3,8.1"/>
  <path class="st6" d="M701.9,441.1s-.8,4.4-.9,6.8c-.6,7.8.5,15.4,4.7,21.2"/>
  <path class="st23" d="M475,301.1c-2.3-.2-4.7-.5-7-.7-2.1-.2-4.2-.4-6.2-1.1-1.3-.4-2.6-1.1-3.9-1.7-5.2-2.5-7.9-3.3-12.9-6.2-2.9-1.7-5.8-3.3-8.8-4.6-3-1.3-6.1-2-8.8-3.7-.2-.1-.5-.3-.6-.6,0-.2,0-.4,0-.6.6-4.5,9.8-3.5,13.4-2.5,1.1.3,2.2.7,3.3.4,0-1.4-.6-2.8-1.3-4.1-2.1-3.7-5.1-6.6-7.8-9.8-2.5-3-5.1-5.9-7.4-9.1-2.2-2.9-4.4-9.3-2.7-10.1,1.7-.8.8.8,1.3.8-1.1-.7-.7-3.4.1-4.4.8-1.1,3,.6,3.7,1.6-.8-1-.5-3.2.3-3.6,1.2-.6,2.6.2,3.7.9,1.1.7,2.1,1.5,3.4,1.7-.3-.8-.5-1.7-.6-2.5.6-.8,1.8-.4,2.7,0,17,9.3,31.5,23.3,49.6,31.5"/>
  <path class="st6" d="M439.8,272.4c1.9,2.7,3.2,6,4.2,10.1"/>
  <path class="st6" d="M425.7,246.8c2.3,2.8,5.3,4.8,7.9,7.2,4.2,3.8,8.2,7.9,12.2,11.8"/>
  <path class="st6" d="M429.4,244.6c1.3,1.2,2.7,2.4,4.1,3.4,1.6,1.1,3.2,2.1,4.8,3.2,4.6,3,8.9,6.3,13,9.9"/>
  <path class="st6" d="M437.4,244.1c1.4,1.4,3.3,2.3,5,3.2,5.5,2.9,10.6,6.5,15.3,10.6"/>
  <path class="st6" d="M475.7,302.2s-9.6-1.3-13.5-2.3"/>
  <path class="st25" d="M688.3,305c6.6.6,13.2,1.3,19.5,3.6,8,3,14.9,8.7,21.4,14.4,6.8,6,13.7,14.2,20.4,20.5l-33.9,29.7-24-23.4"/>
  <path class="st9" d="M705.8,363.7l35.4-28.7"/>
  <path class="st9" d="M574.7,345.8l5.1-49.9"/>
  <path class="st9" d="M607,336.4s2.3,10.7,3,15.2"/>
  <path class="st9" d="M690.4,349.8c7.4,5.7,25.2,23.5,25.2,23.5"/>
  <path class="st23" d="M652.7,269.6l15.8,6.4-.9,10.5,8,15.4s-3.9,14.5-21.4,18.1c-14.7,3.1-14.4-6.5-14.4-6.5l-7-20.3"/>
  <path class="st23" d="M619.3,277.7c2.3-7.9,3.6-12.8,6.6-18.5,2.5-4.9,6.9-11.9,12-14.2,6.5-2.9,14,.7,20.6,3.1,10.8,3.9,13.3,16.7,12,26.9-1,7.8-5.5,11.7-11.1,17.5-7.3,7.6-25.1,14-34.3,9.3-6.9-3.5-8.3-15.6-5.8-24h0Z"/>
  <path class="st12" d="M732.2,325.5c4.3-1.4,6.3-6.4,6.1-9.9-.4-5.7-3.1-8.7-3.5-12.2-.3-2.3.4-4.6.2-6.9-.3-3.8-3.1-7.1-6.5-8.9-3.4-1.7-7.4-2-11.2-1.7-2.9.3-5.9.9-8.8.5-2.4-.3-4.7-1.4-6.8-2.6-3.7-2.2-7.2-5-9.6-8.7-4.1-6.1-5-13.8-8.1-20.5-1.6-3.4-3.8-6.4-6.5-9-6.4-6.3-12.6-8.7-21.7-9-6.2-.2-14.9.6-19.7,6.5,0,0-9.2.2-13.6,4.9-5.2,5.5-4.9,13.5-.3,19.9,2.4-3.9,4.4-8,7.8-10.9-.4.6-.2,1.5.3,2.1.5.6,1.3.8,2,.8,2,.2,3.8-.8,5.6-1.8-.6,1.6-.8,3.3-.7,4.9,0,.4,0,.7.3,1,.3.3.7.4,1.1.4,2.7.2,5.5-1.1,7.1-3.3-.7,2-1.4,4.6.1,6.1,1.1,1.1,2.8,1.2,4.3.6,1.4-.6,2.5-1.7,3.6-2.7-.5.5.2,3.4.3,4.1.3,1.5.7,2.9,1.2,4.3,1.5,4.3,3.4,8.6,5.9,12.5,2.6,4,6.2,7.1,8.8,11,1.6,2.5,3,5.2,5.3,7.2,2.7,2.4,6.5,4.3,10.1,5,3.6.7,7.3.4,11,.3,13.5-.4,23.7,6.3,35.9,16.3"/>
  <path class="st12" d="M700.7,238c-.8-1.9-1.9-3.7-3.4-5-5.3-4.9-16.7-4.5-20.7,2.1-2.2,3.6-1.1,8.3.5,12.2l3.2,7.1c4.5,2.4,10.2,2.5,14.8.3,3.8-1.9,6.5-5.4,6.7-9.8,0-2.2-.3-4.6-1.2-6.8h0Z"/>
  <path class="st23" d="M653.9,279.1c1.1-3.3,6.3-4.5,8.9-2.5,6.2,4.7,0,16.5-7,15.7-2-.2-4.4-1.8-4.4-4.1"/>
  <path class="st6" d="M661.6,282.3l-7.7,3.6"/>
  <path class="st6" d="M658.3,276c-1.7.4-3.4,1.4-4.6,2.8"/>
  <path class="st6" d="M663.6,288.2c-1.7,2.4-4.5,4.7-7.6,4.2-2.1-.3-4.2-1.9-4.4-4.3"/>
  <path class="st6" d="M636.3,303.7s7.3-.3,14.6-5.3"/>
  <path class="st6" d="M628.7,273.7c-1.1,2-2.3,4.1-4.2,5.4-.4.3-.9.6-1.3,1-.5.6-.7,1.4-.6,2.2.2.8.7,1.5,1.4,1.8"/>
  <path class="st6" d="M625.5,288.9c1.2,1,2.9,1.3,4.3.6,1.7-.9,1.8-3.2,1.8-4.9"/>
  <path class="st6" d="M637.2,269.4c1.3-.3,2.6-.3,3.9,0,1.3.3,2.5,1,3.3,2,1,1.3,1.3,3,1.6,4.6"/>
  <path class="st6" d="M623.1,264.6c1.2-.9,2.9-.9,4.2-.3,1.3.6,2.3,1.9,2.7,3.4"/>
  <path d="M639.3,276.7c-.5,1-1.5,1.6-2.2,1.2-.7-.4-1-1.5-.5-2.5.5-1,1.5-1.6,2.2-1.2s1,1.5.5,2.5Z"/>
  <path d="M625.6,272.2c-.5,1-1.5,1.6-2.2,1.2-.7-.4-1-1.5-.5-2.5.5-1,1.5-1.6,2.2-1.2.7.4,1,1.5.5,2.5Z"/>
  <path class="st13" d="M639.3,172.4s-12.7,5.8-21.3,9.7c-4.8,2.2-12.9,8.2-15.7,12.7-3.5,5.8-4.4,13-4,18.9.3,3.9,2.1,8.4,4.7,12.6,1.7,2.8,3.6,5.8,5.2,5.4,1.6-.4,1-4.3,1-4.3,0,.2,1.9,4,2.3,4.3.6.4,1.3.7,1.9.4.8-.4,1.4-.9,1.8-1.7.3-.7.4-1.5.4-2.2,0-.7,0-2.5,0-3.2.4.8.7,3.3,1.4,3.1.7-.1,1.8-.7,2.4-1.4,1.2-1.4,1.8-3.2,2.4-5,0,.4,0,.9.2,1.3.2.4.5.7.9.8.5,0,2.7-1.6,3-2,1.4-1.9,1.9-4.4,2.9-6.4.8-1.7,1.6-3,2.8-4.5,1.1-1.4,2.8-3.1,4.3-3.9,3.2-1.7,5.2-2.2,8.5-3.7,2.8-1.3,5.5-2.9,7.4-5.4"/>
  <path class="st6" d="M621.4,222.3c.2-2.8.6-5.6,1-8.3.3-1.8.6-3.7,1.4-5.4,1.2-2.8,3.4-5,5.5-7.2"/>
  <path class="st6" d="M615.9,225.5c-1.1-4.6-1-9.5-.8-14.2,0-1.3,0-2.6.4-3.9.5-2.2,1.9-4.1,3.2-6"/>
  <path class="st6" d="M609.3,228.3c-1.5-4.6-3-9.3-3.4-14.1,0-.9-.1-1.9,0-2.8.1-3.5,1.2-6.9,3-9.9"/>
  <path class="st21" d="M650.1,103.4l22.4,42.2-50,34.2,32.9,25.9s56.1-18.2,71.3-27.3c12-7.1,17.1-25.6-6-55.7-23.1-30.1-39-48-43.8-53-10.2-10.8-22.3-15.3-33.6-9.6"/>
  <path class="st6" d="M650.1,103.4l22.4,42.2-50,34.2"/>
  <path class="st6" d="M651.4,194.1c0,.9-.7,1.7-1.7,1.7s-1.7-.7-1.7-1.7.7-1.7,1.7-1.7,1.7.7,1.7,1.7Z"/>
  <path class="st6" d="M660,190.5c.9,0,1.7-.8,1.7-1.7s-.7-1.7-1.7-1.7-1.7.8-1.7,1.7.7,1.7,1.7,1.7Z"/>
  <path class="st6" d="M640.1,193.7c.2.1,21.5-10.6,21.5-10.6"/>
  <path class="st6" d="M641.3,166.9c.2-.1,38.4,30.5,38.4,30.5"/>
  <path class="st6" d="M671.2,146c4.7-1.8,9.4-3.8,14.4-4.6,5.4-.8,10.8-.5,16.2-.2"/>
  <path class="st6" d="M655.4,205.7l64.7-23.5"/>
  <path class="st10" d="M666.7,49.6c-12.9-12.1-26.1-24.2-41.4-33.2-28.3-16.7-67.8-14.1-87.3-2-15,9.3-22.9,20.9-32.5,35.3-12.1,18-24.7,37.3-44.5,45.9-9.7,4.2-20.3,5.5-30.7,7.5-10.4,2-20.9,5.1-28.9,12-7.9,7-12.4,18.8-8.2,28.4,3.4,7.6,11.6,12.3,19.9,12.6s16.4-3.6,22.3-9.4c15.2-14.7,22.3-53.3-5.8-64.4"/>
  <path class="st4" d="M340.5,79.5c1.8-4,3.9-8.1,7-11.2,3.2-3.1,7.7-5.1,12-4.3,2.2.4,4.4,1.6,6.6,1.6,3.1,0,5.8-2.5,7.3-5.3,1.4-2.8,1.8-6,2.4-9.1.9-4.9,2.4-10,5.8-13.7,3.4-3.7,9.1-5.7,13.6-3.5"/>
  <path class="st2" d="M348.1,31c6.2,0,11.2-5,11.2-11.2s-5-11.2-11.2-11.2-11.2,5-11.2,11.2,5,11.2,11.2,11.2Z"/>
  <path class="st31" d="M680.1,22.9c0,2.7-2.2,4.8-4.8,4.8s-4.8-2.2-4.8-4.8,2.2-4.8,4.8-4.8,4.8,2.2,4.8,4.8Z"/>
  <path class="st22" d="M676.3,367.1c4.2,0,7.7,3.4,7.7,7.7v135.7c0,4.2-3.4,7.7-7.7,7.7h-219.8c-4.2,0-7.7-3.4-7.7-7.7v-135.7c0-4.2,3.4-7.7,7.7-7.7h219.8ZM676.3,365.3h-219.8c-5.2,0-9.5,4.3-9.5,9.5v135.7c0,5.2,4.3,9.5,9.5,9.5h219.8c5.2,0,9.5-4.3,9.5-9.5v-135.7c0-5.2-4.3-9.5-9.5-9.5Z"/>
  <path class="st17" d="M448.8,387.5h235.2v122.9c0,4.2-3.4,7.7-7.7,7.7h-219.8c-4.2,0-7.7-3.4-7.7-7.7v-122.9Z"/>
  <path class="st5" d="M466.8,377.9c0,2.4-2,4.4-4.4,4.4s-4.4-2-4.4-4.4,2-4.4,4.4-4.4,4.4,2,4.4,4.4Z"/>
  <path class="st5" d="M483.8,377.9c0,2.4-2,4.4-4.4,4.4s-4.4-2-4.4-4.4,2-4.4,4.4-4.4,4.4,2,4.4,4.4Z"/>
  <path class="st5" d="M448.8,387.5h235.2"/>
  <path class="st26" d="M651,488.8c-11.7-13-25.3-19.4-32.2-17.8-10.2,2.3-8.3,28.2-8,38.7-4.9-5.7-11-10.3-17.8-13.6-5.1-2.5-10.9-4.1-16.4-2.8-5.5,1.3-10.3,6.5-9.7,12.1-12.8-19-30.5-34.8-50.8-45.3-12.9-6.6-47.9-20.5-53.9-6.1-6.6,15.7,30.7,64.2,30.7,64.2h180.8s-12.2-17.7-22.7-29.4h0Z"/>
  <path class="st15" d="M425,350.4c-6.6-7-13-20.4-14.8-27.6-1.6-6.3-3-12.8-6-18.6-.8-1.6-4.3-5.2-3-7.1,2.5-3.8,8.6,1.2,10.2,3.5.6.8,2.7,4.2,3.7,4.4,1.1.2,1.5-3.9,1.6-5.6.5-6.7.5-14.1,0-20.9-.6-7,.4-13.2,2.6-13.5,2.2-.3,2.1,1,2.5,1.4.4-2.2,2.4-4.9,3.7-4.1.8.5,1.1,1.4,1.2,2.4.1.9.6,2.6.6,2.6,0,0,1.3-4.7,3.6-2.1,1.2,1.4,2.9,8.5,4.1,10.8-.1-1.5-.5-2.3,0-4.1.3-1,.8-1.7,1.8-1.2.6.3.8.9,1,1.5,1.2,3.2,4,8.4,5,11.7,1.1,3.4,2.2,6.8,3.2,10.2,2,6.4,4,13.1,5.5,19.8,1.3,6.2,6.3,21.4,6.3,21.4"/>
  <path class="st6" d="M421.9,266.8c.6,3.7,1.9,8.3,2.7,12.5,1.1,6,1.5,11.5,2.4,16.7"/>
  <path class="st6" d="M427.8,267.4c.7,3.1,1.9,7.5,2.7,11,1.4,6,2.4,11.3,3.5,16.5"/>
  <path class="st6" d="M435.1,276c1.7,5.7,4.3,12.2,6.2,19.4"/>
  <path class="st6" d="M415.9,304.7c-.4,3-.7,6.2-2.7,8.8"/>
  <path class="st20" d="M649.7,518.1c-2.3-6.3-4.9-12.9-8.4-18.7-3.5-5.8-8.2-11-14.1-14.6-2.6-1.6-5.5-2.9-8.4-4.1-7.7-3.4-15.4-6.8-23-10.2l-37.7-14.7c-2.3-2.2-4.7-4.3-7-6.5-4.5-4.2-9-8.4-13.4-12.6-.2-.2-.3-.3-.5-.5-34.1-32.5-59.4-68.9-81.6-111.3l-39.8,17.5s17.2,58.6,33.6,83.5c21.6,32.9,46.6,62.8,57.9,72.3,2,6.8,4.3,13.4,6.9,20h135.5Z"/>
  <path class="st6" d="M422.3,362.5l42.7-20.5"/>
  <path class="st6" d="M424.4,338.6l14.4,31.2"/>
  <path class="st3" d="M437.9,345.2c0,1.6-1.3,2.8-2.8,2.8s-2.8-1.3-2.8-2.8,1.3-2.8,2.8-2.8,2.8,1.3,2.8,2.8Z"/>
  <path class="st3" d="M591.7,517.3c2-2.6,3.9-5.1,5.9-7.7,2.1-2.8,4.2-5.5,6.6-8,7-7.4,16.4-12.6,26.5-13.7"/>
  <path class="st3" d="M506.1,494.5c0-10.2,3.4-20.3,9.3-28.6,7.4-10.5,18.3-18,31.4-18.4"/>
  <path class="st6" d="M507.1,497.7c-1.9-5.6-3-11.9-5.9-17"/>
  <path class="st15" d="M546.2,451.7l-2.5,31.3s10.5,10.7,25,3.7c14.5-7,25-20.3,25-20.3l-4.7-19.4"/>
  <path class="st15" d="M603.7,412.7c-1.5-4.6-4.2-8.8-7.9-11.8-8.9-7.3-18.6-7.1-28.2-1.5-8.3,4.9-19.6,12.5-26,19.9-6.5,7.6-10.9,17-4.2,25.9,10.7,14.3,40.7,9.4,55.1-2.3,5.8-4.8,11.3-12.5,12.2-20.1.4-3.4,0-6.9-1.1-10.1h0Z"/>
  <path class="st15" d="M565.8,403.4c-4.8,2.4-10,3.1-15.2,3.7-2.5.3-5.8,1.1-5.4,4.4.3,2.1,2.1,4,3.7,5.3"/>
  <path class="st11" d="M545,435.9s.9-2,1.3-2.9c.8-1.9-1.9-3.2-3.2-3.8-.9-.5-1.4-.9-2.4-.3-.2.2-1.6,1.5-1.9,1.2,0,0-2.5-2.9-2.5-2.9-1.9,3-3.2,8.8-2.9,12.2.3,3.4,1.6,6.8,4.1,9.3,1,1,2.5,2.4,3.7,3.1,9.9,5.9,22.2,5.5,32.9,1.3,3.3-1.3,6.5-3,8.9-5.6-32.8-.5-38-11.6-38-11.6h0Z"/>
  <path class="st11" d="M584.1,433.7c-.1,0-.3,0-.4,0-2.2-.4-4.4,0-6.5-.7-1.7-.6-3.4-1.7-4.3-3.2-1.1-1.8.4-2.9,1.9-3.8,2.2-1.2,4.4-2.6,6.2-4.4,3-2.9,4.5-7.1,3.3-11.2-1.4-4.4-5.8-7-9.2-9.9-3.3-2.7-7.4-6.9-6.1-11.6,1.4-4.7,5.9-6.4,10.4-5.8,2.4.4,4.9,1,7.3.7,1.2-.2,2.4-.6,3.6-.9,3.7-.8,8,.4,10.2,3.5,1.6,2.2,2.2,5.4,4.7,6.6,1.2.6,2.6.6,3.9.9,2.6.6,4.8,2.6,5.9,5.1,1.1,2.5,1,5.4,0,7.9-1.7,4.5-4.3,6.8-2.2,11.7,4.9,11.6,7,25.8-4.7,34.1-3.1,2.2-6.9,3.3-9.5,6.1-1.6,1.7-2.9,4.2-5.2,4.4-1.6.2-3.1-.8-4.1-2-1-1-1.7-2.2-2.5-3.5-1-1.7-2.1-3.4-2.3-5.4-.3-2.8,1.1-5.4,2.5-7.9,1.2-2.3,3.7-7.2.8-9.1-1-.7-2.3-1.2-3.5-1.5h0Z"/>
  <path class="st11" d="M576.9,408.5c-.7-2.2-2.1-4.5-4.2-3.4-.5.3-.8.8-.9,1.4,0,.6,0,1.1.1,1.7.5,2.7,1,5.4,2.4,7.7.3.5.6.9,1.1,1.2,3.3,1.6,1.8-7.2,1.4-8.5Z"/>
  <path class="st22" d="M556.4,423.6l-9.2-2.1s-.9,7.9,3,8.7c3.9.8,6.2-6.6,6.2-6.6h0Z"/>
  <path class="st6" d="M546.6,414.3c.8,1,1.8,1.8,3,2.2"/>
  <path class="st6" d="M556.8,406.3c3.5-.5,6.8-1.7,9.8-3.4"/>
  <path class="st15" d="M582,434c3.4-2.6,9.5-.1,10.8,3.7,3,9.1-11.6,16.8-18,11.1-1.8-1.6-3.2-4.9-1.6-7.2"/>
  <path class="st6" d="M587.5,442.7l-10.4-1.8"/>
  <path class="st6" d="M588.6,433.9c-2.1-.8-4.4-.9-6.6-.4"/>
  <path class="st6" d="M573.4,441.7c-1.2,2-.8,4.4.5,6.2,2.3,3.3,7.8,3.4,11.2,1.9"/>
  <path d="M567.3,416c-1.3,1-2.9,1-3.6,0-.7-.9-.2-2.5,1.1-3.4,1.3-1,2.9-1,3.6,0,.7.9.2,2.5-1.1,3.4Z"/>
  <path class="st20" d="M598.8,465.4c-33,3.9-53.2,19-53.2,19l5.7,26.2c29.5-28.1,58.3-34.4,58.6-34.7l-11.1-10.5h0Z"/>
  <path class="st20" d="M544.6,467.7l-12.4,8s-2.1,22.3,1.9,34.2l11.5-25.4-1-16.8h0Z"/>
  <path class="st6" d="M545.6,484.5l5.7,26.2c29.5-28.1,58.3-34.4,58.6-34.7"/>
  <path class="st6" d="M544.6,467.7l-12.4,8s-2.1,22.3,1.9,34.2l11.5-25.4"/>
  <path class="st6" d="M422.1,396.8c3.3,11.9,8.3,23.3,14.7,33.8"/>
  <path class="st6" d="M423.2,417.1c2.1,7.6,4.6,15.1,7.5,22.5"/>
  <path class="st6" d="M627.1,433.1c.2,5.4-1.9,10.8-5.2,15.2-3.2,4.4-7.5,7.8-12.1,10.8"/>
  <path class="st6" d="M623.4,458.9c4.5-2.6,8.4-6.3,11.2-10.8"/>
</svg>